<svg width="58" height="58" viewBox="0 0 58 58" fill="none" xmlns="http://www.w3.org/2000/svg">
<g clip-path="url(#clip0_173_32580)">
<path d="M52.0261 45.1048L45.1048 52.0261C44.9236 52.2061 44.6786 52.3072 44.4233 52.3072C44.1679 52.3072 43.9229 52.2061 43.7418 52.0261L19.5654 27.8594L27.8594 19.5654L52.0261 43.7418C52.2061 43.9229 52.3072 44.1679 52.3072 44.4233C52.3072 44.6786 52.2061 44.9236 52.0261 45.1048Z" fill="#3F51B5"/>
<path d="M52.0258 43.7418L27.8592 19.5654L26.4092 21.0154L49.1258 43.7418C49.3059 43.9229 49.4069 44.1679 49.4069 44.4233C49.4069 44.6786 49.3059 44.9237 49.1258 45.1048L42.973 51.2576L43.7463 52.0309C43.9275 52.211 44.1725 52.312 44.4278 52.312C44.6832 52.312 44.9282 52.211 45.1093 52.0309L52.0307 45.1096C52.1202 45.0195 52.1912 44.9126 52.2394 44.7951C52.2876 44.6776 52.3122 44.5517 52.3118 44.4247C52.3113 44.2976 52.2858 44.1719 52.2368 44.0548C52.1877 43.9376 52.116 43.8312 52.0258 43.7418Z" fill="#283593"/>
<path d="M54.7906 50.6243L54.7809 50.6436L50.6436 54.7809L50.6243 54.7906C50.4456 54.972 50.2327 55.116 49.9979 55.2143C49.763 55.3127 49.511 55.3633 49.2564 55.3633C49.0018 55.3633 48.7498 55.3127 48.515 55.2143C48.2802 55.116 48.0672 54.972 47.8886 54.7906L45.1143 52.0163L52.0163 45.1143L54.7906 47.8886C54.972 48.0672 55.116 48.2802 55.2143 48.515C55.3127 48.7498 55.3633 49.0018 55.3633 49.2564C55.3633 49.511 55.3127 49.763 55.2143 49.9979C55.116 50.2327 54.972 50.4456 54.7906 50.6243Z" fill="#02A9F4"/>
<path d="M54.7909 47.8886L52.0165 45.1143L50.5665 46.5643L51.8909 47.8886C52.0722 48.0672 52.2163 48.2802 52.3146 48.515C52.4129 48.7498 52.4636 49.0018 52.4636 49.2564C52.4636 49.511 52.4129 49.763 52.3146 49.9979C52.2163 50.2327 52.0722 50.4456 51.8909 50.6243L51.8812 50.6436L47.8115 54.7133L47.8889 54.7906C48.0675 54.972 48.2804 55.116 48.5152 55.2143C48.7501 55.3127 49.0021 55.3633 49.2567 55.3633C49.5113 55.3633 49.7633 55.3127 49.9981 55.2143C50.233 55.116 50.4459 54.972 50.6245 54.7906L50.6439 54.7809L54.7812 50.6436L54.7909 50.6243C54.9722 50.4456 55.1163 50.2327 55.2146 49.9979C55.3129 49.763 55.3636 49.511 55.3636 49.2564C55.3636 49.0018 55.3129 48.7498 55.2146 48.515C55.1163 48.2802 54.9722 48.0672 54.7909 47.8886Z" fill="#0377BC"/>
<path d="M56.1826 56.1439L56.1439 56.1826C55.5982 56.7257 54.8597 57.0307 54.0897 57.0307C53.3198 57.0307 52.5812 56.7257 52.0356 56.1826L50.6436 54.7809L54.7809 50.6436L56.1826 52.0356C56.7257 52.5812 57.0307 53.3198 57.0307 54.0897C57.0307 54.8597 56.7257 55.5982 56.1826 56.1439Z" fill="#607D8B"/>
<path d="M27.8591 19.5651L19.5651 27.8591C19.3826 28.0402 19.1359 28.1418 18.8788 28.1418C18.6217 28.1418 18.375 28.0402 18.1924 27.8591L2.94811 12.6148C1.68062 11.3449 0.96875 9.62398 0.96875 7.82977C0.96875 6.03557 1.68062 4.31467 2.94811 3.04477L3.04477 2.94811C4.31467 1.68062 6.03557 0.96875 7.82977 0.96875C9.62398 0.96875 11.3449 1.68062 12.6148 2.94811L27.8591 18.1924C28.0402 18.375 28.1418 18.6217 28.1418 18.8788C28.1418 19.1359 28.0402 19.3826 27.8591 19.5651Z" fill="#02A9F4"/>
<path d="M27.8592 18.192L12.6149 2.94769C11.812 2.14532 10.8199 1.5582 9.73011 1.24057C8.64037 0.922937 7.48815 0.885034 6.37988 1.13036C7.64319 1.40282 8.80112 2.03381 9.71488 2.94769L24.9592 18.192C25.1403 18.3745 25.242 18.6212 25.242 18.8784C25.242 19.1355 25.1403 19.3822 24.9592 19.5647L17.4289 27.095L18.1925 27.8587C18.3751 28.0398 18.6218 28.1414 18.8789 28.1414C19.136 28.1414 19.3827 28.0398 19.5652 27.8587L27.8592 19.5647C28.0403 19.3822 28.142 19.1355 28.142 18.8784C28.142 18.6212 28.0403 18.3745 27.8592 18.192Z" fill="#0377BC"/>
<path d="M37.5801 47.2422L38.9469 45.8753L44.4144 51.3428L43.0475 52.7097L37.5801 47.2422Z" fill="#3F51B5"/>
<path d="M41.0262 50.2585C40.7698 50.2598 40.5234 50.1592 40.3412 49.9788C40.1591 49.7984 40.056 49.5531 40.0547 49.2967C40.0534 49.0403 40.154 48.7939 40.3344 48.6117C40.5148 48.4296 40.7602 48.3265 41.0165 48.3252H41.0262C41.2826 48.3252 41.5284 48.427 41.7097 48.6083C41.891 48.7896 41.9929 49.0355 41.9929 49.2919C41.9929 49.5482 41.891 49.7941 41.7097 49.9754C41.5284 50.1567 41.2826 50.2585 41.0262 50.2585Z" fill="#3A3A3A"/>
<path d="M56.0283 50.5193C56.2973 49.9798 56.3891 49.3691 56.2905 48.7744C56.1919 48.1797 55.908 47.6313 55.4792 47.2075L53.2008 44.929C53.2912 44.6017 53.2935 44.2563 53.2074 43.9279C53.1213 43.5994 52.95 43.2995 52.7107 43.0585L29.0351 19.3839C29.1258 19.0565 29.1282 18.7109 29.0421 18.3822C28.9561 18.0535 28.7845 17.7534 28.545 17.5124L13.3007 2.26811C12.5826 1.54996 11.73 0.980294 10.7917 0.591633C9.85347 0.202971 8.84783 0.00292969 7.83224 0.00292969C6.81665 0.00292969 5.811 0.202971 4.87272 0.591633C3.93445 0.980294 3.08191 1.54996 2.3638 2.26811L2.26714 2.36478C1.54899 3.08289 0.979318 3.93542 0.590656 4.8737C0.201995 5.81198 0.00195312 6.81762 0.00195312 7.83321C0.00195312 8.8488 0.201995 9.85444 0.590656 10.7927C0.979318 11.731 1.54899 12.5835 2.26714 13.3016L4.3938 15.4283L3.00664 16.8203C2.82618 17.0007 2.68303 17.2148 2.58536 17.4505C2.48769 17.6862 2.43742 17.9388 2.43742 18.1939C2.43742 18.4491 2.48769 18.7017 2.58536 18.9374C2.68303 19.1731 2.82618 19.3872 3.00664 19.5676L20.2674 36.8235C20.6319 37.1875 21.126 37.392 21.6411 37.392C22.1562 37.392 22.6502 37.1875 23.0147 36.8235L23.7049 36.1333C23.7947 36.0436 23.866 35.937 23.9146 35.8197C23.9632 35.7025 23.9883 35.5767 23.9883 35.4498C23.9884 35.3228 23.9634 35.1971 23.9149 35.0797C23.8663 34.9624 23.7951 34.8558 23.7054 34.766C23.6156 34.6762 23.5091 34.6049 23.3918 34.5563C23.2745 34.5077 23.1488 34.4826 23.0218 34.4826C22.8948 34.4825 22.7691 34.5075 22.6518 34.556C22.5345 34.6046 22.4278 34.6758 22.338 34.7655L21.6343 35.4567L4.3735 18.1823L5.76164 16.7942L17.5124 28.545C17.6917 28.7247 17.9048 28.8672 18.1394 28.9642C18.374 29.0613 18.6254 29.111 18.8793 29.1105C19.05 29.1078 19.2197 29.0828 19.3839 29.0361L37.5901 47.2423C37.6793 47.3346 37.7859 47.4082 37.9039 47.4589C38.0218 47.5096 38.1487 47.5362 38.277 47.5374C38.4054 47.5385 38.5327 47.514 38.6515 47.4654C38.7703 47.4168 38.8782 47.345 38.969 47.2543C39.0597 47.1635 39.1315 47.0556 39.1801 46.9368C39.2287 46.818 39.2532 46.6907 39.252 46.5623C39.2509 46.434 39.2243 46.3071 39.1736 46.1892C39.1229 46.0713 39.0493 45.9646 38.957 45.8754L20.9373 27.8548L27.8548 20.9364L51.3448 44.4264L51.339 44.4322L44.4351 51.3361L44.4293 51.3419C44.247 51.1658 44.0028 51.0684 43.7493 51.0706C43.4959 51.0728 43.2534 51.1745 43.0742 51.3537C42.895 51.5329 42.7933 51.7754 42.7911 52.0288C42.7889 52.2823 42.8863 52.5265 43.0624 52.7088C43.3009 52.9517 43.6007 53.1255 43.9301 53.2118C44.2594 53.2981 44.6059 53.2936 44.9329 53.1989L47.2113 55.4773C47.6351 55.906 48.1835 56.19 48.7783 56.2886C49.373 56.3872 49.9837 56.2954 50.5231 56.0264L51.3612 56.8645C51.7203 57.2236 52.1466 57.5084 52.6157 57.7027C53.0848 57.897 53.5877 57.9971 54.0955 57.9971C54.6032 57.9971 55.1061 57.897 55.5752 57.7027C56.0443 57.5084 56.4706 57.2236 56.8297 56.8645L56.8703 56.8239C57.2293 56.4648 57.5142 56.0386 57.7085 55.5694C57.9028 55.1003 58.0029 54.5975 58.0029 54.0897C58.0029 53.5819 57.9028 53.079 57.7085 52.6099C57.5142 52.1408 57.2293 51.7145 56.8703 51.3554L56.0283 50.5193ZM3.63497 11.9338C3.09628 11.3952 2.66897 10.7558 2.37743 10.052C2.08589 9.34828 1.93584 8.594 1.93584 7.83225C1.93584 7.0705 2.08589 6.31621 2.37743 5.61245C2.66897 4.9087 3.09628 4.26927 3.63497 3.73068L3.73164 3.63401C4.27023 3.09533 4.90966 2.66802 5.61341 2.37648C6.31716 2.08494 7.07145 1.93488 7.8332 1.93488C8.59495 1.93488 9.34924 2.08494 10.053 2.37648C10.7567 2.66802 11.3962 3.09533 11.9348 3.63401L27.1791 18.8783L27.1723 18.8851L18.887 27.1704L18.8803 27.1772L3.63497 11.9338ZM48.5753 54.1124L46.4825 52.0205L52.0205 46.4825L54.1124 48.5753C54.2933 48.7565 54.3949 49.0022 54.3949 49.2583C54.3949 49.5144 54.2933 49.76 54.1124 49.9412L49.9412 54.1114C49.7572 54.287 49.5128 54.3851 49.2584 54.3852C49.0041 54.3854 48.7595 54.2877 48.5753 54.1124ZM55.4995 55.4589L55.4589 55.4995C55.0906 55.8513 54.6009 56.0476 54.0916 56.0476C53.5823 56.0476 53.0926 55.8513 52.7242 55.4995L52.007 54.7813L54.7813 52.007L55.4995 52.7252C55.6791 52.9048 55.8216 53.1179 55.9188 53.3525C56.016 53.5871 56.0661 53.8386 56.0661 54.0926C56.0661 54.3465 56.016 54.598 55.9188 54.8326C55.8216 55.0672 55.6791 55.2804 55.4995 55.4599V55.4589Z" fill="#3A3A3A"/>
</g>
<defs>
<clipPath id="clip0_173_32580">
<rect width="58" height="58" fill="white"/>
</clipPath>
</defs>
</svg>
