<svg width="58" height="58" viewBox="0 0 58 58" fill="none" xmlns="http://www.w3.org/2000/svg">
<g clip-path="url(#clip0_171_31659)">
<path d="M23.8382 33.0858L30.1452 26.7783C34.2039 31.0441 38.0501 35.4027 40.5498 38.6334V38.6348L35.8655 43.6306C32.5976 41.1141 28.1694 37.2157 23.8347 33.0893L23.8382 33.0858Z" fill="#596C76"/>
<path d="M37.6279 50.1931C42.9411 55.5054 51.5544 55.5054 56.8662 50.1931C55.2466 49.4099 54.143 49.4586 52.2288 47.5474C50.0158 45.3336 49.3436 42.6706 47.2475 40.5744C44.4071 37.7318 40.8148 37.3875 37.6279 40.5744C34.9685 43.2374 34.976 47.5412 37.6279 50.1931Z" fill="#FFDA2D"/>
<path d="M1.33843 4.284C-0.43203 6.0549 7.82155 17.1799 19.7745 29.1328C21.0918 30.4501 22.4578 31.7807 23.834 33.0892L30.1445 26.7782C28.8343 25.402 27.5023 24.036 26.1872 22.72C14.2343 10.7671 3.10933 2.51354 1.33843 4.284Z" fill="#FF7CB9"/>
<path d="M43.4894 53.9237C43.4894 54.5499 43.997 55.0574 44.6231 55.0574C45.2493 55.0574 45.7568 54.5499 45.7568 53.9237C45.7568 53.2976 45.2493 52.79 44.6231 52.79C43.997 52.79 43.4894 53.2976 43.4894 53.9237Z" fill="#3A3A3A"/>
<path d="M57.9775 49.9687C58.0528 50.3408 57.9364 50.7258 57.6682 50.9944C55.5455 53.1167 52.8693 54.5247 49.9275 55.0659C49.3111 55.1792 48.7208 54.7716 48.6075 54.1565C48.4942 53.5406 48.9013 52.9498 49.5173 52.8361C51.4245 52.4852 53.2003 51.7033 54.7344 50.5479C54.4676 50.4072 53.1896 50.1085 51.4267 48.3482C50.2032 47.1238 49.4332 45.8114 48.6885 44.5418C48.0141 43.3926 47.3774 42.3072 46.4459 41.3757C43.9785 38.9065 41.1124 38.6932 38.4299 41.3753C36.1931 43.6152 36.244 47.2057 38.4295 49.3912C39.0618 50.0236 39.7601 50.5873 40.5044 51.0665C41.031 51.4055 41.1828 52.1069 40.8438 52.6334C40.5048 53.1596 39.8035 53.3118 39.2769 52.9728C38.3972 52.4064 37.5728 51.7409 36.8263 50.9944C35.0138 49.1819 34.1978 46.5933 34.6089 44.0891C29.7206 40.2469 23.4875 34.4483 18.9731 29.9343C13.1541 24.1154 8.01446 18.3022 4.5001 13.5657C2.79026 11.2607 -1.49937 5.51875 0.537033 3.48235C2.57299 1.44683 8.31094 5.73204 10.6204 7.44497C15.3569 10.9593 21.1701 16.0995 26.9895 21.9184C31.4127 26.3456 37.1161 32.457 40.9739 37.337C43.4037 36.8015 45.941 37.6631 48.0491 39.7725C49.1859 40.9093 49.9271 42.1727 50.6439 43.3944C51.3475 44.5936 52.0117 45.7264 53.0295 46.745C54.7004 48.4128 55.5367 48.3186 57.2943 49.143C57.6461 49.2863 57.9028 49.5961 57.9775 49.9687ZM38.7822 38.2242C36.5666 35.4665 33.5013 31.9898 30.1228 28.4037L25.4593 33.0668C29.0648 36.4648 32.5672 39.5499 35.3621 41.7921C35.7391 41.0509 36.232 40.3677 36.8263 39.7725C37.4551 39.1437 38.1091 38.6269 38.7822 38.2242ZM25.3863 23.5216C20.0081 18.1434 14.5706 13.2958 10.0752 9.87166C5.00101 6.00639 2.92832 5.31653 2.25616 5.20104C2.37165 5.8732 3.06152 7.94589 6.92678 13.0201C10.3509 17.5155 15.1985 22.953 20.5762 28.3311C21.6263 29.3808 22.7135 30.4445 23.8167 31.5034L28.559 26.7611C27.5014 25.6606 26.4377 24.5734 25.3863 23.5216Z" fill="#3A3A3A"/>
</g>
<defs>
<clipPath id="clip0_171_31659">
<rect width="58" height="58" fill="white" transform="matrix(-1 0 0 1 58 0)"/>
</clipPath>
</defs>
</svg>
