<svg width="48" height="46" viewBox="0 0 48 46" fill="none" xmlns="http://www.w3.org/2000/svg">
<path d="M8.33442 43.5604L-9.29304 25.9328C-9.76951 25.4563 -9.76951 24.6838 -9.29304 24.2073L-2.18691 17.1012L3.50513 13.686L5.78197 9.13228L12.6125 2.30176L31.9655 21.6547L25.1349 28.4852L19.4429 31.9004L17.1661 36.4541L10.0599 43.5603C9.58346 44.0368 8.81088 44.0368 8.33442 43.5604Z" fill="#0681AF"/>
<path d="M12.6127 2.30176L10.3415 4.57305L23.0156 17.2472C24.8273 19.0589 24.8273 21.9962 23.0156 23.8078L11.0256 35.7979C8.86008 37.9634 5.86515 38.7937 3.06348 38.2888L8.33491 43.5603C8.81137 44.0367 9.58395 44.0367 10.0604 43.5603L17.1665 36.4541L19.4434 31.9004L25.1354 28.4852L31.9658 21.6547L12.6127 2.30176Z" fill="#017297"/>
<path d="M5.78223 9.13184L25.1349 28.4852L17.1659 36.4539L-2.18677 17.1006L5.78223 9.13184Z" fill="#FE0364"/>
<path d="M13.7676 33.0557L21.7363 25.0867L25.1349 28.4852L17.1662 36.4542L13.7676 33.0557Z" fill="#E30256"/>
<path d="M34.1532 21.5647L12.7027 0.114314C12.6909 0.102531 12.6769 0.0931844 12.6615 0.0868075C12.6461 0.0804306 12.6296 0.0771484 12.613 0.0771484C12.5963 0.0771484 12.5798 0.0804306 12.5644 0.0868075C12.549 0.0931844 12.535 0.102531 12.5232 0.114314L10.4258 2.21172C10.4141 2.2235 10.4047 2.23749 10.3983 2.25288C10.392 2.26827 10.3887 2.28477 10.3887 2.30144C10.3887 2.3181 10.392 2.3346 10.3983 2.34999C10.4047 2.36539 10.4141 2.37937 10.4258 2.39115L17.1666 9.13195C18.1097 10.075 18.1097 11.6041 17.1666 12.5472C16.2236 13.4902 16.2236 15.0193 17.1666 15.9624C18.1097 16.9054 19.6388 16.9054 20.5818 15.9624C21.5249 15.0193 23.054 15.0193 23.997 15.9624L31.8762 23.8415C31.888 23.8533 31.902 23.8627 31.9174 23.869C31.9328 23.8754 31.9493 23.8787 31.9659 23.8787C31.9826 23.8787 31.9991 23.8754 32.0145 23.869C32.0299 23.8627 32.0439 23.8533 32.0556 23.8415L34.153 21.7441C34.1648 21.7323 34.1742 21.7184 34.1806 21.703C34.187 21.6876 34.1903 21.6711 34.1903 21.6544C34.1903 21.6378 34.187 21.6213 34.1806 21.6059C34.1743 21.5905 34.1649 21.5765 34.1532 21.5647Z" fill="#B4D2E2"/>
<path d="M44.2358 41.055C45.5696 41.055 46.6507 39.9739 46.6507 38.6401V33.4438C46.6507 30.7526 46.1207 28.0879 45.0908 25.6016C44.061 23.1153 42.5515 20.8562 40.6485 18.9533C36.6186 14.9233 31.5126 12.1401 25.9419 10.9366L22.8584 10.2705L28.7182 16.1303C32.9843 20.3964 35.381 26.1824 35.381 32.2156V35.2618C35.381 36.151 36.1018 36.8718 36.9909 36.8718C37.8801 36.8718 38.6009 36.151 38.6009 35.2618V33.5912C38.6009 32.1568 40.335 31.4386 41.3492 32.4528C41.6511 32.7547 41.8207 33.1642 41.8208 33.5912V38.64C41.8209 39.9738 42.902 41.055 44.2358 41.055ZM36.991 44.9215C37.8802 44.9215 38.601 44.2007 38.601 43.3116V41.7016C38.601 40.8125 37.8802 40.0917 36.991 40.0917C36.1019 40.0917 35.3811 40.8125 35.3811 41.7016V43.3116C35.3811 44.2007 36.1019 44.9215 36.991 44.9215Z" fill="#FE0364"/>
<path d="M17.1661 36.4542L10.0599 43.5603C9.58346 44.0368 8.81089 44.0368 8.33442 43.5603L-9.29304 25.9328C-9.76951 25.4563 -9.76951 24.6837 -9.29304 24.2073L-2.18691 17.1011M30.8271 22.7931L25.1345 28.4857M11.4745 3.44043L5.78186 9.13191" stroke="black" stroke-width="1.69922" stroke-miterlimit="10" stroke-linecap="round" stroke-linejoin="round"/>
<path d="M11.2215 30.5089L-2.18672 17.1006L5.78216 9.13184L25.1351 28.4848L17.1663 36.4537L14.0374 33.3247M19.4431 13.6854H-3.3252" stroke="black" stroke-width="1.69922" stroke-miterlimit="10" stroke-linecap="round" stroke-linejoin="round"/>
<path d="M-3.32502 16.9056C-1.54671 16.9056 -0.105109 15.464 -0.105109 13.6857C-0.105109 11.9074 -1.54671 10.4658 -3.32502 10.4658C-5.10332 10.4658 -6.54492 11.9074 -6.54492 13.6857C-6.54492 15.464 -5.10332 16.9056 -3.32502 16.9056Z" stroke="black" stroke-width="1.69922" stroke-miterlimit="10" stroke-linecap="round" stroke-linejoin="round"/>
<path d="M40.4997 23.8079C41.2184 24.8721 41.8148 26.014 42.2777 27.2119M15.4248 2.83646L12.7027 0.114314C12.6909 0.102531 12.6769 0.0931844 12.6615 0.0868075C12.6461 0.0804306 12.6296 0.0771484 12.613 0.0771484C12.5963 0.0771484 12.5798 0.0804306 12.5644 0.0868075C12.549 0.0931844 12.535 0.102531 12.5232 0.114314L10.4258 2.21183C10.4141 2.22361 10.4047 2.2376 10.3983 2.25299C10.392 2.26839 10.3887 2.28489 10.3887 2.30155C10.3887 2.31821 10.392 2.33471 10.3983 2.3501C10.4047 2.3655 10.4141 2.37949 10.4258 2.39127L17.1666 9.13207C18.1097 10.0751 18.1097 11.6042 17.1666 12.5473C16.2236 13.4903 16.2236 15.0194 17.1666 15.9625C18.1097 16.9055 19.6388 16.9055 20.5818 15.9625C21.5249 15.0194 23.054 15.0194 23.997 15.9625L31.8762 23.8416C31.888 23.8534 31.902 23.8628 31.9174 23.8691C31.9328 23.8755 31.9493 23.8788 31.9659 23.8788C31.9826 23.8788 31.9991 23.8755 32.0145 23.8691C32.0299 23.8628 32.0439 23.8534 32.0556 23.8416L33.2644 22.6329M22.8587 10.2704L18.2623 5.67404M36.9912 44.9215C37.8803 44.9215 38.6011 44.2007 38.6011 43.3115V41.7016C38.6011 40.8124 37.8803 40.0916 36.9912 40.0916C36.1021 40.0916 35.3812 40.8124 35.3812 41.7016V43.3115C35.3812 44.2007 36.1021 44.9215 36.9912 44.9215Z" stroke="black" stroke-width="1.69922" stroke-miterlimit="10" stroke-linecap="round" stroke-linejoin="round"/>
<path d="M44.9485 25.2665C43.9236 22.9111 42.4649 20.7695 40.6485 18.9533C36.6186 14.9233 31.5126 12.1401 25.9419 10.9366L22.8584 10.2705L28.7182 16.1303C32.9843 20.3964 35.381 26.1824 35.381 32.2156V35.2618C35.381 36.151 36.1018 36.8718 36.9909 36.8718C37.8801 36.8718 38.6009 36.151 38.6009 35.2618V33.5912C38.6009 32.1568 40.335 31.4386 41.3492 32.4528C41.6511 32.7547 41.8207 33.1642 41.8208 33.5912V38.64C41.8208 39.9738 42.9019 41.0549 44.2357 41.0549C45.5695 41.0549 46.6506 39.9738 46.6506 38.64V33.4437C46.6506 31.9514 46.4878 30.4759 46.1721 29.0409" stroke="black" stroke-width="1.69922" stroke-miterlimit="10" stroke-linecap="round" stroke-linejoin="round"/>
<path d="M37.7178 25.4602C37.1707 23.4147 36.3722 21.4449 35.3408 19.5957" stroke="black" stroke-width="1.69922" stroke-miterlimit="10" stroke-linecap="round" stroke-linejoin="round"/>
</svg>
