<svg width="58" height="58" viewBox="0 0 58 58" fill="none" xmlns="http://www.w3.org/2000/svg">
<path d="M2.89953 11.0253L10.6514 3.27344L13.7521 6.37417L6.00026 14.126L2.89953 11.0253Z" fill="#FAECD8"/>
<path d="M6.00011 14.1268L13.752 6.375L37.9377 30.5607L30.1858 38.3126L6.00011 14.1268Z" fill="#FF80AC"/>
<path d="M30.1857 38.3114L37.9375 30.5596L41.0382 33.6603L33.2864 41.4121L30.1857 38.3114Z" fill="#FAECD8"/>
<path d="M44.1398 46.0641L33.2872 41.413L41.0391 33.6611L45.6902 44.5137L44.1398 46.0641Z" fill="#FF80AC"/>
<path d="M26.3103 18.932C25.8824 19.3599 25.1879 19.3599 24.76 18.932C24.3321 18.5041 24.3321 17.8095 24.76 17.3816C25.1879 16.9537 25.8824 16.9537 26.3103 17.3816C26.7382 17.8095 26.7382 18.5041 26.3103 18.932Z" fill="#3A3A3A"/>
<path d="M22.4342 15.0562L13.7521 6.37417L10.6514 3.27344L2.89953 11.0253L6.00026 14.126L30.186 38.3117L33.2867 41.4125L44.1393 46.0636L45.6897 44.5132L41.0386 33.6606L37.9378 30.5599L28.6356 21.2577" stroke="#3A3A3A" stroke-width="1.68045" stroke-miterlimit="10" stroke-linecap="round" stroke-linejoin="round"/>
<path d="M41.0391 33.6611L33.2872 41.413" stroke="#3A3A3A" stroke-width="1.68045" stroke-miterlimit="10" stroke-linecap="round" stroke-linejoin="round"/>
<path d="M37.9375 30.5596L30.1857 38.3114" stroke="#3A3A3A" stroke-width="1.68045" stroke-miterlimit="10" stroke-linecap="round" stroke-linejoin="round"/>
<path d="M13.752 6.375L6.00011 14.1268" stroke="#3A3A3A" stroke-width="1.68045" stroke-miterlimit="10" stroke-linecap="round" stroke-linejoin="round"/>
<path d="M29.4109 29.7849L14.5273 14.9014" stroke="#3A3A3A" stroke-width="1.68045" stroke-miterlimit="10" stroke-linecap="round" stroke-linejoin="round"/>
</svg>
