<svg width="18" height="18" viewBox="0 0 18 18" fill="none" xmlns="http://www.w3.org/2000/svg">
<path d="M8.90014 17.7372C8.03625 17.7372 7.33594 17.0369 7.33594 16.173V16.1641H10.4644V16.173C10.4644 17.0369 9.76404 17.7372 8.90014 17.7372Z" fill="#CECECE"/>
<path d="M10.4645 16.1641V16.1732C10.4645 17.0369 9.76414 17.7373 8.90038 17.7373C8.67577 17.7373 8.46202 17.6897 8.26855 17.6044C9.06024 17.5705 9.69941 16.9488 9.75995 16.1641H10.4645Z" fill="#BFBFBF"/>
<path d="M10.9644 16.1636H6.83607C6.64506 16.1636 6.49023 16.0087 6.49023 15.8177V15.2374C6.49023 15.0464 6.64506 14.8916 6.83607 14.8916H10.9644C11.1554 14.8916 11.3102 15.0464 11.3102 15.2374V15.8177C11.3102 16.0087 11.1554 16.1636 10.9644 16.1636Z" fill="#9C9C9C"/>
<path d="M11.3099 15.2376V15.8177C11.3099 16.0087 11.1549 16.1637 10.9639 16.1637H10.2705C10.4615 16.1637 10.6162 16.0087 10.6162 15.8177V15.2376C10.6162 15.0466 10.4615 14.8916 10.2705 14.8916H10.9639C11.1549 14.8916 11.3099 15.0466 11.3099 15.2376Z" fill="#838383"/>
<path d="M15.2819 6.64385C15.2819 3.11546 12.4182 0.255922 8.88819 0.262707C5.35312 0.269457 2.47976 3.18303 2.51995 6.71789C2.54825 9.20593 4.00055 11.3517 6.10001 12.3789C6.85549 12.7485 7.33649 13.5138 7.33649 14.3548V14.8914H10.4649V14.3549C10.4649 13.5198 10.9355 12.7511 11.6866 12.3861C13.8148 11.3517 15.2819 9.16916 15.2819 6.64385Z" fill="#FEF0AE"/>
<path d="M15.2817 6.64385C15.2817 9.16937 13.8148 11.3517 11.6863 12.3862C10.9352 12.7511 10.4647 13.5196 10.4647 14.3551V14.8914H9.67232V14.3551C9.67232 13.5197 10.1428 12.3718 10.894 12.0069C13.0224 10.9725 14.4893 9.16937 14.4893 6.64385C14.4893 3.25282 11.8445 0.479937 8.50488 0.274941C8.63152 0.26689 8.7592 0.263058 8.88795 0.262707C12.4178 0.256062 15.2817 3.11532 15.2817 6.64385Z" fill="#FEE97D"/>
<path d="M13.5938 1.94154C12.339 0.689203 10.6727 0 8.90018 0C8.89586 0 8.89143 0 8.88707 0C7.32314 0.00302344 5.80284 0.565137 4.60627 1.5828C4.49559 1.67692 4.48216 1.84296 4.57631 1.95363C4.67046 2.0643 4.83647 2.0777 4.94711 1.98362C6.04894 1.04653 7.44854 0.528961 8.88809 0.526148H8.90015C10.5322 0.526148 12.0668 1.16082 13.2221 2.31395C14.3803 3.46999 15.0182 5.00787 15.0182 6.64429C15.0182 7.81443 14.6869 8.95159 14.06 9.93287C13.4495 10.8886 12.5888 11.6552 11.571 12.1499C10.7389 12.5543 10.2012 13.42 10.2012 14.3554V14.6288H9.75237V11.7925H10.4028C11.0515 11.7925 11.5793 11.2647 11.5793 10.6159V10.555C11.5793 9.90629 11.0515 9.37849 10.4028 9.37849C9.75402 9.37849 9.22625 9.90629 9.22625 10.555V11.2663H8.57389V10.555C8.57389 9.90622 8.04613 9.37842 7.39739 9.37842C6.74865 9.37842 6.22089 9.90622 6.22089 10.555V10.6159C6.22089 11.2646 6.74869 11.7924 7.39739 11.7924H8.04778V14.6288H7.59891V14.3552C7.59891 13.4082 7.06861 12.5606 6.21498 12.1429C5.21141 11.6519 4.36035 10.8951 3.75376 9.95407C3.13139 8.98857 2.79547 7.8686 2.78236 6.71527C2.7664 5.31197 3.24248 3.93318 4.12294 2.83275C4.21368 2.7193 4.19532 2.55375 4.08188 2.46301C3.96846 2.37227 3.80291 2.39062 3.71214 2.50407C2.75599 3.69907 2.23895 5.1968 2.25628 6.72124C2.27052 7.97375 2.63544 9.19023 3.31157 10.2391C3.97008 11.2606 4.89412 12.0824 5.98379 12.6155C6.65552 12.9441 7.07283 13.6107 7.07283 14.3551V14.6287H6.83595C6.5002 14.6287 6.22707 14.9019 6.22707 15.2376V15.8179C6.22707 16.1537 6.5002 16.4268 6.83595 16.4268H7.0909C7.215 17.3145 7.97881 18 8.90011 18C9.06981 18 9.23796 17.9767 9.39986 17.9307C9.53964 17.8911 9.62078 17.7456 9.58109 17.6059C9.54143 17.4661 9.39581 17.3849 9.25621 17.4246C9.14104 17.4573 9.02122 17.4739 8.90011 17.4739C8.26958 17.4739 7.74234 17.0231 7.62387 16.4268H10.1763C10.1503 16.5576 10.1045 16.6839 10.0402 16.8005C9.96991 16.9277 10.0161 17.0877 10.1433 17.1579C10.2705 17.2282 10.4305 17.182 10.5007 17.0548C10.6081 16.8604 10.6782 16.6469 10.709 16.4268H10.9643C11.3 16.4268 11.5731 16.1537 11.5731 15.8179V15.2376C11.5731 14.9019 11.3 14.6288 10.9643 14.6288H10.7274V14.3553C10.7274 13.62 11.1488 12.94 11.801 12.623C12.9062 12.0859 13.8407 11.2536 14.5034 10.2161C15.1844 9.15001 15.5443 7.9149 15.5443 6.64421C15.5444 4.8671 14.8516 3.19697 13.5938 1.94154ZM9.7524 10.555C9.7524 10.1963 10.0442 9.90457 10.4028 9.90457C10.7614 9.90457 11.0532 10.1963 11.0532 10.555V10.6159C11.0532 10.9745 10.7615 11.2662 10.4028 11.2662H9.7524V10.555ZM8.57393 11.7924H9.22629V14.6288H8.57393V11.7924ZM7.39743 11.2663C7.0388 11.2663 6.747 10.9745 6.747 10.6159V10.555C6.747 10.1964 7.03876 9.9046 7.39743 9.9046C7.75609 9.9046 8.04782 10.1964 8.04782 10.555V11.2663L7.39743 11.2663ZM10.9643 15.1549C11.0099 15.1549 11.047 15.192 11.047 15.2376V15.8179C11.047 15.8636 11.0099 15.9007 10.9643 15.9007H6.83595C6.79031 15.9007 6.75319 15.8636 6.75319 15.8179V15.2376C6.75319 15.192 6.79031 15.1549 6.83595 15.1549H10.9643Z" fill="black"/>
<path d="M1.81792 3.60692C1.86929 3.65828 1.93661 3.68398 2.00394 3.68398C2.07126 3.68398 2.13858 3.65828 2.18995 3.60692C2.29267 3.50419 2.29267 3.33762 2.18995 3.23489L1.86704 2.91202C1.76431 2.80926 1.59774 2.80929 1.49501 2.91202C1.39229 3.01475 1.39229 3.18132 1.49501 3.28404L1.81792 3.60692Z" fill="black"/>
<path d="M15.9823 9.43544C15.8795 9.33272 15.713 9.33272 15.6102 9.43544C15.5075 9.53817 15.5075 9.70474 15.6102 9.80747L15.9332 10.1304C15.9845 10.1817 16.0518 10.2074 16.1192 10.2074C16.1865 10.2074 16.2538 10.1817 16.3052 10.1304C16.4079 10.0277 16.4079 9.86108 16.3052 9.75835L15.9823 9.43544Z" fill="black"/>
<path d="M0.719684 6.25781H0.263039C0.117773 6.25781 0 6.37559 0 6.52085C0 6.66612 0.117773 6.78389 0.263039 6.78389H0.719684C0.864949 6.78389 0.982723 6.66612 0.982723 6.52085C0.982723 6.37559 0.864949 6.25781 0.719684 6.25781Z" fill="black"/>
<path d="M17.5371 6.25781H17.0804C16.9352 6.25781 16.8174 6.37559 16.8174 6.52085C16.8174 6.66612 16.9352 6.78389 17.0804 6.78389H17.5371C17.6823 6.78389 17.8001 6.66612 17.8001 6.52085C17.8001 6.37559 17.6823 6.25781 17.5371 6.25781Z" fill="black"/>
<path d="M1.81792 9.43544L1.49501 9.75835C1.39229 9.86108 1.39229 10.0277 1.49501 10.1304C1.54638 10.1817 1.6137 10.2074 1.68103 10.2074C1.74835 10.2074 1.81567 10.1817 1.86704 10.1304L2.18995 9.80747C2.29267 9.70474 2.29267 9.53817 2.18995 9.43544C2.08722 9.33272 1.92065 9.33272 1.81792 9.43544Z" fill="black"/>
<path d="M15.7963 3.68397C15.8636 3.68397 15.9309 3.65827 15.9823 3.6069L16.3052 3.28403C16.4079 3.1813 16.4079 3.01477 16.3052 2.91201C16.2025 2.80928 16.0359 2.80928 15.9332 2.91201L15.6102 3.23488C15.5075 3.33761 15.5075 3.50414 15.6102 3.6069C15.6616 3.65827 15.7289 3.68397 15.7963 3.68397Z" fill="black"/>
</svg>
