<svg width="58" height="58" viewBox="0 0 58 58" fill="none" xmlns="http://www.w3.org/2000/svg">
<mask id="mask0_177_32973" style="mask-type:luminance" maskUnits="userSpaceOnUse" x="-21" y="-16" width="97" height="97">
<path d="M-20.1063 30.6276L29.4038 -15.466L75.4974 34.0441L25.9873 80.1377L-20.1063 30.6276Z" fill="white"/>
</mask>
<g mask="url(#mask0_177_32973)">
<path d="M19.2062 11.1567L40.4732 34C41.6192 35.231 42.4032 36.7557 42.7398 38.4045L43.4895 42.0894L39.6274 45.685L36.0055 44.6741C34.3849 44.2206 32.9201 43.3298 31.7741 42.0988L10.5071 19.2555L19.2062 11.1567Z" fill="#537984"/>
<path d="M16.2488 13.9072L37.5158 36.7505C38.6618 37.9815 39.4458 39.5063 39.7824 41.1551L40.5322 44.8398L43.4877 42.0884L42.7378 38.4036C42.4013 36.7547 41.6172 35.23 40.4712 33.9991L19.2042 11.1558L16.2488 13.9072Z" fill="#4B6F77"/>
<path d="M43.4864 42.0871L39.6244 45.6827L39.8773 49.263C39.9486 50.2718 40.6218 51.1376 41.5817 51.4553L51.7323 54.8162L49.1047 44.4514C48.8562 43.4714 48.0406 42.7382 47.0396 42.595L43.4864 42.0871Z" fill="#FFD15C"/>
<path d="M47.0398 42.5965L43.4867 42.0885L40.5313 44.84L44.0844 45.3479C45.0853 45.4912 45.9009 46.2244 46.1495 47.2044L47.7449 53.4973L51.7325 54.8177L49.1049 44.453C48.8565 43.4728 48.0409 42.7396 47.0398 42.5965Z" fill="#FFC344"/>
<path d="M16.2913 8.02619L7.59253 16.1247L10.5049 19.2529L19.2037 11.1544L16.2913 8.02619Z" fill="#FFD15C"/>
<path d="M16.248 13.9072L19.2034 11.1558L16.291 8.02761L13.3357 10.779L16.248 13.9072Z" fill="#FFC344"/>
<path d="M7.39165 16.3129L7.59201 16.1264L10.5044 19.2546L7.17578 22.3535C5.56728 20.6258 5.66402 17.9213 7.39165 16.3129Z" fill="#FFD15C"/>
<path d="M16.2896 8.02649L7.59082 16.125L5.05238 11.289C4.484 10.2062 4.7107 8.87704 5.60575 8.04376L8.37068 5.46963C9.26573 4.63634 10.6077 4.5051 11.6472 5.14932L16.2896 8.02649Z" fill="#537984"/>
<path d="M11.6485 5.14998C10.609 4.50585 9.2671 4.63701 8.37205 5.4703L5.60712 8.04442C5.57501 8.07431 5.54584 8.10599 5.51556 8.13706C6.40846 7.38213 7.69085 7.28035 8.69312 7.90146L13.3356 10.7786L16.291 8.02715L11.6485 5.14998Z" fill="#4B6F77"/>
<path d="M38.8554 32.2623L40.4732 34C41.6192 35.231 42.4032 36.7557 42.7398 38.4045L43.4895 42.0894L39.6274 45.685L36.0055 44.6741C34.3849 44.2206 32.9201 43.3298 31.7741 42.0988L30.1563 40.3611L38.8554 32.2623Z" fill="#CB97E7"/>
<path d="M35.898 35.0128L37.5158 36.7505C38.6618 37.9815 39.4458 39.5063 39.7824 41.1551L40.5322 44.8398L43.4877 42.0884L42.7378 38.4036C42.4013 36.7547 41.6172 35.23 40.4712 33.9991L38.8534 32.2614L35.898 35.0128Z" fill="#BD80E1"/>
<path d="M36.3906 29.6149L40.4732 34C41.6192 35.231 42.4032 36.7557 42.7398 38.4045L43.4895 42.0894L39.6274 45.685L36.0055 44.6741C34.3849 44.2206 32.9201 43.3298 31.7741 42.0988L10.5071 19.2555" stroke="#3A3A3A" stroke-width="1.46484" stroke-miterlimit="10" stroke-linecap="round" stroke-linejoin="round"/>
<path d="M13.8964 16.097L19.203 11.1565L33.2159 26.208" stroke="#3A3A3A" stroke-width="1.46484" stroke-miterlimit="10" stroke-linecap="round" stroke-linejoin="round"/>
<path d="M43.4864 42.0871L39.6244 45.6827L39.8773 49.263C39.9486 50.2718 40.6218 51.1376 41.5817 51.4553L51.7323 54.8162L49.1047 44.4514C48.8562 43.4714 48.0406 42.7382 47.0396 42.595L43.4864 42.0871Z" stroke="#3A3A3A" stroke-width="1.46484" stroke-miterlimit="10" stroke-linecap="round" stroke-linejoin="round"/>
<path d="M19.2027 11.1544L16.2903 8.02619L7.59155 16.1247L10.5039 19.2529" stroke="#3A3A3A" stroke-width="1.46484" stroke-miterlimit="10" stroke-linecap="round" stroke-linejoin="round"/>
<path d="M7.39165 16.3129L7.59201 16.1264L10.5044 19.2546L7.17578 22.3535C5.56728 20.6258 5.66402 17.9213 7.39165 16.3129Z" stroke="#3A3A3A" stroke-width="1.46484" stroke-miterlimit="10" stroke-linecap="round" stroke-linejoin="round"/>
<path d="M16.2896 8.02649L7.59082 16.125L5.05238 11.289C4.484 10.2062 4.7107 8.87704 5.60575 8.04376L8.37068 5.46963C9.26573 4.63635 10.6077 4.5051 11.6472 5.14932L16.2896 8.02649Z" stroke="#3A3A3A" stroke-width="1.46484" stroke-miterlimit="10" stroke-linecap="round" stroke-linejoin="round"/>
<path d="M51.7354 54.8154L47.2848 50.035" stroke="#3A3A3A" stroke-width="1.46484" stroke-miterlimit="10" stroke-linecap="round" stroke-linejoin="round"/>
<path d="M44.891 46.0188C45.2622 46.4175 45.2398 47.0416 44.8411 47.4128C44.4424 47.784 43.8183 47.7618 43.4471 47.3631C43.0758 46.9643 43.0982 46.3402 43.4969 45.969C43.8956 45.5978 44.5197 45.62 44.891 46.0188Z" fill="#3A3A3A"/>
<path d="M7.17621 22.3524L17.8823 33.8521L20.2153 35.0353" stroke="#3A3A3A" stroke-width="1.46484" stroke-miterlimit="10" stroke-linecap="round" stroke-linejoin="round"/>
<path d="M38.8554 32.2623L40.4732 34C41.6192 35.231 42.4032 36.7557 42.7398 38.4045L43.4895 42.0894L39.6274 45.685L36.0055 44.6741C34.3849 44.2206 32.9201 43.3298 31.7741 42.0988L30.1563 40.3611L38.8554 32.2623Z" stroke="#3A3A3A" stroke-width="1.46484" stroke-miterlimit="10" stroke-linecap="round" stroke-linejoin="round"/>
<path d="M18.0221 18.6075L23.0752 24.0352" stroke="#3A3A3A" stroke-width="1.46484" stroke-miterlimit="10" stroke-linecap="round" stroke-linejoin="round"/>
</g>
</svg>
