<svg width="18" height="18" viewBox="0 0 18 18" fill="none" xmlns="http://www.w3.org/2000/svg">
<path d="M9.9013 1.47514L7.35406 3.85357L3.78408 5.21542L3.4668 4.34875L4.33748 2.996L4.99363 0.364031C5.00822 0.305531 5.06746 0.269953 5.12596 0.284508L9.9013 1.47514Z" fill="#FFA44D"/>
<path d="M14.9632 4.39814L10.9187 4.15053L7.98438 2.64732L9.9018 1.47503L12.288 0.0160497C12.3402 -0.0159073 12.4085 0.00138953 12.4393 0.0543348L14.9632 4.39814Z" fill="#FF738F"/>
<path d="M17.725 5.1994L16.5326 9.98241L14.4658 8.18557L12.7773 3.85352L14.9626 4.39819L17.6455 5.06707C17.704 5.08166 17.7396 5.1409 17.725 5.1994Z" fill="#A587E8"/>
<path d="M9.33741 11.68L8.02214 12.9282L7.35449 11.1855L9.33741 11.68Z" fill="#84DDFF"/>
<path d="M17.8677 12.3691L13.6357 14.9913L13.6988 11.8902L15.3709 8.08594L16.5326 9.98191L17.9032 12.2193C17.9346 12.2706 17.9187 12.3375 17.8677 12.3691Z" fill="#C7AEF5"/>
<path d="M14.1613 12.8828L13.6356 14.9916L12.9597 17.7018C12.9452 17.7603 12.8859 17.7959 12.8274 17.7813L8.02148 16.583L10.014 14.4589L14.1613 12.8828Z" fill="#64D1FB"/>
<path d="M11.089 10.6279L10.9872 12.3736L9.33789 11.6802L11.089 10.6279Z" fill="#51C7EC"/>
<path d="M9.0004 15.5544L8.02155 16.2667L5.72978 17.7687C5.67807 17.7998 5.61092 17.7831 5.57984 17.7314L3.54883 13.9404L4.30676 14.0421L6.79649 14.1847L8.60802 15.125L9.0004 15.5544Z" fill="#B3E5FF"/>
<path d="M9.90015 15.451L8.02199 16.5829L5.69707 17.984C5.64543 18.0153 5.57846 17.9986 5.54717 17.9466L3.00977 13.7188L4.30721 14.0422L5.85197 16.6161C5.89339 16.6851 5.98296 16.7074 6.05187 16.6659L8.60847 15.125L9.19259 14.8148L9.90015 15.451Z" fill="#84DDFF"/>
<path d="M3.00999 13.7185V13.7181L0.294695 13.0412C0.236195 13.0266 0.200617 12.9674 0.215172 12.9089L1.42075 8.07422L3.78462 10.8357L5.10463 14.2406L3.00999 13.7185Z" fill="#9CF19D"/>
<path d="M3.00983 13.7194V13.7191L0.294502 13.0423C0.235931 13.0274 0.200634 12.9685 0.215189 12.9099L1.42059 8.0752L2.05636 8.37775L2.10825 9.22639L1.37063 12.1855C1.35119 12.2634 1.39865 12.3424 1.47663 12.3619L4.42005 13.0958L4.7958 13.0349L5.10444 14.2415L3.00983 13.7194Z" fill="#6DE49E"/>
<path d="M8.54804 6.39941L6.79688 7.45163L6.84289 5.70605L8.54804 6.39941Z" fill="#FF8954"/>
<path d="M6.79709 7.45215L6.30262 9.43471L5.10449 8.08668L6.79709 7.45215Z" fill="#FFCE4B"/>
<path d="M7.35437 11.1857L5.65527 11.069L6.3025 9.43457L7.35437 11.1857Z" fill="#6DE49E"/>
<path d="M12.7335 9.98264L11.0889 10.6281L11.5833 8.64551L12.7335 9.98264Z" fill="#B295F3"/>
<path d="M12.281 7.08269L11.5829 8.64507L10.5303 6.89355L12.281 7.08269Z" fill="#937AE2"/>
<path d="M10.531 6.89324L8.54883 6.39915L9.78735 5.21484L10.531 6.89324Z" fill="#FF6186"/>
<path d="M9.90026 15.4516L5.10449 14.2415L6.30262 13.0417L8.09745 12.4307L9.33741 13.566L9.90026 15.4516Z" fill="#84DDFF"/>
<path d="M15.3709 8.08594L14.1615 12.8824L12.5893 11.6796L12.3379 9.88583L13.2057 8.74666L15.3709 8.08594Z" fill="#B295F3"/>
<path d="M5.56572 8.19979L4.69986 9.51779L2.58008 10.015L2.65802 6.99336L3.78439 5.21484L5.10437 6.26053L5.56572 8.19979Z" fill="#FFCE4B"/>
<path d="M7.98398 2.64746L8.02181 4.39828L7.14642 6.05009L5.46528 5.97004L3.78418 5.21545L7.98398 2.64746Z" fill="#FF8954"/>
<path d="M5.95321 10.8365V12.6716L5.10437 14.2413L2.58008 10.0156H4.55603L5.95321 10.8365Z" fill="#6DE49E"/>
<path d="M14.1621 12.8828L9.90039 15.4511V13.4727L10.7394 12.0296L12.2817 11.8906L14.1621 12.8828Z" fill="#51C7EC"/>
<path d="M15.371 8.08643L13.0414 8.07476L11.9323 7.24339L11.583 5.54847L12.7775 3.85352L15.371 8.08643Z" fill="#937AE2"/>
<path d="M12.7779 3.8536L11.089 5.31603L9.78719 5.65388L8.467 4.52361L7.98438 2.64746L12.7779 3.8536Z" fill="#FF6186"/>
<path d="M10.7395 12.0294L9.90047 15.4509L8.09766 12.4299L9.33762 11.6797H9.338L10.7395 12.0294Z" fill="#B3E5FF"/>
<path d="M9.78686 5.65388V5.65423L8.54834 6.39976H8.54799L7.14648 6.05009L7.98405 2.64746L9.78686 5.65388Z" fill="#FF738F"/>
<path d="M14.1619 12.8833L10.7393 12.0301L11.0889 10.6282L12.3383 9.88672L14.1619 12.8833Z" fill="#64D1FB"/>
<path d="M7.14642 6.04949L6.79675 7.45138L5.56551 8.19979L3.78418 5.21484L7.14642 6.04949Z" fill="#FFA44D"/>
<path d="M6.30249 9.43435L5.95321 10.8362L2.58008 10.0154L5.56572 8.2002L6.30249 9.43435Z" fill="#FFDF6B"/>
<path d="M8.09745 12.4299L5.10449 14.2408L5.95334 10.8359L7.35449 11.1852L8.09745 12.4299Z" fill="#9CF19D"/>
<path d="M15.371 8.08621L12.338 9.88611L11.583 8.64505L11.9323 7.24316L15.371 8.08621Z" fill="#C7AEF5"/>
<path d="M12.7779 3.85352L11.9327 7.24339L10.5308 6.89376L9.78711 5.65415V5.6538L12.7779 3.85352Z" fill="#A587E8"/>
<path d="M4.33776 2.99609L3.78436 5.21551L2.58005 10.0156L1.42049 8.07491V8.07455L0.0154699 5.72299C-0.0153973 5.67134 0.00137222 5.60448 0.0529113 5.57347L4.33776 2.99609Z" fill="#FFDF6B"/>
</svg>
