<svg width="45" height="45" viewBox="0 0 45 45" fill="none" xmlns="http://www.w3.org/2000/svg">
<path fill-rule="evenodd" clip-rule="evenodd" d="M18.0004 9C10.8754 13.5 6.93786 18.75 6.18786 24.9375C4.87536 34.3125 13.3129 38.8125 17.6254 34.6875C21.9379 30.5625 19.3129 25.3125 16.3129 23.8125C13.1254 22.5 11.2504 23.0625 11.6254 21C12.0004 19.125 16.3129 13.875 20.2504 11.25C20.4379 11.0625 20.6254 10.6875 20.4379 10.3125C20.2504 10.125 19.8754 9.75 19.5004 9C18.9379 8.625 18.3754 8.625 18.0004 9Z" fill="#3A3A3A"/>
<path fill-rule="evenodd" clip-rule="evenodd" d="M36.5629 9.00011C29.4379 13.5001 25.5004 18.7501 24.7504 24.7501C23.4379 34.1251 31.8754 38.6251 36.1879 34.5001C40.5004 30.3751 37.8754 25.1251 34.8754 23.6251C31.8754 22.1251 30.0004 22.6876 30.1879 20.8126C30.5629 18.9376 34.8754 13.6876 38.8129 11.0626C39.0004 10.8751 39.1879 10.5001 39.0004 10.1251C38.8129 9.93761 38.4379 9.56261 38.0629 8.81261C37.5004 8.62511 37.1254 8.62511 36.5629 9.00011Z" fill="#3A3A3A"/>
</svg>
