<svg width="58" height="58" viewBox="0 0 58 58" fill="none" xmlns="http://www.w3.org/2000/svg">
<path fill-rule="evenodd" clip-rule="evenodd" d="M45.2132 22.9268L56.5143 34.2055C57.3624 35.0505 57.3624 36.436 56.5143 37.281L53.6073 40.1815L49.1594 44.6199L44.7115 49.0614L40.2636 53.4998L37.3566 56.4003C36.5085 57.2453 35.1229 57.2453 34.2748 56.4003L22.9964 45.1443L31.0765 31.2724L45.2132 22.9268Z" fill="#FEC165"/>
<path fill-rule="evenodd" clip-rule="evenodd" d="M38.5674 13.8656L29.228 28.7701L13.8772 38.5532C15.5799 30.1557 16.4087 25.5684 13.8869 21.9685L16.3731 15.6946L22.0123 13.8623C25.6088 16.368 30.1927 15.5522 38.5674 13.8656Z" fill="#EB5468"/>
<path fill-rule="evenodd" clip-rule="evenodd" d="M18.9268 10.713L16.3726 16.3426L10.7334 18.8936L2.88636 12.3704C0.0375652 9.95864 0.306269 5.45877 2.88636 2.88185C5.46645 0.308212 9.97584 0.0395092 12.3908 2.88185L18.9268 10.713ZM7.36346 9.91016C8.6389 10.0461 9.78485 9.12025 9.9209 7.84481C10.0568 6.56609 9.13427 5.42003 7.85556 5.28409C6.58012 5.14815 5.43417 6.074 5.29812 7.34943C5.1589 8.62815 6.08474 9.77422 7.36346 9.91016Z" fill="#EB5468"/>
<path fill-rule="evenodd" clip-rule="evenodd" d="M22.0117 13.8628L13.8863 21.969C13.3715 21.2373 12.7208 20.5446 11.9084 19.8712L10.7333 18.8936L18.9266 10.7129L19.9075 11.8881C20.584 12.7006 21.2769 13.3513 22.0117 13.8628Z" fill="#FEC165"/>
<path fill-rule="evenodd" clip-rule="evenodd" d="M45.2128 22.9266L22.9958 45.1442L22.9796 45.1636C22.2934 45.8467 21.1732 45.8467 20.487 45.1636L13.8766 38.5531L38.5668 13.8655C38.5861 13.859 38.6088 13.8557 38.6283 13.8525L45.2128 20.4372C45.8991 21.1202 45.8991 22.2435 45.2128 22.9266Z" fill="#F9F3F1"/>
<path fill-rule="evenodd" clip-rule="evenodd" d="M13.084 16.5493L10.7337 18.8931L2.88675 12.3699C0.0379496 9.95812 0.306653 5.45825 2.88675 2.88133C3.28493 2.48643 3.72843 2.14319 4.20104 1.8584C2.64399 4.45798 2.82524 7.98657 5.23371 10.0229L13.0807 16.5461L13.084 16.5493Z" fill="#E5384F"/>
<path fill-rule="evenodd" clip-rule="evenodd" d="M10.7333 18.8936L13.0835 16.5498L14.0806 17.3786L14.2554 17.5243C14.6276 17.8318 14.9676 18.1458 15.2752 18.4663C15.6378 18.8418 15.955 19.2271 16.2334 19.622V19.6253L13.8864 21.9691C13.3717 21.2374 12.721 20.5447 11.9085 19.8713L10.7333 18.8936Z" fill="#FDB441"/>
<path fill-rule="evenodd" clip-rule="evenodd" d="M13.877 38.5535C15.5797 30.156 16.4085 25.5688 13.8867 21.9688L16.2337 19.625C18.7523 23.2249 18.6098 27.1258 16.9103 35.5202L13.877 38.5535Z" fill="#E5384F"/>
<path fill-rule="evenodd" clip-rule="evenodd" d="M17.4311 36.0417L23.5203 42.131C23.857 42.4677 24.2972 42.6393 24.7375 42.6458C25.1972 42.6522 25.6601 42.4807 26.0098 42.131L22.9959 45.145L22.9797 45.1644C22.2935 45.8475 21.1733 45.8475 20.4871 45.1644L13.8767 38.5538L16.9099 35.5205L17.4311 36.0417Z" fill="#DDDAEC"/>
<path fill-rule="evenodd" clip-rule="evenodd" d="M22.9957 45.1448L25.3233 42.8172L25.3427 42.7979L36.7829 54.2158C37.385 54.8179 38.2656 54.9895 39.0264 54.7337L37.3559 56.4009C36.5078 57.2459 35.1222 57.2459 34.2741 56.4009L22.9957 45.1448Z" fill="#FDB441"/>
<path fill-rule="evenodd" clip-rule="evenodd" d="M5.29851 7.34912C5.43444 6.07357 6.58039 5.14772 7.85594 5.28377C9.13466 5.41971 10.0572 6.56578 9.92128 7.8445C9.78535 9.12004 8.6394 10.0459 7.36385 9.90984C6.08513 9.7739 5.15928 8.62784 5.29851 7.34912Z" fill="white"/>
<path d="M2.28669 2.28021C3.80285 0.767678 5.9919 -0.0823842 8.14231 0.00631502C10.094 0.0867447 11.8329 0.912452 13.0434 2.3373L20.5601 11.3433C24.1279 15.6162 27.9101 15.1435 38.223 13.0679C38.3399 13.0093 38.4696 12.9772 38.6028 12.9772C38.8282 12.9772 39.0443 13.0667 39.2038 13.2261L39.2222 13.2445C39.2248 13.2471 39.2274 13.2497 39.23 13.2523L45.8127 19.8353C46.306 20.3263 46.5777 20.9822 46.5777 21.6822C46.5777 22.086 46.4846 22.4738 46.3138 22.8248L50.0607 26.5632C50.3929 26.8946 50.3935 27.4326 50.0622 27.7646C49.8961 27.931 49.6785 28.0142 49.4606 28.0142C49.2436 28.0142 49.0264 27.9315 48.8606 27.7661L45.2141 24.1279L24.2 45.1455L34.8744 55.7987C35.3934 56.3157 36.2378 56.3159 36.7565 55.7993L39.0606 53.4998L31.14 45.597C30.8077 45.2656 30.8072 44.7276 31.1385 44.3956C31.4701 44.0633 32.0081 44.0628 32.34 44.3941L40.2632 52.2994L43.5082 49.0609L38.5852 44.1465C38.253 43.815 38.2526 43.277 38.5842 42.945C38.9157 42.613 39.4537 42.6123 39.7856 42.944L44.7107 47.8606L47.9558 44.622L43.0329 39.7048C42.7009 39.3731 42.7006 38.8352 43.0321 38.5034C43.3638 38.1713 43.9018 38.171 44.2336 38.5026L49.1584 43.4218L52.403 40.1837L44.4833 32.2788C44.1511 31.9472 44.1507 31.4093 44.4821 31.0773C44.8138 30.745 45.3517 30.7446 45.6837 31.0761L53.6058 38.9833L55.9147 36.6793C56.1637 36.4313 56.3008 36.0989 56.3008 35.7435C56.3008 35.388 56.1637 35.0556 55.9143 34.8071L51.6703 30.5728C51.338 30.2413 51.3375 29.7033 51.6688 29.3713C52.0004 29.0391 52.5381 29.0385 52.8703 29.3698L57.1138 33.6037C57.6854 34.1731 58 34.933 58 35.7435C58 36.5539 57.6854 37.3138 57.1145 37.8826L37.9561 57.0025C37.366 57.5903 36.5911 57.8843 35.8158 57.8843C35.0405 57.8843 34.265 57.5901 33.6745 57.002L22.9017 46.2506C22.5354 46.4328 22.1352 46.5258 21.7342 46.5258C21.0656 46.5257 20.3963 46.2722 19.8866 45.7648L13.2762 39.1543C13.0787 38.9606 12.9841 38.6558 13.0443 38.3849C15.1645 27.9114 15.6781 24.1071 11.3657 20.5244L2.33789 13.0186C0.914742 11.8137 0.0867691 10.0765 0.00645447 8.12677C-0.0820198 5.98009 0.770309 3.79455 2.28669 2.28021ZM21.0868 44.5619C21.4437 44.9172 22.0241 44.9169 22.3793 44.5633L44.6138 22.3249C44.7844 22.1551 44.8783 21.9268 44.8783 21.6822C44.8783 21.4377 44.7844 21.2094 44.6123 21.0381L42.7086 19.1343L19.1581 42.6331L21.0868 44.5619ZM17.9564 41.4315L41.507 17.9327L38.603 15.0285L28.2296 25.4054C27.8979 25.7372 27.3599 25.7374 27.0281 25.4056C26.6963 25.0739 26.6962 24.5359 27.028 24.2041L35.9822 15.2469C29.8092 16.4484 25.5755 16.9579 22.1354 14.9398L14.9661 22.0922C16.9927 25.5341 16.4728 29.7754 15.2614 35.9677L24.2182 27.0108C24.55 26.6792 25.0878 26.679 25.4197 27.0108C25.7515 27.3427 25.7515 27.8805 25.4197 28.2123L15.0786 38.5535L17.9564 41.4315ZM12.4518 19.2175C13.0285 19.6966 13.5296 20.187 13.9627 20.6928L20.7332 13.9382C20.2267 13.5065 19.7356 13.0069 19.2557 12.4321L18.87 11.9701L11.9933 18.8362L12.4518 19.2175ZM1.70409 8.05687C1.76458 9.52613 2.37958 10.8276 3.42981 11.7169L10.6809 17.7454L17.7768 10.6605L11.7435 3.43183C10.8485 2.37831 9.54462 1.76467 8.0723 1.70406C6.38838 1.63564 4.67296 2.29981 3.48691 3.4828C2.30142 4.66682 1.63498 6.3768 1.70409 8.05687Z" fill="#3A3A3A"/>
<path d="M7.94591 4.43871C9.68625 4.62381 10.9515 6.19185 10.7662 7.93434C10.5927 9.56118 9.21296 10.7727 7.61275 10.7726C7.50094 10.7726 7.38777 10.7666 7.27415 10.7546C6.42885 10.6648 5.66986 10.2511 5.13699 9.58961C4.60513 8.92963 4.36248 8.10189 4.45379 7.25896C4.63934 5.51828 6.20591 4.25463 7.94591 4.43871ZM6.46 8.52341C6.70774 8.83074 7.06062 9.02298 7.45393 9.06478C8.26355 9.15132 8.99025 8.56294 9.07634 7.75445C9.11814 7.36103 9.00498 6.97542 8.75768 6.66854C8.51039 6.36189 8.15831 6.1701 7.76591 6.1283C7.713 6.12264 7.66055 6.11992 7.60856 6.11992C6.86509 6.11992 6.22381 6.68293 6.14326 7.43896C6.14315 7.43964 6.14315 7.44021 6.14304 7.44089C6.10067 7.8325 6.21316 8.21698 6.46 8.52341Z" fill="#3A3A3A"/>
</svg>
