<svg width="58" height="58" viewBox="0 0 58 58" fill="none" xmlns="http://www.w3.org/2000/svg">
<g clip-path="url(#clip0_173_32286)">
<path d="M50.0248 39.1692L39.1692 50.0248C39.0135 49.9193 38.8679 49.7995 38.7342 49.6672L2.21351 13.1562C2.03375 12.9766 1.89115 12.7634 1.79386 12.5287C1.69656 12.294 1.64648 12.0424 1.64648 11.7883C1.64648 11.5343 1.69656 11.2827 1.79386 11.048C1.89115 10.8133 2.03375 10.6001 2.21351 10.4205L2.89984 9.73417L10.4205 2.21351C10.6001 2.03375 10.8133 1.89115 11.048 1.79386C11.2827 1.69656 11.5343 1.64648 11.7883 1.64648C12.0424 1.64648 12.294 1.69656 12.5287 1.79386C12.7634 1.89115 12.9766 2.03375 13.1562 2.21351L49.6672 38.7342C49.7995 38.8679 49.9193 39.0135 50.0248 39.1692Z" fill="#F5F5F5"/>
<path d="M49.6667 38.7342L13.1557 2.21351C12.9762 2.03375 12.7629 1.89115 12.5282 1.79386C12.2935 1.69656 12.042 1.64648 11.7879 1.64648C11.5338 1.64648 11.2822 1.69656 11.0475 1.79386C10.8128 1.89115 10.5996 2.03375 10.4201 2.21351L10.3379 2.29567L46.7667 38.7342C46.8991 38.8679 47.0188 39.0135 47.1244 39.1692L37.6801 48.6135L38.7337 49.6672C38.8674 49.7995 39.013 49.9193 39.1687 50.0248L50.0244 39.1692C49.9188 39.0135 49.7991 38.8679 49.6667 38.7342Z" fill="#CFD8DC"/>
<path d="M11.0995 7.00405L6.99886 11.1047C6.62141 11.4821 6.62141 12.0941 6.99886 12.4715L38.4368 43.9095C38.8142 44.2869 39.4262 44.2869 39.8037 43.9095L43.9043 39.8089C44.2817 39.4314 44.2817 38.8194 43.9043 38.442L12.4663 7.00405C12.0889 6.6266 11.4769 6.6266 11.0995 7.00405Z" fill="#F44335"/>
<path d="M43.9112 38.4445L12.4694 7.00178C12.2881 6.82056 12.0423 6.71875 11.7859 6.71875C11.5296 6.71875 11.2838 6.82056 11.1025 7.00178L10.3359 7.76834L41.0112 38.4445C41.1924 38.6258 41.2942 38.8717 41.2942 39.128C41.2942 39.3843 41.1924 39.6301 41.0112 39.8114L37.6771 43.1454L38.4437 43.912C38.625 44.0932 38.8708 44.195 39.1271 44.195C39.3835 44.195 39.6293 44.0932 39.8106 43.912L43.9112 39.8114C44.0924 39.6301 44.1942 39.3843 44.1942 39.128C44.1942 38.8717 44.0924 38.6258 43.9112 38.4445Z" fill="#C81E1E"/>
<path d="M53.6979 49.1546L53.4853 49.3769L49.3769 53.4853L49.1546 53.6979C49.0189 53.8356 48.8451 53.9295 48.6556 53.9674C48.466 54.0053 48.2695 53.9855 48.0913 53.9106L39.6426 50.2856C39.4749 50.2178 39.3158 50.1302 39.1689 50.0246L50.0246 39.1689C50.1302 39.3158 50.2178 39.4749 50.2856 39.6426L53.9106 48.0913C53.9855 48.2695 54.0053 48.466 53.9674 48.6556C53.9295 48.8451 53.8356 49.0189 53.6979 49.1546Z" fill="#9E9E9E"/>
<path d="M53.9112 48.0913L50.2862 39.6426C50.2184 39.4749 50.1308 39.3158 50.0252 39.1689L48.0367 41.1574L51.0112 48.0913C51.0861 48.2695 51.1059 48.466 51.068 48.6556C51.0301 48.8451 50.9362 49.0189 50.7985 49.1546L50.5858 49.3769L46.6641 53.2977L48.0918 53.9106C48.27 53.9855 48.4666 54.0053 48.6561 53.9674C48.8457 53.9295 49.0195 53.8356 49.1552 53.6979L49.3775 53.4853L53.4858 49.3769L53.6985 49.1546C53.8362 49.0189 53.9301 48.8451 53.968 48.6556C54.0059 48.466 53.9861 48.2695 53.9112 48.0913Z" fill="#707070"/>
<path d="M57.033 57.033C52.9343 57.033 49.377 53.4853 49.377 53.4853L53.4853 49.377C53.4853 49.377 57.033 52.9343 57.033 57.033Z" fill="#F44335"/>
<path d="M40.4642 48.5069L39.0336 49.9376C38.9223 49.8608 38.8215 49.7698 38.7339 49.6669C32.9532 43.8862 6.73724 17.6799 2.21324 13.1559C2.03348 12.9764 1.89088 12.7631 1.79359 12.5284C1.6963 12.2937 1.64622 12.0421 1.64622 11.7881C1.64622 11.534 1.6963 11.2824 1.79359 11.0477C1.89088 10.813 2.03348 10.5998 2.21324 10.4202L2.89957 9.73391L1.53657 8.37091C1.35519 8.19227 1.21114 7.97934 1.11282 7.74452C1.0145 7.50969 0.963867 7.25765 0.963867 7.00307C0.963867 6.74849 1.0145 6.49646 1.11282 6.26163C1.21114 6.0268 1.35519 5.81387 1.53657 5.63524L5.63524 1.53657C5.81387 1.35519 6.0268 1.21114 6.26163 1.11282C6.49646 1.0145 6.74849 0.963867 7.00307 0.963867C7.25765 0.963867 7.50969 1.0145 7.74452 1.11282C7.97934 1.21114 8.19227 1.35519 8.37091 1.53657L8.44824 1.61391L4.43657 5.63524C4.25519 5.81387 4.11114 6.0268 4.01282 6.26163C3.9145 6.49646 3.86387 6.74849 3.86387 7.00307C3.86387 7.25765 3.9145 7.50969 4.01282 7.74452C4.11114 7.97934 4.25519 8.19227 4.43657 8.37091L3.86624 8.97991L3.17991 9.66624C2.42591 10.4202 4.35924 12.4019 5.11324 13.1559C9.41491 17.4576 32.9726 41.0056 40.4642 48.5069Z" fill="#F5F5F5"/>
<path d="M11.418 1.68321L12.634 2.89927L13.2382 2.29511C13.0137 2.04432 12.7279 1.8561 12.4089 1.74884C12.0898 1.64159 11.7484 1.61897 11.418 1.68321Z" fill="white"/>
<path d="M9.73391 2.89957L2.89957 9.73391L1.53657 8.37091C1.35519 8.19227 1.21114 7.97934 1.11282 7.74452C1.0145 7.50969 0.963867 7.25765 0.963867 7.00307C0.963867 6.74849 1.0145 6.49646 1.11282 6.26163C1.21114 6.0268 1.35519 5.81387 1.53657 5.63524L5.63524 1.53657C5.81387 1.35519 6.0268 1.21114 6.26163 1.11282C6.49646 1.0145 6.74849 0.963867 7.00307 0.963867C7.25765 0.963867 7.50969 1.0145 7.74452 1.11282C7.97934 1.21114 8.19227 1.35519 8.37091 1.53657L9.73391 2.89957Z" fill="#F44335"/>
<path d="M1.53125 13.8359L2.89812 12.4691L8.36558 17.9365L6.99872 19.3034L1.53125 13.8359Z" fill="#F5F5F5"/>
<path d="M39.1276 45.1616C39.3816 45.1623 39.6332 45.1126 39.8679 45.0154C40.1025 44.9181 40.3155 44.7753 40.4945 44.5951L44.5951 40.4945C44.7747 40.315 44.9172 40.1018 45.0144 39.8672C45.1116 39.6326 45.1616 39.3811 45.1616 39.1272C45.1616 38.8732 45.1116 38.6217 45.0144 38.3871C44.9172 38.1525 44.7747 37.9393 44.5951 37.7598L13.1523 6.31801C12.7898 5.95556 12.2981 5.75195 11.7855 5.75195C11.2728 5.75195 10.7812 5.95556 10.4186 6.31801L6.31801 10.4186C5.95556 10.7812 5.75195 11.2728 5.75195 11.7855C5.75195 12.2981 5.95556 12.7898 6.31801 13.1523L37.7598 44.5951C37.939 44.7753 38.1522 44.9182 38.387 45.0154C38.6218 45.1127 38.8735 45.1623 39.1276 45.1616ZM11.7855 7.68487L43.2292 39.1257L39.1286 43.2263L7.68487 11.7855L11.7855 7.68487Z" fill="#3A3A3A"/>
<path d="M4.96956 16.8533C4.71318 16.8545 4.4668 16.7539 4.28461 16.5735C4.10242 16.3932 3.99934 16.1478 3.99806 15.8914C3.99678 15.635 4.09739 15.3887 4.27777 15.2065C4.45815 15.0243 4.70352 14.9212 4.95989 14.9199H4.96956C5.22593 14.9199 5.47181 15.0218 5.6531 15.2031C5.83438 15.3843 5.93623 15.6302 5.93623 15.8866C5.93623 16.143 5.83438 16.3888 5.6531 16.5701C5.47181 16.7514 5.22593 16.8533 4.96956 16.8533Z" fill="#3A3A3A"/>
<path d="M54.7963 47.7144L51.1723 39.26C50.9785 38.8078 50.7003 38.3968 50.3526 38.0487L13.8367 1.53291C13.2844 1.00518 12.5499 0.710686 11.7859 0.710686C11.022 0.710686 10.2875 1.00518 9.73516 1.53291L9.05173 0.849477C8.49955 0.321808 7.76519 0.0273438 7.00143 0.0273438C6.23767 0.0273438 5.50331 0.321808 4.95113 0.849477L0.849564 4.95008C0.580222 5.21937 0.366566 5.53909 0.220796 5.89096C0.075027 6.24284 0 6.61998 0 7.00086C0 7.38173 0.075027 7.75888 0.220796 8.11075C0.366566 8.46263 0.580222 8.78235 0.849564 9.05164L1.533 9.73508C1.26366 10.0044 1.05 10.3241 0.90423 10.676C0.75846 11.0278 0.683433 11.405 0.683433 11.7859C0.683433 12.1667 0.75846 12.5439 0.90423 12.8958C1.05 13.2476 1.26366 13.5673 1.533 13.8366C1.71531 14.0127 1.9595 14.1102 2.21295 14.108C2.46641 14.1058 2.70886 14.0041 2.88809 13.8249C3.06732 13.6456 3.16898 13.4032 3.17118 13.1497C3.17338 12.8963 3.07595 12.6521 2.89986 12.4698C2.71864 12.2885 2.61684 12.0427 2.61684 11.7863C2.61684 11.53 2.71864 11.2842 2.89986 11.1029L11.103 2.89978C11.2869 2.72359 11.5317 2.62524 11.7864 2.62524C12.0411 2.62524 12.286 2.72359 12.4699 2.89978L48.6967 39.1275L39.1267 48.6975L8.3683 17.9372C8.18691 17.756 7.94095 17.6542 7.68452 17.6543C7.42809 17.6544 7.18221 17.7563 7.00095 17.9377C6.81969 18.1191 6.71791 18.3651 6.718 18.6215C6.71809 18.8779 6.82004 19.1238 7.00143 19.3051L38.0488 50.3525C38.3964 50.7007 38.8076 50.979 39.2601 51.1722L47.7145 54.7953C47.9715 54.9082 48.2506 54.962 48.5311 54.9528C48.8117 54.9436 49.0866 54.8716 49.3356 54.7421C50.601 55.8141 53.5986 57.9998 57.0332 57.9998C57.2896 57.9998 57.5354 57.8979 57.7167 57.7166C57.898 57.5354 57.9999 57.2895 57.9999 57.0331C57.9999 53.6005 55.8171 50.6057 54.7451 49.3394C54.8717 49.0887 54.942 48.8133 54.9508 48.5326C54.9597 48.2519 54.9069 47.9726 54.7963 47.7144ZM2.21643 6.31791L6.318 2.21634C6.49927 2.03512 6.74511 1.93332 7.00143 1.93332C7.25776 1.93332 7.50359 2.03512 7.68486 2.21634L8.3683 2.89978L2.89986 8.36821L2.21643 7.68381C2.0355 7.50257 1.93389 7.25695 1.93389 7.00086C1.93389 6.74477 2.0355 6.49915 2.21643 6.31791ZM48.4753 53.0185L40.8203 49.7377L49.7378 40.8202L53.0196 48.4762L48.4753 53.0185ZM50.7953 53.4352L53.4382 50.7933C54.7024 52.2851 55.5763 54.0674 55.9815 55.9804C54.0679 55.5751 52.285 54.7005 50.7934 53.4352H50.7953Z" fill="#3A3A3A"/>
</g>
<defs>
<clipPath id="clip0_173_32286">
<rect width="58" height="58" fill="white"/>
</clipPath>
</defs>
</svg>
