<svg width="18" height="18" viewBox="0 0 18 18" fill="none" xmlns="http://www.w3.org/2000/svg">
<g clip-path="url(#clip0_35_171)">
<path d="M9.00977 0.479004L13.1575 7.49886L14.3332 6.94981C14.3982 6.61367 14.4327 6.2666 14.4327 5.91149C14.4327 2.91436 12.0057 0.484219 9.00977 0.479004Z" fill="#077CCC"/>
<path d="M9.00965 0.478624C9.00643 0.478624 9.00324 0.478516 9.00002 0.478516C5.99966 0.478516 3.56738 2.9108 3.56738 5.91115C3.56738 6.26629 3.60186 6.61333 3.66691 6.94946L9.00005 9.43998L13.1574 7.49848C13.28 6.99633 13.3461 6.46339 13.3461 5.91111C13.3461 2.91478 11.4055 0.48518 9.00965 0.478624Z" fill="#09A1E5"/>
<path d="M14.3331 6.94971H12.5674V17.5213C15.5678 17.5213 18.0001 15.089 18.0001 12.0887C18.0001 9.70646 16.4667 7.6826 14.3331 6.94971Z" fill="#FF3187"/>
<path d="M14.3002 7.10547L9 9.12277V16.1858C9.9544 17.0175 11.202 17.5213 12.5674 17.5213C14.9677 17.5213 16.9135 15.089 16.9135 12.0886C16.9136 9.85827 15.8381 7.9422 14.3002 7.10547Z" fill="#FF5178"/>
<path d="M12.5674 6.65625L14.3002 7.10563C14.3118 7.05395 14.323 7.00212 14.3331 6.94986C13.7794 6.75972 13.1855 6.65625 12.5674 6.65625Z" fill="#622876"/>
<path d="M12.5674 6.65625C11.202 6.65625 9.95443 7.16007 9 7.99176L10.7657 11.0505C12.5317 10.4439 13.8859 8.95246 14.3001 7.10567C13.7692 6.8168 13.1834 6.65625 12.5674 6.65625Z" fill="#962B7C"/>
<path d="M5.43359 17.5211C6.79852 17.5208 8.04566 17.0171 8.9998 16.1856V15.1919L5.43359 17.5211Z" fill="#FFB24A"/>
<path d="M8.99996 15.192V9.12275L3.66689 6.94971C1.5334 7.68264 0 9.7065 0 12.0887C0 15.089 2.43225 17.5212 5.43259 17.5212C6.91048 17.5208 8.21484 16.5995 8.99996 15.192Z" fill="#FFD23B"/>
<path d="M9.00002 7.99176C8.04562 7.16007 6.79797 6.65625 5.43262 6.65625L9.00002 9.09849V7.99176Z" fill="#49B296"/>
<path d="M5.43273 6.65625C4.81457 6.65625 4.22065 6.75972 3.66699 6.94994C4.03836 8.86848 5.4189 10.4269 7.23436 11.0506L8.60363 8.37418C7.81072 7.317 6.68353 6.65629 5.43273 6.65625Z" fill="#89C247"/>
<path d="M10.7656 11.0503C10.4345 11.1641 10.0888 11.2465 9.7323 11.2946L8.60352 15.8033C8.72915 15.9372 8.86135 16.065 8.99984 16.1857C10.1428 15.1898 10.8651 13.7236 10.8651 12.0886C10.8651 11.7335 10.8307 11.3864 10.7656 11.0503Z" fill="#FF7169"/>
<path d="M9.73245 11.2946C9.49287 11.327 9.24844 11.3439 9.00003 11.3439C8.38187 11.3439 7.78794 11.2405 7.23433 11.0503C7.16924 11.3864 7.13477 11.7335 7.13477 12.0886C7.13477 13.5254 7.69277 14.8317 8.60367 15.8032C9.33236 14.8317 9.77881 13.5254 9.77881 12.0886C9.77877 11.8189 9.7628 11.5538 9.73245 11.2946Z" fill="#FF9259"/>
<path d="M8.99999 7.9917C8.86146 8.11241 8.72912 8.24008 8.60352 8.37408L9.73237 11.2948C10.0889 11.2467 10.4346 11.1642 10.7657 11.0505C10.5312 9.83914 9.89459 8.77131 8.99999 7.9917Z" fill="#2D2570"/>
<path d="M7.23438 11.0504C7.78799 11.2406 8.38192 11.3441 9.00008 11.3441C9.24849 11.3441 9.49292 11.3271 9.7325 11.2947C9.6011 10.1732 9.19558 9.16316 8.60364 8.37402C7.91798 9.1054 7.43252 10.0267 7.23438 11.0504Z" fill="#2D3E53"/>
</g>
<defs>
<clipPath id="clip0_35_171">
<rect width="18" height="18" fill="white"/>
</clipPath>
</defs>
</svg>
