<svg width="24" height="24" viewBox="0 0 24 24" fill="none" xmlns="http://www.w3.org/2000/svg">
<g clip-path="url(#clip0_98_413)">
<path d="M3.54353 21.4195C4.97776 22.6797 6.73066 23.5218 8.61087 23.8536C10.4911 24.1855 12.4263 23.9944 14.2053 23.3012C15.9843 22.6081 17.5387 21.4395 18.6988 19.9231C19.8588 18.4066 20.58 16.6007 20.7835 14.7023C20.8357 14.2389 20.7848 13.7698 20.6346 13.3283C20.4845 12.8869 20.2386 12.4841 19.9147 12.1487C19.5609 11.7795 19.1311 11.4918 18.655 11.3053C18.1789 11.1188 17.6679 11.038 17.1575 11.0687C16.8831 11.0828 16.6079 11.0686 16.3363 11.0263C18.9954 8.22027 21.4704 5.2454 23.7459 2.12026C23.9315 1.86306 24.0194 1.54822 23.994 1.2321C23.9686 0.915979 23.8315 0.61923 23.6072 0.394979C23.383 0.170729 23.0862 0.0336207 22.7701 0.00820333C22.454 -0.017214 22.1391 0.0707191 21.8819 0.256259C18.7575 2.53083 15.7832 5.00477 12.9775 7.66266C12.9367 7.39337 12.9233 7.12065 12.9375 6.84866C12.967 6.33777 12.8848 5.8266 12.6966 5.35071C12.5084 4.87482 12.2188 4.44565 11.8479 4.09306C11.5037 3.76446 11.091 3.51605 10.6395 3.36564C10.188 3.21524 9.70886 3.16654 9.23633 3.22306C6.89399 3.48292 4.71163 4.53831 3.05353 6.21306C2.04835 7.22158 1.25954 8.42461 0.735382 9.74852C0.211222 11.0724 -0.0372652 12.4894 0.00512799 13.9127C0.0450544 15.3403 0.380035 16.7443 0.988993 18.0362C1.59795 19.3282 2.4677 20.4801 3.54353 21.4195ZM22.3539 0.900259C22.457 0.827352 22.5826 0.793236 22.7084 0.803944C22.8342 0.814652 22.9521 0.869493 23.0414 0.958772C23.1307 1.04805 23.1855 1.16602 23.1962 1.29183C23.207 1.41763 23.1728 1.54317 23.0999 1.64626C20.6887 4.96597 18.044 8.10967 15.1859 11.0535C14.4487 11.7931 13.8915 11.8231 13.7019 11.8083L12.1931 10.2995C12.1763 10.0995 12.2119 9.54626 12.9471 8.81386C15.8908 5.95593 19.0344 3.31137 22.3539 0.900259ZM11.2339 15.5675C10.5677 16.2103 9.74857 16.6726 8.85393 16.9107L10.2815 15.4831C10.3544 15.4076 10.3947 15.3066 10.3938 15.2017C10.3929 15.0968 10.3508 14.9965 10.2767 14.9223C10.2025 14.8482 10.1022 14.8061 9.99729 14.8052C9.89241 14.8043 9.79137 14.8446 9.71593 14.9175L7.46713 17.1663C7.20793 17.1903 6.97953 17.1991 6.79873 17.2003C6.79873 17.0199 6.80873 16.7915 6.83233 16.5323L9.08153 14.2831C9.15439 14.2076 9.19471 14.1066 9.1938 14.0017C9.19289 13.8968 9.15082 13.7965 9.07666 13.7223C9.00249 13.6482 8.90217 13.6061 8.79729 13.6052C8.69241 13.6043 8.59137 13.6446 8.51593 13.7175L7.08793 15.1455C7.32616 14.2509 7.78844 13.4318 8.43113 12.7655C8.67679 12.5174 8.96926 12.3206 9.29157 12.1864C9.61387 12.0522 9.95961 11.9834 10.3087 11.9839C10.3911 11.9839 10.4599 11.9879 10.5123 11.9923L12.0063 13.4863C12.0367 13.8684 11.9835 14.2525 11.8503 14.6119C11.7171 14.9714 11.5072 15.2974 11.2351 15.5675H11.2339ZM6.73713 18.9735C6.50808 19.1929 6.20313 19.3154 5.88593 19.3154C5.56872 19.3154 5.26378 19.1929 5.03473 18.9735C4.85777 18.7985 4.73959 18.5728 4.69656 18.3277C4.65353 18.0826 4.68777 17.8301 4.79454 17.6053C4.90132 17.3805 5.07534 17.1945 5.29252 17.073C5.5097 16.9515 5.75929 16.9005 6.00673 16.9271C5.99993 17.0579 5.99993 17.1779 5.99993 17.2803C6.0012 17.3774 6.02187 17.4734 6.06071 17.5625C6.09955 17.6516 6.1558 17.732 6.22614 17.7991C6.29648 17.8661 6.3795 17.9185 6.47034 17.953C6.56118 17.9876 6.658 18.0036 6.75513 18.0003C6.84953 18.0003 6.96073 17.9975 7.07913 17.9931C7.09973 18.1717 7.07967 18.3527 7.02045 18.5224C6.96122 18.6922 6.86437 18.8464 6.73713 18.9735ZM12.6695 13.0171L10.9863 11.3339L11.5403 10.7775L13.2203 12.4575L12.6695 13.0171ZM3.61953 6.77826C5.14975 5.233 7.16336 4.25887 9.32473 4.01826C9.68178 3.97537 10.0439 4.0121 10.3851 4.1258C10.7262 4.2395 11.038 4.42735 11.2979 4.67586C11.5846 4.94872 11.8083 5.28085 11.9534 5.64908C12.0985 6.01732 12.1615 6.41278 12.1379 6.80786C12.1128 7.32103 12.1695 7.83493 12.3059 8.33026C11.8341 8.77236 11.5187 9.35577 11.4071 9.99266C11.2466 10.0201 11.0984 10.0964 10.9827 10.2111L10.4187 10.7711C10.3051 10.8847 10.2288 11.0302 10.1999 11.1883C9.32133 11.2135 8.48613 11.5758 7.86753 12.2003C6.85641 13.2794 6.22705 14.6604 6.07593 16.1315C5.66452 16.0914 5.25079 16.1795 4.89141 16.3838C4.53204 16.588 4.24459 16.8983 4.06845 17.2723C3.8923 17.6462 3.83608 18.0655 3.90748 18.4726C3.97887 18.8798 4.1744 19.2549 4.46727 19.5466C4.76014 19.8383 5.13603 20.0323 5.54346 20.1021C5.95088 20.1718 6.36991 20.1139 6.74315 19.9363C7.11638 19.7587 7.42557 19.47 7.62836 19.1098C7.83115 18.7496 7.91762 18.3355 7.87593 17.9243C9.34439 17.7721 10.7226 17.1433 11.7999 16.1339C12.4247 15.515 12.7871 14.6793 12.8119 13.8003C12.9701 13.7709 13.1158 13.6945 13.2299 13.5811L13.7899 13.0183C13.9052 12.9023 13.9817 12.7535 14.0091 12.5923C14.6441 12.4811 15.2259 12.167 15.6671 11.6971C16.1654 11.8354 16.6827 11.8925 17.1991 11.8663C17.5939 11.8424 17.9892 11.9045 18.3577 12.0482C18.7262 12.1919 19.0591 12.4138 19.3335 12.6987C19.577 12.9505 19.7618 13.253 19.8749 13.5846C19.9879 13.9161 20.0264 14.2685 19.9875 14.6167C19.7301 17.0418 18.5614 19.2786 16.7176 20.8748C14.8738 22.471 12.4926 23.3074 10.0556 23.2148C7.61866 23.1222 5.3078 22.1075 3.59043 20.3761C1.87306 18.6446 0.877368 16.3255 0.804728 13.8879C0.757929 12.5727 0.983853 11.2621 1.46828 10.0386C1.95271 8.81499 2.68516 7.70494 3.61953 6.77826Z" fill="#838383"/>
<path d="M14.2005 19.1442C14.5521 19.4265 14.9895 19.5804 15.4405 19.5806C15.5173 19.5805 15.5941 19.5761 15.6705 19.5674C16.0649 19.5224 16.4372 19.3614 16.7401 19.1047C17.043 18.848 17.263 18.5072 17.3721 18.1255C17.4811 17.7437 17.4745 17.3382 17.353 16.9602C17.2314 16.5822 17.0004 16.2488 16.6893 16.0022C16.2717 15.6823 15.7452 15.5393 15.2232 15.6042C14.7012 15.669 14.2256 15.9364 13.899 16.3487C13.5724 16.761 13.421 17.2852 13.4774 17.8082C13.5338 18.3311 13.7935 18.811 14.2005 19.1442ZM14.5029 16.8242C14.6263 16.6695 14.7859 16.5476 14.9677 16.4693C15.1494 16.391 15.3476 16.3587 15.5448 16.3752C15.742 16.3917 15.9321 16.4566 16.0983 16.564C16.2645 16.6715 16.4016 16.8182 16.4976 16.9913C16.5935 17.1644 16.6454 17.3584 16.6485 17.5563C16.6517 17.7541 16.606 17.9497 16.5156 18.1258C16.4251 18.3018 16.2927 18.4528 16.1301 18.5655C15.9674 18.6782 15.7794 18.749 15.5829 18.7718C15.4267 18.79 15.2685 18.777 15.1174 18.7334C14.9663 18.6899 14.8254 18.6167 14.7029 18.5182C14.4533 18.3192 14.2922 18.0299 14.2544 17.713C14.2167 17.396 14.3054 17.077 14.5013 16.825L14.5029 16.8242Z" fill="#838383"/>
<path d="M3.90489 15.2196C3.94129 15.222 3.97809 15.2228 4.01449 15.2228C4.40137 15.2229 4.78004 15.1112 5.10485 14.901C5.42966 14.6908 5.68674 14.3912 5.84512 14.0382C6.00349 13.6852 6.05639 13.294 5.99744 12.9116C5.9385 12.5292 5.77022 12.1721 5.51289 11.8832C5.33894 11.686 5.12739 11.5255 4.89063 11.4112C4.65387 11.2968 4.39666 11.2309 4.13409 11.2172C3.87128 11.202 3.60807 11.2388 3.35947 11.3254C3.11088 11.4119 2.88177 11.5466 2.68522 11.7217C2.48868 11.8968 2.32855 12.109 2.21398 12.346C2.09941 12.5829 2.03264 12.8402 2.01748 13.103C2.00233 13.3658 2.03909 13.629 2.12566 13.8776C2.21222 14.1262 2.34691 14.3553 2.52202 14.5519C2.69714 14.7484 2.90925 14.9085 3.14624 15.0231C3.38324 15.1377 3.64048 15.2044 3.90329 15.2196H3.90489ZM4.09049 12.0156C4.24783 12.024 4.40192 12.0638 4.54374 12.1325C4.68557 12.2011 4.81228 12.2974 4.91649 12.4156C5.10251 12.6237 5.21054 12.89 5.22214 13.1689C5.23374 13.4478 5.14819 13.7221 4.9801 13.945C4.812 14.1678 4.57177 14.3255 4.30041 14.3909C4.02905 14.4564 3.74337 14.4257 3.49212 14.3041C3.24088 14.1824 3.03964 13.9773 2.92276 13.7238C2.80587 13.4703 2.78058 13.1841 2.85119 12.914C2.92181 12.6439 3.08396 12.4067 3.30997 12.2429C3.53598 12.079 3.81184 11.9987 4.09049 12.0156Z" fill="#838383"/>
<path d="M10.7929 22C10.8297 22 10.8665 22 10.9033 21.9968C11.2998 21.9748 11.6809 21.8356 11.9982 21.5969C12.3156 21.3582 12.555 21.0307 12.6862 20.6559C12.8173 20.2811 12.8343 19.8758 12.735 19.4913C12.6357 19.1068 12.4245 18.7604 12.1283 18.496C11.832 18.2315 11.464 18.0609 11.0707 18.0058C10.6774 17.9506 10.2767 18.0134 9.91907 18.1861C9.5615 18.3588 9.2632 18.6338 9.06195 18.9761C8.8607 19.3184 8.76554 19.7128 8.78852 20.1092C8.81945 20.6202 9.04396 21.1002 9.41635 21.4515C9.78873 21.8028 10.281 21.9989 10.7929 22ZM9.89052 19.1912C9.9953 19.0731 10.1226 18.977 10.265 18.9086C10.4074 18.8403 10.562 18.8011 10.7197 18.7932C10.7437 18.7932 10.7681 18.7912 10.7917 18.7912C11.0981 18.7916 11.3927 18.909 11.6152 19.1196C11.8377 19.3301 11.9713 19.6178 11.9885 19.9236C12.0038 20.0847 11.9864 20.2471 11.9375 20.4013C11.8885 20.5555 11.8089 20.6982 11.7035 20.8209C11.5981 20.9436 11.4691 21.0438 11.3241 21.1155C11.179 21.1872 11.021 21.2289 10.8595 21.2381C10.698 21.2473 10.5363 21.2238 10.3841 21.1691C10.2319 21.1144 10.0923 21.0295 9.97361 20.9195C9.85495 20.8096 9.75969 20.6768 9.69352 20.5292C9.62735 20.3816 9.59164 20.2222 9.58852 20.0604C9.57858 19.9025 9.60016 19.7442 9.65201 19.5947C9.70386 19.4452 9.78494 19.3075 9.89052 19.1896V19.1912Z" fill="#838383"/>
<path d="M6.20534 10.5479C6.28209 10.5567 6.35928 10.5611 6.43654 10.5611C6.81299 10.5603 7.18162 10.4536 7.50026 10.2531C7.81891 10.0527 8.07473 9.76659 8.23846 9.42761C8.4022 9.08862 8.46724 8.71041 8.42615 8.3362C8.38507 7.962 8.23952 7.6069 8.00614 7.31152C7.84243 7.1054 7.63973 6.93354 7.40961 6.80575C7.17948 6.67797 6.92644 6.59676 6.66493 6.56677C6.40343 6.53677 6.13857 6.55858 5.88549 6.63095C5.63241 6.70331 5.39606 6.82481 5.18994 6.98852C4.98382 7.15223 4.81195 7.35493 4.68417 7.58505C4.55638 7.81518 4.47518 8.06822 4.44518 8.32972C4.41519 8.59123 4.437 8.85609 4.50936 9.10917C4.58173 9.36225 4.70323 9.5986 4.86694 9.80472C5.02966 10.0111 5.23177 10.1831 5.46153 10.3107C5.6913 10.4383 5.94413 10.5189 6.20534 10.5479ZM5.68534 7.61312C5.84046 7.49002 6.02355 7.40706 6.21839 7.37161C6.41323 7.33615 6.61381 7.34929 6.80236 7.40985C6.99091 7.47042 7.16161 7.57654 7.29936 7.71883C7.4371 7.86112 7.53764 8.03517 7.59206 8.22559C7.64648 8.416 7.6531 8.6169 7.61135 8.81048C7.56959 9.00407 7.48075 9.18437 7.35267 9.33543C7.2246 9.48648 7.06126 9.60362 6.87711 9.67648C6.69296 9.74934 6.49369 9.77566 6.29694 9.75312C6.14028 9.73571 5.98864 9.68736 5.85083 9.61087C5.71302 9.53437 5.59177 9.43126 5.49414 9.30752C5.29591 9.0571 5.20469 8.73849 5.24035 8.42111C5.27602 8.10372 5.43568 7.8133 5.68454 7.61312H5.68534Z" fill="#838383"/>
</g>
<defs>
<clipPath id="clip0_98_413">
<rect width="24" height="24" fill="white"/>
</clipPath>
</defs>
</svg>
