<svg width="24" height="24" viewBox="0 0 24 24" fill="none" xmlns="http://www.w3.org/2000/svg">
<g clip-path="url(#clip0_182_35794)">
<path d="M10.8545 23.7778C10.8115 23.7778 10.7697 23.764 10.7352 23.7383C10.7007 23.7127 10.6753 23.6766 10.663 23.6355C10.6506 23.5943 10.6518 23.5502 10.6664 23.5098C10.681 23.4694 10.7083 23.4347 10.7441 23.411L13.6881 21.471L9.77452 23.7302C9.72953 23.7554 9.67657 23.7622 9.62667 23.7493C9.57678 23.7363 9.53381 23.7046 9.50672 23.6608C9.47964 23.6169 9.47053 23.5643 9.4813 23.5139C9.49206 23.4635 9.52188 23.4192 9.56452 23.3902L14.0017 20.4738L8.62332 23.5786C8.5783 23.6034 8.52546 23.6099 8.47577 23.5968C8.42608 23.5837 8.38335 23.5519 8.35644 23.5082C8.32953 23.4644 8.32051 23.4119 8.33125 23.3616C8.34199 23.3114 8.37166 23.2672 8.41412 23.2382L13.7905 19.739L7.58212 23.323C7.53691 23.3483 7.48368 23.355 7.4336 23.3418C7.38352 23.3287 7.34051 23.2966 7.31362 23.2523C7.28673 23.2081 7.27805 23.1551 7.2894 23.1046C7.30076 23.0541 7.33127 23.0099 7.37452 22.9814L12.7501 19.5458L6.73132 23.0206C6.68575 23.0478 6.63125 23.0558 6.57979 23.0429C6.52833 23.0299 6.48413 22.997 6.45692 22.9514C6.42971 22.9059 6.42171 22.8514 6.43469 22.7999C6.44766 22.7484 6.48055 22.7042 6.52612 22.677L8.70252 21.3342L6.19172 22.7834C6.14642 22.8076 6.09355 22.8135 6.04406 22.7997C5.99458 22.786 5.95226 22.7538 5.92589 22.7097C5.89951 22.6657 5.8911 22.6131 5.90238 22.5631C5.91367 22.513 5.94379 22.4691 5.98652 22.4406L9.55732 20.2242L5.62612 22.4934C5.58074 22.518 5.52761 22.5241 5.47783 22.5105C5.42805 22.4968 5.38549 22.4644 5.35904 22.4201C5.33258 22.3758 5.3243 22.3229 5.3359 22.2726C5.34751 22.2223 5.37812 22.1785 5.42132 22.1502L8.23492 20.4162L5.14052 22.2026C5.11796 22.2161 5.09296 22.225 5.06696 22.2288C5.04096 22.2326 5.01447 22.2313 4.98899 22.2249C4.9635 22.2184 4.93954 22.207 4.91846 22.1914C4.89738 22.1757 4.87959 22.156 4.86612 22.1334C4.85264 22.1109 4.84375 22.0859 4.83993 22.0599C4.83612 22.0339 4.83746 22.0074 4.84389 21.9819C4.85031 21.9564 4.86169 21.9324 4.87738 21.9114C4.89307 21.8903 4.91276 21.8725 4.93532 21.859L8.07332 19.9246L4.67332 21.8846C4.62788 21.9102 4.57425 21.9171 4.52384 21.9037C4.47344 21.8903 4.43025 21.8578 4.40349 21.813C4.37673 21.7682 4.36851 21.7148 4.38058 21.6641C4.39265 21.6133 4.42406 21.5693 4.46812 21.5414L8.98412 18.7354L4.18412 21.5066C4.13861 21.5339 4.08411 21.5421 4.03261 21.5292C3.98111 21.5163 3.93683 21.4835 3.90952 21.438C3.8822 21.3925 3.87408 21.338 3.88695 21.2865C3.89981 21.235 3.93261 21.1907 3.97812 21.1634L8.76852 18.1814L3.71972 21.0994C3.67415 21.1266 3.61967 21.1345 3.56824 21.1215C3.51682 21.1085 3.47268 21.0756 3.44552 21.03C3.41836 20.9845 3.41041 20.93 3.42343 20.8785C3.43644 20.8271 3.46935 20.783 3.51492 20.7558L5.56812 19.497L3.37372 20.7634C3.32837 20.7884 3.27511 20.7948 3.22513 20.7813C3.17515 20.7678 3.13234 20.7355 3.10571 20.6911C3.07909 20.6467 3.07071 20.5937 3.08235 20.5433C3.09399 20.4928 3.12473 20.4489 3.16812 20.4206L7.32812 17.8338L2.98412 20.3422C2.93885 20.3667 2.88588 20.3729 2.83621 20.3593C2.78655 20.3458 2.74402 20.3136 2.71748 20.2695C2.69094 20.2254 2.68243 20.1727 2.69373 20.1225C2.70502 20.0723 2.73525 20.0283 2.77812 19.9998L6.69412 17.5598L2.62452 19.9078C2.57911 19.934 2.52523 19.9413 2.47449 19.9282C2.42374 19.915 2.38018 19.8825 2.35318 19.8376C2.32618 19.7926 2.3179 19.7389 2.33012 19.6879C2.34234 19.637 2.37408 19.5928 2.41852 19.565L6.32772 17.1174L2.28772 19.4498C2.24255 19.4755 2.18914 19.4827 2.13881 19.4697C2.08849 19.4567 2.04519 19.4246 2.0181 19.3803C1.991 19.3359 1.98224 19.2827 1.99367 19.232C2.0051 19.1813 2.03582 19.1371 2.07932 19.1086L8.19212 15.1698L1.87972 18.8138C1.83442 18.838 1.78155 18.8439 1.73206 18.8301C1.68258 18.8164 1.64026 18.7842 1.61389 18.7401C1.58751 18.6961 1.5791 18.6435 1.59038 18.5935C1.60167 18.5434 1.63179 18.4995 1.67452 18.471L3.99972 17.0286L1.64412 18.3886C1.59865 18.4138 1.54519 18.4202 1.49505 18.4066C1.44491 18.393 1.40202 18.3605 1.37546 18.3158C1.3489 18.2712 1.34076 18.218 1.35275 18.1674C1.36474 18.1169 1.39593 18.073 1.43972 18.045L1.80572 17.8206L1.46252 18.0182C1.41711 18.0456 1.36267 18.0539 1.31118 18.0412C1.25968 18.0285 1.21534 17.9958 1.18792 17.9504C1.16049 17.905 1.15223 17.8506 1.16495 17.7991C1.17766 17.7476 1.21031 17.7032 1.25572 17.6758L5.70652 14.8578L1.21532 17.4502C1.17003 17.4761 1.11643 17.4833 1.06593 17.4702C1.01544 17.4571 0.972054 17.4248 0.945026 17.3802C0.917999 17.3356 0.909468 17.2822 0.921254 17.2314C0.933041 17.1806 0.96421 17.1364 1.00812 17.1082L5.36492 14.3462L1.00492 16.863C0.959482 16.8886 0.905847 16.8955 0.855443 16.8821C0.80504 16.8687 0.761855 16.8362 0.735093 16.7914C0.708332 16.7466 0.700111 16.6932 0.712183 16.6425C0.724255 16.5917 0.755665 16.5477 0.799717 16.5198L3.59092 14.7738L0.855317 16.3534C0.809965 16.381 0.755535 16.3893 0.704 16.3767C0.652465 16.3641 0.608047 16.3316 0.580517 16.2862C0.552988 16.2409 0.544602 16.1864 0.557204 16.1349C0.569807 16.0834 0.602365 16.039 0.647717 16.0114L4.95612 13.2674L0.707717 15.7198C0.662577 15.7461 0.608959 15.7536 0.558322 15.7409C0.507686 15.7281 0.464046 15.6961 0.436728 15.6516C0.40941 15.6071 0.40058 15.5536 0.412126 15.5027C0.423672 15.4518 0.454678 15.4074 0.498517 15.379L6.11052 11.731L0.581717 14.9234C0.536206 14.9507 0.481728 14.9588 0.430268 14.9459C0.378808 14.933 0.334582 14.9001 0.307317 14.8546C0.280053 14.8091 0.271985 14.7546 0.284887 14.7032C0.29779 14.6517 0.330606 14.6075 0.376117 14.5802L1.69132 13.7646L0.536517 14.431C0.491202 14.4564 0.437786 14.4632 0.387572 14.4499C0.337358 14.4366 0.294286 14.4043 0.267469 14.3598C0.240653 14.3153 0.232196 14.2621 0.243888 14.2115C0.255581 14.1609 0.286505 14.1168 0.330117 14.0886L2.95692 12.4438L0.516917 13.8534C0.471482 13.879 0.417847 13.8859 0.367443 13.8725C0.31704 13.8591 0.273855 13.8266 0.247093 13.7818C0.220332 13.737 0.212111 13.6836 0.224183 13.6329C0.236255 13.5821 0.267665 13.5381 0.311717 13.5102L1.23172 12.9414L0.523317 13.349C0.478031 13.3749 0.424426 13.3821 0.373933 13.369C0.32344 13.3559 0.280054 13.3236 0.253026 13.279C0.225999 13.2344 0.217468 13.181 0.229255 13.1302C0.241041 13.0794 0.27221 13.0352 0.316117 13.007L3.82972 10.7858L0.573317 12.6658C0.528124 12.6936 0.473741 12.7023 0.422131 12.69C0.370521 12.6777 0.325912 12.6454 0.298117 12.6002C0.270323 12.555 0.261619 12.5006 0.273922 12.449C0.286224 12.3974 0.318524 12.3528 0.363717 12.325L5.88932 8.71182L0.729317 11.6914C0.684258 11.717 0.631013 11.7242 0.580804 11.7113C0.530596 11.6984 0.487346 11.6666 0.460169 11.6224C0.432992 11.5783 0.424012 11.5253 0.43512 11.4747C0.446229 11.4241 0.476558 11.3797 0.519717 11.351L5.57532 8.03102L0.997317 10.675C0.952193 10.6998 0.899235 10.7063 0.849471 10.693C0.799707 10.6798 0.756973 10.6479 0.730167 10.6039C0.703361 10.5599 0.69455 10.5073 0.705568 10.457C0.716587 10.4067 0.746585 10.3626 0.789317 10.3338L3.80252 8.39982L1.31132 9.83702C1.26629 9.86313 1.21286 9.87066 1.16237 9.858C1.11188 9.84534 1.06832 9.8135 1.04093 9.76924C1.01354 9.72498 1.00448 9.67179 1.01569 9.62096C1.02689 9.57013 1.05746 9.52567 1.10092 9.49702L4.66892 7.13702L1.83972 8.76862C1.79494 8.79516 1.74158 8.80319 1.69097 8.79102C1.64036 8.77884 1.59649 8.74741 1.56869 8.70341C1.54088 8.65941 1.53132 8.6063 1.54205 8.55536C1.55277 8.50443 1.58293 8.45968 1.62612 8.43062L4.58612 6.39582L2.73612 7.46382C2.69186 7.48981 2.63931 7.4978 2.58933 7.48612C2.53936 7.47445 2.49578 7.44401 2.46762 7.4011C2.43946 7.3582 2.42888 7.30611 2.43805 7.25561C2.44723 7.20512 2.47546 7.16008 2.51692 7.12982L4.20932 5.87742C4.17238 5.86571 4.13965 5.84353 4.11509 5.81357C4.09052 5.78361 4.07519 5.74715 4.07096 5.70864C4.06672 5.67013 4.07376 5.63122 4.09122 5.59663C4.10868 5.56205 4.13581 5.53328 4.16932 5.51382L6.58972 4.11662C6.63395 4.09128 6.68619 4.08379 6.73576 4.09568C6.78533 4.10757 6.82849 4.13793 6.85643 4.18057C6.88436 4.22321 6.89496 4.27491 6.88605 4.3251C6.87715 4.37529 6.84941 4.42019 6.80852 4.45062L5.58212 5.35982L8.77692 3.51582C8.8217 3.48929 8.87506 3.48125 8.92567 3.49343C8.97627 3.50561 9.02014 3.53703 9.04795 3.58104C9.07575 3.62504 9.08531 3.67815 9.07459 3.72908C9.06386 3.78002 9.0337 3.82477 8.99052 3.85382L6.03292 5.88742L10.1429 3.51342C10.188 3.48547 10.2423 3.47657 10.294 3.48868C10.3456 3.5008 10.3904 3.53294 10.4183 3.57802C10.4463 3.62311 10.4552 3.67745 10.4431 3.7291C10.4309 3.78075 10.3988 3.82547 10.3537 3.85342L6.78332 6.21622L10.9309 3.82182C10.9761 3.79611 11.0295 3.78899 11.0798 3.80198C11.1301 3.81496 11.1734 3.84703 11.2005 3.89139C11.2276 3.93574 11.2364 3.9889 11.225 4.03961C11.2135 4.09031 11.1828 4.13458 11.1393 4.16302L8.12892 6.09582L11.4289 4.19102C11.4739 4.16586 11.5269 4.15904 11.5768 4.17198C11.6267 4.18492 11.6696 4.21662 11.6967 4.26047C11.7238 4.30433 11.7329 4.35695 11.7221 4.40735C11.7114 4.45776 11.6816 4.50206 11.6389 4.53102L6.58092 7.85102L11.9197 4.77102C11.9647 4.74623 12.0176 4.73972 12.0673 4.75284C12.117 4.76596 12.1597 4.79771 12.1866 4.84149C12.2135 4.88528 12.2225 4.93774 12.2118 4.988C12.201 5.03826 12.1714 5.08246 12.1289 5.11142L6.60732 8.71982L12.2577 5.45782C12.3029 5.43295 12.356 5.42653 12.4059 5.4399C12.4558 5.45328 12.4985 5.48541 12.5252 5.52958C12.5519 5.57376 12.5605 5.62655 12.5492 5.67691C12.5379 5.72728 12.5076 5.77132 12.4645 5.79982L8.95252 8.02022L12.3953 6.03222C12.4406 6.00803 12.4935 6.00219 12.543 6.0159C12.5925 6.02962 12.6348 6.06185 12.6611 6.10591C12.6875 6.14998 12.6959 6.2025 12.6847 6.25259C12.6734 6.30269 12.6432 6.34653 12.6005 6.37502L11.6745 6.94822L12.4245 6.51542C12.4698 6.49003 12.5232 6.48327 12.5735 6.49656C12.6237 6.50985 12.6667 6.54216 12.6936 6.58665C12.7204 6.63113 12.7288 6.68431 12.7171 6.73492C12.7055 6.78553 12.6745 6.82961 12.6309 6.85782L10.0033 8.50382L12.4261 7.10382C12.4715 7.07885 12.5247 7.07243 12.5747 7.08592C12.6247 7.0994 12.6675 7.13174 12.6941 7.17614C12.7207 7.22053 12.7291 7.27353 12.7175 7.32397C12.7058 7.37441 12.6751 7.41838 12.6317 7.44662L11.3225 8.25902L12.4757 7.59302C12.5209 7.56677 12.5745 7.55922 12.6251 7.57197C12.6757 7.58473 12.7194 7.61678 12.7467 7.66128C12.774 7.70579 12.7829 7.75921 12.7713 7.81013C12.7598 7.86106 12.7288 7.90545 12.6849 7.93382L7.06892 11.5842L12.6965 8.33542C12.7417 8.31016 12.795 8.30341 12.845 8.31659C12.8951 8.32978 12.9381 8.36188 12.965 8.40613C12.9919 8.45038 13.0006 8.50334 12.9892 8.55387C12.9779 8.60439 12.9474 8.64854 12.9041 8.67702L8.59972 11.4214L13.1525 8.79182C13.1979 8.76564 13.2518 8.75833 13.3025 8.77147C13.3533 8.7846 13.3969 8.81714 13.4239 8.86207C13.4508 8.90699 13.4591 8.96073 13.4469 9.0117C13.4347 9.06268 13.403 9.10682 13.3585 9.13462L10.5673 10.8798L13.5301 9.16942C13.5753 9.14495 13.6281 9.13879 13.6777 9.15222C13.7273 9.16564 13.7698 9.19762 13.7964 9.24154C13.823 9.28545 13.8318 9.33793 13.8208 9.3881C13.8098 9.43827 13.7799 9.48228 13.7373 9.51102L9.38372 12.271L13.9789 9.61782C14.0242 9.59194 14.0778 9.58478 14.1283 9.59786C14.1788 9.61093 14.2222 9.64322 14.2492 9.68783C14.2762 9.73244 14.2848 9.78585 14.273 9.83666C14.2612 9.88747 14.23 9.93167 14.1861 9.95982L9.72892 12.7838L14.4293 10.0702C14.4747 10.0456 14.5278 10.0395 14.5776 10.0532C14.6274 10.0668 14.6699 10.0992 14.6964 10.1436C14.7228 10.1879 14.7311 10.2407 14.7195 10.291C14.7079 10.3413 14.6773 10.3852 14.6341 10.4134L14.2773 10.6326L14.7301 10.3714C14.7755 10.3464 14.8287 10.34 14.8787 10.3535C14.9287 10.367 14.9715 10.3993 14.9981 10.4437C15.0247 10.4881 15.0331 10.5411 15.0215 10.5916C15.0098 10.642 14.9791 10.686 14.9357 10.7142L12.6093 12.1598L15.0865 10.7294C15.1316 10.7046 15.1846 10.6982 15.2344 10.7114C15.2841 10.7247 15.3269 10.7566 15.3537 10.8006C15.3805 10.8445 15.3893 10.8972 15.3783 10.9475C15.3672 10.9978 15.3372 11.0419 15.2945 11.0706L9.18412 15.0066L15.7997 11.1874C15.845 11.162 15.8984 11.1553 15.9487 11.1686C15.9989 11.1819 16.0419 11.2142 16.0688 11.2586C16.0956 11.3031 16.104 11.3563 16.0923 11.4069C16.0807 11.4575 16.0497 11.5016 16.0061 11.5298L12.0981 13.9766L16.7197 11.309C16.7651 11.2828 16.819 11.2755 16.8697 11.2887C16.9205 11.3018 16.9641 11.3343 16.991 11.3793C17.018 11.4242 17.0263 11.4779 17.0141 11.5289C17.0019 11.5799 16.9701 11.624 16.9257 11.6518L12.9997 14.0978L17.7665 11.3458C17.812 11.3186 17.8665 11.3105 17.918 11.3234C17.9694 11.3363 18.0137 11.3691 18.0409 11.4146C18.0682 11.4601 18.0763 11.5146 18.0633 11.5661C18.0504 11.6175 18.0176 11.6618 17.9721 11.689L13.8121 14.275L18.5097 11.563C18.5553 11.5359 18.6099 11.5279 18.6613 11.541C18.7128 11.554 18.757 11.587 18.7841 11.6326C18.8113 11.6782 18.8192 11.7328 18.8061 11.7842C18.7931 11.8357 18.7601 11.8799 18.7145 11.907L16.6665 13.1618L18.9885 11.8218C19.0339 11.7968 19.0871 11.7904 19.1371 11.8039C19.1871 11.8174 19.2299 11.8497 19.2565 11.8941C19.2831 11.9385 19.2915 11.9915 19.2799 12.042C19.2682 12.0924 19.2375 12.1364 19.1941 12.1646L14.3997 15.1486L19.4725 12.2202C19.5178 12.196 19.5707 12.1902 19.6202 12.2039C19.6697 12.2176 19.712 12.2499 19.7383 12.2939C19.7647 12.338 19.7731 12.3905 19.7619 12.4406C19.7506 12.4907 19.7204 12.5345 19.6777 12.563L15.1633 15.3694L19.8365 12.6714C19.8819 12.6468 19.935 12.6407 19.9848 12.6544C20.0346 12.668 20.0771 12.7004 20.1036 12.7448C20.13 12.7891 20.1383 12.8419 20.1267 12.8922C20.1151 12.9425 20.0845 12.9864 20.0413 13.0146L16.9081 14.9462L20.0741 13.1198C20.1195 13.0952 20.1726 13.0891 20.2224 13.1028C20.2722 13.1164 20.3147 13.1488 20.3412 13.1932C20.3676 13.2375 20.3759 13.2903 20.3643 13.3406C20.3527 13.3909 20.3221 13.4348 20.2789 13.463L17.4637 15.1974L20.2237 13.6034C20.2691 13.5784 20.3223 13.572 20.3723 13.5855C20.4223 13.599 20.4651 13.6313 20.4917 13.6757C20.5183 13.7201 20.5267 13.7731 20.5151 13.8236C20.5034 13.874 20.4727 13.918 20.4293 13.9462L16.8609 16.1598L20.2873 14.1822C20.3327 14.1576 20.3858 14.1515 20.4356 14.1652C20.4854 14.1788 20.5279 14.2112 20.5544 14.2556C20.5808 14.2999 20.5891 14.3527 20.5775 14.403C20.5659 14.4533 20.5353 14.4972 20.4921 14.5254L18.3133 15.8718L20.2333 14.7626C20.2785 14.7374 20.3318 14.7306 20.3818 14.7438C20.4319 14.757 20.4749 14.7891 20.5018 14.8333C20.5287 14.8776 20.5374 14.9305 20.526 14.9811C20.5147 15.0316 20.4842 15.0757 20.4409 15.1042L15.0649 18.5402L20.0761 15.6478C20.1213 15.6216 20.1749 15.614 20.2255 15.6268C20.2761 15.6395 20.3198 15.6716 20.3471 15.7161C20.3744 15.7606 20.3833 15.814 20.3717 15.8649C20.3602 15.9159 20.3292 15.9603 20.2853 15.9886L14.9085 19.4882L19.7845 16.6734C19.8295 16.649 19.8821 16.6427 19.9315 16.6558C19.981 16.669 20.0235 16.7006 20.0504 16.7441C20.0772 16.7877 20.0863 16.8399 20.0759 16.89C20.0654 16.9401 20.0362 16.9843 19.9941 17.0134L15.5597 19.929L19.3469 17.7426C19.3921 17.7147 19.4464 17.7059 19.4981 17.7181C19.5237 17.7241 19.5478 17.7351 19.5691 17.7505C19.5904 17.7659 19.6085 17.7853 19.6223 17.8076C19.6361 17.83 19.6454 17.8548 19.6496 17.8808C19.6538 17.9067 19.6529 17.9332 19.6469 17.9588C19.6408 17.9844 19.6298 18.0085 19.6144 18.0298C19.5991 18.0511 19.5797 18.0692 19.5573 18.083L16.6125 20.0234L18.7781 18.7734C18.8232 18.749 18.8759 18.7427 18.9254 18.756C18.9749 18.7693 19.0174 18.8011 19.0442 18.8449C19.0709 18.8886 19.0798 18.9409 19.0691 18.991C19.0584 19.0412 19.0288 19.0853 18.9865 19.1142L18.3257 19.5402C18.3671 19.5418 18.4069 19.5561 18.4398 19.5812C18.4726 19.6063 18.4969 19.641 18.5092 19.6805C18.5215 19.72 18.5213 19.7623 18.5086 19.8016C18.4959 19.841 18.4712 19.8754 18.4381 19.9002L16.7049 21.189C16.7475 21.1921 16.7881 21.2088 16.8205 21.2366C16.853 21.2644 16.8757 21.3019 16.8853 21.3435C16.8949 21.3851 16.8909 21.4288 16.874 21.468C16.857 21.5072 16.8279 21.5399 16.7909 21.5614L14.1509 23.085C14.1067 23.1107 14.0544 23.1185 14.0046 23.1069C13.9548 23.0952 13.9114 23.0648 13.8833 23.0221C13.8552 22.9794 13.8445 22.9276 13.8534 22.8772C13.8623 22.8269 13.8902 22.7819 13.9313 22.7514L15.4289 21.6398L11.9225 23.6638C11.8775 23.6883 11.8247 23.6945 11.7752 23.6812C11.7257 23.6679 11.6832 23.6361 11.6565 23.5924C11.6297 23.5487 11.6208 23.4963 11.6315 23.4462C11.6423 23.3961 11.6718 23.352 11.7141 23.323L11.8485 23.2362L10.9545 23.7522C10.924 23.7695 10.8895 23.7783 10.8545 23.7778Z" fill="#DFE2F2"/>
<path d="M15.7109 19.3428C15.6719 19.3428 15.6338 19.3314 15.6013 19.31C15.5688 19.2886 15.5432 19.2582 15.5277 19.2225C15.5122 19.1867 15.5074 19.1473 15.514 19.1089C15.5206 19.0705 15.5383 19.0349 15.5649 19.0064L15.9605 18.584L14.8925 19.1996C14.8499 19.224 14.7998 19.2319 14.7518 19.2218C14.7037 19.2116 14.6611 19.1842 14.632 19.1447C14.6029 19.1051 14.5894 19.0563 14.594 19.0074C14.5985 18.9585 14.6209 18.9131 14.6569 18.8796L15.5077 18.0892L14.3293 18.7692C14.2856 18.7945 14.234 18.8023 14.1849 18.7911C14.1357 18.78 14.0925 18.7507 14.0641 18.709C14.0356 18.6674 14.0239 18.6166 14.0313 18.5667C14.0387 18.5168 14.0647 18.4716 14.1041 18.44L14.5597 18.0756L14.0769 18.3556C14.0343 18.3785 13.985 18.3851 13.9379 18.3744C13.8908 18.3637 13.8492 18.3363 13.8208 18.2973C13.7923 18.2583 13.7789 18.2104 13.783 18.1623C13.7872 18.1142 13.8086 18.0692 13.8433 18.0356L14.6433 17.3156L13.9565 17.7124C13.9156 17.7358 13.8678 17.744 13.8215 17.7356C13.7752 17.7272 13.7334 17.7027 13.7033 17.6665C13.6733 17.6303 13.6569 17.5846 13.6572 17.5376C13.6575 17.4905 13.6744 17.4451 13.7049 17.4092L14.2681 16.7552C14.2213 16.7671 14.1718 16.7616 14.1288 16.7399C14.0857 16.7181 14.052 16.6816 14.0338 16.6369C14.0155 16.5922 14.0141 16.5425 14.0296 16.4968C14.0452 16.4512 14.0768 16.4127 14.1185 16.3884L15.0741 15.8368C15.115 15.8135 15.1628 15.8053 15.2091 15.8138C15.2554 15.8223 15.2973 15.8468 15.3273 15.883C15.3573 15.9193 15.3735 15.965 15.3732 16.0121C15.3728 16.0592 15.3558 16.1046 15.3253 16.1404L14.7773 16.7768L16.1081 16.0084C16.1506 15.9856 16.2 15.9789 16.247 15.9897C16.2941 16.0004 16.3357 16.0278 16.3642 16.0667C16.3926 16.1057 16.406 16.1537 16.4019 16.2018C16.3978 16.2499 16.3764 16.2949 16.3417 16.3284L15.5417 17.0484L16.6077 16.4328C16.6512 16.4082 16.7025 16.4008 16.7513 16.4121C16.8001 16.4234 16.8428 16.4526 16.8711 16.4939C16.8994 16.5352 16.9112 16.5856 16.9041 16.6352C16.897 16.6848 16.8716 16.7299 16.8329 16.7616L16.3785 17.1268L16.8421 16.8596C16.8847 16.8352 16.9347 16.8274 16.9828 16.8375C17.0308 16.8476 17.0734 16.8751 17.1025 16.9146C17.1316 16.9541 17.1451 17.003 17.1406 17.0519C17.136 17.1007 17.1136 17.1462 17.0777 17.1796L16.2269 17.9704L16.9277 17.5636C16.9692 17.5393 17.0181 17.5308 17.0655 17.5396C17.1128 17.5484 17.1554 17.5741 17.1853 17.6118C17.2153 17.6495 17.2306 17.6967 17.2286 17.7448C17.2265 17.7929 17.2072 17.8387 17.1741 17.8736L16.6873 18.3936C16.7293 18.3979 16.7689 18.4154 16.8004 18.4436C16.8319 18.4718 16.8536 18.5092 16.8625 18.5506C16.8714 18.5919 16.8669 18.6349 16.8498 18.6736C16.8327 18.7122 16.8038 18.7444 16.7673 18.7656L15.8125 19.3168C15.7816 19.3346 15.7465 19.3436 15.7109 19.3428Z" fill="#461DDB"/>
<path d="M3.98616 15.0078C3.94545 15.0078 3.90572 14.9953 3.87228 14.9721C3.83883 14.9489 3.81327 14.916 3.79901 14.8779C3.78475 14.8398 3.78247 14.7982 3.79246 14.7587C3.80246 14.7193 3.82427 14.6838 3.85496 14.657L3.90096 14.617L3.49096 14.8538C3.4481 14.8786 3.39758 14.8866 3.34917 14.8762C3.30076 14.8659 3.25791 14.838 3.2289 14.7979C3.19989 14.7578 3.18678 14.7083 3.19211 14.6591C3.19744 14.6099 3.22084 14.5644 3.25776 14.5314L3.96336 13.9002L2.96016 14.4802C2.91704 14.5047 2.86637 14.5123 2.81798 14.5015C2.7696 14.4907 2.72694 14.4623 2.69829 14.4218C2.66964 14.3814 2.65704 14.3317 2.66293 14.2825C2.66882 14.2333 2.69278 14.188 2.73016 14.1554L3.49536 13.5006L2.64736 13.989C2.60437 14.0136 2.55378 14.0214 2.50538 14.0108C2.45699 14.0003 2.41424 13.9721 2.38541 13.9318C2.35659 13.8916 2.34373 13.842 2.34934 13.7928C2.35494 13.7436 2.37861 13.6982 2.41576 13.6654L3.14216 13.0294L2.52896 13.3834C2.48818 13.4068 2.44047 13.4151 2.39421 13.4068C2.34794 13.3985 2.30607 13.3742 2.27595 13.3381C2.24583 13.302 2.22938 13.2565 2.22949 13.2095C2.22961 13.1624 2.24627 13.117 2.27656 13.081L2.86056 12.3926C2.81404 12.408 2.76349 12.4058 2.71849 12.3864C2.67349 12.367 2.63719 12.3318 2.61646 12.2874C2.59574 12.2429 2.59204 12.1925 2.60607 12.1455C2.6201 12.0986 2.65088 12.0584 2.69256 12.0326L3.65256 11.4786C3.69334 11.4553 3.74105 11.447 3.78732 11.4553C3.83359 11.4636 3.87546 11.4879 3.90558 11.524C3.9357 11.5601 3.95215 11.6056 3.95203 11.6526C3.95192 11.6996 3.93526 11.7451 3.90496 11.781L3.32696 12.461L4.71096 11.661C4.75396 11.6364 4.80455 11.6287 4.85294 11.6392C4.90134 11.6498 4.94409 11.678 4.97291 11.7182C5.00174 11.7585 5.0146 11.8081 5.00899 11.8573C5.00338 11.9065 4.97971 11.9519 4.94256 11.9846L4.21696 12.6198L5.17336 12.0678C5.21649 12.0434 5.26716 12.0358 5.31554 12.0466C5.36393 12.0574 5.40659 12.0858 5.43524 12.1262C5.46389 12.1667 5.47649 12.2164 5.4706 12.2656C5.46471 12.3148 5.44075 12.3601 5.40336 12.3926L4.64016 13.0482L5.44016 12.5858C5.48303 12.5611 5.53355 12.5531 5.58196 12.5634C5.63037 12.5738 5.67322 12.6017 5.70223 12.6418C5.73124 12.6819 5.74435 12.7314 5.73901 12.7806C5.73368 12.8298 5.71029 12.8753 5.67336 12.9082L4.96736 13.539L5.49696 13.2334C5.54 13.2088 5.59068 13.201 5.63915 13.2116C5.68762 13.2222 5.73042 13.2504 5.75924 13.2908C5.78805 13.3312 5.80083 13.3808 5.79509 13.4301C5.78935 13.4794 5.76549 13.5248 5.72816 13.5574L5.46096 13.7898C5.49964 13.7994 5.53457 13.8204 5.56126 13.85C5.58796 13.8796 5.60521 13.9164 5.61079 13.9559C5.61638 13.9954 5.61005 14.0356 5.59262 14.0714C5.57519 14.1073 5.54745 14.1371 5.51296 14.157L4.08656 14.9806C4.05616 14.9986 4.02147 15.008 3.98616 15.0078Z" fill="#E2741A"/>
<path d="M5.52889 19.8743C5.48823 19.8743 5.44855 19.8618 5.41515 19.8387C5.38174 19.8155 5.35618 19.7827 5.34189 19.7446C5.32759 19.7066 5.32524 19.6651 5.33514 19.6256C5.34503 19.5862 5.36671 19.5507 5.39729 19.5239L5.80609 19.1639L5.06689 19.5903C5.02376 19.6148 4.97309 19.6223 4.92471 19.6116C4.87632 19.6008 4.83366 19.5724 4.80501 19.5319C4.77636 19.4915 4.76376 19.4418 4.76965 19.3926C4.77554 19.3434 4.7995 19.2981 4.83689 19.2655L5.49089 18.7055L4.66689 19.1807C4.62398 19.2055 4.57337 19.2136 4.52489 19.2032C4.47641 19.1928 4.43351 19.1648 4.40452 19.1246C4.37552 19.0844 4.36248 19.0348 4.36795 18.9856C4.37341 18.9363 4.39698 18.8908 4.43409 18.8579L5.20849 18.1703L4.43009 18.6195C4.38686 18.6446 4.33582 18.6525 4.28702 18.6418C4.23821 18.6311 4.19518 18.6025 4.16639 18.5617C4.1376 18.5209 4.12513 18.4708 4.13144 18.4212C4.13775 18.3716 4.16238 18.3262 4.20049 18.2939L4.64689 17.9135L4.41809 18.0455C4.37622 18.0697 4.32702 18.0778 4.27959 18.0685C4.23216 18.0592 4.18971 18.033 4.1601 17.9948C4.13048 17.9566 4.11571 17.909 4.1185 17.8607C4.12129 17.8125 4.14146 17.7669 4.17529 17.7323L4.60609 17.2955C4.56894 17.2839 4.53598 17.2618 4.51124 17.2317C4.48651 17.2017 4.47107 17.1651 4.46682 17.1264C4.46258 17.0877 4.46971 17.0487 4.48734 17.014C4.50497 16.9793 4.53234 16.9505 4.56609 16.9311L5.51929 16.3807C5.56115 16.3569 5.61022 16.3489 5.65747 16.3584C5.70472 16.3678 5.74697 16.394 5.77647 16.4321C5.80596 16.4702 5.8207 16.5177 5.81798 16.5658C5.81527 16.6139 5.79528 16.6594 5.76169 16.6939L5.49929 16.9603L6.34369 16.4731C6.38712 16.4471 6.43881 16.4385 6.48833 16.4491C6.53784 16.4597 6.5815 16.4887 6.61048 16.5302C6.63946 16.5717 6.65162 16.6227 6.64449 16.6728C6.63737 16.723 6.61149 16.7685 6.57209 16.8003L6.12489 17.1815L6.71209 16.8403C6.75494 16.8159 6.8053 16.8082 6.85348 16.8187C6.90166 16.8292 6.94427 16.8571 6.97314 16.8971C7.00201 16.937 7.01509 16.9863 7.00987 17.0353C7.00466 17.0843 6.98151 17.1297 6.94489 17.1627L6.17089 17.8503L7.15649 17.2815C7.19967 17.2566 7.25061 17.2487 7.29933 17.2593C7.34804 17.27 7.39101 17.2985 7.4198 17.3392C7.4486 17.3799 7.46115 17.4299 7.45498 17.4794C7.44882 17.5289 7.42439 17.5743 7.38649 17.6067L6.73209 18.1667L7.36849 17.7995C7.41148 17.7749 7.46207 17.7672 7.51047 17.7777C7.55886 17.7883 7.60161 17.8164 7.63044 17.8567C7.65926 17.897 7.67212 17.9465 7.66651 17.9958C7.66091 18.045 7.63724 18.0904 7.60009 18.1231L7.19129 18.4811L7.30769 18.4143C7.35339 18.3904 7.40657 18.3851 7.45612 18.3995C7.50566 18.4138 7.54773 18.4468 7.57355 18.4915C7.59936 18.5361 7.60692 18.589 7.59465 18.6391C7.58238 18.6892 7.55122 18.7326 7.50769 18.7603L5.62769 19.8447C5.59796 19.8632 5.56386 19.8734 5.52889 19.8743Z" fill="#F4AB19"/>
<path d="M10.3549 21.7252C10.3143 21.7251 10.2747 21.7127 10.2414 21.6896C10.208 21.6665 10.1824 21.6338 10.1681 21.5958C10.1538 21.5578 10.1513 21.5163 10.1611 21.4769C10.1709 21.4375 10.1925 21.402 10.2229 21.3752L10.7149 20.942L9.90135 21.4112C9.85774 21.4363 9.80628 21.444 9.75722 21.4329C9.70816 21.4217 9.6651 21.3925 9.63664 21.351C9.60817 21.3095 9.59639 21.2588 9.60364 21.2091C9.61089 21.1593 9.63664 21.114 9.67575 21.0824L10.0705 20.7652L9.56935 21.0544C9.52536 21.0798 9.47334 21.0875 9.42387 21.076C9.37439 21.0644 9.33116 21.0345 9.30296 20.9922C9.27475 20.95 9.26369 20.8986 9.27201 20.8485C9.28033 20.7983 9.3074 20.7533 9.34775 20.7224L9.40255 20.6824L9.38695 20.6916C9.34391 20.7163 9.29323 20.7241 9.24476 20.7135C9.19629 20.7029 9.15349 20.6746 9.12468 20.6343C9.09586 20.5939 9.08308 20.5442 9.08882 20.4949C9.09456 20.4457 9.11842 20.4003 9.15575 20.3676L9.81815 19.7916L9.29815 20.0908C9.25701 20.1146 9.20875 20.1229 9.16201 20.1144C9.11527 20.1058 9.0731 20.0809 9.04307 20.0441C9.01303 20.0072 8.99709 19.9609 8.99809 19.9134C8.9991 19.8659 9.01698 19.8203 9.04855 19.7848L9.58455 19.1812C9.5389 19.1867 9.49277 19.1762 9.45391 19.1517C9.41504 19.1271 9.38583 19.0899 9.37118 19.0463C9.35653 19.0028 9.35734 18.9555 9.37347 18.9124C9.3896 18.8694 9.42007 18.8332 9.45975 18.81L10.4221 18.2544C10.4633 18.2306 10.5115 18.2223 10.5583 18.2308C10.605 18.2394 10.6472 18.2643 10.6772 18.3011C10.7073 18.3379 10.7232 18.3843 10.7222 18.4318C10.7212 18.4793 10.7033 18.5249 10.6717 18.5604L10.1697 19.1244L11.4149 18.4044C11.4579 18.3802 11.5084 18.3727 11.5565 18.3834C11.6047 18.3941 11.6472 18.4222 11.6759 18.4624C11.7046 18.5025 11.7174 18.5518 11.7119 18.6009C11.7064 18.6499 11.683 18.6952 11.6461 18.728L10.9833 19.3052L11.8937 18.7792C11.9377 18.7538 11.9898 18.7461 12.0392 18.7576C12.0887 18.7691 12.1319 18.7991 12.1601 18.8413C12.1883 18.8836 12.1994 18.935 12.1911 18.9851C12.1828 19.0352 12.1557 19.0803 12.1153 19.1112L12.0597 19.1536L12.1197 19.1204C12.1633 19.0957 12.2146 19.0883 12.2634 19.0996C12.3121 19.111 12.3549 19.1401 12.3832 19.1815C12.4115 19.2228 12.4233 19.2732 12.4162 19.3228C12.4091 19.3723 12.3837 19.4175 12.3449 19.4492L11.9513 19.766L12.2597 19.588C12.3026 19.5635 12.3531 19.5558 12.4013 19.5663C12.4496 19.5768 12.4922 19.6048 12.5211 19.6449C12.5499 19.685 12.5629 19.7343 12.5576 19.7834C12.5523 19.8325 12.5289 19.8779 12.4921 19.9108L11.9997 20.3456L12.2293 20.2132C12.2521 20.1987 12.2776 20.189 12.3042 20.1846C12.3308 20.1802 12.358 20.1813 12.3842 20.1877C12.4104 20.1941 12.4351 20.2058 12.4566 20.222C12.4782 20.2382 12.4963 20.2585 12.5098 20.2819C12.5233 20.3052 12.5319 20.3311 12.5352 20.3579C12.5384 20.3846 12.5362 20.4118 12.5287 20.4377C12.5212 20.4636 12.5085 20.4877 12.4915 20.5086C12.4744 20.5295 12.4532 20.5467 12.4293 20.5592L10.4569 21.698C10.4261 21.7162 10.3908 21.7256 10.3549 21.7252Z" fill="#2A4093"/>
<path d="M6.34195 10.3439C6.3031 10.3438 6.2651 10.3325 6.2326 10.3112C6.2001 10.2899 6.1745 10.2596 6.15893 10.224C6.14336 10.1884 6.13849 10.1491 6.14492 10.1107C6.15136 10.0724 6.16881 10.0368 6.19515 10.0083L6.96715 9.17346L5.55715 9.98746C5.51377 10.0133 5.46219 10.0218 5.4128 10.0112C5.3634 10.0007 5.31985 9.97177 5.29087 9.93039C5.2619 9.88901 5.24966 9.8382 5.25661 9.78816C5.26357 9.73813 5.28919 9.69257 5.32835 9.66066L5.94675 9.14346L5.18955 9.58066C5.14622 9.60592 5.09499 9.61398 5.04599 9.60324C4.997 9.5925 4.95383 9.56375 4.92504 9.52268C4.89625 9.48161 4.88395 9.43122 4.89056 9.38151C4.89718 9.33179 4.92223 9.28637 4.96075 9.25426L5.61275 8.70866L4.97995 9.07426C4.93621 9.09932 4.88462 9.10694 4.8355 9.09559C4.78638 9.08424 4.74336 9.05476 4.71505 9.01305C4.68674 8.97134 4.67522 8.92047 4.6828 8.87063C4.69039 8.82079 4.71651 8.77566 4.75595 8.74426L4.90475 8.62426C4.86691 8.63555 4.82654 8.63522 4.78889 8.62331C4.75123 8.6114 4.71802 8.58846 4.69355 8.55746C4.66366 8.52029 4.64804 8.47366 4.64951 8.42598C4.65098 8.3783 4.66943 8.33272 4.70155 8.29746L5.21035 7.73746C5.16633 7.73746 5.12353 7.72293 5.08861 7.69613C5.05368 7.66932 5.02857 7.63175 5.01718 7.58922C5.00578 7.5467 5.00874 7.5016 5.02558 7.46093C5.04243 7.42025 5.07223 7.38627 5.11035 7.36426L6.06595 6.81226C6.10729 6.78822 6.15588 6.77979 6.2029 6.7885C6.24992 6.79721 6.29227 6.82248 6.32226 6.85972C6.35225 6.89697 6.3679 6.94373 6.36638 6.99153C6.36486 7.03933 6.34626 7.085 6.31395 7.12026L5.86355 7.61426L7.02355 6.94466C7.06723 6.92019 7.11849 6.91299 7.16721 6.92449C7.21593 6.93598 7.25858 6.96532 7.28671 7.00673C7.31485 7.04813 7.32644 7.09858 7.31919 7.14811C7.31194 7.19765 7.28638 7.24266 7.24755 7.27426L7.12755 7.36866L7.40755 7.20866C7.45094 7.18278 7.50251 7.17428 7.5519 7.18487C7.6013 7.19546 7.64486 7.22434 7.67383 7.26572C7.7028 7.30711 7.71504 7.35792 7.70809 7.40796C7.70114 7.45799 7.67551 7.50354 7.63635 7.53546L6.98555 8.08026L7.74195 7.64346C7.78534 7.61758 7.83691 7.60908 7.8863 7.61967C7.9357 7.63026 7.97926 7.65914 8.00823 7.70052C8.0372 7.74191 8.04944 7.79272 8.04249 7.84276C8.03554 7.89279 8.00991 7.93834 7.97075 7.97026L7.35195 8.48786L7.90875 8.16786C7.95017 8.14382 7.99885 8.13544 8.04592 8.14425C8.093 8.15305 8.13535 8.17846 8.16528 8.21585C8.19521 8.25324 8.21073 8.30012 8.20902 8.34798C8.20731 8.39585 8.18848 8.4415 8.15595 8.47666L7.38395 9.31146L7.75515 9.09746C7.80086 9.07355 7.85404 9.06822 7.90358 9.08259C7.95312 9.09697 7.9952 9.12993 8.02101 9.17459C8.04683 9.21925 8.05439 9.27215 8.04211 9.32226C8.02984 9.37236 7.99868 9.41578 7.95515 9.44346L6.44195 10.3171C6.41163 10.3348 6.37709 10.3441 6.34195 10.3439Z" fill="#C62645"/>
<path d="M6.73876 17.7883C6.69586 17.7884 6.65407 17.7747 6.61955 17.7492C6.58503 17.7237 6.55962 17.6878 6.54707 17.6468C6.53451 17.6058 6.53548 17.5618 6.54983 17.5214C6.56418 17.4809 6.59115 17.4462 6.62676 17.4223L7.42116 16.8887L6.51196 17.4131C6.46767 17.4386 6.41526 17.4463 6.3655 17.4344C6.31575 17.4226 6.27243 17.3921 6.24446 17.3492C6.21649 17.3064 6.206 17.2545 6.21513 17.2042C6.22426 17.1538 6.25233 17.1089 6.29356 17.0787L9.19996 14.9475L6.56996 16.4675C6.52518 16.4926 6.47243 16.4996 6.42264 16.487C6.37285 16.4743 6.32984 16.443 6.30253 16.3995C6.27522 16.3559 6.2657 16.3036 6.27594 16.2533C6.28619 16.2029 6.31542 16.1584 6.35756 16.1291L7.56716 15.3051L6.67316 15.8211C6.62858 15.8464 6.57599 15.8536 6.52625 15.8412C6.47651 15.8288 6.43341 15.7979 6.40584 15.7547C6.37828 15.7114 6.36837 15.6593 6.37814 15.609C6.38791 15.5587 6.41663 15.514 6.45836 15.4843L7.97836 14.4187L6.86196 15.0627C6.81829 15.0871 6.76703 15.0943 6.7183 15.0828C6.66958 15.0713 6.62694 15.042 6.5988 15.0006C6.57066 14.9592 6.55907 14.9087 6.56632 14.8592C6.57357 14.8097 6.59914 14.7647 6.63796 14.7331L8.56756 13.2047L7.34116 13.9123C7.29862 13.9351 7.24927 13.9418 7.2022 13.931C7.15513 13.9203 7.11352 13.8929 7.08506 13.854C7.05659 13.815 7.04319 13.767 7.04733 13.7189C7.05147 13.6708 7.07286 13.6258 7.10756 13.5923L8.13316 12.6723C8.09378 12.6636 8.05791 12.6433 8.03027 12.614C8.00264 12.5846 7.98452 12.5476 7.97829 12.5078C7.97206 12.4679 7.97802 12.4272 7.99537 12.3908C8.01273 12.3544 8.04068 12.3241 8.07556 12.3039L9.40636 11.5359C9.4489 11.513 9.49826 11.5064 9.54533 11.5171C9.5924 11.5278 9.634 11.5552 9.66247 11.5942C9.69093 11.6332 9.70433 11.6811 9.70019 11.7292C9.69606 11.7773 9.67466 11.8223 9.63996 11.8559L8.80396 12.6059L10.7316 11.4931C10.7753 11.4681 10.8267 11.4606 10.8757 11.4719C10.9247 11.4833 10.9677 11.5127 10.996 11.5542C11.0243 11.5958 11.0359 11.6465 11.0285 11.6963C11.021 11.746 10.9952 11.7911 10.956 11.8227L9.02476 13.3519L11.7356 11.7875C11.7801 11.7622 11.8327 11.755 11.8825 11.7673C11.9322 11.7797 11.9753 11.8107 12.0029 11.8539C12.0304 11.8971 12.0404 11.9492 12.0306 11.9995C12.0208 12.0499 11.9921 12.0945 11.9504 12.1243L10.4304 13.1887L12.018 12.2723C12.0626 12.248 12.1149 12.2416 12.1641 12.2545C12.2133 12.2674 12.2557 12.2985 12.2828 12.3416C12.3098 12.3846 12.3195 12.4364 12.3097 12.4863C12.3 12.5362 12.2716 12.5805 12.2304 12.6103L11.0212 13.4343L12.1664 12.7735C12.2107 12.7479 12.2631 12.7402 12.3128 12.7521C12.3626 12.764 12.4059 12.7945 12.4339 12.8373C12.4618 12.8801 12.4723 12.932 12.4632 12.9823C12.4541 13.0327 12.426 13.0776 12.3848 13.1079L9.47996 15.2403L12.3008 13.6119C12.3457 13.5858 12.399 13.5783 12.4493 13.5908C12.4997 13.6034 12.5433 13.635 12.5707 13.679C12.5982 13.7231 12.6075 13.7761 12.5966 13.8269C12.5857 13.8776 12.5555 13.9222 12.5124 13.9511L11.72 14.4803L12.2264 14.1879C12.2703 14.1626 12.3222 14.155 12.3715 14.1666C12.4208 14.1781 12.4639 14.208 12.4921 14.2501C12.5203 14.2922 12.5315 14.3434 12.5233 14.3934C12.5152 14.4434 12.4884 14.4884 12.4484 14.5195L10.8652 15.7343L11.7924 15.2003C11.8151 15.1858 11.8406 15.1761 11.8672 15.1717C11.8938 15.1673 11.921 15.1684 11.9472 15.1748C11.9734 15.1812 11.9981 15.1929 12.0196 15.209C12.0412 15.2252 12.0593 15.2456 12.0728 15.269C12.0863 15.2923 12.0949 15.3182 12.0982 15.3449C12.1015 15.3717 12.0993 15.3989 12.0917 15.4248C12.0842 15.4507 12.0715 15.4748 12.0545 15.4957C12.0374 15.5166 12.0163 15.5338 11.9924 15.5463L8.42356 17.6071C8.37962 17.6323 8.32775 17.6399 8.27842 17.6283C8.2291 17.6168 8.18599 17.587 8.1578 17.5449C8.12962 17.5028 8.11846 17.4515 8.12658 17.4015C8.13471 17.3515 8.1615 17.3065 8.20156 17.2755L9.78436 16.0607L6.83996 17.7603C6.80932 17.7784 6.77439 17.7881 6.73876 17.7883Z" fill="#2A4093"/>
<path d="M14.0895 12.36C14.0482 12.36 14.0079 12.3473 13.9742 12.3235C13.9404 12.2998 13.9149 12.2662 13.901 12.2273C13.8871 12.1884 13.8855 12.1462 13.8966 12.1065C13.9076 12.0667 13.9307 12.0313 13.9627 12.0052L14.7551 11.3572L13.3171 12.1872C13.2723 12.2124 13.2195 12.2194 13.1697 12.2067C13.1199 12.194 13.0769 12.1627 13.0496 12.1192C13.0223 12.0757 13.0128 12.0233 13.023 11.973C13.0333 11.9226 13.0625 11.8782 13.1047 11.8488L13.1231 11.836L12.8943 11.968C12.8495 11.9936 12.7966 12.0009 12.7466 11.9884C12.6966 11.976 12.6533 11.9447 12.6258 11.9011C12.5984 11.8575 12.5887 11.805 12.599 11.7544C12.6093 11.7039 12.6387 11.6594 12.6811 11.63L14.6283 10.2896L12.4079 11.5696C12.3629 11.5956 12.3097 11.6032 12.2593 11.5906C12.2089 11.5781 12.1654 11.5465 12.1379 11.5024C12.1104 11.4584 12.1011 11.4054 12.112 11.3546C12.1229 11.3038 12.1531 11.2593 12.1963 11.2304L15.0467 9.3172L12.1163 11.0088C12.0712 11.0329 12.0186 11.0389 11.9692 11.0254C11.9199 11.012 11.8776 10.9801 11.851 10.9364C11.8244 10.8927 11.8156 10.8405 11.8263 10.7905C11.837 10.7405 11.8665 10.6965 11.9087 10.6676L13.4351 9.6908L11.9151 10.568C11.8699 10.595 11.816 10.6032 11.7649 10.5907C11.7138 10.5783 11.6697 10.5462 11.6421 10.5014C11.6145 10.4567 11.6056 10.4028 11.6174 10.3516C11.6292 10.3003 11.6607 10.2558 11.7051 10.2276L16.3579 7.16L12.1047 9.6172C12.0594 9.64308 12.0058 9.65025 11.9553 9.63717C11.9048 9.62409 11.8614 9.5918 11.8344 9.54719C11.8073 9.50258 11.7988 9.44917 11.8106 9.39836C11.8224 9.34755 11.8536 9.30336 11.8975 9.2752L14.7739 7.45L13.0371 8.4528C12.9919 8.47982 12.938 8.48798 12.8869 8.47552C12.8358 8.46306 12.7917 8.43098 12.7641 8.38622C12.7365 8.34147 12.7276 8.28764 12.7394 8.23639C12.7512 8.18514 12.7827 8.1406 12.8271 8.1124L17.5635 5.0084L15.3635 6.2788C15.3184 6.30325 15.2657 6.30948 15.2162 6.29618C15.1667 6.28289 15.1242 6.25109 15.0974 6.20736C15.0707 6.16363 15.0618 6.1113 15.0725 6.06118C15.0832 6.01105 15.1128 5.96696 15.1551 5.938L17.2687 4.5696C17.2278 4.56708 17.1886 4.55206 17.1565 4.52656C17.1244 4.50107 17.101 4.46633 17.0893 4.42706C17.0776 4.38778 17.0782 4.34586 17.0911 4.30697C17.1041 4.26807 17.1286 4.23409 17.1615 4.2096L21.2571 1.1736C21.2374 1.12855 21.235 1.07783 21.2503 1.03112C21.2657 0.984419 21.2977 0.945002 21.3403 0.920401L22.5159 0.240001C22.56 0.214887 22.6121 0.207529 22.6615 0.219424C22.7109 0.231318 22.7539 0.261572 22.7819 0.30404C22.8098 0.346508 22.8204 0.398006 22.8118 0.448073C22.8031 0.49814 22.7756 0.543022 22.7351 0.573601L20.2051 2.45L23.3251 0.650001C23.3703 0.622312 23.4247 0.613732 23.4763 0.626147C23.5278 0.638562 23.5724 0.670955 23.6001 0.716201C23.6277 0.761447 23.6363 0.815839 23.6239 0.867412C23.6115 0.918984 23.5791 0.963512 23.5339 0.991201L21.9699 2.0024L23.4855 1.1272C23.5305 1.10158 23.5838 1.09446 23.634 1.10733C23.6842 1.12021 23.7274 1.15207 23.7546 1.1962C23.7818 1.24034 23.7908 1.2933 23.7797 1.34393C23.7685 1.39456 23.7382 1.4389 23.6951 1.4676L18.9603 4.572L22.8571 2.32C22.9022 2.29616 22.9547 2.29047 23.0039 2.30409C23.053 2.31771 23.0952 2.34961 23.1216 2.39326C23.148 2.43691 23.1567 2.48901 23.146 2.5389C23.1353 2.58878 23.1059 2.63268 23.0639 2.6616L20.1863 4.488L22.0195 3.4296C22.0646 3.40258 22.1185 3.39442 22.1696 3.40688C22.2207 3.41934 22.2648 3.45142 22.2924 3.49618C22.32 3.54093 22.3289 3.59476 22.3171 3.64601C22.3053 3.69726 22.2738 3.7418 22.2295 3.77L17.5775 6.8352L20.8211 4.9628C20.8663 4.93753 20.9195 4.93079 20.9696 4.94397C21.0197 4.95716 21.0627 4.98926 21.0896 5.03351C21.1164 5.07776 21.1251 5.13072 21.1138 5.18124C21.1024 5.23177 21.0719 5.27592 21.0287 5.3044L19.4983 6.284L19.9755 6.0084C20.0203 5.98324 20.0732 5.97635 20.123 5.98915C20.1729 6.00195 20.2158 6.03347 20.243 6.07715C20.2702 6.12083 20.2795 6.1733 20.269 6.22367C20.2586 6.27404 20.229 6.31843 20.1867 6.3476L17.3387 8.2592L18.7931 7.4192C18.8377 7.39397 18.8904 7.38688 18.9402 7.39939C18.9899 7.41191 19.033 7.44306 19.0604 7.48642C19.0878 7.52978 19.0976 7.58203 19.0876 7.63235C19.0776 7.68267 19.0486 7.72723 19.0067 7.7568L17.0595 9.0972L17.5907 8.7908C17.6354 8.76562 17.6882 8.75863 17.738 8.77129C17.7878 8.78395 17.8308 8.81529 17.8581 8.8588C17.8854 8.90232 17.8949 8.95467 17.8847 9.00501C17.8744 9.05536 17.8452 9.09982 17.8031 9.1292L16.8707 9.7644C16.9019 9.77825 16.929 9.79986 16.9495 9.82718C16.97 9.8545 16.9832 9.88661 16.9878 9.92046C16.9924 9.95431 16.9882 9.98877 16.9757 10.0205C16.9631 10.0523 16.9427 10.0804 16.9163 10.102L15.4863 11.272C15.5035 11.2868 15.5181 11.3044 15.5295 11.324C15.556 11.3699 15.5633 11.4244 15.5496 11.4757C15.536 11.5269 15.5025 11.5706 15.4567 11.5972L14.1895 12.3288C14.1595 12.348 14.125 12.3588 14.0895 12.36Z" fill="#461DDB"/>
<path d="M12.5871 13.5935C12.5487 13.5935 12.5111 13.5825 12.4788 13.5617C12.4464 13.5409 12.4208 13.5113 12.4049 13.4763C12.389 13.4413 12.3835 13.4025 12.389 13.3645C12.3946 13.3264 12.411 13.2908 12.4363 13.2619L12.6183 13.0543L12.2799 13.2491C12.2408 13.2716 12.1953 13.2801 12.1507 13.2735C12.1061 13.2668 12.0651 13.2452 12.0342 13.2123C12.0034 13.1794 11.9847 13.137 11.981 13.092C11.9773 13.0471 11.9889 13.0022 12.0139 12.9647L12.4207 12.3579L11.7663 12.7355C11.7249 12.7593 11.6764 12.7674 11.6294 12.7585C11.5825 12.7496 11.5404 12.7242 11.5106 12.6869C11.4807 12.6496 11.4653 12.6029 11.4669 12.5551C11.4686 12.5074 11.4872 12.4619 11.5195 12.4267L11.6887 12.2431L11.4255 12.3947C11.3863 12.4174 11.3405 12.4261 11.2956 12.4193C11.2508 12.4126 11.2096 12.3908 11.1787 12.3575C11.1479 12.3242 11.1293 12.2813 11.126 12.2361C11.1228 12.1908 11.135 12.1457 11.1607 12.1083L11.5607 11.5315L10.9287 11.8959C10.8904 11.9177 10.8459 11.9262 10.8022 11.9201C10.7585 11.914 10.718 11.8936 10.6871 11.8621C10.6562 11.8306 10.6366 11.7898 10.6313 11.746C10.626 11.7022 10.6354 11.6578 10.6579 11.6199L11.0663 10.9399C11.0258 10.9474 10.984 10.9421 10.9467 10.9247C10.9094 10.9073 10.8785 10.8786 10.8583 10.8427C10.8318 10.7968 10.8246 10.7422 10.8383 10.6909C10.8521 10.6397 10.8856 10.596 10.9315 10.5695L11.5251 10.2271C11.5636 10.2048 11.6083 10.196 11.6523 10.202C11.6963 10.208 11.7371 10.2285 11.7682 10.2602C11.7993 10.292 11.8189 10.3331 11.824 10.3772C11.8291 10.4214 11.8194 10.4659 11.7963 10.5039L11.4003 11.1603L12.1283 10.7403C12.1677 10.7175 12.2136 10.7089 12.2585 10.7157C12.3035 10.7225 12.3447 10.7445 12.3755 10.7779C12.4064 10.8112 12.425 10.8541 12.4282 10.8993C12.4315 10.9446 12.4193 10.9897 12.3935 11.0271L11.9935 11.6035L12.6251 11.2391C12.6665 11.2153 12.715 11.2071 12.7619 11.216C12.8088 11.2249 12.8509 11.2502 12.8808 11.2874C12.9106 11.3247 12.9262 11.3713 12.9246 11.419C12.9231 11.4667 12.9045 11.5123 12.8723 11.5475L12.7031 11.7311L12.9659 11.5795C13.005 11.557 13.0506 11.5485 13.0952 11.5551C13.1398 11.5618 13.1808 11.5834 13.2116 11.6163C13.2424 11.6492 13.2612 11.6916 13.2649 11.7366C13.2686 11.7815 13.2569 11.8264 13.2319 11.8639L12.8251 12.4711L13.4615 12.1039C13.5025 12.0803 13.5505 12.0721 13.597 12.0805C13.6435 12.089 13.6855 12.1136 13.7156 12.1501C13.7456 12.1866 13.7618 12.2325 13.7612 12.2798C13.7606 12.3271 13.7433 12.3726 13.7123 12.4083L13.2887 12.8931C13.3113 12.9096 13.3301 12.9307 13.3439 12.9551C13.3704 13.0009 13.3775 13.0554 13.3639 13.1065C13.3502 13.1577 13.3169 13.2013 13.2711 13.2279L12.6871 13.5651C12.657 13.5834 12.6224 13.5932 12.5871 13.5935Z" fill="#C1C6D6"/>
<path d="M7.11319 23.2904C16.908 27.1488 26.964 11.2396 15.9364 11.1196C27.9432 -1.08921 25.3712 -4.01641 12.9516 7.99319C13.2716 2.61359 8.50239 2.61079 4.94639 4.93679C-2.31201 9.15119 -0.960011 20.9128 7.11319 23.2904ZM13.3132 8.13399C14.3132 7.41039 24.2396 -2.71401 23.1396 1.92199C21.6272 3.63359 15.5284 12.6656 13.634 11.9136C12.2456 10.6052 11.3664 10.0172 13.042 8.40199C13.1324 8.31159 13.2225 8.22226 13.3132 8.13399ZM11.2872 15.8096C10.4231 16.6232 9.33125 17.1535 8.15759 17.3296C11.8776 13.8028 9.65959 14.9272 7.50119 17.4132C5.02319 17.5628 8.45159 14.7044 9.03959 14.076C8.95079 13.0424 7.24559 15.4032 6.84319 15.6432C7.17359 13.8784 8.35319 11.5476 10.4588 11.7612C11.9092 12.974 12.8608 14.1564 11.2872 15.8096ZM6.86199 19.1296C4.85399 21.0776 3.40439 16.2764 6.12959 16.7336C5.92279 17.496 6.37679 17.9116 7.12559 17.7336C7.19951 17.97 7.21414 18.2209 7.16817 18.4643C7.1222 18.7077 7.01705 18.9364 6.86199 19.1296ZM12.6452 13.166C12.6512 13.1712 12.6552 13.1752 12.6452 13.166V13.166ZM12.7056 13.2172C12.6964 13.2428 12.7016 13.2064 12.7184 13.204C12.7132 13.2084 12.7068 13.2128 12.7056 13.2172ZM12.7296 13.1924C12.727 13.1958 12.724 13.1988 12.7208 13.2016C12.1152 12.5996 11.3 11.9996 10.88 11.2712C10.9864 10.9912 11.3024 10.822 11.4908 10.5912C11.8424 11.0412 13.4776 12.1476 13.2628 12.6576C13.0852 12.8344 12.8932 13.004 12.7296 13.1924ZM3.47639 6.67959C6.87999 3.35079 12.6448 1.84519 12.4544 8.49159C12.1008 8.84959 11.5 9.55199 11.4668 10.1932C10.9724 10.3488 10.3388 10.8972 10.2972 11.4356C7.78639 11.5356 6.39239 14.1108 6.16319 16.37C4.12999 16.0532 3.07039 19.074 5.15519 19.7852C6.44879 20.2588 8.08319 19.1116 7.73199 17.6904C9.92319 17.394 12.68 16.1484 12.7076 13.606C13.2216 13.4752 13.888 12.882 13.9032 12.33C14.5218 12.2113 15.0936 11.9185 15.5516 11.486C18.8852 11.566 21.0468 12.818 19.7332 16.4768C19.033 18.7811 17.5037 20.7441 15.4407 21.9866C13.3777 23.2291 10.9274 23.663 8.56319 23.2044C1.12959 21.9244 -1.92961 11.9196 3.47639 6.67959Z" fill="#3A3A3A"/>
<path d="M14.5758 19.189C16.1266 19.9266 18.091 18.1282 17.0598 16.5866C15.3686 14.1814 11.7774 17.7594 14.5758 19.189ZM14.3838 16.685C15.4922 15.1094 17.591 17.2634 16.4294 18.565C15.3118 19.913 13.4182 17.945 14.3838 16.685Z" fill="#3A3A3A"/>
<path d="M3.74752 14.9654C5.36312 15.1818 6.68512 13.1378 5.38392 11.9346C2.98392 9.94423 0.390722 14.4082 3.74752 14.9654ZM3.19672 12.0398C5.07672 10.6766 6.35872 14.5598 4.06872 14.667C3.78016 14.6331 3.50725 14.5176 3.282 14.3341C3.05675 14.1505 2.8885 13.9066 2.79697 13.6308C2.70544 13.3551 2.69443 13.0589 2.76524 12.7771C2.83604 12.4953 2.98572 12.2396 3.19672 12.0398Z" fill="#3A3A3A"/>
<path d="M11.252 21.7141C13.0092 21.3361 13.172 18.6929 11.3672 18.2653C8.29042 17.5621 8.06762 22.4093 11.252 21.7141ZM9.64042 19.2701C10.2572 17.9969 12.096 18.6849 12.0992 19.9777C12.1276 22.3945 8.61522 21.2741 9.64042 19.2701Z" fill="#3A3A3A"/>
<path d="M5.66062 10.1959C7.26342 10.8303 9.14302 8.93588 7.96262 7.45228C6.10182 5.26628 2.80862 8.95948 5.66062 10.1959ZM5.81542 7.22668C7.44022 6.46028 8.54742 9.21468 6.96182 9.93188C5.39382 10.5059 4.39982 8.00748 5.81542 7.22668Z" fill="#3A3A3A"/>
</g>
<defs>
<clipPath id="clip0_182_35794">
<rect width="24" height="24" fill="white"/>
</clipPath>
</defs>
</svg>
