<svg width="24" height="24" viewBox="0 0 24 24" fill="none" xmlns="http://www.w3.org/2000/svg">
<g clip-path="url(#clip0_182_35791)">
<path d="M0.8 2.8V14.4C0.587827 14.4 0.384344 14.4843 0.234315 14.6343C0.0842855 14.7843 0 14.9878 0 15.2L0 16C0 16.2122 0.0842855 16.4157 0.234315 16.5657C0.384344 16.7157 0.587827 16.8 0.8 16.8H11.2104C11.2375 17.0434 11.3376 17.273 11.4976 17.4584L13.2928 19.4356C13.1406 19.5463 13.0167 19.6913 12.931 19.8588C12.8454 20.0264 12.8005 20.2118 12.8 20.4V20.8C12.801 21.0473 12.8784 21.2883 13.0216 21.4899C13.1648 21.6915 13.3668 21.844 13.6 21.9264V22.8C13.6 23.1183 13.7264 23.4235 13.9515 23.6485C14.1765 23.8736 14.4817 24 14.8 24H20.4C20.7183 24 21.0235 23.8736 21.2485 23.6485C21.4736 23.4235 21.6 23.1183 21.6 22.8V21.9264C21.8332 21.844 22.0352 21.6915 22.1784 21.4899C22.3216 21.2883 22.399 21.0473 22.4 20.8V20.4C22.3995 20.2118 22.3546 20.0264 22.269 19.8588C22.1833 19.6913 22.0594 19.5463 21.9072 19.4356L23.7092 17.4512C23.8593 17.2767 23.9561 17.0628 23.988 16.8348C24.02 16.6069 23.9857 16.3746 23.8892 16.1656L20.8 9.506V2.8C20.8 2.48174 20.6736 2.17652 20.4485 1.95147C20.2235 1.72643 19.9183 1.6 19.6 1.6H12V0.8C12 0.587827 11.9157 0.384344 11.7657 0.234315C11.6157 0.0842855 11.4122 0 11.2 0L10.4 0C10.1878 0 9.98434 0.0842855 9.83431 0.234315C9.68429 0.384344 9.6 0.587827 9.6 0.8V1.6H2C1.68174 1.6 1.37652 1.72643 1.15147 1.95147C0.926428 2.17652 0.8 2.48174 0.8 2.8ZM12.13 14.4H9.138L14.1744 9.9924L12.13 14.4ZM7.9228 14.4H1.6V14.3456L7.3888 9.28C7.4473 9.22826 7.5227 9.1997 7.6008 9.1997C7.6789 9.1997 7.7543 9.22826 7.8128 9.28L10.7928 11.8872L7.9228 14.4ZM0.8 15.2H11.76L11.3888 16H0.8V15.2ZM20.4 23.2H14.8C14.6939 23.2 14.5922 23.1579 14.5172 23.0828C14.4421 23.0078 14.4 22.9061 14.4 22.8V22H20.8V22.8C20.8 22.9061 20.7579 23.0078 20.6828 23.0828C20.6078 23.1579 20.5061 23.2 20.4 23.2ZM21.6 20.8C21.6 20.9061 21.5579 21.0078 21.4828 21.0828C21.4078 21.1579 21.3061 21.2 21.2 21.2H14C13.8939 21.2 13.7922 21.1579 13.7172 21.0828C13.6421 21.0078 13.6 20.9061 13.6 20.8V20.4C13.6 20.2939 13.6421 20.1922 13.7172 20.1172C13.7922 20.0421 13.8939 20 14 20H21.2C21.3061 20 21.4078 20.0421 21.4828 20.1172C21.5579 20.1922 21.6 20.2939 21.6 20.4V20.8ZM23.11 16.92L21.04 19.2H14.16L12.098 16.9288C12.0484 16.8708 12.0164 16.7999 12.0057 16.7244C11.9951 16.6488 12.0063 16.5718 12.038 16.5024L16.43 7.0332C16.4627 6.96366 16.5144 6.90482 16.5792 6.86353C16.644 6.82225 16.7192 6.80022 16.796 6.8H17.2V12.84C16.7144 12.9391 16.2829 13.215 15.9891 13.6142C15.6954 14.0134 15.5603 14.5075 15.6101 15.0006C15.6599 15.4937 15.8911 15.9508 16.2587 16.2832C16.6264 16.6156 17.1044 16.7996 17.6 16.7996C18.0956 16.7996 18.5736 16.6156 18.9413 16.2832C19.3089 15.9508 19.5401 15.4937 19.5899 15.0006C19.6397 14.5075 19.5046 14.0134 19.2109 13.6142C18.9171 13.215 18.4856 12.9391 18 12.84V6.8H18.404C18.481 6.79999 18.5565 6.82191 18.6215 6.86321C18.6865 6.90451 18.7385 6.96347 18.7712 7.0332L23.1632 16.5024C23.1946 16.5699 23.2062 16.645 23.1968 16.7189C23.1874 16.7928 23.1573 16.8625 23.11 16.92ZM17.6 13.6C17.8373 13.6 18.0693 13.6704 18.2667 13.8022C18.464 13.9341 18.6178 14.1215 18.7087 14.3408C18.7995 14.5601 18.8232 14.8013 18.7769 15.0341C18.7306 15.2669 18.6164 15.4807 18.4485 15.6485C18.2807 15.8164 18.0669 15.9306 17.8341 15.9769C17.6013 16.0232 17.3601 15.9995 17.1408 15.9087C16.9215 15.8178 16.7341 15.664 16.6022 15.4667C16.4704 15.2693 16.4 15.0373 16.4 14.8C16.4 14.4817 16.5264 14.1765 16.7515 13.9515C16.9765 13.7264 17.2817 13.6 17.6 13.6ZM20 2.8V7.7812L19.4968 6.6964C19.3996 6.48854 19.2452 6.31266 19.0516 6.18933C18.8581 6.06601 18.6335 6.00034 18.404 6H16.796C16.5665 6.00034 16.3419 6.06601 16.1484 6.18933C15.9548 6.31266 15.8004 6.48854 15.7032 6.6964L14.8904 8.4492C14.7319 8.49303 14.585 8.57144 14.4604 8.6788L11.4004 11.3588L8.3408 8.68C8.13608 8.50049 7.87308 8.40151 7.6008 8.40151C7.32852 8.40151 7.06552 8.50049 6.8608 8.68L1.6 13.2824V2.8C1.6 2.69391 1.64214 2.59217 1.71716 2.51716C1.79217 2.44214 1.89391 2.4 2 2.4H19.6C19.7061 2.4 19.8078 2.44214 19.8828 2.51716C19.9579 2.59217 20 2.69391 20 2.8ZM10.4 0.8H11.2V1.6H10.4V0.8Z" fill="#838383"/>
<path d="M4.7998 7.59961C5.19537 7.59961 5.58205 7.48231 5.91094 7.26255C6.23984 7.04279 6.49619 6.73043 6.64756 6.36498C6.79894 5.99952 6.83855 5.59739 6.76138 5.20943C6.6842 4.82147 6.49372 4.4651 6.21402 4.1854C5.93431 3.90569 5.57795 3.71521 5.18999 3.63804C4.80202 3.56087 4.39989 3.60048 4.03444 3.75185C3.66899 3.90323 3.35663 4.15957 3.13687 4.48847C2.9171 4.81737 2.7998 5.20405 2.7998 5.59961C2.80044 6.12985 3.01136 6.63819 3.38629 7.01312C3.76123 7.38806 4.26957 7.59898 4.7998 7.59961ZM4.7998 4.39961C5.03714 4.39961 5.26915 4.46999 5.46649 4.60185C5.66383 4.7337 5.81763 4.92112 5.90846 5.14039C5.99929 5.35966 6.02305 5.60094 5.97675 5.83372C5.93044 6.0665 5.81616 6.28032 5.64833 6.44814C5.48051 6.61596 5.26669 6.73025 5.03391 6.77655C4.80114 6.82285 4.55986 6.79909 4.34058 6.70827C4.12131 6.61744 3.9339 6.46363 3.80204 6.26629C3.67018 6.06896 3.5998 5.83695 3.5998 5.59961C3.5998 5.28135 3.72623 4.97613 3.95128 4.75108C4.17632 4.52604 4.48154 4.39961 4.7998 4.39961Z" fill="#838383"/>
<path d="M9.19952 6.80021H11.7995C12.1708 6.79814 12.5261 6.64866 12.7872 6.38464C13.0483 6.12063 13.1938 5.76371 13.1917 5.39241C13.1897 5.02111 13.0402 4.66583 12.7762 4.40474C12.5121 4.14365 12.1552 3.99814 11.7839 4.00021C11.6446 3.75625 11.4431 3.55365 11.1999 3.41309C10.9566 3.27254 10.6804 3.19908 10.3995 3.20021C10.035 3.20067 9.68159 3.32535 9.39749 3.55368C9.11338 3.78201 8.91559 4.10036 8.83672 4.45621C8.56356 4.54272 8.33037 4.72412 8.17931 4.96761C8.02826 5.21109 7.96932 5.50059 8.01315 5.78376C8.05697 6.06692 8.20068 6.32506 8.41827 6.51148C8.63587 6.69791 8.91299 6.80033 9.19952 6.80021ZM9.19952 5.20021C9.30561 5.20021 9.40735 5.15807 9.48237 5.08305C9.55738 5.00804 9.59952 4.90629 9.59952 4.80021C9.59952 4.58804 9.68381 4.38455 9.83384 4.23452C9.98387 4.08449 10.1873 4.00021 10.3995 4.00021C10.569 3.99892 10.7344 4.05221 10.8713 4.1522C11.0082 4.25218 11.1092 4.39355 11.1595 4.55541C11.1906 4.6549 11.2593 4.73833 11.351 4.78794C11.4426 4.83754 11.55 4.84941 11.6503 4.82101C11.6989 4.80739 11.7491 4.80039 11.7995 4.80021C11.9587 4.80021 12.1113 4.86342 12.2238 4.97594C12.3363 5.08847 12.3995 5.24108 12.3995 5.40021C12.3995 5.55934 12.3363 5.71195 12.2238 5.82447C12.1113 5.93699 11.9587 6.00021 11.7995 6.00021H9.19952C9.09344 6.00021 8.99169 5.95807 8.91668 5.88305C8.84167 5.80804 8.79952 5.7063 8.79952 5.60021C8.79952 5.49412 8.84167 5.39238 8.91668 5.31737C8.99169 5.24235 9.09344 5.20021 9.19952 5.20021Z" fill="#838383"/>
</g>
<defs>
<clipPath id="clip0_182_35791">
<rect width="24" height="24" fill="white"/>
</clipPath>
</defs>
</svg>
