<svg width="24" height="24" viewBox="0 0 24 24" fill="none" xmlns="http://www.w3.org/2000/svg">
<g clip-path="url(#clip0_98_408)">
<path d="M10.7914 2.59358C10.7553 2.59359 10.7198 2.58379 10.6888 2.56525C10.6577 2.5467 10.6323 2.52009 10.6152 2.48825C10.5981 2.45641 10.5899 2.42053 10.5916 2.38442C10.5933 2.34831 10.6047 2.31332 10.6246 2.28318L10.953 1.78878L10.113 2.27438C10.0725 2.29791 10.0251 2.3065 9.97894 2.29864C9.93278 2.29078 9.89084 2.26698 9.86043 2.23138C9.83002 2.19579 9.81306 2.15064 9.81251 2.10383C9.81196 2.05701 9.82786 2.01148 9.85742 1.97518L10.5198 1.15958L10.113 1.39398C10.0747 1.41597 10.0301 1.42462 9.98628 1.41859C9.94248 1.41255 9.90191 1.39217 9.87092 1.36063C9.83993 1.32909 9.82026 1.28817 9.815 1.24427C9.80973 1.20036 9.81917 1.15595 9.84182 1.11798L9.98702 0.877979C9.94807 0.868634 9.91282 0.847807 9.88584 0.818196C9.85886 0.788585 9.8414 0.751555 9.83571 0.711902C9.83002 0.672249 9.83637 0.631802 9.85393 0.5958C9.8715 0.559797 9.89947 0.5299 9.93422 0.509979L10.3998 0.239579C10.4382 0.217462 10.4829 0.208726 10.5268 0.214743C10.5707 0.220759 10.6114 0.241187 10.6424 0.272819C10.6734 0.304451 10.6931 0.345495 10.6983 0.389507C10.7034 0.433518 10.6939 0.478004 10.671 0.515979L10.5842 0.659979L11.2534 0.271979C11.2939 0.248894 11.3411 0.240637 11.3869 0.248631C11.4328 0.256625 11.4744 0.28037 11.5047 0.315771C11.5349 0.351173 11.5518 0.396013 11.5526 0.442564C11.5533 0.489115 11.5377 0.534458 11.5086 0.570779L10.8466 1.38838L11.491 1.01638C11.5301 0.994024 11.5755 0.985479 11.62 0.992123C11.6645 0.998768 11.7054 1.02021 11.7362 1.053C11.767 1.08578 11.7858 1.12799 11.7897 1.1728C11.7935 1.21762 11.7822 1.26242 11.7574 1.29998L11.4294 1.79438L11.4962 1.75438C11.519 1.73991 11.5444 1.73019 11.5711 1.72581C11.5977 1.72144 11.6249 1.72249 11.6511 1.72891C11.6773 1.73532 11.7019 1.74697 11.7235 1.76316C11.7451 1.77934 11.7632 1.79972 11.7767 1.82307C11.7902 1.84643 11.7988 1.87227 11.8021 1.89905C11.8053 1.92582 11.8031 1.95298 11.7956 1.97889C11.7881 2.00479 11.7754 2.02891 11.7583 2.04979C11.7412 2.07067 11.7201 2.08788 11.6962 2.10038L10.8914 2.56678C10.8611 2.58444 10.8265 2.59369 10.7914 2.59358Z" fill="#7A4B40"/>
<path d="M1.35249 15.4002C1.30889 15.4003 1.26645 15.3862 1.23163 15.3599C1.19681 15.3337 1.17152 15.2968 1.1596 15.2548C1.14769 15.2129 1.14981 15.1682 1.16564 15.1276C1.18147 15.087 1.21014 15.0526 1.24729 15.0298L8.85609 10.3294L1.31209 14.685C1.26668 14.7093 1.21366 14.7151 1.16407 14.7012C1.11447 14.6874 1.07213 14.655 1.04584 14.6107C1.01956 14.5664 1.01136 14.5137 1.02295 14.4636C1.03455 14.4134 1.06504 14.3696 1.10809 14.3414L5.43729 11.707L1.31209 14.0886C1.26642 14.1156 1.21189 14.1233 1.16051 14.1101C1.10912 14.0969 1.06509 14.0639 1.03809 14.0182C1.01109 13.9725 1.00334 13.918 1.01654 13.8666C1.02974 13.8152 1.06282 13.7712 1.10849 13.7442L3.95529 12.0198L1.31209 13.5454C1.26665 13.571 1.21302 13.5778 1.16261 13.5644C1.11221 13.5511 1.06903 13.5185 1.04226 13.4738C1.0155 13.429 1.00728 13.3756 1.01935 13.3248C1.03143 13.2741 1.06284 13.2301 1.10689 13.2022L7.85409 9.04019L1.31209 12.8166C1.26682 12.8411 1.21385 12.8472 1.16418 12.8337C1.11452 12.8201 1.07199 12.7879 1.04545 12.7438C1.01891 12.6997 1.01041 12.6471 1.0217 12.5969C1.03299 12.5466 1.06322 12.5027 1.10609 12.4742L8.46129 7.87419L1.31209 12.003C1.28953 12.0164 1.26454 12.0253 1.23855 12.0291C1.21256 12.0329 1.18608 12.0315 1.16061 12.0251C1.13515 12.0186 1.11121 12.0072 1.09015 11.9915C1.06909 11.9758 1.05134 11.9561 1.03789 11.9336C1.02444 11.911 1.01557 11.886 1.01178 11.86C1.00799 11.8341 1.00936 11.8076 1.0158 11.7821C1.02224 11.7566 1.03364 11.7327 1.04934 11.7116C1.06504 11.6906 1.08473 11.6728 1.10729 11.6594L4.59329 9.52018L1.31209 11.4122C1.26668 11.4365 1.21366 11.4423 1.16407 11.4284C1.11447 11.4146 1.07213 11.3822 1.04584 11.3379C1.01956 11.2936 1.01136 11.2409 1.02295 11.1908C1.03455 11.1406 1.06504 11.0968 1.10809 11.0686L1.98529 10.5334L1.31209 10.9222C1.26658 10.9494 1.2121 10.9575 1.16064 10.9446C1.10918 10.9317 1.06495 10.8989 1.03769 10.8534C1.01042 10.8079 1.00236 10.7534 1.01526 10.7019C1.02816 10.6505 1.06098 10.6062 1.10649 10.579L4.44249 8.50939L1.31209 10.317C1.28966 10.3307 1.26475 10.3398 1.23879 10.3439C1.21284 10.3479 1.18633 10.3468 1.16079 10.3406C1.13526 10.3345 1.11119 10.3233 1.08997 10.3078C1.06874 10.2923 1.05077 10.2728 1.03709 10.2504C1.0234 10.228 1.01427 10.2031 1.01021 10.1771C1.00616 10.1511 1.00725 10.1246 1.01343 10.0991C1.01962 10.0736 1.03077 10.0495 1.04626 10.0283C1.06174 10.007 1.08126 9.98907 1.10369 9.97539L6.75929 6.33539L1.31209 9.48019C1.26703 9.5058 1.21378 9.51292 1.16358 9.50005C1.11337 9.48718 1.07012 9.45532 1.04294 9.41118C1.01576 9.36705 1.00678 9.31408 1.01789 9.26345C1.029 9.21283 1.05933 9.16849 1.10249 9.13979L6.17529 5.82819L1.31209 8.63619C1.26668 8.66361 1.21224 8.67187 1.16075 8.65916C1.10925 8.64644 1.06491 8.61379 1.03749 8.56839C1.01006 8.52298 1.0018 8.46854 1.01452 8.41704C1.02723 8.36555 1.05988 8.32121 1.10529 8.29379L2.65529 7.31659L1.31209 8.09179C1.26734 8.11632 1.21491 8.12281 1.16553 8.10995C1.11615 8.09709 1.07355 8.06583 1.04646 8.02259C1.01937 7.97934 1.00983 7.92738 1.0198 7.87733C1.02977 7.82729 1.05849 7.78295 1.10009 7.75339L5.14809 5.01858L1.31209 7.23299C1.26689 7.25825 1.21365 7.265 1.16357 7.25181C1.11349 7.23862 1.07049 7.20653 1.04359 7.16228C1.0167 7.11802 1.00802 7.06506 1.01937 7.01454C1.03073 6.96402 1.06124 6.91987 1.10449 6.89139L1.26969 6.78619C1.22434 6.7999 1.17559 6.79707 1.13213 6.7782C1.08867 6.75933 1.05332 6.72564 1.03238 6.68314C1.01144 6.64063 1.00627 6.59208 1.01779 6.54612C1.02931 6.50016 1.05678 6.45978 1.09529 6.43219L4.18729 4.21538L1.31209 5.87538C1.26786 5.90072 1.21562 5.90821 1.16605 5.89633C1.11648 5.88444 1.07331 5.85408 1.04538 5.81144C1.01745 5.7688 1.00685 5.7171 1.01575 5.66691C1.02466 5.61671 1.05239 5.57182 1.09329 5.54138L3.21329 3.97898L1.31209 5.07658C1.26767 5.10169 1.21533 5.10887 1.16579 5.09665C1.11625 5.08443 1.07325 5.05373 1.0456 5.01085C1.01795 4.96797 1.00773 4.91614 1.01704 4.86597C1.02636 4.8158 1.05449 4.77109 1.09569 4.74098L1.75809 4.26858L1.31209 4.52578C1.26829 4.551 1.21658 4.55871 1.16733 4.54735C1.11809 4.53599 1.07497 4.50642 1.04665 4.46456C1.01832 4.42271 1.00689 4.37169 1.01465 4.32175C1.02242 4.27181 1.0488 4.22667 1.08849 4.19538L1.86449 3.58578L1.31209 3.90578C1.26997 3.92976 1.22058 3.93763 1.1731 3.92793C1.12562 3.91823 1.08327 3.89162 1.05394 3.85304C1.0246 3.81447 1.01027 3.76655 1.01361 3.7182C1.01695 3.66985 1.03773 3.62436 1.07209 3.59018L1.70009 2.97178L1.31209 3.19538C1.27199 3.21849 1.22513 3.22697 1.17948 3.21939C1.13383 3.21181 1.09223 3.18864 1.06175 3.15382C1.03127 3.119 1.01381 3.0747 1.01234 3.02845C1.01087 2.9822 1.02548 2.93687 1.05369 2.90018L1.29089 2.59258C1.25072 2.58514 1.2138 2.56558 1.18508 2.53652C1.15636 2.50746 1.13723 2.47031 1.13026 2.43006C1.12329 2.3898 1.12882 2.34838 1.14609 2.31136C1.16337 2.27434 1.19156 2.2435 1.22689 2.22298L1.89049 1.84018C1.93058 1.81708 1.97745 1.8086 2.02309 1.81618C2.06874 1.82376 2.11035 1.84693 2.14083 1.88175C2.1713 1.91657 2.18877 1.96087 2.19024 2.00712C2.19171 2.05337 2.17709 2.0987 2.14889 2.13538L1.98889 2.34338L2.86209 1.84018C2.9042 1.81621 2.95359 1.80834 3.00108 1.81804C3.04856 1.82774 3.0909 1.85435 3.12024 1.89293C3.14957 1.9315 3.1639 1.97942 3.16057 2.02777C3.15723 2.07612 3.13645 2.12161 3.10209 2.15578L2.47449 2.77178L4.09009 1.84018C4.13388 1.81497 4.1856 1.80726 4.23484 1.81862C4.28409 1.82998 4.32721 1.85955 4.35553 1.90141C4.38385 1.94326 4.39528 1.99428 4.38752 2.04422C4.37976 2.09416 4.35338 2.1393 4.31369 2.17058L3.53769 2.77898L5.16649 1.84018C5.21097 1.81481 5.26349 1.80747 5.31323 1.81967C5.36297 1.83186 5.40613 1.86268 5.43382 1.90576C5.46151 1.94883 5.47163 2.00089 5.46208 2.05121C5.45253 2.10152 5.42404 2.14625 5.38249 2.17618L4.72009 2.64778L6.12009 1.84018C6.16432 1.81485 6.21656 1.80736 6.26613 1.81924C6.3157 1.83113 6.35886 1.86149 6.3868 1.90413C6.41473 1.94677 6.42533 1.99847 6.41642 2.04866C6.40752 2.09886 6.37979 2.14375 6.33889 2.17418L4.21889 3.73418L7.50329 1.84018C7.54771 1.81508 7.60005 1.8079 7.64959 1.82012C7.69913 1.83234 7.74212 1.86304 7.76978 1.90592C7.79743 1.9488 7.80764 2.00063 7.79833 2.0508C7.78902 2.10097 7.76089 2.14568 7.71969 2.17578L4.62809 4.39178L9.04929 1.84018C9.09445 1.81571 9.14729 1.80955 9.19686 1.82298C9.24644 1.8364 9.28895 1.86839 9.31558 1.9123C9.34222 1.95622 9.35094 2.00869 9.33994 2.05886C9.32894 2.10903 9.29906 2.15305 9.25649 2.18178L9.19169 2.22178L9.85529 1.84018C9.90004 1.81565 9.95247 1.80916 10.0018 1.82202C10.0512 1.83488 10.0938 1.86614 10.1209 1.90938C10.148 1.95263 10.1575 2.00459 10.1476 2.05464C10.1376 2.10468 10.1089 2.14902 10.0673 2.17858L6.02009 4.91218L11.3429 1.84018C11.3881 1.81531 11.4412 1.80889 11.4911 1.82226C11.5409 1.83564 11.5837 1.86777 11.6104 1.91195C11.6371 1.95612 11.6457 2.00891 11.6344 2.05928C11.6231 2.10964 11.5927 2.15368 11.5497 2.18218L10.0041 3.15618L12.2841 1.83938C12.3291 1.81459 12.3819 1.80808 12.4316 1.8212C12.4813 1.83432 12.5241 1.86607 12.551 1.90986C12.5779 1.95364 12.5869 2.0061 12.5762 2.05636C12.5654 2.10662 12.5357 2.15082 12.4933 2.17978L7.42129 5.49258L13.7493 1.84018C13.7945 1.81447 13.8479 1.80735 13.8982 1.82034C13.9485 1.83332 13.9918 1.86539 14.0189 1.90975C14.046 1.9541 14.0548 2.00727 14.0433 2.05797C14.0319 2.10867 14.0012 2.15294 13.9577 2.18138L8.30169 5.82139L15.1965 1.84018C15.2418 1.81521 15.2951 1.80879 15.3451 1.82228C15.3951 1.83576 15.4379 1.86811 15.4645 1.9125C15.4911 1.9569 15.4995 2.00989 15.4879 2.06033C15.4762 2.11078 15.4455 2.15474 15.4021 2.18298L12.0661 4.25258L16.2445 1.84018C16.29 1.81505 16.3434 1.80859 16.3936 1.82217C16.4437 1.83576 16.4866 1.86832 16.5131 1.91296C16.5397 1.95761 16.5478 2.01084 16.5359 2.06139C16.5239 2.11193 16.4927 2.15583 16.4489 2.18378L15.5689 2.71978L17.0925 1.83978C17.1379 1.81518 17.191 1.80907 17.2408 1.82274C17.2906 1.8364 17.3331 1.86879 17.3596 1.91311C17.386 1.95744 17.3943 2.01028 17.3827 2.06057C17.3711 2.11087 17.3405 2.15473 17.2973 2.18298L13.8065 4.32738L18.1173 1.84018C18.1626 1.81566 18.2155 1.80954 18.2652 1.82309C18.3149 1.83664 18.3574 1.86882 18.3839 1.91294C18.4105 1.95705 18.419 2.00969 18.4077 2.05992C18.3964 2.11014 18.3662 2.15408 18.3233 2.18258L10.9733 6.77698L19.5233 1.84018C19.5687 1.81558 19.6218 1.80947 19.6716 1.82314C19.7214 1.8368 19.7639 1.86919 19.7904 1.91351C19.8168 1.95784 19.8251 2.01068 19.8135 2.06097C19.8019 2.11127 19.7713 2.15513 19.7281 2.18338L12.9757 6.34978L20.1601 2.20018C20.2056 2.17544 20.2589 2.16931 20.3088 2.18308C20.3587 2.19685 20.4014 2.22945 20.4278 2.27402C20.4541 2.31858 20.4622 2.37164 20.4502 2.42203C20.4383 2.47242 20.4073 2.51621 20.3637 2.54418L17.5333 4.25899L20.2881 2.67098C20.3335 2.64738 20.3861 2.64205 20.4353 2.65609C20.4845 2.67012 20.5264 2.70246 20.5525 2.74645C20.5785 2.79044 20.5868 2.84275 20.5755 2.89262C20.5642 2.94249 20.5342 2.98613 20.4917 3.01458L16.1601 5.64978L20.2881 3.26698C20.3335 3.24238 20.3866 3.23627 20.4364 3.24994C20.4862 3.2636 20.5287 3.29599 20.5552 3.34031C20.5816 3.38464 20.5899 3.43748 20.5783 3.48777C20.5667 3.53807 20.5361 3.58193 20.4929 3.61018L12.8849 8.31018L20.2889 4.03578C20.3341 4.01163 20.3868 4.00575 20.4362 4.01934C20.4856 4.03293 20.5279 4.06496 20.5544 4.10883C20.5809 4.1527 20.5895 4.20506 20.5785 4.2551C20.5675 4.30514 20.5377 4.34906 20.4953 4.37778L11.8345 9.83379L20.2905 4.95378C20.3359 4.92983 20.3888 4.92427 20.4383 4.93827C20.4877 4.95227 20.5298 4.98475 20.556 5.02898C20.5821 5.07321 20.5902 5.1258 20.5786 5.17584C20.567 5.22589 20.5366 5.26955 20.4937 5.29779L20.1997 5.47618L20.2909 5.42378C20.3362 5.3999 20.389 5.39432 20.4383 5.40819C20.4876 5.42207 20.5297 5.45436 20.556 5.49838C20.5822 5.5424 20.5905 5.59481 20.5792 5.64479C20.5679 5.69477 20.5379 5.73851 20.4953 5.76698L17.4241 7.65178L20.2917 5.99618C20.337 5.9703 20.3906 5.96314 20.4411 5.97622C20.4916 5.9893 20.535 6.02158 20.562 6.0662C20.589 6.11081 20.5975 6.16421 20.5858 6.21502C20.574 6.26583 20.5428 6.31003 20.4989 6.33819L14.0825 10.4246L20.2921 6.84019C20.3374 6.81567 20.3903 6.80954 20.44 6.82309C20.4897 6.83664 20.5322 6.86882 20.5587 6.91294C20.5853 6.95705 20.5938 7.00969 20.5825 7.05992C20.5712 7.11015 20.541 7.15408 20.4981 7.18258L17.2733 9.19539L20.2925 7.45218C20.3375 7.42773 20.3903 7.42151 20.4398 7.4348C20.4893 7.4481 20.5318 7.47989 20.5585 7.52362C20.5853 7.56735 20.5942 7.61968 20.5835 7.66981C20.5727 7.71993 20.5432 7.76403 20.5009 7.79299L15.6445 10.9202L20.2933 8.23619C20.3386 8.2103 20.3922 8.20314 20.4427 8.21622C20.4932 8.2293 20.5366 8.26158 20.5636 8.3062C20.5906 8.35081 20.5991 8.40421 20.5874 8.45502C20.5756 8.50583 20.5444 8.55003 20.5005 8.57819L18.2285 10.0138L20.2941 8.82138C20.3393 8.79612 20.3925 8.78937 20.4426 8.80256C20.4927 8.81575 20.5357 8.84784 20.5626 8.89209C20.5895 8.93635 20.5982 8.98931 20.5868 9.03983C20.5754 9.09035 20.5449 9.1345 20.5017 9.16299L18.7161 10.299L20.2945 9.38779C20.3393 9.36178 20.3925 9.35418 20.4428 9.36658C20.4931 9.37899 20.5366 9.41044 20.5642 9.4543C20.5918 9.49816 20.6013 9.55101 20.5906 9.60173C20.58 9.65245 20.5501 9.69706 20.5073 9.72619L16.7601 12.2686L20.2945 10.2286C20.3396 10.2023 20.3932 10.1948 20.4439 10.2075C20.4945 10.2203 20.5382 10.2523 20.5655 10.2968C20.5928 10.3413 20.6016 10.3948 20.5901 10.4457C20.5785 10.4966 20.5475 10.541 20.5037 10.5694L19.5437 11.1934L20.2957 10.7602C20.3403 10.7358 20.3925 10.7294 20.4416 10.7421C20.4908 10.7548 20.5333 10.7858 20.5605 10.8287C20.5877 10.8716 20.5975 10.9233 20.588 10.9732C20.5785 11.0231 20.5504 11.0675 20.5093 11.0974L18.3665 12.581L20.2965 11.467C20.3407 11.4416 20.393 11.4342 20.4425 11.446C20.4921 11.4579 20.5353 11.4883 20.5632 11.5309C20.5911 11.5736 20.6017 11.6253 20.5928 11.6755C20.5839 11.7257 20.5562 11.7706 20.5153 11.801L18.5765 13.2302L20.2965 12.237C20.3405 12.2121 20.3922 12.2048 20.4414 12.2165C20.4905 12.2282 20.5334 12.2581 20.5614 12.3002C20.5894 12.3422 20.6005 12.3933 20.5924 12.4432C20.5843 12.493 20.5576 12.538 20.5177 12.569L19.3613 13.449L20.2973 12.909C20.3396 12.8835 20.3898 12.8746 20.4383 12.8839C20.4868 12.8933 20.5301 12.9203 20.5599 12.9597C20.5897 12.999 20.6039 13.0481 20.5997 13.0973C20.5955 13.1465 20.5733 13.1924 20.5373 13.2262L19.5289 14.195L20.2993 13.7506C20.3374 13.7285 20.3817 13.7195 20.4253 13.7251C20.469 13.7308 20.5096 13.7506 20.5408 13.7817C20.572 13.8127 20.5921 13.8532 20.598 13.8968C20.6039 13.9404 20.5952 13.9848 20.5733 14.023L20.2165 14.6462L20.3001 14.5982C20.3229 14.5837 20.3483 14.574 20.3749 14.5696C20.4015 14.5652 20.4288 14.5663 20.455 14.5727C20.4812 14.5791 20.5058 14.5908 20.5274 14.607C20.549 14.6231 20.567 14.6435 20.5805 14.6669C20.594 14.6902 20.6027 14.7161 20.6059 14.7429C20.6092 14.7696 20.607 14.7968 20.5995 14.8227C20.5919 14.8486 20.5793 14.8727 20.5622 14.8936C20.5451 14.9145 20.524 14.9317 20.5001 14.9442L19.7753 15.3602C19.7373 15.382 19.6931 15.3907 19.6497 15.385C19.6062 15.3793 19.5658 15.3595 19.5347 15.3286C19.5036 15.2977 19.4836 15.2574 19.4776 15.214C19.4716 15.1705 19.4801 15.1263 19.5017 15.0882L19.8581 14.465L18.3049 15.3614C18.2626 15.3869 18.2123 15.3958 18.1638 15.3864C18.1154 15.3771 18.072 15.3501 18.0422 15.3107C18.0124 15.2713 17.9983 15.2223 18.0024 15.1731C18.0066 15.1239 18.0289 15.078 18.0649 15.0442L19.0733 14.075L16.8433 15.3622C16.7993 15.3866 16.7478 15.3935 16.699 15.3817C16.6501 15.3698 16.6075 15.3399 16.5797 15.2981C16.5518 15.2562 16.5408 15.2054 16.5487 15.1558C16.5566 15.1061 16.583 15.0613 16.6225 15.0302L17.7777 14.1502L15.6777 15.3642C15.6335 15.3897 15.5811 15.3973 15.5314 15.3855C15.4818 15.3737 15.4385 15.3433 15.4105 15.3006C15.3825 15.2579 15.3719 15.206 15.3809 15.1558C15.3899 15.1055 15.4178 15.0606 15.4589 15.0302L17.4001 13.6002L14.3425 15.3654C14.2978 15.3914 14.2447 15.3991 14.1945 15.3868C14.1442 15.3746 14.1007 15.3433 14.073 15.2996C14.0453 15.2559 14.0356 15.2032 14.0459 15.1525C14.0563 15.1018 14.0859 15.0571 14.1285 15.0278L16.2713 13.5446L13.1157 15.3662C13.0707 15.3903 13.0182 15.3964 12.9689 15.383C12.9196 15.3697 12.8773 15.3381 12.8506 15.2945C12.8239 15.251 12.8149 15.1989 12.8253 15.149C12.8358 15.099 12.865 15.0549 12.9069 15.0258L13.8669 14.403L12.1973 15.367C12.1524 15.3936 12.0989 15.4016 12.0482 15.3893C11.9975 15.377 11.9536 15.3454 11.9259 15.3012C11.8982 15.2569 11.8888 15.2037 11.8999 15.1527C11.9109 15.1017 11.9414 15.057 11.9849 15.0282L15.7313 12.4858L10.7397 15.3658C10.6944 15.3917 10.6408 15.3988 10.5903 15.3858C10.5398 15.3727 10.4964 15.3404 10.4694 15.2958C10.4424 15.2512 10.4338 15.1978 10.4456 15.1469C10.4574 15.0961 10.4886 15.0519 10.5325 15.0238L12.3201 13.889L9.76009 15.369C9.71468 15.3964 9.66024 15.4047 9.60875 15.392C9.55725 15.3792 9.51291 15.3466 9.48549 15.3012C9.45807 15.2558 9.4498 15.2013 9.46252 15.1498C9.47523 15.0983 9.50788 15.054 9.55329 15.0266L11.8217 13.5934L8.74489 15.3698C8.69972 15.3955 8.64631 15.4026 8.59598 15.3896C8.54566 15.3766 8.50236 15.3446 8.47527 15.3002C8.44818 15.2559 8.43942 15.2027 8.45084 15.152C8.46227 15.1013 8.49299 15.057 8.53649 15.0286L13.3933 11.8994L7.37809 15.3694C7.33268 15.3956 7.2788 15.4029 7.22806 15.3897C7.17731 15.3766 7.13376 15.3441 7.10676 15.2991C7.07976 15.2542 7.07147 15.2005 7.08369 15.1495C7.09591 15.0985 7.12765 15.0544 7.17209 15.0266L10.4021 13.0106L6.31569 15.3706C6.27034 15.3981 6.21591 15.4065 6.16437 15.3939C6.11284 15.3813 6.06842 15.3487 6.04089 15.3034C6.01336 15.258 6.00497 15.2036 6.01758 15.1521C6.03018 15.1005 6.06274 15.0561 6.10809 15.0286L12.5241 10.9422L4.85329 15.371C4.80782 15.3961 4.75436 15.4026 4.70422 15.389C4.65408 15.3754 4.61119 15.3429 4.58463 15.2982C4.55807 15.2536 4.54993 15.2003 4.56192 15.1498C4.57391 15.0992 4.6051 15.0553 4.64889 15.0274L7.71729 13.143L3.85689 15.3718C3.83427 15.3852 3.80925 15.3939 3.78324 15.3976C3.75723 15.4013 3.73075 15.3999 3.70531 15.3933C3.67986 15.3868 3.65596 15.3753 3.63495 15.3595C3.61395 15.3438 3.59626 15.324 3.58289 15.3014C3.56952 15.2788 3.56074 15.2537 3.55704 15.2277C3.55334 15.2017 3.5548 15.1752 3.56134 15.1498C3.56788 15.1244 3.57936 15.1005 3.59514 15.0795C3.61092 15.0584 3.63067 15.0408 3.65329 15.0274L3.95209 14.8466L3.04009 15.3722C2.99468 15.3996 2.94024 15.4079 2.88875 15.3952C2.83725 15.3824 2.79291 15.3498 2.76549 15.3044C2.73806 15.259 2.7298 15.2045 2.74252 15.153C2.75523 15.1015 2.78788 15.0572 2.83329 15.0298L11.4933 9.57579L1.45209 15.3734C1.42189 15.3911 1.38749 15.4003 1.35249 15.4002Z" fill="#BFDBDD"/>
<path d="M1.79329 15.3999C1.7507 15.4 1.7092 15.3865 1.67484 15.3613C1.64047 15.3362 1.61503 15.3007 1.60222 15.2601C1.58941 15.2195 1.5899 15.1758 1.60362 15.1355C1.61734 15.0952 1.64357 15.0603 1.67849 15.0359L5.31009 12.4979L1.31009 14.8075C1.26528 14.8324 1.21265 14.839 1.16305 14.8262C1.11346 14.8134 1.07069 14.782 1.04355 14.7385C1.01641 14.6951 1.00698 14.6429 1.01721 14.5927C1.02743 14.5425 1.05652 14.4981 1.09849 14.4687L3.87209 12.5967L2.21649 13.5511C2.17198 13.5773 2.1191 13.5852 2.06889 13.5732C2.01869 13.5612 1.97506 13.5303 1.94712 13.4869C1.91917 13.4436 1.90908 13.391 1.91895 13.3404C1.92883 13.2897 1.9579 13.2449 2.00009 13.2151L4.87449 11.1651C4.84108 11.1693 4.80721 11.1631 4.77745 11.1473C4.74769 11.1316 4.72348 11.1071 4.70809 11.0771C4.67989 11.0353 4.66855 10.9844 4.67634 10.9345C4.68413 10.8847 4.71047 10.8396 4.75009 10.8083L6.60769 9.34634C6.59277 9.30253 6.59351 9.25491 6.60977 9.21158C6.62604 9.16826 6.65683 9.13191 6.69689 9.10874L7.50769 8.63994C7.55141 8.61535 7.60279 8.60808 7.65162 8.61959C7.70045 8.6311 7.74317 8.66054 7.77131 8.70207C7.79945 8.7436 7.81096 8.7942 7.80355 8.84381C7.79613 8.89343 7.77034 8.93845 7.73129 8.96994L7.19129 9.39474L8.05809 8.89434C8.1026 8.86822 8.15548 8.86032 8.20568 8.87228C8.25588 8.88425 8.29952 8.91515 8.32746 8.95854C8.35541 9.00193 8.3655 9.05444 8.35562 9.10509C8.34575 9.15575 8.31668 9.20062 8.27449 9.23034L5.62409 11.1219L8.61849 9.39274C8.66334 9.36718 8.71633 9.35995 8.76638 9.37257C8.81644 9.38518 8.85968 9.41666 8.88706 9.46042C8.91444 9.50417 8.92384 9.55683 8.9133 9.60736C8.90276 9.65789 8.87309 9.70239 8.83049 9.73154L6.05529 11.6047L9.12009 9.83634C9.16476 9.80981 9.21801 9.80171 9.26855 9.81376C9.3191 9.8258 9.36297 9.85704 9.39089 9.90086C9.4188 9.94468 9.42857 9.99765 9.41812 10.0485C9.40766 10.0994 9.37782 10.1443 9.33489 10.1735L5.70169 12.7123L9.73649 10.3831C9.78141 10.3571 9.83469 10.3496 9.88507 10.3621C9.93546 10.3746 9.97899 10.4063 10.0065 10.4503C10.0339 10.4944 10.0432 10.5474 10.0323 10.5981C10.0214 10.6489 9.99122 10.6934 9.94809 10.7223L8.01569 12.0163L10.1757 10.7707C10.2201 10.746 10.2724 10.7391 10.3217 10.7515C10.3711 10.7639 10.4139 10.7946 10.4413 10.8375C10.4688 10.8803 10.4789 10.932 10.4696 10.982C10.4603 11.032 10.4323 11.0766 10.3913 11.1067L7.86169 12.9067L10.7209 11.2563C10.765 11.2311 10.817 11.2236 10.8665 11.2353C10.9159 11.247 10.959 11.2771 10.9871 11.3194C11.0151 11.3618 11.026 11.4133 11.0175 11.4633C11.009 11.5134 10.9817 11.5584 10.9413 11.5891L8.55209 13.3855L11.3045 11.7963C11.349 11.7707 11.4018 11.7631 11.4517 11.7753C11.5017 11.7875 11.545 11.8184 11.5728 11.8617C11.6005 11.905 11.6105 11.9573 11.6007 12.0078C11.5909 12.0582 11.562 12.103 11.5201 12.1327L9.68769 13.4299C9.72161 13.4482 9.74943 13.476 9.76769 13.5099C9.79408 13.5558 9.8012 13.6103 9.78748 13.6615C9.77376 13.7126 9.74032 13.7562 9.69449 13.7827L6.95609 15.3627C6.91154 15.3884 6.85882 15.396 6.80886 15.3838C6.7589 15.3716 6.71554 15.3407 6.6878 15.2974C6.66005 15.2541 6.65005 15.2018 6.65986 15.1513C6.66967 15.1008 6.69855 15.0561 6.74049 15.0263L7.75969 14.3063L5.92369 15.3663C5.87961 15.3916 5.82756 15.3991 5.77813 15.3874C5.72869 15.3757 5.68557 15.3456 5.65751 15.3032C5.62946 15.2609 5.61858 15.2094 5.62708 15.1593C5.63558 15.1093 5.66283 15.0643 5.70329 15.0335L8.08969 13.2335L4.39249 15.3679C4.34801 15.3933 4.29548 15.4007 4.24575 15.3885C4.19601 15.3763 4.15285 15.3455 4.12516 15.3024C4.09746 15.2593 4.08735 15.2072 4.0969 15.1569C4.10645 15.1066 4.13494 15.0619 4.17649 15.0319L6.70609 13.2319L3.00489 15.3699C2.96001 15.3951 2.90716 15.402 2.85732 15.3892C2.80749 15.3764 2.76451 15.3449 2.73731 15.3012C2.71012 15.2575 2.7008 15.205 2.7113 15.1547C2.7218 15.1043 2.75131 15.0599 2.79369 15.0307L4.72769 13.7355L1.89289 15.3719C1.86281 15.3901 1.8284 15.3997 1.79329 15.3999Z" fill="#4184A9"/>
<path d="M8.0926 15.3878C8.04932 15.3879 8.00717 15.374 7.97248 15.3481C7.9378 15.3222 7.91244 15.2858 7.90022 15.2443C7.88801 15.2027 7.88959 15.1584 7.90473 15.1178C7.91987 15.0773 7.94775 15.0427 7.9842 15.0194L9.4082 14.1038L9.3082 14.1614C9.26335 14.1859 9.21083 14.1923 9.16142 14.1793C9.11201 14.1662 9.06946 14.1348 9.04249 14.0914C9.01552 14.048 9.00618 13.9959 9.01639 13.9459C9.0266 13.8958 9.05558 13.8516 9.0974 13.8222L11.069 12.5106C11.0341 12.5114 10.9996 12.5031 10.9688 12.4868C10.938 12.4704 10.9119 12.4463 10.893 12.417C10.8654 12.3731 10.856 12.3202 10.8666 12.2694C10.8773 12.2187 10.9073 12.1741 10.9502 12.145L12.3958 11.1658C12.3756 11.1518 12.3582 11.1344 12.3442 11.1142C12.3158 11.0726 12.3041 11.0218 12.3115 10.972C12.3189 10.9221 12.3449 10.8769 12.3842 10.8454L14.2398 9.33899C14.2218 9.29428 14.2205 9.24456 14.2362 9.199C14.252 9.15343 14.2836 9.11507 14.3254 9.09099L15.1054 8.64099C15.1489 8.61646 15.2001 8.60912 15.2488 8.6204C15.2974 8.63169 15.3401 8.6608 15.3684 8.70199C15.3967 8.74318 15.4086 8.79347 15.4016 8.84296C15.3947 8.89245 15.3695 8.93756 15.331 8.96939L14.6002 9.56179L15.6958 8.92939C15.7406 8.90383 15.7936 8.89661 15.8437 8.90922C15.8937 8.92183 15.937 8.95331 15.9644 8.99707C15.9917 9.04082 16.0012 9.09348 15.9906 9.14401C15.9801 9.19454 15.9504 9.23904 15.9078 9.26819L15.7778 9.35619L16.0226 9.21499C16.0676 9.18826 16.1213 9.18024 16.1721 9.19264C16.223 9.20504 16.2669 9.23688 16.2946 9.28132C16.3222 9.32577 16.3313 9.37927 16.32 9.43036C16.3086 9.48145 16.2777 9.52605 16.2338 9.55459L14.5714 10.6602L16.4414 9.58019C16.4867 9.55256 16.5411 9.54405 16.5927 9.55654C16.6443 9.56903 16.6888 9.60149 16.7164 9.64679C16.744 9.69209 16.7525 9.74651 16.7401 9.79809C16.7276 9.84966 16.6951 9.89416 16.6498 9.92179L15.2306 10.8342L16.8238 9.91419C16.8686 9.88766 16.9219 9.87962 16.9725 9.8918C17.0232 9.90398 17.067 9.93541 17.0948 9.97941C17.1226 10.0234 17.1322 10.0765 17.1215 10.1275C17.1107 10.1784 17.0806 10.2231 17.0374 10.2522L13.8566 12.4326L17.381 10.3998C17.4255 10.3744 17.478 10.3671 17.5277 10.3793C17.5775 10.3915 17.6206 10.4223 17.6483 10.4654C17.676 10.5084 17.6861 10.5605 17.6766 10.6108C17.667 10.6611 17.6385 10.7059 17.597 10.7358L14.5298 12.9198L17.9846 10.925C18.0292 10.8994 18.082 10.892 18.132 10.9043C18.182 10.9166 18.2253 10.9477 18.2529 10.9911C18.2805 11.0346 18.2903 11.087 18.2803 11.1375C18.2703 11.188 18.2411 11.2326 18.199 11.2622L16.1734 12.675L18.4702 11.3494C18.515 11.3242 18.5677 11.3172 18.6175 11.3299C18.6673 11.3425 18.7103 11.3739 18.7376 11.4174C18.7649 11.4609 18.7745 11.5133 18.7642 11.5636C18.754 11.6139 18.7247 11.6584 18.6826 11.6878L17.7226 12.341L18.8558 11.6874C18.9001 11.6622 18.9524 11.6548 19.002 11.6669C19.0515 11.679 19.0946 11.7095 19.1224 11.7522C19.1502 11.795 19.1606 11.8468 19.1515 11.8969C19.1424 11.9471 19.1144 11.9919 19.0734 12.0222L17.5998 13.0938L19.325 12.0978C19.3689 12.0726 19.4208 12.065 19.4701 12.0765C19.5195 12.0881 19.5626 12.1179 19.5908 12.16C19.6189 12.2021 19.6301 12.2533 19.622 12.3033C19.6139 12.3533 19.5871 12.3984 19.547 12.4294L18.1718 13.4838L19.8218 12.5314C19.865 12.5064 19.9161 12.4984 19.9649 12.5091C20.0137 12.5198 20.0567 12.5484 20.0855 12.5892C20.1143 12.63 20.1268 12.6802 20.1204 12.7297C20.1141 12.7793 20.0895 12.8247 20.0514 12.857L18.8054 13.9198L20.2886 13.0634C20.3321 13.0385 20.3833 13.0309 20.4322 13.0421C20.481 13.0532 20.5239 13.0822 20.5524 13.1235C20.5808 13.1647 20.5928 13.2151 20.5859 13.2647C20.5789 13.3143 20.5537 13.3595 20.515 13.3914L20.0314 13.7874L20.2918 13.637C20.3324 13.6135 20.38 13.6051 20.4262 13.6132C20.4724 13.6213 20.5143 13.6453 20.5446 13.6812C20.5748 13.717 20.5915 13.7624 20.5918 13.8093C20.592 13.8562 20.5757 13.9017 20.5458 13.9378L20.1138 14.4578L20.2958 14.353C20.3304 14.333 20.3702 14.3238 20.4101 14.3266C20.45 14.3295 20.4881 14.3442 20.5196 14.3689C20.551 14.3936 20.5743 14.4272 20.5865 14.4653C20.5986 14.5034 20.5991 14.5442 20.5878 14.5826L20.4942 14.8982C20.5255 14.9151 20.5517 14.9401 20.5702 14.9705C20.5886 15.001 20.5986 15.0358 20.5991 15.0714C20.5996 15.107 20.5905 15.142 20.573 15.173C20.5554 15.2039 20.5298 15.2296 20.499 15.2474L20.299 15.3622C20.2644 15.3821 20.2245 15.3912 20.1847 15.3883C20.1448 15.3854 20.1067 15.3707 20.0753 15.3459C20.044 15.3212 20.0207 15.2876 20.0086 15.2495C19.9965 15.2114 19.9961 15.1705 20.0074 15.1322L20.061 14.9498L19.3474 15.3598C19.3068 15.3832 19.2592 15.3917 19.213 15.3836C19.1668 15.3755 19.1249 15.3514 19.0946 15.3156C19.0643 15.2798 19.0476 15.2344 19.0474 15.1875C19.0472 15.1406 19.0635 15.0951 19.0934 15.059L19.525 14.539L18.1026 15.3598C18.0591 15.3845 18.008 15.3921 17.9593 15.381C17.9105 15.3699 17.8677 15.3409 17.8392 15.2998C17.8108 15.2587 17.7987 15.2084 17.8055 15.1589C17.8123 15.1094 17.8374 15.0642 17.8758 15.0322L18.3598 14.6398L17.1066 15.3598C17.0634 15.3847 17.0125 15.3926 16.9638 15.382C16.915 15.3713 16.8721 15.3428 16.8433 15.3021C16.8145 15.2614 16.8019 15.2114 16.8081 15.1619C16.8143 15.1124 16.8387 15.067 16.8766 15.0346L18.123 13.9734L15.7198 15.3598C15.6759 15.385 15.624 15.3926 15.5747 15.3811C15.5253 15.3695 15.4822 15.3397 15.454 15.2976C15.4259 15.2555 15.4147 15.2043 15.4228 15.1543C15.4309 15.1043 15.4577 15.0592 15.4978 15.0282L16.8734 13.9738L14.4734 15.3598C14.4291 15.385 14.3768 15.3923 14.3272 15.3803C14.2777 15.3682 14.2346 15.3377 14.2068 15.2949C14.179 15.2522 14.1686 15.2004 14.1777 15.1502C14.1868 15.1001 14.2148 15.0553 14.2558 15.025L15.7314 13.9546L13.2966 15.3598C13.2519 15.3841 13.1997 15.3904 13.1505 15.3775C13.1013 15.3647 13.0588 15.3335 13.0318 15.2905C13.0047 15.2474 12.9951 15.1957 13.0048 15.1458C13.0146 15.0958 13.0429 15.0515 13.0842 15.0218L14.0442 14.3666L12.3238 15.3598C12.2792 15.3845 12.227 15.3912 12.1776 15.3787C12.1283 15.3661 12.0855 15.3352 12.0582 15.2922C12.0309 15.2493 12.0209 15.1975 12.0304 15.1475C12.0399 15.0974 12.0682 15.0529 12.1094 15.023L14.1326 13.6114L11.1042 15.3598C11.0598 15.3843 11.0077 15.3911 10.9586 15.3787C10.9094 15.3663 10.8667 15.3356 10.8393 15.293C10.8118 15.2503 10.8016 15.1988 10.8107 15.1489C10.8198 15.099 10.8475 15.0544 10.8882 15.0242L13.9566 12.8398L9.5878 15.3598C9.54315 15.3844 9.49079 15.391 9.44143 15.3783C9.39207 15.3656 9.34942 15.3345 9.3222 15.2914C9.29499 15.2483 9.28525 15.1964 9.29499 15.1464C9.30473 15.0964 9.3332 15.0519 9.3746 15.0222L12.5542 12.8418L8.1942 15.3618C8.16324 15.3793 8.12817 15.3883 8.0926 15.3878Z" fill="#35718A"/>
<path d="M12.4504 16.5883C12.4093 16.5883 12.3691 16.5756 12.3355 16.5519C12.3018 16.5283 12.2762 16.4948 12.2623 16.4561C12.2483 16.4174 12.2466 16.3753 12.2575 16.3356C12.2683 16.2959 12.2911 16.2605 12.3228 16.2343L12.3956 16.1743L11.7244 16.5611C11.684 16.5844 11.6367 16.5928 11.5907 16.5849C11.5447 16.577 11.5029 16.5533 11.4725 16.5178C11.4422 16.4823 11.4252 16.4374 11.4245 16.3907C11.4238 16.344 11.4395 16.2986 11.4688 16.2623L12.066 15.5235L10.266 16.5611C10.2245 16.5856 10.1754 16.5941 10.128 16.585C10.0806 16.5759 10.0382 16.5497 10.0088 16.5115C9.97913 16.4736 9.96409 16.4263 9.96644 16.3783C9.96879 16.3302 9.98838 16.2846 10.0216 16.2499L10.5624 15.6847L9.04242 16.5611C8.99911 16.5855 8.94827 16.5929 8.89979 16.5819C8.85132 16.5708 8.80869 16.5421 8.78022 16.5014C8.75175 16.4606 8.73948 16.4107 8.74581 16.3614C8.75213 16.3121 8.77659 16.2669 8.81442 16.2347L8.91762 16.1487L8.20482 16.5603C8.16341 16.5838 8.11498 16.5917 8.06823 16.5827C8.02148 16.5737 7.97948 16.5483 7.94979 16.5111C7.92009 16.4738 7.90465 16.4272 7.90623 16.3797C7.90781 16.3321 7.92632 16.2866 7.95842 16.2515L8.51842 15.6479L6.93722 16.5603C6.89468 16.5831 6.84532 16.5898 6.79825 16.579C6.75118 16.5683 6.70958 16.5409 6.68111 16.502C6.65265 16.463 6.63925 16.415 6.64339 16.3669C6.64752 16.3188 6.66892 16.2738 6.70362 16.2403L7.03682 15.9411L5.96002 16.5603C5.91888 16.5838 5.87074 16.5919 5.82415 16.5833C5.77757 16.5746 5.73557 16.5497 5.70565 16.5129C5.67573 16.4762 5.65983 16.43 5.66077 16.3827C5.66172 16.3353 5.67945 16.2898 5.71082 16.2543L6.28802 15.6083L4.64002 16.5603C4.59713 16.5844 4.54686 16.5918 4.49883 16.5812C4.4508 16.5705 4.40837 16.5426 4.37966 16.5026C4.35095 16.4627 4.33797 16.4135 4.3432 16.3646C4.34843 16.3157 4.37151 16.2704 4.40802 16.2375L4.69322 15.9859L3.69562 16.5603C3.65226 16.5848 3.60132 16.5922 3.55276 16.5812C3.5042 16.5701 3.46151 16.5413 3.43305 16.5005C3.40459 16.4596 3.3924 16.4096 3.39886 16.3602C3.40533 16.3108 3.42999 16.2656 3.46802 16.2335L3.55482 16.1615L2.86322 16.5615C2.82168 16.5852 2.773 16.5933 2.726 16.5843C2.67901 16.5752 2.63682 16.5496 2.60711 16.5121C2.57739 16.4746 2.5621 16.4276 2.56403 16.3798C2.56596 16.332 2.58497 16.2865 2.61762 16.2515L3.16962 15.6643L1.61482 16.5603C1.57503 16.583 1.52865 16.5913 1.48343 16.5839C1.43821 16.5766 1.3969 16.5539 1.36641 16.5197C1.33592 16.4855 1.31809 16.4419 1.3159 16.3961C1.31372 16.3503 1.32732 16.3052 1.35442 16.2683L1.94882 15.4683L0.530817 16.2863C0.487998 16.3109 0.437555 16.3189 0.389217 16.3086C0.340879 16.2983 0.29807 16.2704 0.269047 16.2304C0.240024 16.1904 0.226843 16.1411 0.232044 16.0919C0.237246 16.0428 0.260463 15.9973 0.297217 15.9643L0.414017 15.8591C0.361812 15.8529 0.31229 15.8326 0.270817 15.8003C0.240171 15.7691 0.220568 15.7288 0.215006 15.6854C0.209444 15.6421 0.218229 15.5981 0.240017 15.5603L0.400017 15.2783C0.370891 15.2733 0.34323 15.2619 0.319023 15.245C0.294816 15.228 0.274665 15.2059 0.260017 15.1803C0.233497 15.1343 0.22631 15.0797 0.240038 15.0285C0.253765 14.9773 0.287283 14.9336 0.333217 14.9071L0.800018 14.6403C0.838108 14.6184 0.882346 14.6096 0.925898 14.6154C0.96945 14.6212 1.00989 14.6411 1.04098 14.6721C1.07207 14.7032 1.09207 14.7436 1.09789 14.7871C1.10372 14.8307 1.09505 14.8749 1.07322 14.9131L0.956818 15.1163L1.77922 14.6403C1.82175 14.6174 1.87111 14.6108 1.91818 14.6215C1.96525 14.6322 2.00686 14.6596 2.03532 14.6986C2.06378 14.7376 2.07718 14.7855 2.07305 14.8336C2.06891 14.8817 2.04752 14.9267 2.01282 14.9603L1.98882 14.9819L2.58402 14.6403C2.62381 14.6173 2.67029 14.6088 2.71563 14.6161C2.76097 14.6234 2.80242 14.6461 2.83301 14.6803C2.86361 14.7146 2.88148 14.7583 2.88363 14.8042C2.88578 14.8501 2.87207 14.8953 2.84482 14.9323L2.25002 15.7323L4.14482 14.6403C4.18635 14.6165 4.23504 14.6084 4.28203 14.6175C4.32902 14.6265 4.37121 14.6521 4.40093 14.6896C4.43065 14.7272 4.44593 14.7741 4.444 14.8219C4.44207 14.8697 4.42306 14.9153 4.39042 14.9503L3.84002 15.5367L5.39322 14.6403C5.43657 14.6157 5.48751 14.6083 5.53607 14.6193C5.58463 14.6304 5.62732 14.6592 5.65579 14.7001C5.68425 14.7409 5.69644 14.7909 5.68997 14.8403C5.68351 14.8897 5.65885 14.9349 5.62082 14.9671L5.53402 15.0391L6.22562 14.6391C6.26852 14.6146 6.31895 14.6069 6.3672 14.6174C6.41545 14.6279 6.45811 14.6559 6.48696 14.696C6.51581 14.736 6.52882 14.7854 6.52347 14.8345C6.51813 14.8836 6.49482 14.9289 6.45802 14.9619L6.17242 15.2135L7.16842 14.6391C7.20955 14.6155 7.2577 14.6074 7.30428 14.6161C7.35087 14.6247 7.39286 14.6496 7.42278 14.6864C7.4527 14.7231 7.46861 14.7693 7.46766 14.8167C7.46672 14.864 7.44898 14.9095 7.41762 14.9451L6.84002 15.5915L8.48962 14.6395C8.53217 14.6163 8.58166 14.6095 8.62891 14.6201C8.67616 14.6307 8.71795 14.6581 8.74654 14.6971C8.77512 14.7362 8.78855 14.7844 8.78434 14.8326C8.78012 14.8808 8.75855 14.9259 8.72362 14.9595L8.39042 15.2587L9.46722 14.6403C9.50863 14.6165 9.55719 14.6083 9.60409 14.6172C9.651 14.6262 9.69318 14.6516 9.72299 14.6889C9.7528 14.7262 9.76828 14.7729 9.76664 14.8206C9.76499 14.8683 9.74633 14.9139 9.71402 14.9491L9.15402 15.5527L10.7348 14.6403C10.7781 14.6158 10.829 14.6084 10.8774 14.6195C10.9259 14.6305 10.9685 14.6592 10.997 14.6999C11.0255 14.7407 11.0378 14.7906 11.0314 14.8399C11.0251 14.8892 11.0006 14.9344 10.9628 14.9667L10.8596 15.0527L11.5748 14.6403C11.6165 14.6165 11.6653 14.6084 11.7124 14.6176C11.7595 14.6268 11.8017 14.6527 11.8313 14.6904C11.8609 14.7281 11.876 14.7753 11.8738 14.8232C11.8716 14.8711 11.8522 14.9166 11.8192 14.9515L11.28 15.5159L12.8 14.6395C12.8404 14.6161 12.8877 14.6075 12.9337 14.6153C12.9798 14.6232 13.0216 14.6468 13.052 14.6823C13.0825 14.7178 13.0995 14.7628 13.1001 14.8096C13.1008 14.8564 13.085 14.9019 13.0556 14.9383L12.456 15.6771L14.256 14.6395C14.2994 14.6153 14.3501 14.6082 14.3984 14.6194C14.4468 14.6306 14.4892 14.6593 14.5175 14.7C14.5458 14.7408 14.558 14.7906 14.5517 14.8398C14.5453 14.889 14.5209 14.934 14.4832 14.9663L14.4104 15.0267L15.08 14.6403C15.1219 14.6175 15.1706 14.6104 15.2172 14.6204C15.2639 14.6303 15.3055 14.6566 15.3344 14.6945C15.3634 14.7324 15.3778 14.7794 15.3752 14.8271C15.3726 14.8747 15.353 14.9198 15.32 14.9543L14.8124 15.4643L16.2404 14.6403C16.283 14.6139 16.334 14.6045 16.3832 14.6139C16.4324 14.6233 16.4763 14.6509 16.5062 14.6911C16.5361 14.7314 16.5498 14.7813 16.5445 14.8312C16.5393 14.881 16.5156 14.9271 16.478 14.9603L16.0492 15.3651L17.3056 14.6403C17.3454 14.6174 17.3919 14.6089 17.4373 14.6162C17.4826 14.6236 17.5241 14.6463 17.5546 14.6807C17.5852 14.715 17.603 14.7587 17.6051 14.8046C17.6071 14.8505 17.5933 14.8957 17.566 14.9327L16.9712 15.7327L18.862 14.6403C18.9052 14.6152 18.9563 14.6073 19.0051 14.618C19.0539 14.6287 19.0969 14.6572 19.1257 14.6981C19.1545 14.7389 19.167 14.789 19.1607 14.8386C19.1544 14.8881 19.1297 14.9335 19.0916 14.9659L18.936 15.0971L19.728 14.6403C19.7706 14.6148 19.8212 14.606 19.8699 14.6158C19.9186 14.6255 19.9619 14.653 19.9915 14.6929C20.021 14.7328 20.0347 14.7823 20.0297 14.8317C20.0248 14.8811 20.0017 14.927 19.9648 14.9603L19.5488 15.3503L20.5748 14.7587C20.6174 14.7355 20.6669 14.7287 20.7141 14.7393C20.7614 14.7499 20.8032 14.7773 20.8317 14.8163C20.8603 14.8554 20.8737 14.9036 20.8695 14.9518C20.8653 15 20.8437 15.0451 20.8088 15.0787L20.584 15.2831L20.688 15.2235C20.7251 15.202 20.7681 15.193 20.8107 15.1978C20.8533 15.2026 20.8932 15.2209 20.9246 15.2502C20.956 15.2794 20.9771 15.3179 20.9849 15.36C20.9928 15.4022 20.9868 15.4457 20.968 15.4843L20.754 15.9203C20.7989 15.9176 20.8434 15.9301 20.8803 15.9558C20.9173 15.9815 20.9444 16.0189 20.9575 16.0619C20.9705 16.105 20.9687 16.1512 20.9522 16.193C20.9358 16.2349 20.9057 16.27 20.8668 16.2927L20.4028 16.5607C20.3657 16.5822 20.3227 16.5912 20.2801 16.5864C20.2375 16.5816 20.1976 16.5632 20.1662 16.534C20.1349 16.5048 20.1137 16.4662 20.1059 16.4241C20.0981 16.3819 20.104 16.3384 20.1228 16.2999L20.3204 15.8955L19.168 16.5603C19.1255 16.5837 19.0758 16.5908 19.0284 16.5803C18.981 16.5698 18.939 16.5424 18.9103 16.5032C18.8816 16.464 18.8681 16.4157 18.8724 16.3673C18.8767 16.3189 18.8985 16.2738 18.9336 16.2403L19.1592 16.0351L18.2476 16.5603C18.205 16.5858 18.1544 16.5945 18.1057 16.5848C18.057 16.575 18.0137 16.5475 17.9841 16.5076C17.9546 16.4677 17.941 16.4182 17.9459 16.3688C17.9508 16.3194 17.974 16.2736 18.0108 16.2403L18.4268 15.8499L17.2 16.5603C17.1568 16.5849 17.1059 16.5925 17.0574 16.5817C17.0089 16.5708 16.9661 16.5423 16.9375 16.5016C16.9088 16.4609 16.8964 16.4111 16.9025 16.3617C16.9087 16.3123 16.9331 16.267 16.9708 16.2347L17.126 16.1039L16.3324 16.5603C16.2927 16.5837 16.2461 16.5925 16.2006 16.5852C16.1551 16.5779 16.1136 16.5549 16.0832 16.5203C16.0526 16.4859 16.0348 16.442 16.0327 16.3961C16.0307 16.3501 16.0446 16.3048 16.072 16.2679L16.6668 15.4679L14.7752 16.5603C14.7326 16.5862 14.6818 16.5952 14.6329 16.5857C14.5839 16.5761 14.5403 16.5485 14.5106 16.5085C14.4809 16.4684 14.4673 16.4187 14.4723 16.3691C14.4774 16.3194 14.5008 16.2735 14.538 16.2403L14.9664 15.8355L13.7132 16.5603C13.6713 16.583 13.6226 16.5901 13.576 16.5801C13.5293 16.5702 13.4878 16.5439 13.4588 16.506C13.4299 16.4681 13.4154 16.4211 13.418 16.3735C13.4207 16.3258 13.4402 16.2807 13.4732 16.2463L13.9804 15.7359L12.5504 16.5603C12.5202 16.5784 12.4857 16.588 12.4504 16.5883Z" fill="#925C4C"/>
<path d="M4.59003 7.37289C4.54982 7.37299 4.51051 7.36098 4.47723 7.33841C4.44395 7.31583 4.41825 7.28375 4.40348 7.24635C4.3887 7.20895 4.38555 7.16796 4.39443 7.12874C4.4033 7.08952 4.4238 7.05388 4.45323 7.02649L4.96003 6.55249L4.02043 7.09449C3.97827 7.1188 3.92868 7.12691 3.88097 7.11728C3.83325 7.10766 3.79069 7.08096 3.76125 7.0422C3.73181 7.00344 3.71751 6.95527 3.72105 6.90672C3.72458 6.85817 3.74569 6.81258 3.78043 6.77849L4.86763 5.71329L3.49483 6.50689C3.4516 6.53193 3.40056 6.53988 3.35176 6.52918C3.30296 6.51849 3.25993 6.48991 3.23114 6.44908C3.20235 6.40825 3.18988 6.35812 3.19619 6.30856C3.2025 6.259 3.22713 6.2136 3.26523 6.18129L3.95483 5.59329L3.32443 5.95729C3.28073 5.98269 3.22903 5.9906 3.17973 5.97943C3.13042 5.96826 3.08718 5.93883 3.0587 5.89707C3.03021 5.8553 3.0186 5.8043 3.0262 5.75433C3.03379 5.70435 3.06003 5.6591 3.09963 5.62769L3.25123 5.50769C3.21849 5.51094 3.18547 5.50521 3.15573 5.49111C3.12599 5.47702 3.10065 5.45509 3.08243 5.42769C3.05298 5.38898 3.03863 5.34086 3.0421 5.29234C3.04556 5.24382 3.06658 5.19822 3.10123 5.16409L3.50123 4.77009C3.46705 4.75552 3.4376 4.73172 3.41619 4.70135C3.39477 4.67099 3.38224 4.63525 3.38 4.59816C3.37775 4.56107 3.38589 4.52409 3.40349 4.49137C3.42109 4.45864 3.44745 4.43146 3.47963 4.41289L4.43003 3.86409C4.47215 3.84011 4.52154 3.83224 4.56902 3.84194C4.6165 3.85164 4.65885 3.87825 4.68819 3.91683C4.71752 3.9554 4.73185 4.00332 4.72851 4.05167C4.72517 4.10002 4.70439 4.14551 4.67003 4.17969L4.49523 4.35169L5.22803 3.92889C5.27167 3.90411 5.32303 3.89664 5.37192 3.90796C5.42081 3.91929 5.46365 3.94858 5.49195 3.99002C5.52025 4.03146 5.53194 4.08203 5.52469 4.13168C5.51745 4.18134 5.4918 4.22646 5.45283 4.25809L5.41603 4.28809L5.64723 4.15449C5.69041 4.12995 5.74116 4.12235 5.78963 4.13316C5.8381 4.14398 5.88081 4.17244 5.90945 4.21301C5.93809 4.25358 5.95061 4.30335 5.94459 4.35264C5.93856 4.40193 5.91441 4.44722 5.87683 4.47969L5.18723 5.06809L6.04004 4.57649C6.0822 4.55217 6.13179 4.54406 6.1795 4.55369C6.22722 4.56331 6.26978 4.59001 6.29922 4.62877C6.32866 4.66754 6.34296 4.71571 6.33942 4.76425C6.33589 4.8128 6.31478 4.85839 6.28004 4.89249L5.19163 5.95969L6.28004 5.32849C6.32264 5.30374 6.37287 5.2956 6.42111 5.30561C6.46935 5.31562 6.5122 5.34308 6.54144 5.38273C6.57068 5.42238 6.58426 5.47142 6.57957 5.52047C6.57488 5.56951 6.55226 5.61509 6.51604 5.64849L6.00803 6.12289L6.16443 6.03249C6.1872 6.01801 6.21265 6.0083 6.23927 6.00392C6.26589 5.99954 6.29311 6.00059 6.31931 6.00701C6.34551 6.01343 6.37014 6.02508 6.39172 6.04126C6.4133 6.05745 6.43138 6.07783 6.44488 6.10118C6.45838 6.12453 6.46702 6.15038 6.47027 6.17715C6.47352 6.20393 6.47133 6.23109 6.46381 6.25699C6.4563 6.2829 6.44362 6.30702 6.42654 6.3279C6.40946 6.34877 6.38834 6.36598 6.36444 6.37849L4.68803 7.34649C4.65826 7.36376 4.62446 7.37286 4.59003 7.37289Z" fill="#C7AF3E"/>
<path d="M10.2351 6.58773C10.1952 6.58781 10.1563 6.57598 10.1232 6.55376C10.0901 6.53154 10.0644 6.49994 10.0494 6.46301C10.0344 6.42609 10.0308 6.38553 10.039 6.34653C10.0472 6.30753 10.0669 6.27187 10.0955 6.24413L10.8927 5.46933L9.06548 6.52413C9.0229 6.54819 8.97297 6.5558 8.92515 6.54554C8.87734 6.53528 8.83493 6.50785 8.80597 6.46844C8.777 6.42903 8.76348 6.38037 8.76796 6.33167C8.77244 6.28297 8.79461 6.2376 8.83028 6.20413L9.91028 5.20893L8.54468 5.99733C8.50099 6.02225 8.44952 6.02979 8.40052 6.01845C8.35152 6.00711 8.30859 5.97773 8.28028 5.93615C8.25198 5.89458 8.24038 5.84387 8.24779 5.79412C8.2552 5.74438 8.28109 5.69925 8.32028 5.66773L8.75348 5.32493L8.59748 5.41453C8.5549 5.43859 8.50497 5.4462 8.45715 5.43594C8.40934 5.42568 8.36693 5.39825 8.33797 5.35884C8.309 5.31943 8.29548 5.27077 8.29996 5.22207C8.30444 5.17337 8.32661 5.128 8.36228 5.09453L9.29988 4.23413C9.28845 4.22203 9.27852 4.2086 9.27028 4.19413C9.24389 4.14823 9.23677 4.09374 9.25049 4.0426C9.26421 3.99146 9.29765 3.94785 9.34348 3.92133L10.1647 3.44773C10.2073 3.42368 10.2572 3.41607 10.305 3.42633C10.3528 3.43659 10.3952 3.46402 10.4242 3.50343C10.4532 3.54284 10.4667 3.59149 10.4622 3.64019C10.4577 3.6889 10.4355 3.73427 10.3999 3.76773L9.97508 4.15773L10.9199 3.61333C10.9636 3.58887 11.0148 3.58167 11.0635 3.59316C11.1123 3.60465 11.1549 3.634 11.183 3.6754C11.2112 3.7168 11.2228 3.76726 11.2155 3.81679C11.2083 3.86632 11.1827 3.91133 11.1439 3.94293L10.7107 4.28613L11.2799 3.95973C11.3225 3.93568 11.3724 3.92807 11.4202 3.93833C11.468 3.94859 11.5104 3.97602 11.5394 4.01543C11.5684 4.05484 11.5819 4.10349 11.5774 4.15219C11.5729 4.2009 11.5507 4.24627 11.5151 4.27973L10.4351 5.27493L12.0843 4.31973C12.1265 4.29506 12.1763 4.2867 12.2242 4.29624C12.2722 4.30579 12.315 4.33257 12.3446 4.37153C12.3741 4.41049 12.3884 4.45892 12.3846 4.50768C12.3809 4.55643 12.3594 4.60213 12.3243 4.63613L11.5271 5.41093L12.5883 4.79973C12.6294 4.77595 12.6777 4.76759 12.7244 4.77615C12.7712 4.78472 12.8133 4.80964 12.8434 4.84646C12.8734 4.88329 12.8893 4.9296 12.8883 4.97711C12.8873 5.02462 12.8694 5.07021 12.8379 5.10573L12.3999 5.59453L12.6591 5.44493C12.6818 5.43159 12.707 5.42289 12.7331 5.41931C12.7593 5.41574 12.7858 5.41737 12.8113 5.42411C12.8368 5.43086 12.8608 5.44257 12.8817 5.4586C12.9027 5.47462 12.9202 5.49463 12.9334 5.51747C12.9466 5.54031 12.9552 5.56554 12.9586 5.59169C12.962 5.61785 12.9602 5.64442 12.9532 5.66987C12.9463 5.69533 12.9345 5.71916 12.9183 5.74001C12.9021 5.76085 12.882 5.7783 12.8591 5.79133L11.5279 6.55973C11.4868 6.58326 11.4387 6.59145 11.3921 6.58283C11.3456 6.57422 11.3036 6.54936 11.2736 6.51269C11.2436 6.47601 11.2277 6.4299 11.2285 6.38255C11.2294 6.33521 11.247 6.2897 11.2783 6.25413L11.7151 5.76333L10.3351 6.55973C10.3048 6.57771 10.2703 6.58737 10.2351 6.58773Z" fill="white"/>
<path d="M16.2614 7.38779C16.2209 7.38786 16.1813 7.37564 16.1479 7.35273C16.1145 7.32983 16.0888 7.29732 16.0743 7.25951C16.0598 7.22171 16.0571 7.18038 16.0666 7.141C16.076 7.10162 16.0972 7.06605 16.1274 7.03899L16.7522 6.47659L15.2322 7.35659C15.1884 7.38165 15.1368 7.38927 15.0877 7.37792C15.0386 7.36657 14.9956 7.33709 14.9673 7.29538C14.939 7.25367 14.9274 7.2028 14.935 7.15296C14.9426 7.10313 14.9687 7.05799 15.0082 7.02659L15.3342 6.76779L14.7322 7.11499C14.689 7.13953 14.6382 7.14713 14.5898 7.13631C14.5413 7.12549 14.4986 7.09703 14.47 7.05646C14.4413 7.0159 14.4288 6.96613 14.4348 6.91684C14.4408 6.86754 14.465 6.82226 14.5026 6.78979L15.4134 6.01499L14.517 6.53219C14.4753 6.55598 14.4265 6.56401 14.3794 6.5548C14.3323 6.5456 14.2901 6.51978 14.2605 6.48205C14.2309 6.44432 14.2158 6.39719 14.218 6.34927C14.2202 6.30135 14.2396 6.25582 14.2726 6.22099L15.3642 5.07699C15.326 5.06007 15.2943 5.03132 15.2738 4.99499C15.2473 4.94914 15.2402 4.89468 15.2538 4.84355C15.2675 4.79242 15.3008 4.74878 15.3466 4.72219L16.1662 4.24899C16.2078 4.22519 16.2566 4.21717 16.3037 4.22637C16.3508 4.23558 16.393 4.2614 16.4227 4.29913C16.4523 4.33686 16.4674 4.38398 16.4651 4.4319C16.4629 4.47983 16.4436 4.52536 16.4106 4.56019L15.5242 5.48939L17.1186 4.56939C17.1617 4.54485 17.2125 4.53725 17.261 4.54807C17.3094 4.55888 17.3521 4.58734 17.3808 4.62791C17.4094 4.66848 17.4219 4.71825 17.4159 4.76754C17.4099 4.81683 17.3857 4.86212 17.3482 4.89459L16.4386 5.66859L17.4786 5.06859C17.5223 5.04367 17.5737 5.03613 17.6227 5.04747C17.6717 5.05881 17.7147 5.08819 17.743 5.12977C17.7713 5.17134 17.7829 5.22205 17.7755 5.2718C17.768 5.32155 17.7422 5.36667 17.703 5.39819L17.3774 5.65699L18.2002 5.17819C18.2427 5.15507 18.2922 5.14818 18.3395 5.15879C18.3867 5.16939 18.4285 5.19679 18.4571 5.23587C18.4857 5.27496 18.4991 5.32309 18.4949 5.37133C18.4907 5.41958 18.4691 5.46465 18.4342 5.49819L17.8086 6.06059L18.5926 5.60819C18.6316 5.58564 18.6771 5.57694 18.7217 5.5835C18.7663 5.59006 18.8074 5.61149 18.8383 5.64433C18.8692 5.67716 18.8881 5.71947 18.8919 5.76439C18.8957 5.80931 18.8843 5.8542 18.8594 5.89179L18.4002 6.58939L18.5718 6.49059C18.6175 6.46668 18.6707 6.46135 18.7202 6.47573C18.7697 6.4901 18.8118 6.52306 18.8376 6.56772C18.8634 6.61238 18.871 6.66528 18.8587 6.71539C18.8465 6.76549 18.8153 6.80891 18.7718 6.83659L17.8638 7.36059C17.8248 7.38318 17.7794 7.39195 17.7348 7.38549C17.6902 7.37903 17.6491 7.35771 17.6182 7.32499C17.5871 7.29213 17.5681 7.24972 17.5643 7.20469C17.5604 7.15965 17.572 7.11464 17.597 7.07699L18.0582 6.38139L16.3602 7.35979C16.3303 7.37774 16.2962 7.3874 16.2614 7.38779Z" fill="white"/>
<path d="M17.9038 23.7881C17.8617 23.7886 17.8204 23.7757 17.7859 23.7514C17.7515 23.727 17.7256 23.6924 17.7121 23.6525C17.6985 23.6125 17.6979 23.5693 17.7103 23.529C17.7228 23.4887 17.7477 23.4534 17.7814 23.4281L18.5294 22.8489L16.9522 23.7601C16.9097 23.7826 16.8605 23.7891 16.8136 23.7782C16.7667 23.7674 16.7253 23.7401 16.6969 23.7012C16.6686 23.6623 16.6552 23.6145 16.6593 23.5665C16.6633 23.5185 16.6846 23.4736 16.719 23.4401L17.9402 22.3513L15.4958 23.7601C15.4532 23.786 15.4025 23.795 15.3535 23.7855C15.3046 23.7759 15.261 23.7484 15.2312 23.7083C15.2015 23.6682 15.1879 23.6185 15.193 23.5689C15.198 23.5193 15.2214 23.4733 15.2586 23.4401L16.5386 22.2401L14.3318 23.5141C14.2876 23.5398 14.2353 23.5476 14.1855 23.5359C14.1357 23.5242 14.0923 23.4939 14.0642 23.4512C14.0361 23.4085 14.0254 23.3566 14.0343 23.3063C14.0433 23.2559 14.0711 23.2109 14.1122 23.1805L14.2382 23.0873L14.1354 23.1461C14.0941 23.1698 14.0456 23.178 13.9987 23.1692C13.9518 23.1603 13.9096 23.135 13.8798 23.0977C13.8499 23.0605 13.8344 23.0138 13.8359 22.9661C13.8375 22.9184 13.856 22.8729 13.8882 22.8377L14.6266 22.0345L14.1138 22.3305C14.0804 22.3498 14.0421 22.3589 14.0035 22.3569C13.9649 22.3549 13.9278 22.3418 13.8965 22.3191C13.8653 22.2964 13.8413 22.2652 13.8274 22.2292C13.8135 22.1931 13.8103 22.1539 13.8182 22.1161L13.9454 21.5137C13.9012 21.4979 13.8641 21.4666 13.841 21.4257C13.8146 21.3798 13.8074 21.3254 13.8211 21.2742C13.8347 21.2231 13.8681 21.1795 13.9138 21.1529L14.1138 21.0373C14.1473 21.0179 14.1857 21.0086 14.2243 21.0105C14.2629 21.0125 14.3002 21.0256 14.3315 21.0483C14.3628 21.071 14.3869 21.1023 14.4008 21.1384C14.4147 21.1745 14.4178 21.2138 14.4098 21.2517L14.3022 21.7597L15.5586 21.0349C15.6 21.0111 15.6485 21.0029 15.6954 21.0118C15.7423 21.0207 15.7845 21.046 15.8143 21.0832C15.8441 21.1204 15.8597 21.1671 15.8581 21.2148C15.8566 21.2625 15.838 21.3081 15.8058 21.3433L15.067 22.1461L16.997 21.0321C17.0412 21.0064 17.0936 20.9985 17.1434 21.0102C17.1932 21.0219 17.2366 21.0523 17.2647 21.095C17.2928 21.1377 17.3035 21.1895 17.2945 21.2399C17.2856 21.2902 17.2577 21.3352 17.2166 21.3657L17.091 21.4593L17.833 21.0309C17.8757 21.005 17.9264 20.9959 17.9754 21.0055C18.0243 21.0151 18.0679 21.0426 18.0976 21.0827C18.1273 21.1227 18.141 21.1725 18.1359 21.2221C18.1309 21.2717 18.1074 21.3176 18.0702 21.3509L16.7926 22.5509L19.429 21.0309C19.4719 21.0061 19.5224 20.9981 19.5708 21.0085C19.6192 21.0188 19.6621 21.0467 19.6911 21.0869C19.7201 21.127 19.7332 21.1764 19.7279 21.2256C19.7226 21.2748 19.6992 21.3203 19.6622 21.3533L18.4398 22.4401L20.8882 21.0265C20.9321 21.0019 20.9836 20.9948 21.0325 21.0065C21.0814 21.0182 21.1241 21.0479 21.1521 21.0896C21.1801 21.1314 21.1913 21.1822 21.1836 21.2318C21.1758 21.2815 21.1496 21.3264 21.1102 21.3577L20.3638 21.9369L21.0878 21.5201C21.13 21.4958 21.1796 21.4877 21.2273 21.4973C21.275 21.5069 21.3176 21.5336 21.347 21.5724C21.3765 21.6111 21.3908 21.6593 21.3872 21.7078C21.3837 21.7564 21.3626 21.802 21.3278 21.8361L20.525 22.6197L21.0882 22.2949C21.1279 22.272 21.1741 22.2634 21.2193 22.2705C21.2645 22.2775 21.3059 22.2999 21.3366 22.3338C21.3673 22.3678 21.3855 22.4112 21.388 22.4569C21.3906 22.5026 21.3774 22.5477 21.3506 22.5849L21.0646 22.9821C21.1105 22.9763 21.1569 22.9865 21.196 23.011C21.2352 23.0355 21.2646 23.0729 21.2793 23.1166C21.2941 23.1604 21.2932 23.2079 21.2769 23.2511C21.2606 23.2943 21.2298 23.3306 21.1898 23.3537L20.4798 23.7601C20.4403 23.7828 20.3941 23.7913 20.349 23.7842C20.304 23.7771 20.2627 23.7547 20.232 23.7209C20.2014 23.6871 20.1832 23.6438 20.1806 23.5983C20.1779 23.5527 20.1909 23.5076 20.2174 23.4705L20.481 23.1045L19.3458 23.7601C19.3037 23.7844 19.2541 23.7925 19.2064 23.7829C19.1587 23.7732 19.1161 23.7465 19.0866 23.7078C19.0572 23.669 19.0429 23.6209 19.0464 23.5723C19.05 23.5238 19.0711 23.4782 19.1058 23.4441L19.9078 22.6605L18.0038 23.7601C17.9736 23.7782 17.9391 23.7878 17.9038 23.7881Z" fill="#35718A"/>
<path d="M14.8338 20.2003C14.7912 20.2003 14.7498 20.1866 14.7155 20.1613C14.6812 20.1361 14.6558 20.1005 14.6432 20.0599C14.6305 20.0192 14.6311 19.9755 14.645 19.9353C14.6588 19.895 14.6852 19.8602 14.7202 19.8359L18.5278 17.2003L14.0902 19.7639C14.0451 19.7895 13.9919 19.7967 13.9417 19.7838C13.8915 19.7709 13.8482 19.7391 13.8211 19.6949C13.7939 19.6508 13.7849 19.5978 13.796 19.5472C13.8071 19.4966 13.8374 19.4522 13.8806 19.4235L16.2094 17.9035L13.7106 19.3459C13.6659 19.3705 13.6134 19.377 13.564 19.3641C13.5147 19.3512 13.4721 19.32 13.445 19.2767C13.4179 19.2335 13.4084 19.1815 13.4183 19.1315C13.4283 19.0814 13.457 19.0371 13.4986 19.0075L17.4474 16.3299L13.2002 18.7831C13.1551 18.8073 13.1025 18.8132 13.0532 18.7998C13.0038 18.7863 12.9615 18.7545 12.935 18.7108C12.9084 18.6671 12.8995 18.6149 12.9103 18.5649C12.921 18.5149 12.9504 18.4709 12.9926 18.4419L14.5794 17.4247L12.8642 18.4139C12.819 18.4388 12.7659 18.4452 12.716 18.4319C12.6662 18.4185 12.6234 18.3863 12.5967 18.3422C12.57 18.298 12.5614 18.2452 12.5727 18.1948C12.584 18.1445 12.6144 18.1004 12.6574 18.0719L13.3374 17.6403L12.5646 18.0863C12.5193 18.1129 12.4655 18.1205 12.4146 18.1077C12.3637 18.0949 12.3199 18.0626 12.2927 18.0178C12.2654 17.973 12.2568 17.9193 12.2688 17.8682C12.2807 17.8171 12.3123 17.7728 12.3566 17.7447L14.1794 16.5763L12.2194 17.7075C12.174 17.735 12.1195 17.7433 12.068 17.7306C12.0165 17.718 11.9721 17.6853 11.9446 17.6399C11.9171 17.5945 11.9088 17.5401 11.9215 17.4885C11.9342 17.437 11.9668 17.3926 12.0122 17.3651L12.9786 16.7535L11.9122 17.3691C11.8672 17.3959 11.8135 17.4039 11.7627 17.3915C11.7118 17.3791 11.6679 17.3472 11.6402 17.3028C11.6126 17.2584 11.6035 17.2048 11.6148 17.1538C11.6262 17.1027 11.6571 17.0581 11.701 17.0295L15.7502 14.3319L11.7338 16.6519C11.6885 16.6778 11.6349 16.685 11.5844 16.6719C11.5339 16.6588 11.4905 16.6265 11.4635 16.5819C11.4365 16.5373 11.428 16.4839 11.4397 16.4331C11.4515 16.3823 11.4827 16.3381 11.5266 16.3099L12.9574 15.4003L12.061 15.9175C12.0159 15.9427 11.9628 15.9495 11.9129 15.9364C11.8629 15.9234 11.8199 15.8915 11.7929 15.8474C11.7659 15.8034 11.757 15.7506 11.7681 15.7001C11.7791 15.6497 11.8093 15.6055 11.8522 15.5767L14.0826 14.1287L12.455 15.0687C12.4099 15.0957 12.356 15.1039 12.3049 15.0915C12.2538 15.079 12.2096 15.0469 12.182 15.0022C12.1544 14.9574 12.1456 14.9036 12.1573 14.8523C12.1691 14.8011 12.2006 14.7565 12.245 14.7283L14.349 13.3499L12.8506 14.2151C12.8059 14.2404 12.7533 14.2474 12.7035 14.2349C12.6537 14.2224 12.6107 14.1913 12.5833 14.1479C12.5558 14.1046 12.5461 14.0523 12.5561 14.002C12.5661 13.9517 12.5951 13.9071 12.637 13.8775L15.957 11.5815L13.3854 13.0659C13.3407 13.0915 13.2878 13.0988 13.2378 13.0864C13.1878 13.0739 13.1445 13.0426 13.117 12.999C13.0895 12.9554 13.0799 12.9029 13.0902 12.8524C13.1005 12.8019 13.1299 12.7573 13.1722 12.7279L15.5498 11.0919L13.8402 12.0767C13.7959 12.1017 13.7438 12.1089 13.6944 12.0968C13.6451 12.0848 13.6021 12.0544 13.5744 12.0118C13.5466 11.9692 13.5361 11.9176 13.545 11.8676C13.5539 11.8175 13.5815 11.7728 13.6222 11.7423L16.4334 9.68033L14.4122 10.8483C14.3673 10.8735 14.3145 10.8804 14.2646 10.8676C14.2148 10.8548 14.1718 10.8233 14.1446 10.7796C14.1174 10.7359 14.1081 10.6834 14.1186 10.6331C14.1291 10.5827 14.1586 10.5383 14.201 10.5091L14.601 10.2419C14.559 10.2407 14.5184 10.2263 14.4851 10.2008C14.4517 10.1752 14.4273 10.1398 14.4152 10.0995C14.4031 10.0593 14.404 10.0163 14.4177 9.97655C14.4315 9.93685 14.4574 9.90248 14.4918 9.87833L15.407 9.23233L15.0734 9.42513C15.0288 9.45075 14.976 9.45817 14.926 9.44585C14.876 9.43353 14.8327 9.40241 14.8051 9.35898C14.7775 9.31554 14.7677 9.26313 14.7777 9.21264C14.7877 9.16216 14.8169 9.11749 14.859 9.08793L15.259 8.80793C15.2185 8.80555 15.1797 8.79091 15.1477 8.76595C15.1157 8.74099 15.0921 8.70689 15.0799 8.66817C15.0678 8.62946 15.0677 8.58797 15.0796 8.5492C15.0916 8.51043 15.1151 8.47623 15.147 8.45113L15.7418 7.98273C15.7013 8.006 15.6539 8.01436 15.6079 8.00635C15.5619 7.99834 15.5201 7.97447 15.4898 7.93888C15.4596 7.90329 15.4427 7.85823 15.4422 7.81152C15.4417 7.7648 15.4575 7.71938 15.487 7.68313L16.057 6.98553C16.0108 6.97024 15.9718 6.93831 15.9478 6.89593C15.9214 6.85003 15.9143 6.79554 15.928 6.7444C15.9417 6.69326 15.9752 6.64965 16.021 6.62313L16.6822 6.24113C16.7227 6.21786 16.7701 6.2095 16.8161 6.21751C16.8621 6.22552 16.9039 6.24939 16.9342 6.28498C16.9645 6.32057 16.9813 6.36563 16.9818 6.41235C16.9823 6.45906 16.9665 6.50448 16.937 6.54073L16.4882 7.08993L17.9602 6.24033C18.0039 6.21527 18.0555 6.20765 18.1047 6.219C18.1538 6.23035 18.1968 6.25983 18.2251 6.30154C18.2534 6.34325 18.2649 6.39412 18.2574 6.44396C18.2498 6.4938 18.2236 6.53893 18.1842 6.57033L17.5898 7.03833L18.7406 6.37393C18.7852 6.34926 18.8374 6.34252 18.8868 6.35507C18.9362 6.36763 18.9789 6.39854 19.0062 6.4415C19.0336 6.48446 19.0435 6.53623 19.034 6.58626C19.0245 6.63629 18.9962 6.68081 18.955 6.71073L18.8642 6.77433L19.0162 6.68673C19.0607 6.66172 19.1131 6.65469 19.1627 6.66707C19.2122 6.67945 19.2551 6.71031 19.2826 6.75332C19.3102 6.79634 19.3202 6.84825 19.3107 6.89841C19.3011 6.94858 19.2728 6.9932 19.2314 7.02313L18.3142 7.67033L19.2286 7.14273C19.2734 7.11791 19.326 7.11123 19.3756 7.12407C19.4252 7.13691 19.468 7.16829 19.4951 7.21174C19.5223 7.25519 19.5317 7.3074 19.5215 7.35759C19.5113 7.40779 19.4822 7.45215 19.4402 7.48153L19.4106 7.50153C19.4555 7.47936 19.5072 7.47486 19.5553 7.48893C19.6034 7.503 19.6444 7.53461 19.6703 7.57751C19.6962 7.62041 19.7051 7.67147 19.6951 7.72059C19.6852 7.7697 19.6572 7.81329 19.6166 7.84273L16.8058 9.90473L19.7258 8.21793C19.7706 8.1914 19.8239 8.18336 19.8746 8.19554C19.9252 8.20772 19.969 8.23914 19.9968 8.28315C20.0246 8.32715 20.0342 8.38026 20.0235 8.43119C20.0128 8.48213 19.9826 8.52688 19.9394 8.55593L17.5634 10.1907L19.9906 8.79073C20.0352 8.7658 20.0877 8.7589 20.1372 8.77144C20.1868 8.78397 20.2296 8.815 20.257 8.85816C20.2844 8.90131 20.2942 8.95331 20.2845 9.00347C20.2747 9.05364 20.2462 9.09818 20.2046 9.12793L16.8846 11.4247L20.297 9.45433C20.342 9.42987 20.3946 9.42357 20.444 9.43673C20.4935 9.44988 20.536 9.48149 20.5629 9.52505C20.5897 9.56861 20.5988 9.62081 20.5884 9.6709C20.5779 9.72099 20.5487 9.76516 20.5066 9.79433L18.4006 11.1743L20.5258 9.94713C20.5709 9.92088 20.6246 9.91333 20.6752 9.92608C20.7258 9.93884 20.7695 9.97089 20.7968 10.0154C20.8241 10.0599 20.8329 10.1133 20.8214 10.1642C20.8099 10.2152 20.7788 10.2596 20.735 10.2879L18.5042 11.7359L20.7534 10.4375C20.7986 10.4131 20.8514 10.4069 20.901 10.4203C20.9506 10.4337 20.9931 10.4657 21.0197 10.5096C21.0463 10.5536 21.0551 10.606 21.0441 10.6562C21.0331 10.7064 21.0032 10.7504 20.9606 10.7791L19.539 11.6843L20.957 10.8659C21.002 10.8404 21.0551 10.8332 21.1052 10.8459C21.1553 10.8587 21.1985 10.8904 21.2258 10.9343C21.2531 10.9782 21.2623 11.031 21.2515 11.0816C21.2407 11.1322 21.2107 11.1766 21.1678 11.2055L17.1202 13.9027L21.2582 11.5135C21.3036 11.4861 21.3581 11.4778 21.4095 11.4906C21.461 11.5033 21.5054 11.5359 21.5328 11.5813C21.5602 11.6267 21.5685 11.6812 21.5558 11.7327C21.5431 11.7842 21.5104 11.8285 21.465 11.8559L20.4934 12.4707L21.4458 11.9203C21.4909 11.8955 21.5439 11.8891 21.5937 11.9023C21.6434 11.9156 21.6862 11.9475 21.713 11.9915C21.7398 12.0354 21.7486 12.0881 21.7376 12.1384C21.7265 12.1887 21.6965 12.2328 21.6538 12.2615L19.8294 13.4307L21.6578 12.3755C21.6803 12.362 21.7052 12.3529 21.7312 12.349C21.7572 12.3451 21.7837 12.3463 21.8091 12.3526C21.8346 12.3589 21.8587 12.3701 21.8798 12.3857C21.901 12.4013 21.9188 12.4208 21.9324 12.4433C21.946 12.4658 21.955 12.4908 21.9589 12.5167C21.9629 12.5427 21.9617 12.5692 21.9554 12.5947C21.9491 12.6202 21.9378 12.6442 21.9223 12.6653C21.9067 12.6865 21.8871 12.7044 21.8646 12.7179L21.1846 13.1483L21.8402 12.7699C21.8853 12.7458 21.9379 12.7398 21.9872 12.7533C22.0366 12.7668 22.0789 12.7986 22.1055 12.8423C22.132 12.886 22.1409 12.9382 22.1302 12.9882C22.1194 13.0382 22.09 13.0822 22.0478 13.1111L20.461 14.1283L22.0458 13.2135C22.0907 13.1869 22.1442 13.1789 22.1949 13.1912C22.2456 13.2035 22.2895 13.2352 22.3172 13.2794C22.3449 13.3236 22.3543 13.3769 22.3432 13.4279C22.3322 13.4788 22.3017 13.5235 22.2582 13.5523L18.3082 16.2303L22.3602 13.8915C22.4053 13.8659 22.4585 13.8588 22.5087 13.8717C22.5589 13.8845 22.6022 13.9164 22.6294 13.9605C22.6565 14.0047 22.6655 14.0576 22.6544 14.1083C22.6433 14.1589 22.613 14.2032 22.5698 14.2319L20.2426 15.7519L22.593 14.3947C22.6377 14.3687 22.6908 14.361 22.741 14.3733C22.7913 14.3856 22.8348 14.4168 22.8625 14.4605C22.8902 14.5042 22.8999 14.5569 22.8896 14.6076C22.8792 14.6583 22.8496 14.703 22.807 14.7323L19.0002 17.3623L22.9202 15.0987C22.9652 15.0726 23.0187 15.0651 23.0692 15.0778C23.1196 15.0904 23.1632 15.1222 23.1906 15.1665C23.218 15.2108 23.227 15.264 23.2158 15.3148C23.2046 15.3656 23.1741 15.4101 23.1306 15.4387L21.4106 16.5787L23.1438 15.5787C23.1882 15.5533 23.2407 15.5458 23.2904 15.5578C23.3401 15.5698 23.3834 15.6005 23.4112 15.6434C23.439 15.6864 23.4493 15.7384 23.44 15.7887C23.4307 15.839 23.4024 15.8838 23.361 15.9139L20.6502 17.8739L23.4502 16.2575C23.4949 16.2333 23.5471 16.2269 23.5963 16.2398C23.6455 16.2527 23.688 16.2838 23.715 16.3269C23.7421 16.3699 23.7517 16.4217 23.742 16.4716C23.7322 16.5215 23.7039 16.5658 23.6626 16.5955L22.8802 17.1291L23.417 16.8195C23.461 16.7945 23.5129 16.7871 23.5622 16.7988C23.6115 16.8105 23.6545 16.8405 23.6825 16.8827C23.7106 16.9249 23.7215 16.9761 23.7132 17.0261C23.7049 17.0761 23.678 17.1211 23.6378 17.1519L22.2082 18.2343C22.2503 18.2203 22.2958 18.2207 22.3377 18.2353C22.3795 18.25 22.4153 18.2782 22.4394 18.3154C22.4635 18.3527 22.4745 18.3968 22.4708 18.441C22.467 18.4852 22.4486 18.5269 22.4186 18.5595L21.3818 19.6759C21.4049 19.7218 21.4095 19.7748 21.3946 19.8239C21.3797 19.8731 21.3465 19.9146 21.3018 19.9399L20.9202 20.1603C20.8788 20.1838 20.8304 20.1918 20.7836 20.1828C20.7369 20.1737 20.6949 20.1483 20.6652 20.1111C20.6355 20.0739 20.62 20.0273 20.6216 19.9797C20.6232 19.9321 20.6417 19.8867 20.6738 19.8515L21.223 19.2595L19.6594 20.1623C19.6154 20.1874 19.5635 20.1948 19.5142 20.1831C19.4649 20.1714 19.4219 20.1414 19.3939 20.0992C19.3658 20.057 19.3549 20.0057 19.3632 19.9557C19.3715 19.9058 19.3984 19.8608 19.4386 19.8299L20.8402 18.7687L18.4198 20.1659C18.375 20.1911 18.3223 20.1981 18.2725 20.1854C18.2227 20.1728 18.1797 20.1414 18.1524 20.0979C18.1251 20.0544 18.1155 20.0021 18.1258 19.9517C18.136 19.9014 18.1653 19.8569 18.2074 19.8275L18.9918 19.2931L17.477 20.1675C17.4326 20.193 17.3802 20.2005 17.3304 20.1885C17.2807 20.1764 17.2374 20.1458 17.2096 20.1028C17.1818 20.0599 17.1715 20.0079 17.1808 19.9576C17.1902 19.9073 17.2184 19.8624 17.2598 19.8323L19.9714 17.8723L15.9894 20.1711C15.9671 20.185 15.9423 20.1943 15.9163 20.1985C15.8904 20.2028 15.8639 20.2019 15.8383 20.1959C15.8128 20.1899 15.7886 20.1789 15.7673 20.1636C15.746 20.1482 15.7278 20.1289 15.714 20.1065C15.7002 20.0842 15.6909 20.0594 15.6866 20.0335C15.6824 20.0075 15.6833 19.981 15.6893 19.9555C15.6953 19.9299 15.7062 19.9057 15.7216 19.8844C15.7369 19.8631 15.7563 19.845 15.7786 19.8311L17.4962 18.6931L14.9338 20.1731C14.9035 20.1909 14.869 20.2003 14.8338 20.2003Z" fill="#E3C84C"/>
<path d="M15.7705 21.7878C15.729 21.7879 15.6886 21.7752 15.6547 21.7514C15.6208 21.7276 15.5951 21.6938 15.5813 21.6548C15.5674 21.6157 15.566 21.5734 15.5772 21.5335C15.5885 21.4936 15.6118 21.4582 15.6441 21.4322L16.1209 21.0454L14.8801 21.7598C14.8371 21.7839 14.7868 21.7914 14.7387 21.7807C14.6906 21.7701 14.6481 21.742 14.6194 21.702C14.5907 21.6619 14.5778 21.6127 14.5832 21.5637C14.5885 21.5148 14.6118 21.4695 14.6485 21.4366L15.3721 20.803L13.8121 21.7038C13.7684 21.729 13.7168 21.7369 13.6676 21.7257C13.6185 21.7145 13.5753 21.6852 13.5468 21.6436C13.5184 21.602 13.5067 21.5511 13.5141 21.5012C13.5215 21.4514 13.5475 21.4061 13.5869 21.3746L13.9557 21.0778L13.4289 21.3818C13.386 21.4041 13.3364 21.4101 13.2894 21.3987C13.2424 21.3873 13.2012 21.3593 13.1733 21.3198C13.1453 21.2803 13.1327 21.2321 13.1376 21.184C13.1425 21.1359 13.1647 21.0912 13.2001 21.0582L13.4469 20.845L13.3133 20.9222C13.274 20.9449 13.2282 20.9535 13.1834 20.9468C13.1386 20.94 13.0974 20.9183 13.0665 20.885C13.0357 20.8518 13.0171 20.809 13.0137 20.7638C13.0104 20.7186 13.0225 20.6736 13.0481 20.6362L13.3505 20.1938C13.3117 20.1979 13.2727 20.1907 13.2379 20.1732C13.2032 20.1557 13.1742 20.1285 13.1545 20.095C13.128 20.0491 13.1208 19.9947 13.1345 19.9436C13.1481 19.8924 13.1815 19.8488 13.2273 19.8222L13.8901 19.4398C13.9293 19.4173 13.975 19.4087 14.0197 19.4155C14.0644 19.4223 14.1055 19.444 14.1362 19.4771C14.167 19.5103 14.1856 19.5528 14.1891 19.5979C14.1925 19.643 14.1806 19.688 14.1553 19.7254L13.8753 20.1366L15.0801 19.4398C15.1231 19.4154 15.1737 19.4079 15.222 19.4186C15.2703 19.4294 15.3129 19.4577 15.3416 19.498C15.3703 19.5384 15.3829 19.5879 15.3772 19.6371C15.3714 19.6863 15.3477 19.7315 15.3105 19.7642L15.0633 19.9774L15.9953 19.4398C16.0389 19.4147 16.0903 19.4069 16.1394 19.4181C16.1884 19.4292 16.2315 19.4585 16.26 19.5C16.2884 19.5414 16.3002 19.5921 16.293 19.6419C16.2857 19.6917 16.26 19.7369 16.2209 19.7686L15.8525 20.065L16.9377 19.4398C16.9806 19.4156 17.0309 19.4082 17.079 19.4188C17.1271 19.4295 17.1696 19.4576 17.1983 19.4976C17.227 19.5376 17.2399 19.5869 17.2345 19.6358C17.2292 19.6848 17.2059 19.7301 17.1693 19.763L16.4453 20.397L18.1045 19.4398C18.148 19.4148 18.1994 19.4071 18.2483 19.4183C18.2973 19.4294 18.3402 19.4586 18.3687 19.4999C18.3971 19.5413 18.409 19.5918 18.4019 19.6415C18.3948 19.6912 18.3693 19.7364 18.3305 19.7682L17.8545 20.1546L19.0925 19.4398C19.1342 19.4157 19.1832 19.4075 19.2306 19.4167C19.2779 19.4258 19.3203 19.4518 19.35 19.4898C19.3797 19.5278 19.3947 19.5752 19.3922 19.6233C19.3897 19.6715 19.3699 19.7171 19.3365 19.7518L18.4165 20.7038L20.6061 19.4398C20.6484 19.4143 20.6986 19.4054 20.7471 19.4148C20.7956 19.4241 20.8389 19.4511 20.8687 19.4905C20.8985 19.5298 20.9127 19.5789 20.9085 19.6281C20.9043 19.6773 20.8821 19.7232 20.8461 19.757L19.9773 20.5914L21.6229 19.6398C21.6646 19.616 21.7134 19.608 21.7605 19.6172C21.8077 19.6265 21.8499 19.6524 21.8795 19.6902C21.9091 19.728 21.9241 19.7752 21.9218 19.8231C21.9195 19.8711 21.9 19.9166 21.8669 19.9514L21.1405 20.7058L21.8881 20.2742C21.929 20.2509 21.9768 20.2427 22.0232 20.2513C22.0695 20.2598 22.1114 20.2843 22.1413 20.3207C22.1713 20.357 22.1875 20.4028 22.187 20.4499C22.1866 20.497 22.1695 20.5424 22.1389 20.5782L21.9117 20.8394C21.958 20.8303 22.0061 20.8379 22.0473 20.8609C22.0886 20.8839 22.1204 20.9207 22.1371 20.9649C22.1539 21.009 22.1544 21.0577 22.1387 21.1022C22.123 21.1468 22.092 21.1843 22.0513 21.2082L21.0953 21.7602C21.0543 21.7835 21.0065 21.7916 20.9601 21.7831C20.9138 21.7746 20.872 21.75 20.842 21.7137C20.812 21.6774 20.7958 21.6316 20.7963 21.5845C20.7967 21.5374 20.8138 21.4919 20.8445 21.4562L21.0505 21.2194L20.1133 21.7598C20.0716 21.7836 20.0227 21.7916 19.9756 21.7823C19.9285 21.7731 19.8862 21.7472 19.8566 21.7094C19.827 21.6716 19.812 21.6244 19.8143 21.5764C19.8167 21.5285 19.8361 21.483 19.8693 21.4482L20.5961 20.6934L18.7489 21.7598C18.7065 21.7853 18.6563 21.7942 18.6078 21.7848C18.5593 21.7755 18.516 21.7485 18.4862 21.7091C18.4564 21.6697 18.4422 21.6207 18.4464 21.5715C18.4506 21.5223 18.4728 21.4764 18.5089 21.4426L19.3777 20.6082L17.3845 21.7598C17.3427 21.7836 17.2938 21.7916 17.2466 21.7823C17.1995 21.773 17.1573 21.747 17.1277 21.7092C17.0981 21.6713 17.0832 21.624 17.0856 21.576C17.088 21.528 17.1076 21.4825 17.1409 21.4478L18.0609 20.4958L15.8705 21.7598C15.8402 21.7779 15.8057 21.7876 15.7705 21.7878Z" fill="#4184A9"/>
<path d="M17.1674 16.526C17.1264 16.526 17.0863 16.5133 17.0527 16.4898C17.0191 16.4662 16.9936 16.4329 16.9796 16.3944C16.9656 16.3558 16.9637 16.3139 16.9744 16.2742C16.985 16.2346 17.0076 16.1992 17.039 16.1728L17.2826 15.9688L16.775 16.2616C16.7315 16.2859 16.6806 16.2932 16.6321 16.2819C16.5836 16.2707 16.5411 16.2418 16.5128 16.2008C16.4845 16.1599 16.4724 16.1098 16.4791 16.0605C16.4857 16.0112 16.5105 15.9661 16.5486 15.934L17.0134 15.5536L16.4134 15.9C16.3711 15.9242 16.3214 15.932 16.2737 15.9221C16.226 15.9122 16.1835 15.8852 16.1543 15.8462C16.1251 15.8072 16.1111 15.7589 16.115 15.7103C16.1189 15.6618 16.1403 15.6163 16.1754 15.5824L17.2442 14.5604L16.129 15.2044C16.0855 15.2288 16.0345 15.2361 15.9859 15.2249C15.9373 15.2136 15.8947 15.1846 15.8664 15.1435C15.8381 15.1024 15.8261 15.0523 15.8329 15.0029C15.8397 14.9535 15.8647 14.9084 15.903 14.8764L16.0986 14.7164C16.056 14.7294 16.0102 14.7278 15.9686 14.7118C15.927 14.6958 15.892 14.6664 15.869 14.6282C15.846 14.59 15.8365 14.5453 15.8418 14.501C15.8472 14.4568 15.8672 14.4156 15.8986 14.384L16.3098 13.9744C16.2664 13.9583 16.2302 13.9275 16.2074 13.8872C16.1808 13.8413 16.1736 13.7868 16.1872 13.7356C16.2009 13.6843 16.2343 13.6406 16.2802 13.614L17.231 13.0652C17.273 13.0419 17.322 13.0344 17.3691 13.0443C17.4161 13.0541 17.458 13.0806 17.4872 13.1188C17.5163 13.157 17.5307 13.2044 17.5278 13.2524C17.5248 13.3004 17.5046 13.3457 17.471 13.38L17.2614 13.5888L18.0454 13.1364C18.0889 13.1116 18.1401 13.104 18.189 13.1151C18.2378 13.1262 18.2807 13.1553 18.3092 13.1965C18.3376 13.2377 18.3496 13.2881 18.3427 13.3377C18.3357 13.3873 18.3104 13.4326 18.2718 13.4644L18.0986 13.6052L18.485 13.3824C18.5273 13.3565 18.5778 13.3473 18.6266 13.3565C18.6754 13.3658 18.719 13.3928 18.7489 13.4324C18.7789 13.4721 18.793 13.5214 18.7886 13.5709C18.7842 13.6203 18.7615 13.6664 18.725 13.7L17.6554 14.7228L18.9482 13.976C18.9917 13.9507 19.0432 13.9428 19.0923 13.9537C19.1414 13.9647 19.1846 13.9938 19.2132 14.0352C19.2419 14.0766 19.2538 14.1272 19.2467 14.1771C19.2396 14.2269 19.214 14.2722 19.175 14.304L18.7098 14.6848L19.079 14.4716C19.1223 14.4464 19.1736 14.4383 19.2225 14.449C19.2715 14.4598 19.3147 14.4885 19.3435 14.5296C19.3723 14.5707 19.3846 14.6211 19.378 14.6708C19.3714 14.7205 19.3463 14.7659 19.3078 14.798L19.0594 15.006C19.1059 14.9864 19.1582 14.9851 19.2056 15.0024C19.2531 15.0196 19.2923 15.0543 19.3152 15.0992C19.3382 15.1442 19.3434 15.1962 19.3296 15.2448C19.3158 15.2934 19.2842 15.335 19.241 15.3612L17.2694 16.4996C17.2384 16.5175 17.2032 16.5267 17.1674 16.526Z" fill="#C7AF3E"/>
<path d="M4.78738 7.37878C5.27078 7.37955 5.73528 7.19108 6.08148 6.8537C6.42768 6.51632 6.62807 6.05684 6.63978 5.57358C6.51618 3.27318 2.94258 3.31718 2.96298 5.62558C2.9776 6.09828 3.17673 6.54646 3.51772 6.87415C3.85872 7.20184 4.31447 7.38298 4.78738 7.37878ZM4.78738 4.18798C6.63538 4.20598 6.53458 7.17198 4.67018 7.01078C3.00258 6.80638 3.08218 4.22038 4.78738 4.18798Z" fill="#262626"/>
<path d="M9.20296 6.58457C10.123 6.58177 11.2478 6.78057 12.1474 6.54937C13.6398 6.15977 13.015 4.24417 11.6798 4.23977C11.5553 3.98287 11.3572 3.76876 11.1108 3.62466C10.8643 3.48055 10.5806 3.41295 10.2957 3.43044C10.0107 3.44793 9.73741 3.54972 9.51044 3.72289C9.28348 3.89605 9.1131 4.13277 9.02096 4.40297C8.78816 4.80897 8.24856 4.87857 8.18096 5.46257C8.17171 5.60396 8.19107 5.74575 8.23788 5.87948C8.28469 6.01321 8.35799 6.13612 8.4534 6.24087C8.54881 6.34562 8.66437 6.43004 8.79316 6.4891C8.92195 6.54815 9.06133 6.58063 9.20296 6.58457ZM9.26296 4.98657C9.30568 4.98639 9.34683 4.97038 9.37844 4.94165C9.41006 4.91291 9.42991 4.87348 9.43416 4.83097C9.52256 3.83737 10.8766 3.39737 11.3142 4.45337C11.3387 4.50811 11.3797 4.55383 11.4315 4.58416C11.4833 4.61448 11.5432 4.62791 11.603 4.62257C12.5291 4.85297 12.7872 5.27964 12.3774 5.90257C12.279 6.01649 12.1539 6.10433 12.0134 6.15828C11.8728 6.21222 11.7211 6.2306 11.5718 6.21177C10.7826 6.23577 9.98536 6.19817 9.19376 6.21177C8.42443 5.80137 8.44749 5.39297 9.26296 4.98657Z" fill="#262626"/>
<path d="M23.7772 16.7801C23.8928 15.9561 23.0476 14.8009 22.7344 14.1261C22.0333 12.6141 21.332 11.102 20.6304 9.58973C20.6508 8.18973 20.6304 6.78653 20.6376 5.38573C20.7476 3.18773 21.2376 1.35893 18.2196 1.81933H11.8232C11.8188 0.906532 12.0524 0.0733325 10.8028 0.200132C9.6828 0.0401325 9.7304 1.00773 9.7756 1.82093H3.0296C2.4512 1.82093 1.7096 1.69853 1.2672 2.15333C0.72 2.71373 0.9624 3.93213 0.9624 4.63493V14.1061C0.954384 14.1297 0.954384 14.1553 0.9624 14.1789V14.6105C0.770098 14.6505 0.593088 14.7442 0.451961 14.8808C0.310834 15.0174 0.211391 15.1912 0.1652 15.3821C-0.1912 17.3021 3.1436 16.5853 4.1624 16.5853H11.5112C11.4736 17.2801 11.92 17.6689 12.5136 18.3201C12.7992 18.6349 13.1704 19.2125 13.5624 19.5705C12.7 19.9257 12.8092 21.6305 13.7624 21.7409C13.3812 24.5517 15.7284 23.7529 17.5856 23.7837C19.4324 23.7781 21.8256 24.4909 21.436 21.7117C22.3528 21.3969 22.6212 19.9029 21.6056 19.4773C22.3768 18.7365 23.6428 17.7369 23.7772 16.7801ZM10.31 0.604932C11.6556 0.502532 11.3452 0.680933 11.3784 1.81933H10.2216C10.2764 1.45853 10.0996 0.891332 10.31 0.604932ZM1.4376 3.26333C1.5936 2.29493 1.9504 2.18093 2.854 2.18093H9.8512C9.90557 2.20303 9.96643 2.20303 10.0208 2.18093H11.4512C11.5056 2.20303 11.5664 2.20303 11.6208 2.18093C21.386 2.57093 20.1664 -0.179067 20.1624 8.58093C19.7244 7.69533 19.5088 6.42773 18.4396 6.16693C16.4876 5.69813 15.522 7.11053 14.8252 8.73373C13.5832 9.55173 12.578 10.7029 11.4144 11.6313C10.3032 10.5661 8.3672 8.03413 6.8616 8.91933C4.9204 10.2669 3.3016 12.1993 1.4376 13.6657C1.5336 10.2105 1.2724 6.70453 1.4376 3.26333ZM19.0168 14.8233C18.9212 16.5973 16.19 16.5301 16.1832 14.7757C16.1768 12.9893 18.9228 13.0829 19.0168 14.8233ZM12.194 14.6145H8.5644L11.5268 12.0217C11.5542 12.0159 11.5797 12.0031 11.6007 11.9845C11.6218 11.9659 11.6376 11.9422 11.6468 11.9157C12.7052 11.0561 13.5196 10.1689 14.6068 9.26053C13.944 11.2213 13.0604 12.7769 12.194 14.6145ZM1.4376 14.2473L6.494 9.82253C7.326 9.09453 7.6704 8.88573 8.5792 9.68053L11.1112 11.8961L8.0048 14.6161C5.716 14.7401 3.9596 14.3917 1.4376 14.5021V14.2473ZM5.762 16.2149C4.178 16.1689 2.522 16.2865 0.962 16.2149C0.5868 16.0429 0.3792 15.1537 1.0116 14.9317C1.06944 14.9676 1.13772 14.9829 1.20533 14.975C1.27294 14.9672 1.33591 14.9367 1.384 14.8885C5.008 15.0933 8.4284 14.9405 12.0324 14.9849C11.8498 15.383 11.6967 15.794 11.5744 16.2145L5.762 16.2149ZM20.1416 23.4149C19.4484 23.5937 18.4672 23.4149 17.7532 23.4149C16.3472 23.4273 13.9804 23.9717 14.2364 21.7993C16.4744 21.8881 18.7256 21.8133 20.9664 21.8117C20.9784 22.5553 21.0184 23.1897 20.1416 23.4157V23.4149ZM21.2316 21.3877H17.506C16.89 21.3877 12.4128 21.7477 13.676 20.1629C13.7885 20.0332 13.932 19.9339 14.0932 19.8745C16.4196 19.8589 18.7128 19.8057 21.038 19.8345C21.5432 20.0401 22.4468 21.0569 21.2316 21.3885V21.3877ZM21.1768 19.3657C18.8336 19.4141 16.4656 19.3045 14.1264 19.3773C13.5688 19.1957 12.0224 17.3741 11.9032 16.7037C11.8264 16.2069 12.0908 15.5785 12.4024 14.9837C12.6096 15.0109 12.6768 14.8593 12.5428 14.7225C13.5856 12.8061 14.374 10.9037 15.2872 8.94133C15.3228 8.91789 15.3503 8.88401 15.3659 8.84434C15.3815 8.80468 15.3845 8.76115 15.3744 8.71973C15.7464 7.69893 16.2276 6.56373 17.3612 6.57453V12.9921C15.2452 13.3121 15.3784 16.6057 17.5712 16.6353C17.8195 16.628 18.0638 16.5708 18.2896 16.4673C18.5154 16.3638 18.7181 16.216 18.8857 16.0327C19.0533 15.8494 19.1825 15.6343 19.2655 15.4002C19.3484 15.1661 19.3836 14.9177 19.3688 14.6697C19.3458 14.2563 19.1813 13.8634 18.903 13.5569C18.6246 13.2505 18.2493 13.0491 17.84 12.9865V6.58373C19.1852 6.73693 19.5924 8.50373 20.1636 9.58373C20.1564 9.61681 20.1604 9.65133 20.1749 9.68192C20.1893 9.71252 20.2135 9.73748 20.2436 9.75293C21.1028 11.9497 22.576 14.0469 23.2748 16.2877C23.5096 17.4001 21.93 18.5685 21.1768 19.3665V19.3657Z" fill="white"/>
</g>
<defs>
<clipPath id="clip0_98_408">
<rect width="24" height="24" fill="white"/>
</clipPath>
</defs>
</svg>
