<svg width="24" height="24" viewBox="0 0 24 24" fill="none" xmlns="http://www.w3.org/2000/svg">
<g clip-path="url(#clip0_179_35383)">
<path d="M12.5075 13.0853C12.467 13.0853 12.4275 13.073 12.3942 13.0501C12.3608 13.0271 12.3352 12.9946 12.3207 12.9568C12.3063 12.9191 12.3036 12.8778 12.3131 12.8384C12.3226 12.7991 12.3438 12.7635 12.3739 12.7365L13.6675 11.5729L11.8307 12.6329C11.7859 12.6585 11.733 12.6658 11.683 12.6533C11.633 12.6409 11.5898 12.6096 11.5623 12.566C11.5348 12.5224 11.5252 12.4699 11.5355 12.4194C11.5457 12.3689 11.5751 12.3243 11.6175 12.2949L11.6451 12.2757L11.5715 12.3185C11.5272 12.3438 11.475 12.3513 11.4254 12.3395C11.3759 12.3276 11.3327 12.2972 11.3048 12.2546C11.2768 12.2119 11.2662 12.1602 11.2751 12.11C11.2841 12.0598 11.3118 12.0149 11.3527 11.9845L12.8639 10.8693L11.2747 11.7869C11.23 11.8141 11.1765 11.8227 11.1256 11.8109C11.0747 11.7991 11.0304 11.7679 11.0023 11.7239C10.9741 11.6799 10.9643 11.6266 10.9749 11.5754C10.9855 11.5243 11.0157 11.4793 11.0591 11.4501L11.7719 10.9485L11.5107 11.0989C11.4661 11.1246 11.4134 11.1321 11.3635 11.12C11.3135 11.1078 11.2701 11.0769 11.2424 11.0336C11.2146 10.9903 11.2046 10.938 11.2145 10.8875C11.2243 10.837 11.2531 10.7923 11.2951 10.7625L12.4703 9.93171C12.4433 9.91515 12.4207 9.89244 12.4042 9.86543C12.3877 9.83842 12.3779 9.80789 12.3755 9.77634C12.3731 9.7448 12.3783 9.71314 12.3905 9.68396C12.4027 9.65478 12.4217 9.62893 12.4459 9.60851L13.7135 8.53491C13.6906 8.48913 13.6862 8.43633 13.701 8.38737C13.7159 8.33841 13.749 8.29702 13.7935 8.27171L14.5395 7.83971C14.5827 7.81508 14.6335 7.80744 14.6821 7.81829C14.7306 7.82913 14.7734 7.85768 14.802 7.89835C14.8307 7.93903 14.8431 7.98892 14.837 8.03828C14.8308 8.08764 14.8064 8.13293 14.7687 8.16531L14.4039 8.47451L15.1007 8.07211C15.1451 8.04735 15.1974 8.04047 15.2467 8.05286C15.2961 8.06526 15.3388 8.096 15.3663 8.13883C15.3938 8.18166 15.4039 8.23335 15.3946 8.28338C15.3853 8.33341 15.3573 8.37801 15.3163 8.40811L15.0739 8.57971L15.4143 8.38331C15.4589 8.35725 15.5119 8.34947 15.5621 8.36159C15.6123 8.37371 15.6559 8.40479 15.6837 8.44832C15.7115 8.49185 15.7214 8.54446 15.7113 8.59513C15.7012 8.64579 15.6719 8.69058 15.6295 8.72011L14.9199 9.22131L15.7531 8.74131C15.7973 8.71597 15.8496 8.70848 15.8991 8.72037C15.9487 8.73225 15.9919 8.76262 16.0198 8.80526C16.0477 8.8479 16.0583 8.8996 16.0494 8.94979C16.0405 8.99998 16.0128 9.04488 15.9719 9.07531L14.4599 10.1909L15.8599 9.38251C15.9047 9.35597 15.958 9.34794 16.0086 9.36012C16.0592 9.37229 16.1031 9.40372 16.1309 9.44772C16.1587 9.49173 16.1683 9.54484 16.1576 9.59577C16.1468 9.64671 16.1167 9.69146 16.0735 9.72051L15.2899 10.2589C15.327 10.2724 15.3593 10.2968 15.3823 10.3289C15.4114 10.3689 15.4246 10.4183 15.4195 10.4675C15.4143 10.5167 15.3911 10.5622 15.3543 10.5953L13.3439 12.4017C13.3703 12.4476 13.3775 12.502 13.3638 12.5532C13.3502 12.6043 13.3168 12.6479 13.2711 12.6745L12.6075 13.0577C12.5772 13.0755 12.5427 13.0851 12.5075 13.0853Z" fill="#D4E7E8"/>
<path d="M1.76452 23.7862C1.72337 23.7861 1.68323 23.7735 1.64956 23.7498C1.61589 23.7261 1.59033 23.6927 1.57638 23.654C1.56243 23.6153 1.56075 23.5732 1.57159 23.5335C1.58242 23.4938 1.60524 23.4584 1.63692 23.4322L1.70732 23.3738L1.35612 23.5762C1.31198 23.6016 1.25978 23.6093 1.21019 23.5976C1.16059 23.5859 1.11733 23.5557 1.08925 23.5131C1.06117 23.4706 1.05038 23.419 1.0591 23.3687C1.06781 23.3185 1.09536 23.2735 1.13612 23.243L2.47532 22.2398L0.911322 23.1422C0.866607 23.1661 0.814452 23.1722 0.765421 23.1592C0.71639 23.1461 0.674147 23.1149 0.647249 23.0719C0.62035 23.0289 0.610805 22.9773 0.620548 22.9275C0.630291 22.8777 0.658593 22.8335 0.699722 22.8038L1.78572 22.0702L0.590922 22.7598C0.546041 22.7849 0.49319 22.7918 0.443357 22.779C0.393523 22.7662 0.350541 22.7347 0.323345 22.691C0.29615 22.6473 0.286834 22.5948 0.297333 22.5445C0.307833 22.4941 0.337341 22.4497 0.379722 22.4206L2.85372 20.775L0.590522 22.0798C0.545431 22.1049 0.49234 22.1117 0.442367 22.0987C0.392395 22.0856 0.349416 22.0537 0.322432 22.0096C0.295447 21.9656 0.286549 21.9128 0.297601 21.8624C0.308653 21.8119 0.338797 21.7677 0.381722 21.739L3.05372 20.009L1.97732 20.6318C1.93241 20.6565 1.87968 20.6631 1.83005 20.6502C1.78041 20.6372 1.73767 20.6056 1.71065 20.562C1.68363 20.5184 1.6744 20.4661 1.68487 20.4158C1.69535 20.3656 1.72472 20.3213 1.76692 20.2922L6.37972 17.2274L4.01972 18.5902C3.97442 18.6178 3.92 18.6263 3.86843 18.6138C3.81686 18.6013 3.77236 18.5689 3.74472 18.5236C3.71709 18.4783 3.70858 18.4238 3.72107 18.3723C3.73356 18.3207 3.76602 18.2762 3.81132 18.2486L5.38532 17.2374L5.35532 17.2546C5.31058 17.2801 5.25769 17.2874 5.20768 17.275C5.15767 17.2625 5.11441 17.2312 5.08691 17.1876C5.05941 17.144 5.04981 17.0915 5.06009 17.041C5.07038 16.9905 5.09977 16.9459 5.14212 16.9166L7.70452 15.1598L7.10452 15.5074C7.06048 15.533 7.00831 15.5408 6.95868 15.5293C6.90904 15.5177 6.86568 15.4877 6.83745 15.4453C6.80922 15.4029 6.79825 15.3513 6.80677 15.301C6.8153 15.2508 6.84268 15.2057 6.88332 15.175L9.01052 13.5558C8.97448 13.5606 8.93778 13.5558 8.90423 13.5417C8.87068 13.5277 8.8415 13.5049 8.81972 13.4758C8.79052 13.4363 8.77686 13.3874 8.78136 13.3385C8.78586 13.2896 8.8082 13.244 8.84412 13.2106L10.5333 11.6398C10.5266 11.5996 10.5324 11.5584 10.5497 11.5216C10.5671 11.4848 10.5953 11.4541 10.6305 11.4338L10.9773 11.2338C11.0199 11.2086 11.0703 11.2002 11.1188 11.2101C11.1673 11.22 11.2103 11.2474 11.2397 11.2872C11.2691 11.327 11.2827 11.3763 11.2779 11.4255C11.2731 11.4747 11.2502 11.5204 11.2137 11.5538L10.4081 12.3034L11.4481 11.7034C11.4921 11.6785 11.5439 11.6712 11.593 11.6829C11.6422 11.6946 11.685 11.7245 11.7131 11.7665C11.7411 11.8086 11.7521 11.8597 11.744 11.9095C11.7359 11.9594 11.7092 12.0044 11.6693 12.0354L9.62532 13.5914L11.9813 12.2314C12.026 12.2065 12.0786 12.1997 12.1281 12.2124C12.1777 12.2251 12.2205 12.2563 12.2478 12.2996C12.275 12.3429 12.2847 12.395 12.2747 12.4452C12.2647 12.4953 12.2359 12.5398 12.1941 12.5694L9.63092 14.3266L12.4525 12.6978C12.4978 12.6712 12.5517 12.6635 12.6025 12.6764C12.6534 12.6892 12.6972 12.7215 12.7245 12.7663C12.7518 12.8111 12.7603 12.8648 12.7484 12.9159C12.7364 12.967 12.7049 13.0113 12.6605 13.0394L11.0833 14.053L11.6885 13.7038C11.7334 13.679 11.7862 13.6724 11.8358 13.6854C11.8854 13.6983 11.9282 13.7299 11.9552 13.7735C11.9822 13.8171 11.9914 13.8694 11.981 13.9197C11.9705 13.9699 11.9411 14.0142 11.8989 14.0434L7.28972 17.1034L9.64972 15.741C9.69477 15.7165 9.74749 15.7103 9.797 15.7236C9.84651 15.7369 9.88902 15.7687 9.91576 15.8124C9.9425 15.8561 9.95143 15.9084 9.9407 15.9586C9.92998 16.0087 9.90042 16.0528 9.85812 16.0818L7.19132 17.8082L8.11652 17.2746C8.16137 17.2501 8.21389 17.2437 8.2633 17.2567C8.31271 17.2697 8.35526 17.3011 8.38223 17.3445C8.4092 17.3879 8.41854 17.44 8.40833 17.4901C8.39812 17.5401 8.36913 17.5844 8.32732 17.6138L5.84932 19.2622L6.51212 18.8798C6.55697 18.8542 6.60996 18.847 6.66002 18.8596C6.71007 18.8722 6.75331 18.9037 6.78069 18.9474C6.80808 18.9912 6.81748 19.0438 6.80693 19.0944C6.79639 19.1449 6.76672 19.1894 6.72412 19.2186L5.27972 20.1946C5.32106 20.1961 5.3609 20.2104 5.39376 20.2355C5.42662 20.2606 5.45089 20.2953 5.46322 20.3348C5.47554 20.3743 5.47533 20.4166 5.46259 20.456C5.44986 20.4953 5.42524 20.5298 5.39212 20.5546L3.68652 21.8346C3.72255 21.8434 3.75542 21.862 3.78146 21.8884C3.8075 21.9148 3.82568 21.9479 3.83398 21.9841C3.84228 22.0202 3.84037 22.058 3.82845 22.0931C3.81654 22.1282 3.7951 22.1593 3.76652 22.183L2.69372 23.075C2.71381 23.12 2.7165 23.171 2.70129 23.2179C2.68608 23.2649 2.65403 23.3046 2.61132 23.3294L1.86452 23.7598C1.83413 23.7773 1.79961 23.7864 1.76452 23.7862Z" fill="#35718A"/>
<path d="M22.7275 5.48682C22.6921 5.48676 22.6574 5.47733 22.6269 5.45949C22.5964 5.44164 22.5711 5.41603 22.5537 5.38526C22.5363 5.35448 22.5274 5.31965 22.5278 5.2843C22.5283 5.24895 22.5381 5.21435 22.5563 5.18402L22.7543 4.85402L21.7403 5.44002C21.6943 5.46613 21.64 5.47301 21.589 5.45917C21.538 5.44534 21.4946 5.4119 21.4682 5.36616C21.4418 5.32042 21.4346 5.2661 21.4481 5.21504C21.4615 5.16398 21.4947 5.12033 21.5403 5.09362L23.2231 4.12002C23.2614 4.09816 23.3059 4.08959 23.3496 4.09564C23.3933 4.10169 23.4338 4.12202 23.4647 4.15347C23.4956 4.18492 23.5153 4.22572 23.5207 4.26952C23.526 4.31332 23.5167 4.35765 23.4943 4.39562L23.2963 4.72602L23.4855 4.61722C23.5312 4.59331 23.5843 4.58799 23.6339 4.60236C23.6834 4.61673 23.7255 4.64969 23.7513 4.69435C23.7771 4.73901 23.7847 4.79192 23.7724 4.84202C23.7601 4.89213 23.729 4.93555 23.6855 4.96322L22.8275 5.45802C22.7973 5.47646 22.7628 5.48641 22.7275 5.48682Z" fill="#E3C84C"/>
<path d="M19.8972 6.93263C19.8569 6.9326 19.8176 6.92039 19.7843 6.8976C19.7511 6.87482 19.7255 6.84252 19.7109 6.80494C19.6964 6.76736 19.6935 6.72626 19.7027 6.68702C19.7119 6.64778 19.7327 6.61223 19.7624 6.58503L19.8488 6.50503L19.7288 6.57383C19.6845 6.59869 19.6323 6.60573 19.5829 6.59349C19.5336 6.58126 19.4907 6.55068 19.4631 6.50798C19.4355 6.46528 19.4252 6.41366 19.4343 6.36362C19.4434 6.31359 19.4712 6.26889 19.512 6.23863L19.7184 6.08983L19.5948 6.16063C19.5515 6.18505 19.5007 6.19246 19.4522 6.18143C19.4037 6.17039 19.3611 6.1417 19.3326 6.10095C19.3042 6.06019 19.2919 6.01029 19.2982 5.96098C19.3046 5.91167 19.329 5.86648 19.3668 5.83423L20.7268 4.69903L19.374 5.48023C19.3297 5.50509 19.2775 5.51213 19.2281 5.49989C19.1788 5.48766 19.1359 5.45708 19.1083 5.41438C19.0807 5.37168 19.0704 5.32006 19.0795 5.27002C19.0886 5.21999 19.1164 5.17529 19.1572 5.14503L19.2624 5.06903L19.244 5.07943C19.1996 5.1052 19.1469 5.11287 19.097 5.10087C19.047 5.08886 19.0036 5.05809 18.9757 5.01493C18.9479 4.97178 18.9376 4.91955 18.9472 4.86907C18.9568 4.8186 18.9855 4.77375 19.0272 4.74383L19.4408 4.44663L18.71 4.86823C18.6657 4.89309 18.6135 4.90013 18.5641 4.88789C18.5148 4.87566 18.4719 4.84508 18.4443 4.80238C18.4167 4.75968 18.4064 4.70806 18.4155 4.65802C18.4246 4.60799 18.4524 4.56329 18.4932 4.53303L19.6932 3.66703L18.0056 4.64023C17.9617 4.66545 17.9098 4.67305 17.8605 4.66151C17.8112 4.64997 17.7681 4.62013 17.7399 4.57804C17.7117 4.53594 17.7005 4.48471 17.7087 4.43471C17.7168 4.3847 17.7436 4.33964 17.7836 4.30863L19.9236 2.66023L17.3264 4.16023C17.282 4.1856 17.2294 4.19295 17.1797 4.18075C17.13 4.16855 17.0868 4.13773 17.0591 4.09466C17.0314 4.05158 17.0213 3.99952 17.0309 3.94921C17.0404 3.89889 17.0689 3.85416 17.1104 3.82423L17.974 3.20783C17.9405 3.19323 17.9117 3.16954 17.8908 3.13943C17.8623 3.09809 17.8504 3.04753 17.8574 2.99781C17.8645 2.94808 17.89 2.90282 17.9288 2.87103L18.6616 2.27103C18.6321 2.25962 18.6055 2.24155 18.584 2.21823C18.5533 2.18436 18.5352 2.141 18.5326 2.09537C18.5299 2.04974 18.543 2.00458 18.5696 1.96743L19.028 1.32743L18.8136 1.45103C18.7749 1.47362 18.7297 1.48255 18.6853 1.47638C18.6409 1.47021 18.5999 1.4493 18.5688 1.417C18.5377 1.38471 18.5183 1.3429 18.5139 1.29829C18.5094 1.25369 18.52 1.20887 18.544 1.17103L18.7084 0.907028C18.6679 0.900064 18.6305 0.88077 18.6013 0.851775C18.5721 0.82278 18.5526 0.785494 18.5454 0.744999C18.5382 0.704503 18.5436 0.662768 18.561 0.62548C18.5784 0.588192 18.6068 0.557165 18.6424 0.536628L19.15 0.245028C19.1888 0.222434 19.234 0.213507 19.2784 0.219677C19.3228 0.225848 19.3638 0.246759 19.3949 0.279053C19.426 0.311348 19.4453 0.353154 19.4498 0.397761C19.4543 0.442367 19.4437 0.487188 19.4196 0.525028L19.3068 0.705828L19.6268 0.520628C19.6664 0.497865 19.7125 0.489305 19.7576 0.496367C19.8027 0.503429 19.844 0.525689 19.8746 0.559453C19.9053 0.593217 19.9235 0.636456 19.9263 0.681997C19.929 0.727537 19.9161 0.772642 19.8896 0.809828L19.4312 1.44983L20.246 0.980228C20.2896 0.954923 20.341 0.946958 20.3901 0.95792C20.4393 0.968883 20.4825 0.997969 20.5111 1.03937C20.5397 1.08077 20.5517 1.13145 20.5446 1.18129C20.5375 1.23112 20.5119 1.27645 20.4728 1.30823L20.0892 1.62223L20.6628 1.29103C20.7072 1.26649 20.7593 1.25974 20.8085 1.27214C20.8577 1.28454 20.9003 1.31517 20.9278 1.35783C20.9552 1.40048 20.9654 1.45198 20.9564 1.50188C20.9473 1.55179 20.9196 1.59638 20.8788 1.62663L20.7188 1.74103L22.3304 0.810228C22.3744 0.785007 22.4263 0.7774 22.4756 0.788944C22.5249 0.800488 22.568 0.830321 22.5962 0.872419C22.6244 0.914517 22.6355 0.965742 22.6274 1.01575C22.6193 1.06575 22.5925 1.11081 22.5524 1.14183L20.4116 2.79143L22.924 1.34103C22.9683 1.31688 23.0201 1.31035 23.069 1.32275C23.1179 1.33515 23.1603 1.36557 23.1877 1.4079C23.2151 1.45024 23.2255 1.50137 23.2168 1.55105C23.2081 1.60074 23.181 1.6453 23.1408 1.67583L21.9408 2.54103L22.6884 2.10943C22.7329 2.08366 22.7855 2.07598 22.8355 2.08799C22.8855 2.1 22.9289 2.13077 22.9568 2.17392C22.9846 2.21708 22.9948 2.26931 22.9852 2.31978C22.9757 2.37026 22.947 2.4151 22.9052 2.44503L22.4892 2.74463C22.5342 2.72245 22.5858 2.71795 22.6339 2.73202C22.682 2.74609 22.7231 2.77771 22.749 2.82061C22.7749 2.86351 22.7837 2.91457 22.7738 2.96368C22.7638 3.0128 22.7358 3.05639 22.6952 3.08583L22.562 3.18183C22.6063 3.16588 22.6548 3.16604 22.6989 3.1823C22.7431 3.19855 22.7801 3.22985 22.8035 3.27069C22.8268 3.31153 22.835 3.3593 22.8266 3.4056C22.8183 3.4519 22.7938 3.49376 22.7576 3.52383L21.3976 4.65863L22.9532 3.76023C22.9976 3.73536 23.0498 3.72833 23.0991 3.74056C23.1485 3.75279 23.1913 3.78337 23.219 3.82607C23.2466 3.86878 23.2569 3.9204 23.2478 3.97043C23.2387 4.02047 23.2109 4.06517 23.17 4.09543L21.5036 5.29543C21.5319 5.33526 21.5446 5.38405 21.5394 5.43261C21.5342 5.48117 21.5113 5.52614 21.4752 5.55903L20.9056 6.07903C20.9204 6.09254 20.9328 6.10835 20.9424 6.12583C20.969 6.17172 20.9762 6.22627 20.9626 6.2775C20.9489 6.32873 20.9155 6.37244 20.8696 6.39903L19.9992 6.90583C19.9683 6.92393 19.9331 6.9332 19.8972 6.93263Z" fill="#E3C84C"/>
<path d="M14.602 4.26324C14.5672 4.26327 14.533 4.25422 14.5027 4.23697C14.4725 4.21972 14.4473 4.19488 14.4296 4.16491C14.4119 4.13493 14.4023 4.10085 14.4018 4.06604C14.4013 4.03123 14.41 3.9969 14.4268 3.96644L14.478 3.87444L13.876 4.22164C13.8301 4.24774 13.7757 4.25462 13.7247 4.24079C13.6738 4.22695 13.6304 4.19351 13.6039 4.14778C13.5775 4.10204 13.5703 4.04771 13.5838 3.99665C13.5973 3.94559 13.6304 3.90195 13.676 3.87524L14.9028 3.16724C14.9407 3.14548 14.9846 3.1367 15.0279 3.14225C15.0712 3.14779 15.1115 3.16736 15.1427 3.19796C15.1738 3.22856 15.1941 3.26852 15.2004 3.31172C15.2067 3.35492 15.1987 3.39901 15.1776 3.43724L15.1228 3.53644C15.1697 3.52097 15.2208 3.52344 15.266 3.54337C15.3112 3.5633 15.3475 3.59927 15.3678 3.64435C15.388 3.68943 15.3909 3.74042 15.3758 3.78749C15.3607 3.83456 15.3287 3.87437 15.286 3.89924L14.702 4.23644C14.6717 4.25419 14.6371 4.26345 14.602 4.26324Z" fill="#E3C84C"/>
<path d="M12.2475 5.15716C12.206 5.15705 12.1656 5.14404 12.1318 5.11993C12.098 5.09583 12.0726 5.06182 12.059 5.02263C12.0455 4.98343 12.0444 4.94098 12.056 4.90116C12.0676 4.86134 12.0913 4.82611 12.1239 4.80036L12.4499 4.54276L12.1991 4.68756C12.1555 4.71253 12.1042 4.72021 12.0552 4.70907C12.0063 4.69793 11.9633 4.66879 11.9348 4.62744C11.9064 4.58608 11.8945 4.53554 11.9016 4.48584C11.9087 4.43614 11.9342 4.39092 11.9731 4.35916L12.3683 4.03916L12.0483 4.22396C12.0049 4.24879 11.9539 4.25651 11.9052 4.24562C11.8565 4.23473 11.8136 4.20601 11.7849 4.1651C11.7563 4.1242 11.744 4.07406 11.7505 4.02456C11.757 3.97505 11.7817 3.92975 11.8199 3.89756L12.6895 3.16916L11.5907 3.80036C11.5462 3.82613 11.4936 3.83381 11.4436 3.8218C11.3936 3.80979 11.3502 3.77902 11.3224 3.73586C11.2945 3.69271 11.2843 3.64048 11.2939 3.59C11.3035 3.53953 11.3321 3.49468 11.3739 3.46476L11.4027 3.44396L11.0731 3.63436C11.03 3.65943 10.9792 3.66754 10.9304 3.65708C10.8817 3.64663 10.8387 3.61837 10.8097 3.57784C10.7807 3.53731 10.7679 3.48742 10.7738 3.43795C10.7797 3.38848 10.8038 3.34298 10.8415 3.31036L12.0939 2.22156L10.5163 3.13396C10.4737 3.1587 10.4234 3.16685 10.3752 3.15684C10.3269 3.14683 10.2841 3.11937 10.2549 3.07972C10.2256 3.04007 10.212 2.99102 10.2167 2.94198C10.2214 2.89294 10.244 2.84735 10.2803 2.81396L11.4715 1.71036C11.4522 1.70259 11.4343 1.69163 11.4187 1.67796C11.3872 1.65109 11.3648 1.61511 11.3546 1.57499C11.3445 1.53487 11.347 1.49258 11.3619 1.45396L11.5891 0.867559C11.5478 0.875913 11.5049 0.871195 11.4664 0.854063C11.4279 0.836931 11.3957 0.808233 11.3743 0.771959C11.3477 0.726072 11.3405 0.671519 11.3541 0.62029C11.3678 0.569061 11.4012 0.525348 11.4471 0.498759L11.8747 0.251559C11.9105 0.230798 11.9519 0.221671 11.9931 0.225439C12.0344 0.229207 12.0734 0.245683 12.1049 0.272594C12.1364 0.299504 12.1587 0.335522 12.1689 0.375675C12.179 0.415828 12.1764 0.458136 12.1615 0.496759L11.9399 1.06956L12.5531 0.715559C12.5957 0.690818 12.6459 0.682671 12.6941 0.69268C12.7424 0.70269 12.7852 0.730151 12.8145 0.7698C12.8437 0.809449 12.8573 0.858496 12.8526 0.907538C12.8479 0.956581 12.8253 1.00217 12.7891 1.03556L11.8587 1.89716L13.6923 0.840359C13.7353 0.815763 13.7858 0.807997 13.8342 0.818564C13.8826 0.829131 13.9254 0.85728 13.9542 0.89756C13.983 0.93784 13.9959 0.987384 13.9903 1.0366C13.9847 1.08581 13.961 1.1312 13.9239 1.16396L12.6715 2.25116L14.6579 1.10476C14.7022 1.0792 14.7547 1.07162 14.8045 1.08361C14.8543 1.09559 14.8976 1.12621 14.9255 1.16916C14.9534 1.21229 14.9637 1.26451 14.9541 1.31501C14.9446 1.3655 14.916 1.41039 14.8743 1.44036L14.5875 1.64676C14.6277 1.64853 14.6664 1.66241 14.6987 1.68657C14.7309 1.71072 14.755 1.74404 14.768 1.78216C14.781 1.82028 14.7821 1.86143 14.7713 1.90021C14.7605 1.939 14.7383 1.97363 14.7075 1.99956L13.8359 2.72876L14.3511 2.43156C14.3945 2.40714 14.4456 2.39985 14.4942 2.41112C14.5428 2.42238 14.5854 2.4514 14.6137 2.49247C14.642 2.53354 14.6539 2.5837 14.6471 2.63311C14.6404 2.68252 14.6154 2.72762 14.5771 2.75956L14.1827 3.07956L14.6395 2.81636C14.6832 2.79176 14.7346 2.7845 14.7834 2.79601C14.8322 2.80751 14.8749 2.83695 14.9031 2.87849C14.9312 2.92002 14.9427 2.97061 14.9353 3.02023C14.9279 3.06985 14.9021 3.11487 14.8631 3.14636L13.5771 4.16036C13.5818 4.16678 13.5862 4.17345 13.5903 4.18036C13.6168 4.22629 13.624 4.28088 13.6102 4.33212C13.5965 4.38335 13.563 4.42704 13.5171 4.45356L12.3475 5.12996C12.3172 5.14778 12.2826 5.15717 12.2475 5.15716Z" fill="#E3C84C"/>
<path d="M9.91317 8.63144C9.86927 8.63129 9.82664 8.6167 9.79186 8.58992C9.75708 8.56314 9.73207 8.52566 9.7207 8.48326C9.70932 8.44086 9.71222 8.3959 9.72893 8.35531C9.74564 8.31471 9.77524 8.28075 9.81317 8.25864L10.5836 7.81344C10.6063 7.79897 10.6318 7.78926 10.6584 7.78488C10.685 7.7805 10.7122 7.78155 10.7384 7.78797C10.7646 7.79439 10.7893 7.80604 10.8109 7.82222C10.8324 7.8384 10.8505 7.85878 10.864 7.88214C10.8775 7.90549 10.8862 7.93133 10.8894 7.95811C10.8927 7.98489 10.8905 8.01205 10.8829 8.03795C10.8754 8.06386 10.8628 8.08797 10.8457 8.10885C10.8286 8.12973 10.8075 8.14694 10.7836 8.15944L10.0132 8.60464C9.98281 8.62231 9.94829 8.63156 9.91317 8.63144Z" fill="#E3C84C"/>
<path d="M8.79112 9.11103C8.7528 9.11092 8.71532 9.09981 8.68313 9.07902C8.65095 9.05822 8.62541 9.02862 8.60957 8.99372C8.59372 8.95883 8.58824 8.92013 8.59376 8.88221C8.59928 8.84429 8.61558 8.80875 8.64072 8.77983L9.38272 7.92703L8.60152 8.37783C8.55895 8.40156 8.50917 8.40892 8.46155 8.39854C8.41393 8.38816 8.37174 8.36075 8.3429 8.32145C8.31407 8.28215 8.30058 8.23368 8.30496 8.18513C8.30935 8.13659 8.33131 8.09132 8.36672 8.05783L8.96672 7.50983L7.87152 8.14223C7.83005 8.16656 7.78121 8.17514 7.73394 8.16639C7.68666 8.15765 7.64412 8.13217 7.6141 8.09462C7.58408 8.05707 7.56859 8.00996 7.57047 7.96192C7.57234 7.91388 7.59146 7.86812 7.62432 7.83303L8.31352 7.08903C8.28761 7.08054 8.26367 7.06694 8.24312 7.04903C8.21169 7.02247 8.18922 6.98686 8.17876 6.94706C8.16831 6.90726 8.17039 6.8652 8.18472 6.82663L8.33392 6.42383C8.29266 6.41812 8.25421 6.39967 8.22393 6.37105C8.19366 6.34244 8.17308 6.30508 8.16507 6.26421C8.15705 6.22333 8.16199 6.18097 8.17922 6.14304C8.19644 6.10511 8.22507 6.0735 8.26112 6.05263L8.59112 5.86183C8.62676 5.84122 8.66789 5.83211 8.70891 5.83574C8.74992 5.83938 8.7888 5.85558 8.82026 5.88214C8.85172 5.9087 8.87422 5.94432 8.88468 5.98414C8.89514 6.02396 8.89306 6.06604 8.87872 6.10463L8.75232 6.44543L9.11232 6.23823C9.15374 6.21446 9.20229 6.2063 9.2492 6.21522C9.29611 6.22413 9.33828 6.24953 9.36809 6.28684C9.3979 6.32414 9.41339 6.37087 9.41174 6.41859C9.41009 6.46631 9.39143 6.51187 9.35912 6.54703L8.81592 7.13423L10.3679 6.24063C10.4105 6.2169 10.4603 6.20953 10.5079 6.21992C10.5555 6.2303 10.5977 6.25771 10.6265 6.29701C10.6554 6.33631 10.6689 6.38478 10.6645 6.43332C10.6601 6.48187 10.6381 6.52714 10.6027 6.56063L10.0027 7.10823L10.2199 6.98263C10.2609 6.95907 10.3089 6.95078 10.3554 6.95924C10.4019 6.9677 10.4439 6.99236 10.474 7.02884C10.504 7.06532 10.5202 7.11126 10.5196 7.15853C10.519 7.20579 10.5017 7.25132 10.4707 7.28703L9.72792 8.14023L10.4951 7.69743C10.5179 7.68296 10.5433 7.67324 10.57 7.66886C10.5966 7.66449 10.6238 7.66554 10.65 7.67195C10.6762 7.67837 10.7008 7.69002 10.7224 7.70621C10.744 7.72239 10.7621 7.74277 10.7756 7.76612C10.7891 7.78948 10.7977 7.81532 10.801 7.8421C10.8042 7.86887 10.802 7.89603 10.7945 7.92194C10.787 7.94784 10.7743 7.97196 10.7572 7.99284C10.7401 8.01372 10.719 8.03093 10.6951 8.04343L8.89112 9.08343C8.86088 9.10146 8.82633 9.111 8.79112 9.11103Z" fill="#E3C84C"/>
<path d="M23.128 12.6655C23.0956 12.6655 23.0638 12.6576 23.0352 12.6425C23.0065 12.6275 22.982 12.6057 22.9636 12.5791C22.9452 12.5525 22.9336 12.5218 22.9297 12.4897C22.9258 12.4576 22.9297 12.425 22.9412 12.3947L23.0172 12.1947L22.2764 12.6223C22.2305 12.6484 22.1761 12.6553 22.1251 12.6415C22.0742 12.6276 22.0307 12.5942 22.0043 12.5485C21.9779 12.5027 21.9707 12.4484 21.9842 12.3973C21.9977 12.3463 22.0308 12.3026 22.0764 12.2759L23.3032 11.5679C23.3389 11.5472 23.3802 11.5381 23.4213 11.5418C23.4624 11.5455 23.5014 11.5619 23.5329 11.5886C23.5643 11.6153 23.5868 11.6511 23.5971 11.6911C23.6074 11.7311 23.605 11.7733 23.5904 11.8119L23.5104 12.0199C23.5572 12.0056 23.6077 12.0089 23.6522 12.0293C23.6968 12.0497 23.7323 12.0858 23.752 12.1306C23.7717 12.1754 23.7743 12.226 23.7593 12.2726C23.7442 12.3192 23.7126 12.3587 23.6704 12.3835L23.2268 12.6395C23.1967 12.6566 23.1626 12.6656 23.128 12.6655Z" fill="#E3C84C"/>
<path d="M20.9107 13.7775C20.8698 13.7774 20.83 13.7647 20.7965 13.7412C20.7631 13.7177 20.7376 13.6846 20.7236 13.6462C20.7095 13.6078 20.7076 13.566 20.718 13.5265C20.7285 13.487 20.7508 13.4516 20.7819 13.4251L21.4395 12.8711L20.6747 13.3111C20.6309 13.336 20.5793 13.3434 20.5302 13.3319C20.4811 13.3203 20.4382 13.2907 20.4101 13.2489C20.3819 13.2071 20.3706 13.1562 20.3784 13.1064C20.3861 13.0566 20.4124 13.0116 20.4519 12.9803L20.5971 12.8675L20.5407 12.8999C20.4969 12.9251 20.4452 12.9328 20.396 12.9215C20.3467 12.9101 20.3036 12.8805 20.2753 12.8387C20.2469 12.7968 20.2355 12.7458 20.2433 12.6959C20.251 12.6459 20.2774 12.6008 20.3171 12.5695L20.4179 12.4895L20.4091 12.4943C20.366 12.5191 20.3153 12.5269 20.2667 12.5163C20.2182 12.5056 20.1753 12.4773 20.1465 12.4368C20.1177 12.3963 20.105 12.3466 20.1109 12.2972C20.1168 12.2479 20.1408 12.2025 20.1783 12.1699L21.3467 11.1619L19.7067 12.1083C19.6634 12.1331 19.6124 12.1409 19.5636 12.13C19.5149 12.1191 19.472 12.0904 19.4434 12.0494C19.4148 12.0085 19.4025 11.9584 19.4089 11.9089C19.4154 11.8594 19.4402 11.8141 19.4783 11.7819L20.9343 10.5651L18.9387 11.7207C18.8948 11.7454 18.8432 11.7526 18.7941 11.7409C18.7451 11.7292 18.7023 11.6994 18.6743 11.6575C18.6463 11.6156 18.6352 11.5647 18.6431 11.5149C18.651 11.4652 18.6775 11.4202 18.7171 11.3891L19.7891 10.5675L19.7815 10.5595C19.7511 10.5246 19.7337 10.4801 19.7324 10.4338C19.7311 10.3875 19.7459 10.3421 19.7743 10.3055L20.1175 9.86551L20.0443 9.90791C20.0074 9.92902 19.9646 9.93779 19.9224 9.93296C19.8801 9.92812 19.8405 9.90993 19.8092 9.88102C19.778 9.85211 19.7568 9.814 19.7487 9.77222C19.7407 9.73044 19.7461 9.68717 19.7643 9.64871L19.9419 9.27551C19.8984 9.27423 19.8565 9.25879 19.8225 9.23152C19.7886 9.20426 19.7645 9.16666 19.7538 9.12444C19.7432 9.08222 19.7466 9.03768 19.7636 8.99759C19.7806 8.9575 19.8102 8.92404 19.8479 8.90231L20.2755 8.65511C20.3124 8.63409 20.3551 8.62537 20.3973 8.63021C20.4395 8.63505 20.479 8.6532 20.5102 8.68203C20.5414 8.71087 20.5626 8.74888 20.5708 8.79057C20.5789 8.83226 20.5736 8.87546 20.5555 8.91391L20.3995 9.23711L20.8023 9.00471C20.8424 8.98186 20.8892 8.97359 20.9348 8.98132C20.9803 8.98905 21.0217 9.01229 21.0521 9.0471C21.0824 9.08192 21.0998 9.12615 21.1012 9.1723C21.1026 9.21846 21.088 9.26368 21.0599 9.30031L20.7195 9.74231L21.3259 9.39231C21.3698 9.36759 21.4215 9.36036 21.4705 9.37208C21.5195 9.38379 21.5623 9.41357 21.5903 9.45547C21.6183 9.49738 21.6294 9.5483 21.6215 9.59807C21.6136 9.64784 21.5872 9.69278 21.5475 9.72391L21.3995 9.83751L22.7383 9.06471C22.7817 9.03977 22.8328 9.03199 22.8816 9.04291C22.9305 9.05382 22.9734 9.08263 23.002 9.12365C23.0307 9.16468 23.0429 9.21494 23.0362 9.26452C23.0296 9.31411 23.0047 9.35941 22.9663 9.39151L21.5115 10.6071L22.9823 9.75791C23.0254 9.73353 23.076 9.726 23.1243 9.73676C23.1726 9.74752 23.2152 9.77581 23.2439 9.81616C23.2725 9.85652 23.2852 9.90606 23.2794 9.95522C23.2737 10.0044 23.2499 10.0497 23.2127 10.0823L22.0443 11.0907L22.6743 10.7267C22.7182 10.7013 22.77 10.6935 22.8194 10.7049C22.8688 10.7162 22.912 10.7459 22.9403 10.7879C22.9687 10.8299 22.98 10.8811 22.9721 10.9312C22.9641 10.9812 22.9375 11.0264 22.8975 11.0575L22.7943 11.1375L22.9259 11.0619C22.9697 11.0375 23.0211 11.0304 23.0699 11.0421C23.1187 11.0538 23.1613 11.0834 23.1893 11.125C23.2173 11.1666 23.2286 11.2173 23.221 11.2668C23.2134 11.3164 23.1875 11.3613 23.1483 11.3927L23.0039 11.5055L23.1811 11.4031C23.2243 11.3789 23.275 11.3715 23.3233 11.3825C23.3716 11.3935 23.4141 11.422 23.4426 11.4625C23.4711 11.5031 23.4835 11.5527 23.4775 11.6019C23.4714 11.6511 23.4474 11.6963 23.4099 11.7287L21.5779 13.2767C21.5841 13.3166 21.5781 13.3574 21.5607 13.3938C21.5433 13.4302 21.5153 13.4605 21.4803 13.4807L21.0123 13.7507C20.9814 13.7685 20.9464 13.7778 20.9107 13.7775Z" fill="#E3C84C"/>
<path d="M17.5128 15.4312C17.4689 15.4311 17.4263 15.4165 17.3915 15.3897C17.3567 15.3629 17.3317 15.3255 17.3203 15.2831C17.3089 15.2407 17.3118 15.1957 17.3285 15.1551C17.3452 15.1145 17.3749 15.0806 17.4128 15.0584L18.1832 14.6132C18.2059 14.5988 18.2314 14.5891 18.258 14.5847C18.2846 14.5803 18.3119 14.5814 18.3381 14.5878C18.3643 14.5942 18.3889 14.6058 18.4105 14.622C18.432 14.6382 18.4501 14.6586 18.4636 14.6819C18.4771 14.7053 18.4858 14.7311 18.489 14.7579C18.4923 14.7847 18.4901 14.8119 18.4826 14.8378C18.475 14.8637 18.4624 14.8878 18.4453 14.9087C18.4282 14.9295 18.4071 14.9467 18.3832 14.9592L17.6128 15.4044C17.5824 15.4221 17.5479 15.4314 17.5128 15.4312Z" fill="#E3C84C"/>
<path d="M16.4245 16.0118C16.3857 16.0119 16.3477 16.0006 16.3151 15.9794C16.2826 15.9582 16.2569 15.928 16.2413 15.8924C16.2256 15.8569 16.2206 15.8175 16.227 15.7792C16.2333 15.7409 16.2507 15.7052 16.2769 15.6766L16.8409 15.063L16.3209 15.363C16.278 15.3872 16.2276 15.3946 16.1795 15.384C16.1314 15.3733 16.089 15.3453 16.0603 15.3052C16.0316 15.2652 16.0187 15.2159 16.024 15.167C16.0294 15.118 16.0526 15.0727 16.0893 15.0398L16.3613 14.7998L15.8849 15.0746C15.8416 15.0993 15.7907 15.107 15.7421 15.0962C15.6934 15.0853 15.6506 15.0567 15.622 15.0159C15.5934 14.9751 15.581 14.9251 15.5873 14.8756C15.5936 14.8262 15.6182 14.7809 15.6561 14.7486L16.0589 14.4094L15.3413 14.8242C15.2987 14.8479 15.249 14.8553 15.2013 14.8449C15.1537 14.8346 15.1115 14.8071 15.0827 14.7678C15.0539 14.7285 15.0404 14.6801 15.0448 14.6315C15.0491 14.583 15.0711 14.5377 15.1065 14.5042L15.8317 13.8426C15.8049 13.8156 15.7862 13.7815 15.7781 13.7443C15.77 13.7071 15.7726 13.6684 15.7857 13.6326L15.9361 13.2242C15.8946 13.2188 15.8559 13.2005 15.8254 13.172C15.7948 13.1434 15.774 13.106 15.7658 13.065C15.7577 13.0239 15.7626 12.9814 15.7798 12.9433C15.7971 12.9052 15.8259 12.8735 15.8621 12.8526L16.1921 12.6618C16.2277 12.6411 16.2689 12.632 16.3099 12.6355C16.3509 12.6391 16.3898 12.6552 16.4214 12.6818C16.4529 12.7083 16.4754 12.7439 16.4859 12.7837C16.4964 12.8235 16.4944 12.8656 16.4801 12.9042L16.3521 13.2526L16.7173 13.0414C16.7599 13.0177 16.8097 13.0103 16.8573 13.0207C16.9049 13.0311 16.9471 13.0585 16.9759 13.0978C17.0048 13.1371 17.0183 13.1856 17.0139 13.2341C17.0095 13.2827 16.9875 13.3279 16.9521 13.3614L16.7413 13.5542L17.8245 12.9286C17.8678 12.9034 17.9191 12.8953 17.9681 12.906C18.0171 12.9168 18.0602 12.9455 18.089 12.9866C18.1178 13.0277 18.1301 13.0781 18.1235 13.1278C18.1169 13.1775 18.0918 13.2229 18.0533 13.255L17.6501 13.5938L17.9337 13.4302C17.9767 13.4056 18.0273 13.3979 18.0757 13.4084C18.1241 13.419 18.1668 13.4471 18.1957 13.4874C18.2245 13.5277 18.2373 13.5772 18.2317 13.6265C18.2261 13.6757 18.2025 13.7211 18.1653 13.7538L17.8397 14.0406C17.8745 14.0354 17.91 14.0393 17.9427 14.052C17.9755 14.0647 18.0044 14.0857 18.0265 14.113C18.0564 14.1503 18.0719 14.1971 18.0703 14.2448C18.0687 14.2926 18.0501 14.3382 18.0177 14.3734L17.3021 15.1522C17.3486 15.1675 17.3877 15.1996 17.4117 15.2422C17.4381 15.2881 17.4453 15.3425 17.4317 15.3937C17.418 15.4448 17.3847 15.4884 17.3389 15.515L16.5237 15.9858C16.4935 16.0031 16.4593 16.012 16.4245 16.0118Z" fill="#E3C84C"/>
<path d="M0.916475 21.0887C-0.635125 22.2251 1.01528 24.5431 2.53568 23.4623C7.03088 19.0767 11.4085 14.5139 15.8937 10.1023C16.6505 9.28473 15.7517 8.31553 15.0385 7.85673C14.8616 7.77445 14.6637 7.74828 14.4715 7.78174C14.2793 7.81521 14.102 7.9067 13.9633 8.04393C9.62368 12.3823 5.08728 16.5883 0.916475 21.0887ZM15.3441 8.65353C15.6509 8.95793 16.0305 9.28913 15.6437 9.72353L12.6649 12.7031L11.2977 11.3355L14.2129 8.41993C14.6361 8.04313 15.0265 8.33793 15.3441 8.65353ZM11.0241 11.6087L12.3917 12.9767C8.96488 16.3151 5.63808 19.8647 2.21128 23.1595C1.07248 23.6047 0.538875 22.4595 0.910075 21.7219C1.04888 21.4463 1.45968 21.1727 1.67888 20.9535L11.0241 11.6087Z" fill="#262626"/>
<path d="M17.2614 3.32395C16.2574 4.54555 18.2326 4.63435 18.9466 4.98035C19.2318 6.67755 20.1066 7.98635 21.3362 5.83115C21.4918 5.60915 21.7222 5.38395 21.5426 5.45115C21.9574 5.29635 22.683 5.49715 23.149 5.48115C24.1446 5.22435 23.7574 4.46915 23.2754 3.84555C22.9054 3.35195 22.7642 3.32555 22.8426 2.90115C23.8666 0.52955 22.789 0.57395 20.8586 1.28835C19.0022 -0.48005 18.2122 0.0771504 18.5282 2.43635C18.3138 2.82475 17.5718 2.99995 17.2614 3.32395ZM18.9486 2.61795C19.2286 2.04075 18.4286 0.30875 19.6446 0.86795C20.3202 1.17835 20.4354 1.75115 21.1838 1.57475C21.6298 1.46995 22.6526 0.76235 22.7686 1.62915C22.827 2.06915 22.2886 2.57875 22.3062 3.02315C22.3206 3.37795 23.7318 4.90835 23.0478 5.12275C22.531 5.10115 21.6878 4.90715 21.253 5.17235C20.8794 5.40035 20.8046 6.14555 20.423 6.35715C19.7786 6.71435 19.7226 5.96155 19.5766 5.50715C19.3454 4.39515 18.5442 4.61395 17.669 4.21115C17.0098 3.36275 18.6714 3.18595 18.9486 2.61795Z" fill="#262626"/>
<path d="M11.1228 2.08281C10.558 2.38641 9.70795 3.12281 10.6052 3.59521C10.896 3.74801 11.3484 3.72321 11.6104 3.91801C11.7549 4.18687 11.8625 4.47399 11.9304 4.77161C12.432 6.08921 13.248 4.96961 13.6712 4.25721C15.6096 4.43281 15.836 3.85401 14.6052 2.40641C15.3196 0.60401 14.9628 0.35281 13.1936 0.994811C11.8308 -0.32599 11.1344 0.0876104 11.3396 1.93001C11.2656 1.97521 11.1888 2.03641 11.1228 2.08281ZM11.7148 2.08641C11.9228 1.71321 11.416 0.57321 12.038 0.71201C12.66 0.85081 12.7003 1.53761 13.3863 1.33641C13.6663 1.25401 14.4264 0.78041 14.5528 1.33641C14.624 1.64401 14.2024 2.10401 14.1928 2.42561C14.1836 2.70281 15.1 3.70041 14.8304 3.86561C14.3856 3.84201 13.7756 3.70561 13.4268 3.97241C13.1784 4.16161 13.0832 4.73441 12.8044 4.86081C12.4044 5.04321 12.354 4.59001 12.2588 4.29321C12.1056 3.30641 11.7868 3.52401 11.0188 3.25121C10.1388 2.74681 11.4516 2.56001 11.7148 2.08641ZM11.3848 1.90041C11.4283 1.83241 11.4676 1.84921 11.3848 1.90041V1.90041Z" fill="#262626"/>
<path d="M7.80011 8.22741C8.00086 8.32733 8.21512 8.39741 8.43611 8.43541C8.62331 9.30101 9.13331 9.90701 9.69731 8.85221C9.79531 8.71221 9.89091 8.63541 9.77411 8.67181C10.0195 8.64093 10.2681 8.64592 10.5121 8.68661C11.3405 8.60661 10.8221 7.72661 10.4801 7.36981C11.0121 6.24621 10.5181 5.80421 9.42331 6.29701C8.50331 5.44741 8.06331 5.67581 8.18331 6.90581C7.62891 7.13941 7.02291 7.85261 7.80011 8.22741ZM10.4257 7.29701C10.4174 7.28171 10.4063 7.26813 10.3929 7.25701C10.4069 7.26709 10.4177 7.28097 10.4241 7.29701H10.4257ZM8.19011 6.92581C8.17651 6.97701 8.21971 7.03621 8.19011 6.92581V6.92581ZM8.03011 7.58861C8.16971 7.49101 8.44331 7.37341 8.52451 7.21261C8.66811 6.92901 8.29971 6.14181 8.77931 6.33261C9.24251 6.51901 9.21691 6.86181 9.72931 6.69261C10.6013 6.31061 10.2725 6.75341 10.0829 7.27821C10.0769 7.34715 10.0854 7.4166 10.108 7.48201C10.1306 7.54742 10.1668 7.60732 10.2141 7.65781C10.3061 7.79821 10.6993 8.14981 10.5037 8.21261C10.1837 8.19781 9.78771 8.10621 9.55171 8.31621C9.22811 8.82941 8.99811 9.32741 8.79731 8.37301C8.65851 7.94101 8.43211 7.97861 8.01891 7.82301C7.75291 7.72421 7.81211 7.74101 8.02931 7.58861H8.03011Z" fill="#262626"/>
<path d="M23.1564 11.0828C23.1113 11.0064 23.0563 10.9363 22.9928 10.8744C23.788 9.14079 23.2172 8.60599 21.524 9.38159C21.0496 9.13639 20.0888 7.98159 19.764 9.00279C19.684 9.38159 19.7988 9.87079 19.7536 10.2568C19.5823 10.4153 19.3903 10.5499 19.1828 10.6568C17.8412 11.6628 19.092 12.0968 20.12 12.3472C20.2928 12.83 20.3636 13.882 21.0872 13.8272C21.6 13.696 21.7616 13.0216 22.0996 12.6824C23.6632 12.8492 24.4052 12.5384 23.1564 11.0828ZM22.9772 10.8588C22.8656 10.7412 22.9724 10.7192 22.9772 10.8588V10.8588ZM23.1584 12.2448C22.7932 12.3156 22.2816 12.102 21.9144 12.2256C21.5744 12.4332 21.466 13.004 21.164 13.2504C20.692 13.4856 20.796 13.1276 20.6784 12.9164C20.356 12.3364 20.5848 12.0332 19.9108 11.8164C19.6608 11.7364 18.9588 11.668 19.1052 11.2856C19.2156 10.9976 19.8596 10.8856 20.0416 10.6296C20.2708 10.306 20.1216 9.67439 20.1088 9.27279C20.2988 8.74239 21.3368 9.83279 21.6264 9.83959C21.9596 9.84599 22.3948 9.41119 22.716 9.47959C23.182 9.57719 22.7628 10.2352 22.6836 10.5196C22.5068 11.1484 22.9348 11.186 23.19 11.7464C23.296 11.9772 23.614 12.0276 23.16 12.2448H23.1584Z" fill="#262626"/>
<path d="M15.7352 13.0706C15.726 13.3106 15.7448 13.5546 15.746 13.797C14.5976 14.4314 14.8048 14.961 15.986 15.2126C16.1676 16.4598 16.8316 16.4754 17.4376 15.4362C18.6412 15.599 18.9868 14.9962 18.0848 14.1226C18.54 13.0026 18.3172 12.577 17.1 13.1226C16.6796 12.7878 15.9624 12.2342 15.7352 13.0706ZM17.4232 15.4358C17.3068 15.4306 17.3664 15.4758 17.4232 15.4358V15.4358ZM17.4468 15.411C17.4591 15.3891 17.4692 15.3661 17.4772 15.3422C17.4729 15.3673 17.4625 15.391 17.4468 15.411ZM17.71 13.3174C18.15 13.4574 17.51 14.057 17.6812 14.3626C17.7496 14.5694 18.0904 14.7386 18.1212 14.951C18.1448 15.109 18.1868 14.9806 18.0388 15.0422C17.7724 15.0842 17.4536 14.9442 17.2088 15.099C17.0212 15.219 16.9816 15.539 16.802 15.6642C16.6928 15.7402 16.788 15.8614 16.6188 15.7042C16.4344 15.2242 16.4756 14.8478 15.9208 14.7254C15.7913 14.7002 15.6653 14.6599 15.5452 14.6054C15.3376 14.4698 15.4172 14.551 15.5112 14.4098C15.6176 14.2498 15.8896 14.1826 16.0312 14.0466C16.2788 13.8066 16.1852 13.3898 16.1664 13.0538C16.4214 13.2753 16.7197 13.4412 17.0424 13.541C17.2444 13.525 17.5148 13.2802 17.71 13.3174Z" fill="#262626"/>
</g>
<defs>
<clipPath id="clip0_179_35383">
<rect width="24" height="24" fill="white"/>
</clipPath>
</defs>
</svg>
