<svg width="24" height="24" viewBox="0 0 24 24" fill="none" xmlns="http://www.w3.org/2000/svg">
<g clip-path="url(#clip0_182_35797)">
<path d="M0.350395 23.0925L0.910395 23.6525C1.13443 23.8758 1.43786 24.0012 1.75419 24.0012C2.07053 24.0012 2.37396 23.8758 2.59799 23.6525L16.0512 10.1957C16.275 9.97183 16.4008 9.66823 16.4008 9.35167C16.4008 9.03511 16.275 8.73151 16.0512 8.50767L15.4912 7.94767C15.2677 7.72478 14.965 7.59961 14.6494 7.59961C14.3338 7.59961 14.0311 7.72478 13.8076 7.94767L0.349595 21.4045C0.125753 21.6283 0 21.9319 0 22.2485C0 22.565 0.125753 22.8686 0.349595 23.0925H0.350395ZM14.3708 8.51487C14.4069 8.4785 14.4498 8.44963 14.4971 8.42993C14.5444 8.41023 14.5952 8.40008 14.6464 8.40007C14.7505 8.40004 14.8503 8.44133 14.924 8.51487L15.484 9.07487C15.5575 9.14864 15.5988 9.24853 15.5988 9.35267C15.5988 9.4568 15.5575 9.5567 15.484 9.63047L12.684 12.4305L11.5696 11.3161L14.3708 8.51487ZM0.915195 21.9701L11.004 11.8801L12.1204 12.9973L2.03399 23.0853C1.99744 23.1219 1.95401 23.151 1.9062 23.1708C1.8584 23.1906 1.80715 23.2008 1.75539 23.2008C1.70364 23.2008 1.65239 23.1906 1.60459 23.1708C1.55678 23.151 1.51335 23.1219 1.47679 23.0853L0.916795 22.5253C0.843296 22.4515 0.802028 22.3516 0.802028 22.2475C0.802028 22.1433 0.843296 22.0434 0.916795 21.9697L0.915195 21.9701Z" fill="#838383"/>
<path d="M22.9477 3.10671L23.3925 1.76551C23.4446 1.60417 23.4511 1.43157 23.4113 1.26676C23.3715 1.10196 23.2869 0.951364 23.1669 0.831602C23.0469 0.71184 22.8961 0.62757 22.7312 0.588096C22.5664 0.548622 22.3938 0.55548 22.2325 0.607912L20.8933 1.05231L19.7405 0.187111C19.6048 0.0826514 19.4421 0.0190112 19.2716 0.00363925C19.101 -0.0117327 18.9296 0.0217996 18.7773 0.100311C18.6272 0.176866 18.502 0.294626 18.4165 0.439787C18.3309 0.584949 18.2884 0.751497 18.2941 0.919912L18.3261 2.33911L17.1769 3.14271C17.0408 3.23931 16.9344 3.37204 16.8697 3.52591C16.8051 3.67978 16.7847 3.84868 16.8109 4.01351C16.8366 4.18299 16.9091 4.34192 17.0203 4.47238C17.1315 4.60285 17.2769 4.69967 17.4401 4.75191L18.8073 5.19191L19.2473 6.55951C19.3073 6.74564 19.4249 6.90792 19.583 7.02294C19.7412 7.13796 19.9318 7.19979 20.1273 7.19951C20.2708 7.19967 20.4122 7.16534 20.5395 7.09941C20.6669 7.03349 20.7766 6.9379 20.8593 6.82071L21.6629 5.67351L23.0809 5.70551C23.2505 5.7099 23.4177 5.66616 23.5634 5.57936C23.7091 5.49255 23.8272 5.36625 23.904 5.21507C23.9808 5.0639 24.0132 4.89405 23.9975 4.72521C23.9817 4.55637 23.9184 4.39545 23.8149 4.26111L22.9477 3.10671ZM23.1877 4.85671C23.1804 4.87225 23.1686 4.88525 23.1539 4.89408C23.1391 4.90291 23.1221 4.90717 23.1049 4.90631H23.0985L21.4657 4.86951C21.4004 4.87089 21.3363 4.88692 21.278 4.91642C21.2197 4.94591 21.1687 4.98811 21.1289 5.03991L20.2041 6.35991C20.194 6.37568 20.1793 6.38796 20.162 6.39511C20.1447 6.40227 20.1256 6.40394 20.1073 6.39991C20.0846 6.39674 20.0632 6.3871 20.0458 6.37214C20.0283 6.35718 20.0155 6.33753 20.0089 6.31551L19.5081 4.75071C19.4887 4.69009 19.4551 4.63499 19.4101 4.58998C19.3651 4.54496 19.31 4.51134 19.2493 4.49191L17.6865 3.99031C17.6642 3.98404 17.6441 3.9714 17.6287 3.95394C17.6134 3.93647 17.6035 3.91492 17.6001 3.89191C17.5961 3.87418 17.5974 3.85565 17.604 3.83868C17.6105 3.82172 17.622 3.8071 17.6369 3.79671L18.9601 2.87031C19.0141 2.83253 19.0578 2.78203 19.0876 2.72327C19.1173 2.66452 19.132 2.59934 19.1305 2.53351L19.0937 0.898312C19.0921 0.880556 19.096 0.862733 19.1048 0.847223C19.1136 0.831713 19.1269 0.819254 19.1429 0.811512C19.1575 0.804193 19.1735 0.800229 19.1897 0.799912C19.2148 0.800714 19.239 0.809704 19.2585 0.825512L20.5809 1.81751C20.6326 1.85619 20.6928 1.88181 20.7564 1.89218C20.8201 1.90256 20.8853 1.89739 20.9465 1.87711L22.4845 1.36751C22.5049 1.36236 22.5263 1.36257 22.5466 1.36812C22.5669 1.37367 22.5854 1.38437 22.6003 1.39918C22.6153 1.41399 22.6261 1.43242 22.6318 1.45266C22.6375 1.4729 22.6379 1.49428 22.6329 1.51471L22.1229 3.05351C22.1027 3.11474 22.0975 3.17997 22.1079 3.24363C22.1182 3.30729 22.1439 3.36749 22.1825 3.41911L23.1753 4.74311C23.1888 4.75848 23.1973 4.77757 23.1996 4.79786C23.202 4.81815 23.1981 4.83867 23.1885 4.85671H23.1877Z" fill="#838383"/>
<path d="M11.8397 5.0501C11.8843 5.19036 11.9673 5.31534 12.0793 5.41091C12.1913 5.50647 12.3277 5.56882 12.4733 5.5909C12.513 5.5966 12.5531 5.59954 12.5933 5.5997C12.7169 5.59983 12.8387 5.57024 12.9485 5.51344C13.0583 5.45664 13.1528 5.37428 13.2241 5.2733L13.7961 4.4565L14.8061 4.4789C14.9504 4.48054 15.0925 4.44265 15.2169 4.36932C15.3413 4.29599 15.4432 4.19002 15.5117 4.0629C15.5795 3.93244 15.6088 3.78533 15.596 3.63882C15.5833 3.49232 15.529 3.35248 15.4397 3.2357L14.8221 2.4113L15.1389 1.4557C15.1832 1.31719 15.1886 1.16913 15.1543 1.02778C15.12 0.886435 15.0475 0.757261 14.9446 0.654438C14.8417 0.551616 14.7125 0.47912 14.5712 0.444908C14.4298 0.410696 14.2818 0.416091 14.1433 0.4605L13.1881 0.7773L12.3649 0.1597C12.2482 0.0697059 12.1082 0.0149913 11.9614 0.00202022C11.8146 -0.0109509 11.6671 0.0183635 11.5365 0.0865003C11.4071 0.152129 11.2992 0.253311 11.2253 0.378159C11.1515 0.503008 11.1149 0.646335 11.1197 0.7913L11.1421 1.8021L10.3245 2.3753C10.2072 2.45838 10.1154 2.5726 10.0596 2.70505C10.0038 2.8375 9.98604 2.98292 10.0085 3.1249C10.0305 3.27072 10.0929 3.40746 10.1886 3.51964C10.2843 3.63183 10.4095 3.71499 10.5501 3.7597L11.5269 4.0733L11.8397 5.0501ZM11.7761 2.3345C11.8299 2.29705 11.8738 2.24692 11.9037 2.18853C11.9336 2.13015 11.9487 2.0653 11.9477 1.9997L11.9217 0.8293L12.8749 1.5449C12.9265 1.58377 12.9869 1.60954 13.0507 1.61999C13.1145 1.63044 13.1799 1.62526 13.2413 1.6049L14.3793 1.2049L13.9965 2.3597C13.9761 2.42108 13.9709 2.48647 13.9814 2.55028C13.9918 2.6141 14.0176 2.67443 14.0565 2.7261L14.7889 3.6797L13.6017 3.6517C13.5365 3.65386 13.4726 3.67023 13.4144 3.69966C13.3562 3.7291 13.3052 3.77088 13.2649 3.8221L12.6021 4.8049L12.2257 3.6321C12.2062 3.5716 12.1726 3.5166 12.1277 3.47167C12.0828 3.42673 12.0278 3.39315 11.9673 3.3737L10.7857 3.0293L11.7761 2.3345Z" fill="#838383"/>
<path d="M7.20844 7.83753C7.22669 7.95904 7.27865 8.073 7.3584 8.16647C7.43816 8.25994 7.54252 8.32918 7.65964 8.36633L8.24564 8.55473L8.43444 9.14153C8.47164 9.25848 8.54087 9.36266 8.63426 9.44226C8.72765 9.52187 8.84148 9.57372 8.96284 9.59193C8.99629 9.59738 9.03014 9.60005 9.06404 9.59993C9.16788 9.59995 9.2702 9.57499 9.36237 9.52716C9.45454 9.47933 9.53386 9.41004 9.59364 9.32513L9.93404 8.83913L10.534 8.85273C10.6556 8.85496 10.7753 8.82341 10.88 8.76162C10.9846 8.69983 11.0701 8.61021 11.1268 8.50273C11.1835 8.39354 11.2079 8.27045 11.1971 8.14789C11.1864 8.02532 11.1409 7.90837 11.066 7.81073L10.6956 7.31713L10.8856 6.74513C10.9231 6.62933 10.9278 6.50544 10.8992 6.38714C10.8707 6.26883 10.81 6.16072 10.7239 6.07472C10.6378 5.98873 10.5296 5.92821 10.4112 5.89983C10.2929 5.87146 10.169 5.87634 10.0532 5.91393L9.48204 6.10353L8.99084 5.73473C8.89384 5.65986 8.77761 5.61401 8.65562 5.60248C8.53363 5.59096 8.41087 5.61424 8.30157 5.66962C8.19227 5.72501 8.1009 5.81023 8.03804 5.91541C7.97519 6.0206 7.94343 6.14144 7.94644 6.26393L7.96004 6.86633L7.47164 7.20833C7.37344 7.27822 7.29675 7.37418 7.25024 7.48537C7.20372 7.59656 7.18925 7.71855 7.20844 7.83753ZM8.59524 7.39753C8.64924 7.3598 8.69309 7.30931 8.72289 7.25056C8.75268 7.1918 8.76751 7.1266 8.76604 7.06073L8.75484 6.55513L9.17084 6.86713C9.22232 6.90609 9.28253 6.93188 9.34625 6.94227C9.40996 6.95265 9.47525 6.94732 9.53644 6.92673L10.0384 6.76033L9.87204 7.26233C9.85176 7.32356 9.84659 7.38879 9.85697 7.45245C9.86735 7.51611 9.89296 7.57632 9.93164 7.62793L10.2436 8.04393L9.73804 8.03273C9.67231 8.03206 9.60738 8.04723 9.54876 8.07696C9.49013 8.10669 9.43953 8.15011 9.40124 8.20353L9.10844 8.62393L8.94444 8.11433C8.92499 8.05383 8.89141 7.99884 8.84647 7.9539C8.80154 7.90896 8.74654 7.87538 8.68604 7.85593L8.17644 7.69193L8.59524 7.39753Z" fill="#838383"/>
<path d="M23.8401 11.636L23.2217 10.8116L23.5385 9.85604C23.5828 9.71752 23.5881 9.56947 23.5539 9.42812C23.5196 9.28677 23.4471 9.1576 23.3442 9.05478C23.2413 8.95195 23.1121 8.87946 22.9708 8.84525C22.8294 8.81104 22.6813 8.81643 22.5429 8.86084L21.5877 9.17764L20.7653 8.56004C20.6485 8.47016 20.5085 8.41549 20.3618 8.40245C20.215 8.38941 20.0676 8.41855 19.9369 8.48644C19.8077 8.55239 19.6999 8.65378 19.6262 8.77874C19.5526 8.9037 19.516 9.04706 19.5209 9.19204L19.5433 10.202L18.7249 10.7752C18.6076 10.8583 18.5158 10.9725 18.46 11.105C18.4041 11.2374 18.3864 11.3829 18.4089 11.5248C18.4308 11.6707 18.4932 11.8076 18.5889 11.9198C18.6846 12.0321 18.8099 12.1153 18.9505 12.16L19.9273 12.4736L20.2413 13.4512C20.2859 13.5915 20.3689 13.7165 20.4809 13.812C20.5929 13.9076 20.7293 13.97 20.8749 13.992C20.9146 13.9977 20.9547 14.0007 20.9949 14.0008C21.1185 14.001 21.2403 13.9714 21.3501 13.9146C21.4598 13.8578 21.5544 13.7754 21.6257 13.6744L22.1977 12.8576L23.2061 12.88H23.2297C23.3709 12.8808 23.5097 12.8423 23.6304 12.7689C23.7511 12.6954 23.849 12.5899 23.9133 12.464C23.9811 12.3334 24.0103 12.186 23.9973 12.0394C23.9843 11.8927 23.9298 11.7528 23.8401 11.636ZM22.0001 12.052C21.9344 12.0516 21.8696 12.0669 21.811 12.0965C21.7525 12.1261 21.7018 12.1693 21.6633 12.2224L21.0005 13.2052L20.6241 12.0324C20.6046 11.9719 20.571 11.9169 20.5261 11.872C20.4811 11.8271 20.4262 11.7935 20.3657 11.774L19.1841 11.4296L20.1757 10.7348C20.2297 10.6975 20.2736 10.6474 20.3037 10.589C20.3338 10.5306 20.349 10.4657 20.3481 10.4L20.3221 9.22964L21.2753 9.94524C21.3269 9.98411 21.3873 10.0099 21.4511 10.0203C21.5149 10.0308 21.5803 10.0256 21.6417 10.0052L22.7797 9.60524L22.3969 10.76C22.3765 10.8214 22.3713 10.8868 22.3818 10.9506C22.3922 11.0144 22.418 11.0748 22.4569 11.1264L23.1725 12.08L22.0001 12.052Z" fill="#838383"/>
<path d="M14.8081 14.6374C14.8263 14.7589 14.8783 14.8728 14.958 14.9663C15.0378 15.0598 15.1421 15.129 15.2593 15.1662L15.8453 15.3546L16.0341 15.9414C16.0713 16.0583 16.1405 16.1625 16.2339 16.2421C16.3273 16.3217 16.4411 16.3735 16.5625 16.3918C16.5959 16.3972 16.6298 16.3999 16.6637 16.3998C16.7675 16.3998 16.8698 16.3748 16.962 16.327C17.0542 16.2792 17.1335 16.2099 17.1933 16.125L17.5337 15.639L18.1337 15.6526C18.2558 15.6571 18.3767 15.6265 18.482 15.5645C18.5874 15.5025 18.6728 15.4116 18.7281 15.3026C18.7847 15.1934 18.8091 15.0703 18.7984 14.9477C18.7876 14.8252 18.7421 14.7082 18.6673 14.6106L18.2969 14.117L18.4869 13.545C18.5243 13.4292 18.529 13.3053 18.5004 13.187C18.4719 13.0687 18.4112 12.9605 18.3251 12.8746C18.239 12.7886 18.1308 12.728 18.0124 12.6997C17.8941 12.6713 17.7702 12.6762 17.6545 12.7138L17.0833 12.9034L16.5921 12.5346C16.495 12.4596 16.3786 12.4137 16.2565 12.4023C16.1344 12.3908 16.0116 12.4142 15.9022 12.4697C15.7929 12.5252 15.7015 12.6106 15.6388 12.716C15.576 12.8214 15.5444 12.9424 15.5477 13.065L15.5613 13.665L15.0729 14.007C14.9742 14.0767 14.897 14.1728 14.8502 14.2843C14.8034 14.3957 14.7888 14.518 14.8081 14.6374ZM16.1949 14.1974C16.2489 14.1596 16.2927 14.1091 16.3225 14.0504C16.3523 13.9916 16.3671 13.9264 16.3657 13.8606L16.3545 13.355L16.7705 13.667C16.8221 13.7056 16.8823 13.7313 16.9459 13.7416C17.0096 13.752 17.0748 13.7468 17.1361 13.7266L17.6381 13.5602L17.4717 14.0622C17.4514 14.1234 17.4462 14.1886 17.4566 14.2523C17.467 14.3159 17.4926 14.3761 17.5313 14.4278L17.8433 14.8438L17.3377 14.8326C17.2724 14.8346 17.2084 14.8509 17.1502 14.8804C17.092 14.91 17.041 14.9519 17.0009 15.0034L16.7081 15.4238L16.5441 14.9142C16.5246 14.8537 16.491 14.7987 16.4461 14.7537C16.4012 14.7088 16.3462 14.6752 16.2857 14.6558L15.7761 14.4918L16.1949 14.1974Z" fill="#838383"/>
</g>
<defs>
<clipPath id="clip0_182_35797">
<rect width="24" height="24" fill="white"/>
</clipPath>
</defs>
</svg>
