<svg width="24" height="24" viewBox="0 0 24 24" fill="none" xmlns="http://www.w3.org/2000/svg">
<path d="M4.10846 22.5963C4.06921 22.5962 4.03084 22.5846 3.99815 22.5629C3.96546 22.5412 3.93989 22.5103 3.92462 22.4741C3.90935 22.438 3.90506 22.3981 3.91229 22.3595C3.91952 22.3209 3.93794 22.2853 3.96526 22.2571L4.05646 22.1631L3.71206 22.3631C3.66975 22.3886 3.61951 22.3975 3.57102 22.3882C3.52253 22.3788 3.47921 22.3518 3.44941 22.3125C3.41961 22.2731 3.40544 22.2241 3.40962 22.1749C3.41381 22.1256 3.43605 22.0797 3.47206 22.0459L3.87566 21.6575L3.71046 21.7527C3.66936 21.7765 3.62114 21.7849 3.57442 21.7764C3.5277 21.7679 3.48554 21.743 3.45547 21.7063C3.4254 21.6695 3.40939 21.6233 3.41031 21.5758C3.41122 21.5283 3.429 21.4827 3.46046 21.4471L4.23766 20.5671L3.71046 20.8715C3.6685 20.8946 3.61966 20.9018 3.57282 20.8919C3.52597 20.882 3.48423 20.8557 3.45518 20.8176C3.42613 20.7795 3.41169 20.7323 3.4145 20.6845C3.4173 20.6367 3.43716 20.5915 3.47046 20.5571L3.98006 20.0463L3.71206 20.2007C3.67108 20.2245 3.62297 20.233 3.57632 20.2247C3.52966 20.2163 3.48748 20.1917 3.45731 20.1551C3.42715 20.1185 3.41094 20.0725 3.41159 20.0251C3.41224 19.9777 3.4297 19.932 3.46086 19.8963L4.26446 18.9711L3.71206 19.2911C3.6698 19.3162 3.61979 19.3248 3.57157 19.3154C3.52336 19.3059 3.48031 19.279 3.45064 19.2399C3.42097 19.2007 3.40675 19.152 3.4107 19.103C3.41465 19.054 3.4365 19.0082 3.47206 18.9743L3.89126 18.5683L3.71086 18.6723C3.66853 18.6965 3.61885 18.7043 3.57114 18.6944C3.52343 18.6845 3.48099 18.6575 3.45177 18.6185C3.42255 18.5795 3.40857 18.5312 3.41245 18.4826C3.41634 18.4341 3.43782 18.3886 3.47286 18.3547L3.85486 17.9895L3.71086 18.0723C3.66973 18.0958 3.62158 18.104 3.575 18.0953C3.52841 18.0867 3.48642 18.0617 3.4565 18.025C3.42658 17.9883 3.41067 17.9421 3.41162 17.8947C3.41256 17.8473 3.4303 17.8018 3.46166 17.7663L4.22166 16.9123L3.71086 17.2071C3.66969 17.2309 3.62138 17.2392 3.57462 17.2306C3.52786 17.222 3.48569 17.197 3.45569 17.1601C3.42569 17.1232 3.40981 17.0769 3.41091 17.0293C3.412 16.9818 3.43 16.9362 3.46166 16.9007L4.21526 16.0571L3.71086 16.3479C3.66921 16.3717 3.62038 16.3797 3.5733 16.3705C3.52622 16.3613 3.48401 16.3355 3.45438 16.2978C3.42475 16.2601 3.40967 16.2129 3.41188 16.165C3.4141 16.1171 3.43347 16.0716 3.46646 16.0367L4.08486 15.3899L3.71086 15.6055C3.66766 15.6314 3.61631 15.64 3.56704 15.6296C3.51778 15.6192 3.47424 15.5907 3.44511 15.5496C3.41597 15.5086 3.40339 15.4581 3.40987 15.4081C3.41635 15.3582 3.44141 15.3126 3.48006 15.2803L3.64766 15.1307C3.60687 15.1379 3.56485 15.1323 3.5274 15.1146C3.48995 15.0969 3.45891 15.068 3.43859 15.0319C3.41826 14.9958 3.40964 14.9543 3.41391 14.9131C3.41819 14.8719 3.43515 14.8331 3.46246 14.8019L4.24526 13.9095L3.71286 14.2171C3.67176 14.2409 3.62354 14.2493 3.57682 14.2408C3.5301 14.2323 3.48794 14.2074 3.45787 14.1707C3.4278 14.1339 3.41179 14.0877 3.41271 14.0402C3.41362 13.9927 3.4314 13.9471 3.46286 13.9115L4.23726 13.0315L3.71286 13.3343C3.67112 13.3584 3.62207 13.3666 3.57475 13.3575C3.52743 13.3483 3.48502 13.3223 3.45532 13.2843C3.42562 13.2464 3.41064 13.1989 3.41313 13.1508C3.41562 13.1027 3.43541 13.057 3.46886 13.0223L4.07086 12.4003L3.71086 12.6075C3.668 12.6323 3.61748 12.6403 3.56907 12.6299C3.52066 12.6196 3.47781 12.5917 3.4488 12.5515C3.41979 12.5114 3.40668 12.462 3.41201 12.4128C3.41734 12.3636 3.44074 12.3181 3.47766 12.2851L3.65366 12.1275C3.61181 12.1367 3.56813 12.1321 3.52906 12.1145C3.48999 12.097 3.45759 12.0674 3.43662 12.03C3.41566 11.9926 3.40725 11.9495 3.41262 11.907C3.41799 11.8645 3.43686 11.8249 3.46646 11.7939L4.07566 11.1583L3.71086 11.3687C3.66895 11.3915 3.62028 11.3986 3.57363 11.3886C3.52699 11.3786 3.48543 11.3523 3.45646 11.3145C3.4275 11.2766 3.41303 11.2296 3.41567 11.1819C3.41831 11.1343 3.43789 11.0892 3.47086 11.0547L3.99086 10.5299L3.71086 10.6899C3.66787 10.7145 3.61728 10.7223 3.56888 10.7117C3.52049 10.7012 3.47774 10.673 3.44891 10.6327C3.42009 10.5924 3.40723 10.5429 3.41284 10.4937C3.41844 10.4445 3.44211 10.3991 3.47926 10.3663L3.61846 10.2463C3.58621 10.2471 3.55423 10.2402 3.52512 10.2263C3.496 10.2124 3.47056 10.1919 3.45086 10.1663C3.42152 10.1271 3.4076 10.0785 3.41172 10.0297C3.41585 9.98086 3.43775 9.93526 3.47326 9.90153L3.84126 9.55073L3.71086 9.62593C3.6688 9.64958 3.6196 9.65723 3.57234 9.64746C3.52508 9.63769 3.48294 9.61116 3.45371 9.57276C3.42447 9.53436 3.4101 9.48669 3.41326 9.43853C3.41641 9.39038 3.43687 9.34498 3.47086 9.31073L3.96566 8.81793L3.71166 8.96433C3.66984 8.98817 3.62082 8.99612 3.57361 8.98673C3.52639 8.97734 3.48415 8.95123 3.45463 8.91321C3.42511 8.87518 3.4103 8.82778 3.41292 8.77971C3.41553 8.73164 3.4354 8.68613 3.46886 8.65153L4.03286 8.07433L3.71286 8.25953C3.66981 8.2846 3.61895 8.29271 3.57024 8.28225C3.52153 8.2718 3.47847 8.24354 3.4495 8.20301C3.42053 8.16248 3.40772 8.11259 3.4136 8.06312C3.41947 8.01364 3.4436 7.96814 3.48126 7.93553L3.61486 7.81913C3.58518 7.81878 3.55591 7.81211 3.52901 7.79955C3.50211 7.787 3.4782 7.76885 3.45886 7.74633C3.4288 7.70991 3.41258 7.66403 3.4131 7.61681C3.41361 7.56959 3.43081 7.52408 3.46166 7.48833L4.26566 6.55753L3.71286 6.87753C3.67176 6.90132 3.62354 6.90971 3.57682 6.90119C3.5301 6.89268 3.48794 6.86783 3.45787 6.83107C3.4278 6.79431 3.41179 6.74806 3.41271 6.70058C3.41362 6.6531 3.4314 6.6075 3.46286 6.57193L4.23286 5.69873L3.71286 5.99873C3.67125 6.02251 3.62247 6.03056 3.57542 6.0214C3.52836 6.01225 3.48617 5.98649 3.45651 5.94884C3.42685 5.91118 3.4117 5.86412 3.41382 5.81623C3.41594 5.76835 3.43519 5.72281 3.46806 5.68793L4.08686 5.03873L3.71286 5.25433C3.6712 5.27812 3.62238 5.28615 3.5753 5.27694C3.52822 5.26774 3.48601 5.24192 3.45638 5.20419C3.42675 5.16646 3.41167 5.11933 3.41388 5.07141C3.4161 5.02349 3.43547 4.97796 3.46846 4.94313L4.07686 4.30713L3.71286 4.51713C3.67065 4.5418 3.62085 4.55016 3.5729 4.54062C3.52494 4.53107 3.48214 4.50429 3.45259 4.46533C3.42303 4.42637 3.40878 4.37794 3.41252 4.32918C3.41625 4.28043 3.43772 4.23473 3.47286 4.20073L3.90446 3.77753L3.71206 3.88833C3.67052 3.91238 3.62171 3.92069 3.57455 3.91174C3.52739 3.90279 3.48502 3.87717 3.45518 3.83957C3.42534 3.80196 3.41002 3.75488 3.41202 3.70692C3.41402 3.65896 3.4332 3.61332 3.46606 3.57833L4.12366 2.87593L3.71206 3.11313C3.67167 3.13624 3.62448 3.14454 3.57863 3.1366C3.53278 3.12866 3.49112 3.10498 3.46085 3.06964C3.43058 3.03429 3.41358 2.9895 3.41278 2.94297C3.41197 2.89644 3.42742 2.85109 3.45646 2.81473L3.86126 2.31033L3.71206 2.39633C3.67696 2.4165 3.63656 2.42554 3.59621 2.42226C3.55586 2.41898 3.51746 2.40353 3.48607 2.37796C3.45469 2.35238 3.43181 2.31788 3.42045 2.27903C3.40909 2.24017 3.40979 2.19878 3.42246 2.16033L3.50886 1.89913C3.479 1.88119 3.45433 1.85576 3.43731 1.82536C3.4203 1.79497 3.41151 1.76065 3.41184 1.72581C3.41216 1.69097 3.42158 1.65682 3.43916 1.62675C3.45674 1.59667 3.48187 1.5717 3.51206 1.55433L3.71486 1.43753C3.75009 1.41754 3.79052 1.40861 3.83089 1.41189C3.87127 1.41517 3.90972 1.43051 3.94126 1.45593C3.97272 1.48153 3.99565 1.51609 4.007 1.55502C4.01836 1.59396 4.01762 1.63543 4.00486 1.67393L3.96726 1.78753L4.58486 1.43113C4.62526 1.40778 4.67255 1.3993 4.71854 1.40714C4.76453 1.41499 4.80634 1.43866 4.83672 1.47407C4.86709 1.50948 4.88414 1.5544 4.8849 1.60105C4.88565 1.6477 4.87008 1.69315 4.84086 1.72953L4.43566 2.23393L5.08846 1.85753C5.12996 1.83376 5.1786 1.82564 5.22556 1.83466C5.27253 1.84367 5.31471 1.86921 5.34446 1.90665C5.37421 1.94409 5.38956 1.99095 5.38772 2.03874C5.38589 2.08653 5.367 2.13207 5.33446 2.16713L4.67726 2.86913L5.08886 2.63193C5.13108 2.60725 5.18087 2.59889 5.22883 2.60844C5.27679 2.61798 5.31959 2.64476 5.34914 2.68372C5.37869 2.72268 5.39295 2.77112 5.38921 2.81987C5.38547 2.86863 5.36401 2.91432 5.32886 2.94833L4.89686 3.36833L5.08926 3.25793C5.13092 3.23413 5.17974 3.22611 5.22683 3.23531C5.27391 3.24451 5.31612 3.27034 5.34575 3.30807C5.37538 3.3458 5.39046 3.39292 5.38824 3.44084C5.38602 3.48877 5.36665 3.5343 5.33366 3.56913L4.72526 4.20473L5.08966 3.99433C5.13133 3.97025 5.18028 3.962 5.22753 3.97109C5.27479 3.98019 5.31718 4.00601 5.34693 4.04384C5.37668 4.08166 5.3918 4.12894 5.38951 4.17701C5.38722 4.22507 5.36768 4.2707 5.33446 4.30553L4.71606 4.95473L5.09006 4.73873C5.13112 4.71519 5.17919 4.70697 5.22573 4.71553C5.27228 4.72409 5.31427 4.74888 5.34426 4.78549C5.37425 4.8221 5.39029 4.86816 5.38952 4.91548C5.38875 4.9628 5.37123 5.00831 5.34006 5.04393L4.57006 5.91753L5.09006 5.61713C5.131 5.59355 5.17896 5.58524 5.22545 5.59364C5.27193 5.60205 5.31394 5.62664 5.34403 5.66305C5.37412 5.69947 5.39035 5.74536 5.38985 5.7926C5.38934 5.83983 5.37213 5.88536 5.34126 5.92113L4.53726 6.85193L5.09086 6.53193C5.13391 6.50685 5.18477 6.49875 5.23349 6.5092C5.2822 6.51965 5.32526 6.54791 5.35423 6.58844C5.3832 6.62898 5.396 6.67886 5.39013 6.72833C5.38425 6.77781 5.36012 6.82331 5.32246 6.85593L5.18886 6.97233C5.2195 6.97304 5.24962 6.98029 5.27722 6.99361C5.30481 7.00693 5.32924 7.02599 5.34886 7.04953C5.3785 7.08768 5.39334 7.13526 5.39061 7.1835C5.38789 7.23173 5.36781 7.27735 5.33406 7.31193L4.76966 7.88993L5.08966 7.70433C5.13168 7.68098 5.18069 7.67354 5.22774 7.68338C5.27479 7.69321 5.31673 7.71966 5.34587 7.75789C5.37501 7.79611 5.38941 7.84355 5.38643 7.89153C5.38346 7.9395 5.36331 7.9848 5.32966 8.01913L4.84006 8.51193L5.09366 8.36553C5.13605 8.34103 5.18594 8.33293 5.2339 8.34275C5.28185 8.35258 5.32454 8.37965 5.35387 8.41884C5.3832 8.45803 5.39714 8.50662 5.39305 8.5554C5.38896 8.60418 5.36712 8.64977 5.33166 8.68353L4.96446 9.03353L5.09366 8.95873C5.13667 8.93374 5.18744 8.92567 5.23607 8.9361C5.2847 8.94653 5.3277 8.9747 5.35668 9.01512C5.38566 9.05554 5.39854 9.10531 5.39281 9.15472C5.38707 9.20412 5.36313 9.24962 5.32566 9.28233L5.18646 9.40433C5.21837 9.40337 5.25006 9.40993 5.27896 9.42348C5.30787 9.43703 5.33318 9.45719 5.35286 9.48233C5.38236 9.52074 5.39691 9.56855 5.39382 9.61688C5.39073 9.66521 5.37021 9.71078 5.33606 9.74513L4.81606 10.2695L5.09606 10.1095C5.13773 10.0854 5.18668 10.0772 5.23393 10.0863C5.28119 10.0954 5.32358 10.1212 5.35333 10.159C5.38308 10.1969 5.3982 10.2441 5.39591 10.2922C5.39362 10.3403 5.37408 10.3859 5.34086 10.4207L4.73086 11.0571L5.09646 10.8459C5.13933 10.8212 5.18985 10.8132 5.23826 10.8235C5.28667 10.8339 5.32952 10.8618 5.35853 10.9019C5.38754 10.942 5.40065 10.9915 5.39531 11.0407C5.38998 11.0899 5.36659 11.1354 5.32966 11.1683L5.15446 11.3255C5.19636 11.3164 5.24008 11.321 5.27918 11.3386C5.31828 11.3562 5.35069 11.3859 5.37162 11.4233C5.39255 11.4607 5.4009 11.5039 5.39543 11.5464C5.38997 11.589 5.37098 11.6286 5.34126 11.6595L4.73886 12.2859L5.09886 12.0787C5.13996 12.0549 5.18819 12.0465 5.2349 12.0551C5.28162 12.0636 5.32379 12.0884 5.35386 12.1252C5.38393 12.1619 5.39993 12.2082 5.39902 12.2557C5.3981 12.3032 5.38033 12.3488 5.34886 12.3843L4.57446 13.2643L5.09926 12.9611C5.14032 12.9373 5.18851 12.9289 5.23521 12.9374C5.2819 12.9458 5.32407 12.9706 5.35417 13.0073C5.38427 13.044 5.40035 13.0902 5.39952 13.1376C5.3987 13.1851 5.38102 13.2307 5.34966 13.2663L4.56206 14.1563L5.09526 13.8483C5.13812 13.8239 5.18847 13.8162 5.23665 13.8267C5.28484 13.8372 5.32745 13.8651 5.35632 13.9051C5.38518 13.9451 5.39826 13.9943 5.39305 14.0433C5.38783 14.0923 5.36469 14.1377 5.32806 14.1707L5.16006 14.3203C5.2016 14.3129 5.24443 14.3188 5.2824 14.3372C5.32038 14.3556 5.35156 14.3856 5.37149 14.4228C5.39142 14.46 5.39907 14.5025 5.39335 14.5443C5.38764 14.5861 5.36884 14.625 5.33966 14.6555L4.72166 15.3019L5.09526 15.0863C5.1364 15.0628 5.18454 15.0547 5.23113 15.0633C5.27771 15.072 5.31971 15.0969 5.34963 15.1336C5.37955 15.1704 5.39545 15.2166 5.39451 15.2639C5.39356 15.3113 5.37583 15.3568 5.34446 15.3923L4.59126 16.2363L5.09606 15.9447C5.1372 15.9212 5.18534 15.9131 5.23193 15.9217C5.27851 15.9304 5.32051 15.9553 5.35043 15.9921C5.38035 16.0288 5.39625 16.075 5.39531 16.1223C5.39436 16.1697 5.37663 16.2152 5.34526 16.2507L4.58526 17.1047L5.09606 16.8095C5.13842 16.7836 5.1889 16.7744 5.23769 16.7836C5.28648 16.7929 5.33009 16.8199 5.36002 16.8595C5.38996 16.8992 5.40409 16.9485 5.39966 16.998C5.39523 17.0474 5.37256 17.0935 5.33606 17.1271L4.95326 17.4931L5.09806 17.4095C5.14033 17.3845 5.19034 17.3758 5.23855 17.3853C5.28677 17.3947 5.32982 17.4216 5.35949 17.4608C5.38916 17.5 5.40338 17.5487 5.39942 17.5976C5.39547 17.6466 5.37363 17.6924 5.33806 17.7263L4.91886 18.1319L5.09926 18.0279C5.14025 18.0041 5.18835 17.9956 5.23501 18.004C5.28167 18.0123 5.32384 18.037 5.35401 18.0736C5.38418 18.1101 5.40039 18.1562 5.39974 18.2036C5.39909 18.251 5.38162 18.2966 5.35046 18.3323L4.54646 19.2583L5.09966 18.9383C5.14162 18.9153 5.19047 18.908 5.23731 18.9179C5.28416 18.9278 5.3259 18.9542 5.35495 18.9923C5.384 19.0303 5.39844 19.0775 5.39563 19.1253C5.39283 19.1731 5.37297 19.2183 5.33966 19.2527L4.83046 19.7603L5.09846 19.6059C5.13952 19.5824 5.18759 19.5742 5.23413 19.5827C5.28068 19.5913 5.32267 19.6161 5.35266 19.6527C5.38265 19.6893 5.39869 19.7354 5.39792 19.7827C5.39715 19.83 5.37963 19.8755 5.34846 19.9111L4.57206 20.7911L5.09886 20.4871C5.14099 20.4622 5.19086 20.4538 5.23882 20.4636C5.28678 20.4733 5.32941 20.5005 5.35846 20.5399C5.38789 20.5789 5.40202 20.6274 5.39819 20.6761C5.39436 20.7248 5.37283 20.7704 5.33766 20.8043L4.93326 21.1931L5.09926 21.0975C5.14104 21.0737 5.19001 21.0657 5.23719 21.0751C5.28437 21.0844 5.32661 21.1105 5.35615 21.1484C5.3857 21.1864 5.40058 21.2337 5.39806 21.2817C5.39555 21.3298 5.37581 21.3753 5.34246 21.4099L5.19206 21.5651C5.24015 21.5648 5.28699 21.5804 5.32526 21.6095C5.35677 21.6349 5.37983 21.6693 5.3914 21.7081C5.40297 21.7468 5.4025 21.7882 5.39006 21.8267L5.30166 22.0991C5.33152 22.1166 5.35633 22.1416 5.37366 22.1715C5.38678 22.1943 5.39528 22.2194 5.39868 22.2455C5.40208 22.2715 5.40031 22.298 5.39347 22.3234C5.38664 22.3487 5.37487 22.3725 5.35884 22.3933C5.34281 22.4142 5.32284 22.4316 5.30006 22.4447L5.09726 22.5615C5.06222 22.5817 5.02188 22.5908 4.98157 22.5876C4.94126 22.5844 4.90287 22.569 4.87147 22.5436C4.84006 22.5181 4.81711 22.4837 4.80565 22.4449C4.79419 22.4061 4.79475 22.3648 4.80726 22.3263L4.84726 22.1987L4.20726 22.5679C4.17745 22.586 4.14334 22.5958 4.10846 22.5963Z" fill="#543424"/>
<path d="M19.4877 22.5944C19.4511 22.5944 19.4153 22.5844 19.3841 22.5655C19.3528 22.5466 19.3273 22.5195 19.3104 22.4872C19.2935 22.4548 19.2857 22.4184 19.288 22.382C19.2902 22.3455 19.3024 22.3104 19.3233 22.2804L19.7261 21.6988L18.9117 22.1692C18.869 22.1955 18.8181 22.2049 18.7689 22.1955C18.7196 22.1861 18.6757 22.1586 18.6459 22.1183C18.616 22.0781 18.6023 22.0281 18.6075 21.9783C18.6128 21.9284 18.6365 21.8824 18.6741 21.8492L19.0509 21.4892L18.9117 21.5692C18.8687 21.594 18.8181 21.602 18.7697 21.5916C18.7212 21.5813 18.6783 21.5533 18.6493 21.5131C18.6203 21.4728 18.6073 21.4233 18.6127 21.374C18.6182 21.3248 18.6418 21.2793 18.6789 21.2464L18.8441 21.0996C18.808 21.106 18.7709 21.1022 18.737 21.0885C18.703 21.0749 18.6736 21.052 18.6521 21.0224C18.6227 20.9833 18.6086 20.9349 18.6125 20.8862C18.6164 20.8375 18.638 20.7919 18.6733 20.758L19.0733 20.3744L18.9133 20.4672C18.8703 20.492 18.8196 20.4999 18.7711 20.4894C18.7226 20.4789 18.6798 20.4507 18.6509 20.4104C18.6218 20.37 18.6089 20.3202 18.6146 20.2708C18.6203 20.2214 18.6442 20.1759 18.6817 20.1432L18.8177 20.0232C18.7871 20.0244 18.7568 20.0185 18.729 20.0059C18.7012 19.9932 18.6768 19.9742 18.6577 19.9504C18.6275 19.9138 18.6114 19.8677 18.6121 19.8202C18.6129 19.7729 18.6304 19.7273 18.6617 19.6916L19.4517 18.7892L18.9121 19.1008C18.869 19.1258 18.8183 19.1338 18.7696 19.1234C18.721 19.113 18.678 19.0848 18.649 19.0444C18.6201 19.004 18.6072 18.9542 18.6129 18.9048C18.6186 18.8554 18.6426 18.8099 18.6801 18.7772L18.8237 18.6516C18.7906 18.6541 18.7574 18.6481 18.7274 18.6341C18.6973 18.6201 18.6714 18.5986 18.6521 18.5716C18.6228 18.5323 18.6089 18.4837 18.6131 18.4348C18.6173 18.386 18.6393 18.3405 18.6749 18.3068L19.0289 17.9712L18.9121 18.0384C18.8707 18.0619 18.8223 18.0699 18.7756 18.0609C18.7288 18.0519 18.6869 18.0266 18.6571 17.9894C18.6274 17.9523 18.6119 17.9058 18.6134 17.8582C18.6149 17.8107 18.6333 17.7652 18.6653 17.73L19.3565 16.9816L18.9121 17.2376C18.8695 17.2613 18.8197 17.2687 18.7721 17.2583C18.7245 17.2479 18.6823 17.2205 18.6534 17.1812C18.6246 17.1419 18.6111 17.0934 18.6155 17.0449C18.6199 16.9963 18.6418 16.9511 18.6773 16.9176L18.8965 16.7176C18.8547 16.737 18.8075 16.7413 18.7629 16.73C18.7183 16.7186 18.679 16.6922 18.6516 16.6552C18.6242 16.6182 18.6104 16.5729 18.6125 16.5269C18.6146 16.4809 18.6326 16.4371 18.6633 16.4028L19.4121 15.566L18.9121 15.8544C18.8695 15.8772 18.8202 15.8839 18.7731 15.8732C18.726 15.8624 18.6844 15.8351 18.6559 15.7961C18.6275 15.7571 18.6141 15.7091 18.6182 15.661C18.6224 15.6129 18.6438 15.5679 18.6785 15.5344L18.8601 15.3716C18.8175 15.382 18.7727 15.3782 18.7325 15.3608C18.6923 15.3433 18.659 15.3131 18.6377 15.2748C18.6163 15.2366 18.6081 15.1924 18.6143 15.149C18.6205 15.1056 18.6408 15.0655 18.6721 15.0348L19.1297 14.5856L18.9121 14.7108C18.8691 14.7354 18.8185 14.7431 18.7701 14.7326C18.7217 14.722 18.6789 14.6939 18.6501 14.6536C18.6213 14.6133 18.6084 14.5638 18.614 14.5145C18.6196 14.4653 18.6433 14.4199 18.6805 14.3872L18.8129 14.272C18.7819 14.2716 18.7514 14.2642 18.7237 14.2503C18.696 14.2365 18.6718 14.2165 18.6529 14.192C18.6232 14.1536 18.6085 14.1057 18.6115 14.0573C18.6145 14.0089 18.6351 13.9632 18.6693 13.9288L19.1997 13.3996L18.9129 13.5652C18.8714 13.589 18.8229 13.5971 18.776 13.5882C18.7291 13.5793 18.6869 13.5539 18.6571 13.5166C18.6273 13.4793 18.6118 13.4325 18.6134 13.3848C18.6151 13.3371 18.6337 13.2915 18.6661 13.2564L19.3477 12.5196L18.9117 12.7712C18.8691 12.7949 18.8193 12.8023 18.7717 12.7919C18.7241 12.7815 18.6819 12.7541 18.653 12.7148C18.6242 12.6755 18.6107 12.627 18.6151 12.5785C18.6195 12.5299 18.6414 12.4847 18.6769 12.4512L18.8913 12.2568C18.8497 12.2748 18.8032 12.2782 18.7594 12.2664C18.7157 12.2545 18.6772 12.2282 18.6504 12.1917C18.6236 12.1551 18.61 12.1106 18.6118 12.0653C18.6136 12.02 18.6308 11.9767 18.6605 11.9424L19.4677 11.008L18.9117 11.328C18.8691 11.3511 18.8196 11.358 18.7724 11.3474C18.7251 11.3368 18.6833 11.3094 18.6547 11.2703C18.6262 11.2312 18.6127 11.1831 18.6169 11.1348C18.6212 11.0866 18.6427 11.0415 18.6777 11.008L18.8701 10.8344C18.8283 10.8471 18.7836 10.8458 18.7426 10.8308C18.7017 10.8157 18.6668 10.7876 18.6433 10.7509C18.6198 10.7141 18.6089 10.6707 18.6124 10.6272C18.6158 10.5837 18.6334 10.5426 18.6625 10.51L19.4153 9.66559L18.9117 9.95638C18.8706 9.97993 18.8226 9.98819 18.7761 9.97967C18.7296 9.97116 18.6876 9.94644 18.6575 9.9099C18.6275 9.87335 18.6114 9.82735 18.6121 9.78006C18.6128 9.73277 18.6302 9.68725 18.6613 9.65158L19.4469 8.75278L18.9117 9.06158C18.8698 9.08544 18.8207 9.09338 18.7735 9.08394C18.7262 9.07451 18.684 9.04833 18.6545 9.01022C18.625 8.97212 18.6102 8.92465 18.613 8.87654C18.6157 8.82844 18.6357 8.78293 18.6693 8.74838L19.2197 8.18839L18.9117 8.36559C18.8697 8.38836 18.8211 8.39541 18.7744 8.38546C18.7278 8.3755 18.6862 8.34921 18.6573 8.31131C18.6283 8.27341 18.6138 8.22641 18.6165 8.17879C18.6191 8.13116 18.6387 8.08605 18.6717 8.05158L19.1869 7.53398L18.9133 7.69398C18.8716 7.71806 18.8226 7.72631 18.7754 7.71722C18.7281 7.70812 18.6857 7.6823 18.656 7.64448C18.6262 7.60665 18.6111 7.55937 18.6134 7.5113C18.6157 7.46324 18.6352 7.41761 18.6685 7.38278L19.2921 6.72798L18.9133 6.94598C18.8713 6.96876 18.8227 6.97581 18.776 6.96586C18.7294 6.9559 18.6878 6.92961 18.6589 6.89171C18.6299 6.85381 18.6154 6.80681 18.6181 6.75919C18.6207 6.71156 18.6403 6.66645 18.6733 6.63198L19.1933 6.10798L18.9133 6.26798C18.8703 6.29281 18.8197 6.30082 18.7713 6.29044C18.7228 6.28007 18.6799 6.25207 18.6509 6.21186C18.6219 6.17165 18.6089 6.1221 18.6143 6.07283C18.6198 6.02355 18.6433 5.97806 18.6805 5.94518L18.8433 5.80038C18.8023 5.80661 18.7605 5.8 18.7235 5.78145C18.6865 5.7629 18.6562 5.73334 18.6367 5.69683C18.6172 5.66031 18.6095 5.61866 18.6147 5.5776C18.6199 5.53654 18.6377 5.4981 18.6657 5.46758L19.3677 4.70078L18.9117 4.95958C18.8698 4.98342 18.8208 4.99138 18.7736 4.98199C18.7264 4.9726 18.6841 4.94649 18.6546 4.90846C18.6251 4.87044 18.6103 4.82304 18.6129 4.77497C18.6155 4.7269 18.6354 4.68139 18.6689 4.64678L19.2289 4.07558L18.9133 4.25798C18.8719 4.28175 18.8234 4.28994 18.7765 4.28107C18.7296 4.27221 18.6874 4.24687 18.6576 4.20964C18.6277 4.17241 18.6122 4.12574 18.6138 4.07805C18.6153 4.03036 18.6339 3.9848 18.6661 3.94958L19.3613 3.18958L18.9133 3.44838C18.8707 3.47211 18.8209 3.47948 18.7733 3.4691C18.7257 3.45871 18.6835 3.4313 18.6546 3.392C18.6258 3.35271 18.6123 3.30423 18.6167 3.25569C18.6211 3.20715 18.643 3.16188 18.6785 3.12838L18.8889 2.93758C18.8463 2.95497 18.799 2.95716 18.7551 2.94379C18.7111 2.93042 18.673 2.9023 18.6473 2.86418C18.6217 2.82605 18.6099 2.78023 18.614 2.73445C18.6182 2.68866 18.638 2.64569 18.6701 2.61278L18.8301 2.44838C18.7973 2.45109 18.7645 2.44571 18.7343 2.43271C18.7042 2.4197 18.6777 2.39948 18.6572 2.37383C18.6368 2.34817 18.6229 2.31788 18.6169 2.2856C18.6109 2.25333 18.613 2.22008 18.6229 2.18878L18.7141 1.90038C18.6834 1.88253 18.6579 1.85703 18.6401 1.82638C18.6135 1.78045 18.6063 1.72586 18.6201 1.67462C18.6338 1.62339 18.6673 1.57971 18.7133 1.55318L18.9161 1.43638C18.951 1.41611 18.9913 1.40691 19.0316 1.40998C19.0719 1.41305 19.1103 1.42825 19.1418 1.45358C19.1732 1.47892 19.1963 1.51319 19.2079 1.55189C19.2195 1.59059 19.2192 1.6319 19.2069 1.67038L19.1597 1.81838L19.8329 1.42958C19.8746 1.40576 19.9236 1.39779 19.9708 1.40713C20.018 1.41648 20.0602 1.44251 20.0897 1.48046C20.1193 1.51842 20.1342 1.56574 20.1317 1.61378C20.1291 1.66181 20.1094 1.70732 20.0761 1.74198L19.9649 1.85638L20.2897 1.66918C20.3322 1.64545 20.382 1.63809 20.4296 1.64847C20.4772 1.65885 20.5194 1.68627 20.5483 1.72556C20.5771 1.76486 20.5906 1.81334 20.5862 1.86188C20.5818 1.91042 20.5599 1.95569 20.5245 1.98918L20.3141 2.17998C20.3561 2.16305 20.4026 2.16087 20.446 2.17381C20.4894 2.18674 20.5271 2.21403 20.553 2.25119C20.5789 2.28836 20.5914 2.33321 20.5884 2.37841C20.5855 2.4236 20.5673 2.46647 20.5369 2.49998L19.8397 3.25998L20.2889 2.99958C20.3307 2.97574 20.3797 2.96779 20.4269 2.97718C20.4741 2.98657 20.5164 3.01268 20.5459 3.0507C20.5754 3.08873 20.5902 3.13613 20.5876 3.1842C20.585 3.23227 20.5651 3.27778 20.5317 3.31238L19.9737 3.88478L20.2893 3.70278C20.3306 3.67902 20.3791 3.6708 20.4259 3.67962C20.4728 3.68844 20.5149 3.7137 20.5448 3.75086C20.5747 3.78802 20.5903 3.83464 20.5888 3.88229C20.5874 3.92995 20.5689 3.97552 20.5369 4.01078L19.8349 4.77718L20.2897 4.51518C20.3326 4.49036 20.3832 4.48235 20.4316 4.49272C20.4801 4.50309 20.523 4.5311 20.552 4.57131C20.581 4.61152 20.5941 4.66107 20.5886 4.71034C20.5831 4.75962 20.5596 4.8051 20.5225 4.83798L20.3593 4.98278C20.3947 4.97757 20.4308 4.98182 20.464 4.9951C20.4973 5.00838 20.5264 5.03021 20.5485 5.05838C20.5781 5.09683 20.5927 5.14472 20.5896 5.19315C20.5865 5.24157 20.5659 5.28722 20.5317 5.32158L20.0117 5.84518L20.2917 5.68518C20.3333 5.6614 20.382 5.65335 20.4291 5.66251C20.4762 5.67167 20.5184 5.69742 20.548 5.73507C20.5777 5.77273 20.5928 5.81979 20.5907 5.86768C20.5886 5.91556 20.5693 5.9611 20.5365 5.99598L19.9133 6.65078L20.2921 6.43238C20.334 6.40961 20.3826 6.40256 20.4293 6.41251C20.4759 6.42247 20.5175 6.44876 20.5465 6.48666C20.5754 6.52456 20.5899 6.57156 20.5872 6.61918C20.5846 6.66681 20.565 6.71192 20.5321 6.74638L20.0161 7.26638L20.2909 7.10838C20.3327 7.08453 20.3818 7.07659 20.429 7.08603C20.4763 7.09546 20.5185 7.12164 20.548 7.15974C20.5775 7.19785 20.5923 7.24532 20.5896 7.29342C20.5868 7.34153 20.5668 7.38704 20.5333 7.42158L19.9833 7.98158L20.2909 7.80398C20.3319 7.78044 20.3799 7.77218 20.4264 7.78069C20.473 7.78921 20.515 7.81393 20.545 7.85047C20.575 7.88702 20.5911 7.93302 20.5904 7.98031C20.5897 8.0276 20.5723 8.07312 20.5413 8.10879L19.7557 9.00798L20.2913 8.69838C20.3324 8.67434 20.3809 8.6658 20.4278 8.67431C20.4747 8.68282 20.517 8.70781 20.5472 8.74478C20.5773 8.78176 20.5932 8.82827 20.592 8.87595C20.5909 8.92362 20.5727 8.96932 20.5409 9.00479L19.7885 9.84838L20.2917 9.55799C20.3342 9.53487 20.3837 9.52797 20.4309 9.53858C20.4782 9.54919 20.52 9.57658 20.5486 9.61567C20.5772 9.65476 20.5906 9.70289 20.5864 9.75113C20.5822 9.79937 20.5606 9.84445 20.5257 9.87799L20.3341 10.0512C20.3756 10.0386 20.42 10.0398 20.4608 10.0547C20.5015 10.0696 20.5363 10.0973 20.5599 10.1337C20.5835 10.1701 20.5947 10.2132 20.5917 10.2564C20.5887 10.2997 20.5717 10.3408 20.5433 10.3736L19.7369 11.308L20.2925 10.988C20.335 10.9643 20.3848 10.9569 20.4324 10.9673C20.48 10.9777 20.5222 11.0051 20.5511 11.0444C20.5799 11.0837 20.5934 11.1321 20.589 11.1807C20.5846 11.2292 20.5627 11.2745 20.5273 11.308L20.3133 11.5028C20.3555 11.484 20.4029 11.4804 20.4475 11.4926C20.4921 11.5048 20.5311 11.5321 20.5578 11.5698C20.5845 11.6075 20.5974 11.6534 20.5941 11.6995C20.5909 11.7456 20.5718 11.7892 20.5401 11.8228L19.8577 12.5596L20.2933 12.308C20.3352 12.2835 20.3847 12.2751 20.4323 12.2844C20.48 12.2937 20.5227 12.32 20.5524 12.3585C20.5821 12.3969 20.5968 12.4449 20.5937 12.4934C20.5906 12.5419 20.57 12.5876 20.5357 12.622L20.0077 13.1524L20.2941 12.9868C20.337 12.9622 20.3876 12.9544 20.436 12.965C20.4844 12.9756 20.5272 13.0037 20.556 13.044C20.5848 13.0843 20.5977 13.1338 20.5921 13.183C20.5865 13.2322 20.5628 13.2776 20.5257 13.3104L20.3933 13.4256C20.4548 13.4309 20.5121 13.4595 20.5533 13.5056C20.5827 13.5443 20.5969 13.5925 20.5934 13.641C20.5899 13.6895 20.5688 13.7351 20.5341 13.7692L20.0757 14.2188L20.2941 14.0928C20.3366 14.07 20.3859 14.0633 20.433 14.074C20.4801 14.0847 20.5217 14.1121 20.5502 14.1511C20.5786 14.1901 20.592 14.2381 20.5879 14.2862C20.5837 14.3342 20.5624 14.3792 20.5277 14.4128L20.3461 14.5756C20.3876 14.5651 20.4315 14.5683 20.4711 14.5847C20.5108 14.6011 20.5441 14.6297 20.5662 14.6665C20.5883 14.7033 20.598 14.7461 20.5939 14.7888C20.5897 14.8315 20.572 14.8718 20.5433 14.9036L19.7949 15.7396L20.2949 15.4508C20.3374 15.4271 20.3872 15.4197 20.4348 15.4301C20.4824 15.4405 20.5246 15.4679 20.5535 15.5072C20.5823 15.5465 20.5958 15.5949 20.5914 15.6435C20.587 15.692 20.5651 15.7373 20.5297 15.7708L20.3101 15.9708C20.352 15.9512 20.3994 15.9468 20.4443 15.9583C20.4891 15.9697 20.5286 15.9964 20.5559 16.0338C20.5833 16.0711 20.5969 16.1167 20.5943 16.163C20.5918 16.2092 20.5733 16.2531 20.5421 16.2872L19.8517 17.0396L20.2965 16.7828C20.3391 16.7564 20.39 16.747 20.4393 16.7564C20.4885 16.7659 20.5324 16.7934 20.5622 16.8336C20.5921 16.8739 20.6058 16.9239 20.6006 16.9737C20.5954 17.0235 20.5716 17.0696 20.5341 17.1028L20.1801 17.438L20.2969 17.3708C20.3398 17.3463 20.3903 17.3385 20.4386 17.3491C20.487 17.3596 20.5297 17.3877 20.5585 17.4278C20.5873 17.468 20.6003 17.5175 20.5948 17.5666C20.5893 17.6158 20.5658 17.6611 20.5289 17.694L20.3857 17.82C20.4172 17.8175 20.4489 17.8229 20.478 17.8356C20.507 17.8483 20.5324 17.8679 20.5521 17.8928C20.582 17.9294 20.598 17.9755 20.5972 18.0228C20.5964 18.0701 20.5788 18.1156 20.5477 18.1512L19.7597 19.0504L20.2993 18.7392C20.3422 18.7146 20.3928 18.7068 20.4412 18.7174C20.4896 18.728 20.5324 18.7561 20.5612 18.7964C20.59 18.8367 20.6029 18.8862 20.5973 18.9354C20.5917 18.9846 20.568 19.03 20.5309 19.0628L20.3953 19.1828C20.4271 19.1815 20.4588 19.1882 20.4875 19.2022C20.5162 19.2161 20.541 19.2369 20.5597 19.2628C20.589 19.3018 20.6031 19.3503 20.5992 19.399C20.5953 19.4477 20.5737 19.4933 20.5385 19.5272L20.1385 19.9108L20.2985 19.8184C20.3414 19.7936 20.392 19.7856 20.4404 19.7959C20.4889 19.8063 20.5318 19.8343 20.5608 19.8745C20.5898 19.9147 20.6029 19.9643 20.5974 20.0135C20.5919 20.0628 20.5684 20.1083 20.5313 20.1412L20.3661 20.288C20.4022 20.282 20.4393 20.286 20.4733 20.2996C20.5073 20.3132 20.5369 20.3359 20.5589 20.3652C20.5882 20.4044 20.6022 20.453 20.5982 20.5018C20.5941 20.5506 20.5723 20.5962 20.5369 20.63L20.1601 20.99L20.2993 20.91C20.3386 20.8874 20.3844 20.8788 20.4292 20.8857C20.4741 20.8926 20.5152 20.9145 20.546 20.9478C20.5767 20.9812 20.5952 21.024 20.5984 21.0692C20.6016 21.1144 20.5894 21.1594 20.5637 21.1968L20.1597 21.7748L20.2989 21.6948C20.3448 21.6687 20.3991 21.6618 20.4501 21.6756C20.5011 21.6895 20.5445 21.7229 20.5709 21.7686C20.5973 21.8144 20.6046 21.8687 20.5911 21.9198C20.5776 21.9708 20.5444 22.0145 20.4989 22.0412L19.5877 22.5676C19.5573 22.5853 19.5228 22.5946 19.4877 22.5944Z" fill="#543424"/>
<path d="M8.11285 20.9996C8.06946 21.0004 8.02701 20.9869 7.99191 20.9614C7.95682 20.9359 7.93097 20.8996 7.91828 20.8581C7.90559 20.8166 7.90675 20.7721 7.92157 20.7314C7.93639 20.6906 7.96408 20.6557 8.00045 20.632L11.2577 18.4396L6.91245 20.9496C6.86719 20.9762 6.81332 20.9838 6.76245 20.971C6.71158 20.9582 6.66779 20.9259 6.6405 20.8811C6.61322 20.8363 6.60464 20.7826 6.6166 20.7315C6.62856 20.6804 6.66011 20.6361 6.70445 20.608L8.68845 19.3332L6.91245 20.3596C6.86764 20.3845 6.81501 20.3911 6.76542 20.3783C6.71582 20.3655 6.67305 20.3341 6.64591 20.2906C6.61878 20.2472 6.60935 20.195 6.61957 20.1448C6.62979 20.0946 6.65888 20.0502 6.70085 20.0208L10.4289 17.5104L6.91245 19.5396C6.86742 19.5657 6.81399 19.5733 6.7635 19.5606C6.71302 19.548 6.66945 19.5161 6.64206 19.4719C6.61467 19.4276 6.60562 19.3744 6.61682 19.3236C6.62802 19.2727 6.65859 19.2283 6.70205 19.1996L9.30525 17.4748L6.91245 18.8564C6.8676 18.882 6.81461 18.8892 6.76455 18.8766C6.7145 18.864 6.67126 18.8325 6.64388 18.7888C6.6165 18.745 6.60709 18.6924 6.61764 18.6418C6.62818 18.5913 6.65785 18.5468 6.70045 18.5176L9.43165 16.6696L6.93485 18.1096C6.8898 18.1341 6.83708 18.1403 6.78757 18.127C6.73807 18.1137 6.69556 18.0819 6.66882 18.0382C6.64207 17.9945 6.63314 17.9421 6.64387 17.892C6.65459 17.8419 6.68416 17.7978 6.72645 17.7688L6.95125 17.6236C6.90545 17.6343 6.85737 17.6284 6.81544 17.6071C6.77352 17.5858 6.74044 17.5505 6.72201 17.5072C6.70358 17.464 6.70098 17.4156 6.71467 17.3706C6.72835 17.3256 6.75745 17.2869 6.79685 17.2612L7.26405 16.9568L7.14965 17.0228C7.10494 17.0477 7.05239 17.0545 7.00283 17.0418C6.95327 17.0291 6.91045 16.9979 6.88319 16.9546C6.85594 16.9113 6.84631 16.8592 6.85629 16.809C6.86627 16.7589 6.8951 16.7144 6.93685 16.6848L8.86485 15.3648L7.51725 16.1436C7.4729 16.1695 7.4203 16.1773 7.37034 16.1655C7.32038 16.1536 7.27689 16.123 7.24887 16.08C7.22085 16.037 7.21046 15.9848 7.21984 15.9344C7.22921 15.8839 7.25765 15.8389 7.29925 15.8088L10.0741 13.7836L9.08645 14.3536C9.04206 14.3791 8.9896 14.3866 8.93986 14.3746C8.89012 14.3625 8.84689 14.3319 8.81906 14.2889C8.79123 14.246 8.78092 14.194 8.79026 14.1437C8.79959 14.0934 8.82787 14.0485 8.86925 14.0184L10.6949 12.6984C10.6451 12.6862 10.6021 12.655 10.5749 12.6116C10.5472 12.5682 10.5374 12.5157 10.5474 12.4652C10.5575 12.4147 10.5867 12.37 10.6288 12.3404L12.1489 11.2792L10.9029 11.9996C10.8579 12.0257 10.8046 12.0332 10.7543 12.0207C10.7039 12.0081 10.6604 11.9765 10.6329 11.9325C10.6054 11.8884 10.5961 11.8354 10.607 11.7846C10.6179 11.7339 10.6481 11.6893 10.6913 11.6604L11.6537 11.014L10.7953 11.5092C10.7509 11.5338 10.6988 11.5405 10.6496 11.5281C10.6004 11.5157 10.5578 11.4851 10.5303 11.4424C10.5029 11.3998 10.4927 11.3483 10.5017 11.2984C10.5108 11.2485 10.5385 11.2039 10.5793 11.1736L13.5033 9.09363L10.4169 10.8756C10.3723 10.9009 10.3197 10.9081 10.2699 10.8958C10.2202 10.8834 10.1771 10.8524 10.1495 10.8092C10.122 10.766 10.1121 10.7139 10.1218 10.6635C10.1316 10.6132 10.1603 10.5686 10.2021 10.5388L13.3689 8.31483L9.75685 10.3996C9.71187 10.4277 9.65756 10.4368 9.60588 10.4249C9.55419 10.413 9.50936 10.381 9.48125 10.336C9.45314 10.2911 9.44404 10.2367 9.45597 10.1851C9.4679 10.1334 9.49987 10.0885 9.54485 10.0604L12.2849 8.21523L9.13965 10.0308C9.09476 10.0574 9.04126 10.0654 8.99056 10.0531C8.93985 10.0408 8.89596 10.0092 8.86825 9.965C8.84054 9.9208 8.83119 9.86751 8.84222 9.81651C8.85324 9.76552 8.88375 9.72085 8.92725 9.69203L12.5097 7.26203L8.54725 9.54963C8.50219 9.57525 8.44895 9.58237 8.39874 9.5695C8.34853 9.55663 8.30528 9.52477 8.2781 9.48063C8.25093 9.43649 8.24194 9.38353 8.25305 9.3329C8.26416 9.28228 8.29449 9.23794 8.33765 9.20923L11.3717 7.21203L8.11525 9.09203C8.07054 9.1169 8.01799 9.12369 7.96843 9.11099C7.91887 9.0983 7.87605 9.0671 7.84879 9.0238C7.82154 8.98051 7.81191 8.92841 7.82189 8.87823C7.83187 8.82805 7.8607 8.7836 7.90245 8.75403L11.9381 5.99403L7.66485 8.45963C7.61976 8.48483 7.56667 8.4916 7.5167 8.47853C7.46672 8.46546 7.42374 8.43357 7.39676 8.38952C7.36978 8.34548 7.36088 8.2927 7.37193 8.24225C7.38298 8.19179 7.41313 8.14757 7.45605 8.11883L8.79205 7.25283L7.43405 8.03683C7.38899 8.06245 7.33575 8.06957 7.28554 8.0567C7.23533 8.04383 7.19208 8.01197 7.1649 7.96783C7.13773 7.92369 7.12874 7.87073 7.13985 7.8201C7.15096 7.76948 7.18129 7.72514 7.22445 7.69643L8.44245 6.89643L7.24245 7.59003C7.1975 7.6156 7.14439 7.62277 7.09427 7.61002C7.04415 7.59727 7.00091 7.56561 6.97364 7.52167C6.94637 7.47773 6.93717 7.42493 6.94799 7.37436C6.9588 7.32379 6.98879 7.27937 7.03165 7.25043L8.04805 6.57563L7.09565 7.12523C7.05153 7.15015 6.9996 7.15739 6.95035 7.14549C6.9011 7.13359 6.8582 7.10345 6.83032 7.06114C6.80243 7.01883 6.79165 6.96752 6.80014 6.91757C6.80863 6.86762 6.83576 6.82275 6.87605 6.79203L9.19165 5.05963L6.95165 6.35403C6.90694 6.38005 6.85389 6.38773 6.80363 6.37547C6.75338 6.3632 6.70983 6.33194 6.68214 6.28825C6.65444 6.24456 6.64475 6.19183 6.6551 6.14115C6.66545 6.09047 6.69504 6.04577 6.73765 6.01643L7.09085 5.77163L6.91965 5.87003C6.87517 5.89541 6.82265 5.90275 6.77291 5.89055C6.72317 5.87835 6.68001 5.84754 6.65232 5.80446C6.62462 5.76138 6.61451 5.70933 6.62406 5.65901C6.63361 5.6087 6.6621 5.56397 6.70365 5.53403L6.86365 5.42043C6.8243 5.42953 6.78315 5.42678 6.74535 5.41255C6.70756 5.39831 6.67482 5.37322 6.65125 5.34043C6.62272 5.2988 6.61098 5.24791 6.6184 5.19798C6.62582 5.14805 6.65184 5.10278 6.69125 5.07123L7.14205 4.71123L6.91605 4.84203C6.87343 4.86795 6.82267 4.87701 6.77372 4.86743C6.72477 4.85785 6.68116 4.83032 6.65146 4.79025C6.62176 4.75018 6.6081 4.70045 6.61317 4.65083C6.61823 4.60121 6.64166 4.55527 6.67885 4.52203L6.98445 4.23243L6.91605 4.27243C6.88239 4.29178 6.84383 4.30091 6.80506 4.29871C6.7663 4.29651 6.72902 4.28307 6.69776 4.26005C6.66651 4.23702 6.64263 4.20539 6.62904 4.16902C6.61546 4.13265 6.61275 4.09311 6.62125 4.05523L6.74365 3.51283C6.70114 3.49662 6.66562 3.46606 6.64325 3.42643C6.61682 3.38058 6.60965 3.32613 6.62329 3.27499C6.63694 3.22386 6.67029 3.18022 6.71605 3.15363L6.91605 3.03803C6.94972 3.01857 6.98833 3.00934 7.02717 3.01148C7.066 3.01362 7.10337 3.02703 7.13469 3.05008C7.16602 3.07313 7.18994 3.10481 7.20354 3.14125C7.21714 3.17769 7.21982 3.2173 7.21125 3.25523L7.10845 3.69803L8.25365 3.03683C8.29627 3.01047 8.34723 3.00107 8.39645 3.01049C8.44567 3.01991 8.48956 3.04746 8.51944 3.0877C8.54931 3.12793 8.56299 3.17792 8.55777 3.22776C8.55255 3.2776 8.52881 3.32366 8.49125 3.35683L8.18525 3.64603L9.24045 3.03563C9.28409 3.01086 9.33545 3.00339 9.38434 3.01471C9.43322 3.02604 9.47607 3.05532 9.50437 3.09677C9.53267 3.13821 9.54435 3.18878 9.53711 3.23843C9.52986 3.28809 9.50421 3.33321 9.46525 3.36483L9.01445 3.72483L10.2101 3.03443C10.2545 3.00906 10.3071 3.00171 10.3568 3.01391C10.4065 3.02611 10.4497 3.05693 10.4774 3.1C10.5051 3.14308 10.5152 3.19514 10.5056 3.24545C10.4961 3.29577 10.4676 3.3405 10.4261 3.37043L10.3313 3.43803L11.0321 3.03363C11.0768 3.00762 11.1298 2.99993 11.1801 3.0122C11.2303 3.02447 11.2739 3.05573 11.3016 3.09942C11.3293 3.14311 11.3389 3.19583 11.3286 3.24652C11.3182 3.2972 11.2887 3.3419 11.2461 3.37123L10.8953 3.61443L11.9041 3.03243C11.9482 3.00696 12.0004 2.9993 12.05 3.01101C12.0996 3.02272 12.1428 3.05293 12.1709 3.09546C12.199 3.13799 12.2098 3.18963 12.2011 3.23984C12.1924 3.29006 12.1648 3.33505 12.1241 3.36563L9.80845 5.09803L13.3893 3.03083C13.4343 3.00473 13.4877 2.9972 13.5382 3.00986C13.5887 3.02251 13.6323 3.05435 13.6596 3.09861C13.687 3.14287 13.6961 3.19607 13.6849 3.24689C13.6737 3.29772 13.6431 3.34219 13.5997 3.37083L12.5837 4.04483L14.3437 3.02963C14.3888 3.00262 14.4427 2.99445 14.4938 3.00691C14.5449 3.01937 14.589 3.05145 14.6166 3.09621C14.6442 3.14096 14.6531 3.19479 14.6413 3.24604C14.6295 3.29729 14.598 3.34184 14.5537 3.37003L13.3353 4.16763L15.3089 3.02843C15.3541 3.00074 15.4085 2.99216 15.4601 3.00458C15.5116 3.01699 15.5562 3.04939 15.5839 3.09463C15.6115 3.13988 15.6201 3.19427 15.6077 3.24584C15.5953 3.29742 15.5629 3.34194 15.5177 3.36963L14.1813 4.23563L16.2745 3.02723C16.3193 3.00123 16.3724 2.99362 16.4227 3.00603C16.473 3.01844 16.5166 3.04988 16.5441 3.09375C16.5717 3.13761 16.5812 3.19046 16.5706 3.24118C16.56 3.29189 16.5301 3.33651 16.4873 3.36563L12.4509 6.12563L17.0885 3.44923C17.1335 3.42362 17.1868 3.41649 17.237 3.42937C17.2872 3.44224 17.3304 3.4741 17.3576 3.51824C17.3848 3.56237 17.3938 3.61534 17.3826 3.66596C17.3715 3.71659 17.3412 3.76093 17.2981 3.78963L14.2625 5.78963L17.0885 4.15843C17.1332 4.1339 17.1856 4.12741 17.235 4.14027C17.2844 4.15313 17.327 4.18439 17.3541 4.22763C17.3812 4.27087 17.3907 4.32284 17.3807 4.37288C17.3708 4.42293 17.342 4.46727 17.3005 4.49683L13.7205 6.92483L17.0901 4.97923C17.135 4.9532 17.1883 4.94565 17.2386 4.95819C17.289 4.97073 17.3326 5.00237 17.36 5.04642C17.3875 5.09047 17.3968 5.14348 17.3859 5.19424C17.375 5.245 17.3448 5.28954 17.3017 5.31843L14.5605 7.16323L17.0777 5.71003C17.1222 5.68474 17.1748 5.67753 17.2246 5.68989C17.2743 5.70225 17.3174 5.73323 17.345 5.77644C17.3725 5.81966 17.3824 5.87181 17.3727 5.92212C17.3629 5.97244 17.3342 6.01708 17.2925 6.04683L14.1245 8.27163L16.9417 6.64523C16.9861 6.61986 17.0387 6.61252 17.0884 6.62471C17.1381 6.63691 17.1813 6.66773 17.209 6.7108C17.2367 6.75388 17.2468 6.80594 17.2372 6.85626C17.2277 6.90657 17.1992 6.9513 17.1577 6.98123L14.2377 9.06123L16.5501 7.72603C16.595 7.7 16.6483 7.69245 16.6986 7.70499C16.749 7.71753 16.7926 7.74917 16.82 7.79322C16.8475 7.83727 16.8568 7.89028 16.8459 7.94104C16.835 7.9918 16.8048 8.03634 16.7617 8.06523L15.7977 8.71283L16.0109 8.59003C16.0554 8.56474 16.108 8.55753 16.1578 8.56989C16.2075 8.58225 16.2506 8.61323 16.2782 8.65644C16.3057 8.69966 16.3156 8.75181 16.3059 8.80212C16.2961 8.85244 16.2674 8.89708 16.2257 8.92683L13.6432 10.7268C13.6667 10.742 13.6866 10.7621 13.7017 10.7856C13.7295 10.8287 13.7398 10.8808 13.7303 10.9312C13.7209 10.9816 13.6924 11.0264 13.6509 11.0564L12.2713 12.0536L13.1085 11.5704C13.1528 11.5446 13.2054 11.5367 13.2554 11.5486C13.3053 11.5604 13.3488 11.591 13.3768 11.6341C13.4048 11.6771 13.4152 11.7292 13.4059 11.7797C13.3965 11.8302 13.3681 11.8751 13.3265 11.9052L10.5517 13.9304L13.1813 12.4104C13.226 12.3856 13.2785 12.3788 13.3281 12.3915C13.3776 12.4042 13.4204 12.4354 13.4477 12.4787C13.475 12.522 13.4846 12.5741 13.4746 12.6242C13.4646 12.6744 13.4358 12.7189 13.3941 12.7484L11.4677 14.0684L13.4353 12.9324C13.4804 12.9062 13.534 12.8986 13.5846 12.9114C13.6353 12.9241 13.6789 12.9562 13.7062 13.0007C13.7336 13.0452 13.7424 13.0986 13.7308 13.1495C13.7193 13.2005 13.6883 13.2449 13.6445 13.2732L13.1797 13.576L13.7241 13.262C13.7692 13.2372 13.8221 13.2308 13.8719 13.244C13.9217 13.2573 13.9644 13.2892 13.9912 13.3332C14.018 13.3771 14.0268 13.4298 14.0158 13.4801C14.0048 13.5304 13.9748 13.5745 13.9321 13.6032L13.8521 13.6544L14.0921 13.5168C14.1369 13.4913 14.1899 13.484 14.2399 13.4967C14.29 13.5093 14.3332 13.5407 14.3606 13.5845C14.388 13.6283 14.3974 13.6809 14.3869 13.7314C14.3763 13.782 14.3466 13.8265 14.3041 13.8556L11.5757 15.7016L14.7317 13.8796C14.7767 13.8535 14.8301 13.846 14.8806 13.8587C14.9311 13.8713 14.9747 13.9032 15.002 13.9474C15.0294 13.9917 15.0385 14.0449 15.0273 14.0957C15.0161 14.1465 14.9855 14.191 14.9421 14.2196L12.3389 15.944L15.2473 14.264C15.2922 14.238 15.3455 14.2305 15.3958 14.243C15.4462 14.2555 15.4897 14.2872 15.5172 14.3312C15.5447 14.3753 15.554 14.4283 15.5431 14.479C15.5322 14.5298 15.502 14.5743 15.4589 14.6032L11.7309 17.1132L15.7753 14.7784C15.8205 14.7519 15.8744 14.7442 15.9252 14.7571C15.9761 14.7699 16.0199 14.8022 16.0472 14.847C16.0745 14.8918 16.0831 14.9455 16.0711 14.9966C16.0591 15.0477 16.0276 15.092 15.9833 15.12L13.9945 16.3996L16.1005 15.1836C16.1454 15.1576 16.1987 15.1501 16.249 15.1626C16.2994 15.1751 16.3429 15.2068 16.3704 15.2508C16.3979 15.2949 16.4072 15.3479 16.3963 15.3986C16.3854 15.4494 16.3552 15.4939 16.3121 15.5228L13.0561 17.7132L16.4589 15.7488C16.5036 15.7228 16.5566 15.7151 16.6069 15.7274C16.6571 15.7397 16.7007 15.7709 16.7284 15.8146C16.7561 15.8583 16.7657 15.911 16.7554 15.9617C16.745 16.0124 16.7155 16.0571 16.6729 16.0864L13.6961 18.1408L16.7489 16.3784C16.7938 16.3533 16.8468 16.3465 16.8967 16.3594C16.9466 16.3723 16.9896 16.404 17.0166 16.4479C17.0437 16.4917 17.0528 16.5444 17.0421 16.5948C17.0313 16.6452 17.0015 16.6895 16.9589 16.7184L16.0265 17.3352L16.8965 16.8332C16.9409 16.8079 16.9935 16.8005 17.0432 16.8127C17.0929 16.8249 17.1361 16.8557 17.1638 16.8988C17.1915 16.9419 17.2016 16.9939 17.192 17.0443C17.1825 17.0946 17.154 17.1393 17.1125 17.1692L15.2369 18.5024L17.0329 17.4656C17.0769 17.44 17.1291 17.4322 17.1787 17.4437C17.2283 17.4552 17.2717 17.4853 17.2999 17.5277C17.3282 17.5701 17.3391 17.6217 17.3306 17.672C17.3221 17.7222 17.2947 17.7673 17.2541 17.798L15.6293 19.0312L17.0873 18.1912C17.1312 18.1665 17.1828 18.1593 17.2318 18.171C17.2808 18.1827 17.3236 18.2125 17.3516 18.2544C17.3796 18.2963 17.3908 18.3472 17.3828 18.397C17.3749 18.4468 17.3485 18.4917 17.3089 18.5228L16.5628 19.0952L17.0913 18.7908C17.135 18.7658 17.1866 18.7582 17.2357 18.7695C17.2848 18.7809 17.3278 18.8103 17.3562 18.852C17.3845 18.8938 17.396 18.9446 17.3884 18.9945C17.3808 19.0443 17.3547 19.0894 17.3153 19.1208L17.1329 19.2644C17.1728 19.2516 17.2157 19.2516 17.2557 19.2645C17.2956 19.2774 17.3304 19.3025 17.3553 19.3363C17.3802 19.3701 17.3938 19.4108 17.3942 19.4528C17.3946 19.4947 17.3818 19.5357 17.3577 19.57L16.9409 20.1656L17.0977 20.0752C17.1204 20.0608 17.1459 20.051 17.1725 20.0467C17.1991 20.0423 17.2263 20.0433 17.2525 20.0498C17.2787 20.0562 17.3034 20.0678 17.3249 20.084C17.3465 20.1002 17.3646 20.1206 17.3781 20.1439C17.3916 20.1673 17.4002 20.1931 17.4035 20.2199C17.4067 20.2467 17.4045 20.2738 17.397 20.2997C17.3895 20.3256 17.3768 20.3498 17.3598 20.3706C17.3427 20.3915 17.3216 20.4087 17.2977 20.4212L16.3605 20.9616C16.3211 20.9841 16.2752 20.9926 16.2304 20.9856C16.1855 20.9786 16.1444 20.9566 16.1138 20.9231C16.0831 20.8897 16.0647 20.8468 16.0617 20.8015C16.0586 20.7563 16.071 20.7113 16.0969 20.674L16.5141 20.078L14.9801 20.9632C14.9363 20.9883 14.8847 20.9959 14.8356 20.9846C14.7865 20.9732 14.7435 20.9437 14.7151 20.902C14.6868 20.8603 14.6753 20.8094 14.6829 20.7596C14.6905 20.7098 14.7166 20.6646 14.7561 20.6332L14.9117 20.5104L14.1253 20.9644C14.0813 20.9897 14.0294 20.9973 13.9801 20.9857C13.9308 20.9742 13.8877 20.9443 13.8595 20.9022C13.8313 20.8601 13.8201 20.8089 13.8283 20.7589C13.8364 20.7089 13.8632 20.6638 13.9033 20.6328L14.6485 20.0596L13.0805 20.9656C13.0364 20.9907 12.9845 20.9981 12.9352 20.9864C12.886 20.9747 12.843 20.9447 12.8149 20.9025C12.7869 20.8603 12.7759 20.809 12.7842 20.759C12.7925 20.7091 12.8195 20.6641 12.8597 20.6332L14.4837 19.3996L11.7677 20.9676C11.7232 20.993 11.6706 21.0004 11.6209 20.9882C11.5712 20.976 11.528 20.9451 11.5003 20.9021C11.4726 20.859 11.4625 20.8069 11.4721 20.7566C11.4816 20.7063 11.5101 20.6616 11.5517 20.6316L13.4289 19.2972L10.5333 20.9688C10.4883 20.994 10.4353 21.0008 10.3854 20.9879C10.3355 20.9749 10.2925 20.9432 10.2655 20.8994C10.2384 20.8555 10.2293 20.8029 10.24 20.7525C10.2508 20.7021 10.2806 20.6578 10.3233 20.6288L11.2524 20.014L9.59645 20.97C9.55177 20.9953 9.49911 21.0024 9.44934 20.9898C9.39958 20.9773 9.35654 20.9462 9.3291 20.9028C9.30167 20.8595 9.29195 20.8072 9.30195 20.7569C9.31196 20.7066 9.34092 20.662 9.38285 20.6324L12.3605 18.5768L8.21285 20.9712C8.18265 20.9895 8.14812 20.9993 8.11285 20.9996Z" fill="#E1EFFF"/>
<path d="M9.4798 3.78829C9.43783 3.78829 9.39691 3.77508 9.36286 3.75054C9.32881 3.72599 9.30334 3.69135 9.29006 3.65153C9.27679 3.61171 9.27638 3.56872 9.2889 3.52865C9.30141 3.48859 9.32622 3.45347 9.3598 3.42829L9.3822 3.41149L8.7766 3.76029C8.73371 3.78438 8.68344 3.79182 8.63541 3.78119C8.58738 3.77055 8.54496 3.74259 8.51624 3.70264C8.48753 3.66269 8.47455 3.61356 8.47978 3.56465C8.48502 3.51573 8.50809 3.47046 8.5446 3.43749L9.2846 2.78629L7.5966 3.76029C7.55429 3.78576 7.50405 3.79468 7.45556 3.78532C7.40707 3.77597 7.36375 3.749 7.33395 3.70962C7.30415 3.67023 7.28998 3.62122 7.29416 3.57201C7.29834 3.5228 7.32058 3.47688 7.3566 3.44309L8.2346 2.60029L6.2658 3.73549C6.22418 3.75927 6.17541 3.76732 6.12836 3.75816C6.0813 3.74901 6.0391 3.72325 6.00944 3.6856C5.97978 3.64794 5.96463 3.60088 5.96676 3.553C5.96888 3.50511 5.98813 3.45957 6.021 3.42469L6.923 2.48029L5.543 3.27709C5.50117 3.30122 5.45202 3.3094 5.40463 3.30012C5.35724 3.29085 5.31481 3.26473 5.28516 3.22661C5.25552 3.18849 5.24068 3.14092 5.24337 3.09271C5.24606 3.04449 5.2661 2.99888 5.2998 2.96429L5.745 2.50709L5.325 2.74909C5.29178 2.76828 5.25375 2.77751 5.21543 2.77568C5.17712 2.77386 5.14013 2.76105 5.10889 2.73879C5.07765 2.71653 5.05347 2.68575 5.03924 2.65013C5.025 2.61451 5.02131 2.57555 5.0286 2.53789L5.1486 1.91909C5.11205 1.90693 5.07979 1.88448 5.0557 1.85444C5.0316 1.82439 5.01669 1.78802 5.01276 1.74971C5.00883 1.71139 5.01605 1.67276 5.03355 1.63845C5.05105 1.60414 5.07808 1.57561 5.1114 1.55629L5.3114 1.44069C5.34462 1.4215 5.38265 1.41227 5.42097 1.41409C5.45928 1.41592 5.49627 1.42872 5.52751 1.45098C5.55875 1.47324 5.58293 1.50402 5.59717 1.53964C5.6114 1.57526 5.61509 1.61423 5.6078 1.65189L5.5046 2.18349L6.7938 1.43949C6.83559 1.41537 6.88469 1.40717 6.93204 1.41641C6.9794 1.42564 7.02182 1.45168 7.05149 1.48973C7.08116 1.52777 7.09607 1.57526 7.09348 1.62344C7.09089 1.67162 7.07098 1.71724 7.0374 1.75189L6.5934 2.20749L7.9282 1.43669C7.96982 1.4129 8.0186 1.40485 8.06565 1.41401C8.1127 1.42317 8.1549 1.44892 8.18456 1.48658C8.21422 1.52423 8.22937 1.57129 8.22725 1.61918C8.22513 1.66707 8.20588 1.7126 8.173 1.74749L7.271 2.69309L9.4502 1.43549C9.49251 1.41001 9.54275 1.4011 9.59124 1.41045C9.63974 1.41981 9.68305 1.44677 9.71285 1.48616C9.74265 1.52554 9.75682 1.57456 9.75264 1.62376C9.74846 1.67297 9.72622 1.7189 9.6902 1.75269L8.8122 2.59789L10.8278 1.43429C10.8707 1.40977 10.9213 1.40203 10.9696 1.41256C11.0179 1.4231 11.0606 1.45117 11.0894 1.49134C11.1183 1.53152 11.1312 1.58096 11.1257 1.63011C11.1203 1.67926 11.0968 1.72464 11.0598 1.75749L10.3198 2.40869L12.0094 1.43309C12.0535 1.40783 12.1055 1.4003 12.155 1.41202C12.2044 1.42374 12.2475 1.45383 12.2756 1.49619C12.3036 1.53855 12.3145 1.59 12.306 1.64009C12.2975 1.69018 12.2703 1.73516 12.2298 1.76589L12.2078 1.78229L12.8146 1.43229C12.8577 1.40721 12.9085 1.39911 12.9572 1.40956C13.0059 1.42002 13.049 1.44827 13.078 1.4888C13.1069 1.52934 13.1197 1.57922 13.1139 1.6287C13.108 1.67817 13.0839 1.72367 13.0462 1.75629L12.3234 2.38749L13.979 1.43149C14.0227 1.40608 14.0744 1.39817 14.1237 1.40934C14.173 1.42052 14.2163 1.44994 14.2447 1.49171C14.2732 1.53347 14.2848 1.58447 14.2772 1.63445C14.2696 1.68442 14.2434 1.72967 14.2038 1.76109L13.8162 2.06909L14.9226 1.42909C14.966 1.40415 15.0171 1.39637 15.0659 1.40729C15.1147 1.4182 15.1577 1.44701 15.1863 1.48803C15.2149 1.52906 15.2271 1.57932 15.2205 1.6289C15.2139 1.67849 15.189 1.72379 15.1506 1.75589L14.5562 2.25189L15.9834 1.42789C16.0271 1.40297 16.0786 1.39543 16.1276 1.40677C16.1766 1.41811 16.2195 1.44749 16.2478 1.48907C16.2761 1.53064 16.2877 1.58135 16.2803 1.6311C16.2729 1.68084 16.247 1.72597 16.2078 1.75749L15.8374 2.05149L16.9174 1.42709C16.9605 1.40224 17.0114 1.39437 17.06 1.40502C17.1086 1.41567 17.1516 1.44407 17.1804 1.48468C17.2092 1.52528 17.2218 1.57516 17.2158 1.62458C17.2097 1.67399 17.1855 1.71939 17.1478 1.75189L16.4514 2.35549L18.0582 1.42749C18.1008 1.40437 18.1502 1.39748 18.1975 1.40808C18.2447 1.41869 18.2865 1.44608 18.3151 1.48517C18.3437 1.52426 18.3571 1.57239 18.3529 1.62063C18.3487 1.66887 18.3271 1.71395 18.2922 1.74749L17.4922 2.46749L18.6878 1.78149C18.729 1.75771 18.7774 1.74942 18.8241 1.75808C18.8709 1.76675 18.9131 1.79181 18.9431 1.82876C18.973 1.86572 18.9888 1.91215 18.9877 1.95972C18.9865 2.00728 18.9684 2.05287 18.9366 2.08829L18.3082 2.78989L18.623 2.60869C18.6687 2.58478 18.7219 2.57945 18.7714 2.59382C18.821 2.6082 18.863 2.64115 18.8889 2.68581C18.9147 2.73048 18.9222 2.78338 18.91 2.83349C18.8977 2.88359 18.8665 2.92701 18.823 2.95469L17.425 3.76029C17.3838 3.7838 17.3356 3.79193 17.289 3.78321C17.2424 3.77449 17.2004 3.7495 17.1706 3.71269C17.1407 3.67588 17.1248 3.62965 17.1259 3.58225C17.1269 3.53485 17.1447 3.48935 17.1762 3.45389L17.8042 2.75269L16.0582 3.76029C16.0157 3.78311 15.9663 3.78978 15.9192 3.77907C15.8722 3.76835 15.8306 3.74097 15.8021 3.70198C15.7736 3.66299 15.7602 3.61502 15.7644 3.56692C15.7685 3.51882 15.7899 3.47385 15.8246 3.44029L16.6246 2.71829L14.8162 3.76029C14.7731 3.78466 14.7225 3.7922 14.6742 3.78143C14.6259 3.77067 14.5833 3.74238 14.5547 3.70203C14.526 3.66168 14.5133 3.61213 14.5191 3.56297C14.5248 3.51381 14.5486 3.46853 14.5858 3.43589L15.2842 2.83349L13.6798 3.76029C13.6361 3.78475 13.5849 3.79195 13.5361 3.78046C13.4874 3.76897 13.4448 3.73962 13.4166 3.69822C13.3885 3.65682 13.3769 3.60636 13.3842 3.55683C13.3914 3.5073 13.417 3.46229 13.4558 3.43069L13.8258 3.13749L12.7442 3.76029C12.7009 3.78471 12.6501 3.79212 12.6016 3.78109C12.5531 3.77005 12.5105 3.74136 12.482 3.70061C12.4535 3.65985 12.4413 3.60995 12.4476 3.56064C12.4539 3.51133 12.4784 3.46614 12.5162 3.43389L13.1114 2.93709L11.685 3.76029C11.6413 3.78569 11.5896 3.7936 11.5403 3.78243C11.491 3.77126 11.4477 3.74183 11.4193 3.70007C11.3908 3.65831 11.3792 3.60731 11.3868 3.55733C11.3944 3.50735 11.4206 3.4621 11.4602 3.43069L11.8474 3.12309L10.743 3.76029C10.7 3.78488 10.6494 3.79265 10.601 3.78208C10.5526 3.77151 10.5099 3.74337 10.4811 3.70309C10.4522 3.66281 10.4394 3.61326 10.445 3.56405C10.4506 3.51483 10.4743 3.46945 10.5114 3.43669L11.2346 2.80589L9.5806 3.76029C9.55014 3.77853 9.51531 3.7882 9.4798 3.78829Z" fill="#6D4732"/>
<path d="M6.62355 22.6C6.58383 22.6 6.54501 22.5882 6.51204 22.566C6.47907 22.5439 6.45344 22.5124 6.43842 22.4756C6.4234 22.4388 6.41968 22.3984 6.42771 22.3595C6.43575 22.3206 6.45519 22.285 6.48355 22.2572L7.38115 21.3772L5.31155 22.5716C5.26841 22.5964 5.21756 22.6043 5.16893 22.5937C5.1203 22.583 5.0774 22.5546 5.04859 22.514C5.01979 22.4734 5.00717 22.4235 5.01319 22.3741C5.01921 22.3247 5.04344 22.2793 5.08115 22.2468L5.77915 21.6444L5.31155 21.9144C5.27123 21.9373 5.2242 21.9455 5.17851 21.9376C5.13281 21.9297 5.09128 21.9061 5.06104 21.871C5.03079 21.8358 5.01371 21.7912 5.01271 21.7449C5.0117 21.6985 5.02685 21.6532 5.05555 21.6168L5.47355 21.0924C5.42768 21.0988 5.38102 21.089 5.34153 21.0648C5.30204 21.0407 5.27217 21.0035 5.25702 20.9597C5.24187 20.916 5.24237 20.8683 5.25844 20.8249C5.27451 20.7815 5.30516 20.745 5.34515 20.7216L6.16515 20.248C6.20547 20.2248 6.25259 20.2165 6.29843 20.2243C6.34426 20.2321 6.38594 20.2557 6.41629 20.2909C6.44664 20.3261 6.46376 20.3708 6.46472 20.4173C6.46568 20.4638 6.45042 20.5091 6.42155 20.5456L6.02755 21.04L7.41395 20.24C7.45702 20.2156 7.50761 20.2081 7.55592 20.2189C7.60423 20.2296 7.64684 20.2579 7.6755 20.2983C7.70415 20.3386 7.71683 20.3882 7.71108 20.4373C7.70533 20.4865 7.68155 20.5318 7.64435 20.5644L6.94635 21.1664L8.55195 20.24C8.59411 20.2157 8.6437 20.2076 8.69141 20.2172C8.73913 20.2268 8.7817 20.2535 8.81114 20.2923C8.84058 20.3311 8.85487 20.3792 8.85134 20.4278C8.8478 20.4763 8.82669 20.5219 8.79195 20.556L7.89435 21.436L9.96435 20.24C10.0079 20.2147 10.0593 20.2067 10.1084 20.2177C10.1576 20.2287 10.2008 20.2577 10.2294 20.2991C10.258 20.3405 10.27 20.3912 10.2629 20.4411C10.2558 20.4909 10.2302 20.5362 10.1911 20.568L9.68155 20.9832L10.9695 20.24C11.0131 20.2155 11.0642 20.2081 11.1129 20.2194C11.1616 20.2307 11.2043 20.2598 11.2326 20.301C11.2609 20.3422 11.2727 20.3925 11.2658 20.442C11.2589 20.4915 11.2337 20.5366 11.1951 20.5684L10.7151 20.9556L11.9595 20.24C12.0012 20.2162 12.0501 20.2082 12.0972 20.2174C12.1443 20.2267 12.1866 20.2526 12.2162 20.2904C12.2458 20.3282 12.2608 20.3754 12.2585 20.4233C12.2561 20.4713 12.2367 20.5168 12.2035 20.5516L11.2723 21.52L13.4891 20.24C13.5332 20.2154 13.5848 20.2084 13.6338 20.2203C13.6828 20.2322 13.7254 20.2621 13.7533 20.3041C13.7811 20.3461 13.7921 20.3971 13.784 20.4468C13.7759 20.4966 13.7493 20.5414 13.7095 20.5724L13.6535 20.6152L14.3035 20.24C14.3468 20.2157 14.3976 20.2083 14.446 20.2193C14.4943 20.2303 14.5369 20.2589 14.5654 20.2996C14.5939 20.3402 14.6062 20.39 14.6 20.4392C14.5939 20.4885 14.5696 20.5337 14.5319 20.566L13.9255 21.0744L15.3711 20.24C15.4147 20.2155 15.4658 20.2081 15.5145 20.2194C15.5632 20.2307 15.6059 20.2598 15.6342 20.301C15.6625 20.3422 15.6743 20.3925 15.6674 20.442C15.6605 20.4915 15.6353 20.5366 15.5967 20.5684L15.1207 20.9544L16.3595 20.24C16.4026 20.2153 16.4533 20.2075 16.5017 20.2181C16.5502 20.2287 16.593 20.257 16.6218 20.2973C16.6506 20.3377 16.6634 20.3874 16.6577 20.4367C16.6519 20.4859 16.6281 20.5313 16.5907 20.564L15.8863 21.1752L17.5043 20.24C17.5482 20.2151 17.5998 20.2077 17.6489 20.2192C17.6979 20.2308 17.7408 20.2604 17.769 20.3022C17.7971 20.344 17.8085 20.3949 17.8007 20.4447C17.793 20.4945 17.7667 20.5395 17.7271 20.5708L17.4539 20.784L18.1071 20.4072C18.1486 20.3834 18.1973 20.3753 18.2442 20.3843C18.2912 20.3933 18.3334 20.4189 18.3631 20.4563C18.3929 20.4938 18.4082 20.5406 18.4064 20.5884C18.4046 20.6362 18.3857 20.6817 18.3531 20.7168L17.5787 21.5432L18.5911 20.96C18.6306 20.9372 18.6766 20.9285 18.7216 20.9354C18.7667 20.9423 18.808 20.9644 18.8387 20.998C18.8695 21.0315 18.8879 21.0745 18.891 21.1198C18.894 21.1652 18.8815 21.2103 18.8555 21.2476L18.4923 21.7676L18.6923 21.6532C18.7381 21.6293 18.7912 21.624 18.8408 21.6383C18.8903 21.6527 18.9324 21.6857 18.9582 21.7303C18.984 21.775 18.9916 21.8279 18.9793 21.878C18.967 21.9281 18.9359 21.9715 18.8923 21.9992L17.9139 22.56C17.8746 22.5826 17.8287 22.5911 17.7839 22.5841C17.7391 22.5772 17.698 22.5552 17.6673 22.5218C17.6366 22.4884 17.6181 22.4456 17.615 22.4003C17.6118 22.3551 17.6242 22.3101 17.6499 22.2728L18.0131 21.7528L16.6131 22.5616C16.5717 22.5854 16.523 22.5935 16.476 22.5845C16.4291 22.5755 16.3869 22.5499 16.3572 22.5125C16.3274 22.475 16.3121 22.4282 16.3139 22.3804C16.3157 22.3326 16.3346 22.2871 16.3671 22.252L17.1411 21.426L15.1711 22.5632C15.1273 22.5886 15.0755 22.5964 15.0261 22.585C14.9767 22.5737 14.9335 22.544 14.9051 22.502C14.8768 22.46 14.8655 22.4088 14.8734 22.3588C14.8813 22.3087 14.908 22.2636 14.9479 22.2324L15.2215 22.0192L14.2771 22.564C14.2341 22.5883 14.1836 22.5958 14.1354 22.5851C14.0871 22.5743 14.0446 22.5461 14.0159 22.5059C13.9872 22.4656 13.9745 22.4162 13.9801 22.3671C13.9857 22.318 14.0093 22.2727 14.0463 22.24L14.7511 21.6288L13.1291 22.5648C13.0856 22.5893 13.0345 22.5967 12.9858 22.5854C12.9371 22.5741 12.8944 22.545 12.8661 22.5038C12.8378 22.4626 12.826 22.4123 12.8329 22.3628C12.8398 22.3133 12.865 22.2682 12.9035 22.2364L13.3787 21.8512L12.1387 22.566C12.0955 22.5907 12.0445 22.5984 11.9959 22.5875C11.9473 22.5767 11.9044 22.548 11.8758 22.5072C11.8472 22.4665 11.8348 22.4164 11.8411 22.367C11.8474 22.3176 11.872 22.2723 11.9099 22.24L12.5167 21.7312L11.0691 22.568C11.0251 22.5931 10.9732 22.6005 10.9239 22.5888C10.8746 22.577 10.8316 22.547 10.8036 22.5048C10.7756 22.4626 10.7646 22.4114 10.7729 22.3614C10.7812 22.3114 10.8082 22.2665 10.8483 22.2356L10.9055 22.192L10.2531 22.5688C10.2114 22.5929 10.1624 22.6011 10.1152 22.592C10.0679 22.5828 10.0255 22.5569 9.99574 22.519C9.96602 22.4811 9.95097 22.4338 9.95336 22.3857C9.95575 22.3376 9.97542 22.292 10.0087 22.2572L10.9383 21.2896L8.71955 22.5696C8.676 22.5946 8.62465 22.6022 8.5757 22.5911C8.52674 22.58 8.48377 22.5508 8.45531 22.5095C8.42685 22.4681 8.41499 22.4176 8.42207 22.3679C8.42915 22.3182 8.45467 22.273 8.49355 22.2412L8.97115 21.8544L7.73115 22.5708C7.68758 22.5962 7.63601 22.6043 7.58677 22.5933C7.53752 22.5823 7.49425 22.5532 7.46561 22.5116C7.43698 22.4701 7.4251 22.4193 7.43235 22.3693C7.43961 22.3194 7.46547 22.2741 7.50475 22.2424L8.01435 21.8268L6.72355 22.572C6.69333 22.5901 6.65879 22.5998 6.62355 22.6Z" fill="#6D4732"/>
<path d="M4.11321 2.18789C4.07215 2.18793 4.03207 2.17534 3.99841 2.15182C3.96475 2.12829 3.93915 2.09498 3.92508 2.0564C3.91101 2.01783 3.90916 1.97585 3.91978 1.93619C3.93039 1.89652 3.95296 1.86108 3.98441 1.83469L4.12681 1.71469L3.43521 2.11469C3.39512 2.13779 3.34825 2.14627 3.30261 2.13869C3.25696 2.13111 3.21535 2.10794 3.18487 2.07312C3.15439 2.0383 3.13693 1.994 3.13546 1.94775C3.13399 1.9015 3.14861 1.85617 3.17681 1.81949L3.73681 1.09309L2.93601 1.55549C2.89906 1.5766 2.85634 1.58537 2.81407 1.58054C2.77179 1.5757 2.73215 1.55751 2.70093 1.5286C2.6697 1.49969 2.64851 1.46158 2.64043 1.4198C2.63235 1.37802 2.63781 1.33475 2.65601 1.29629L2.85601 0.878685C2.81729 0.883408 2.77804 0.876542 2.74322 0.858956C2.70841 0.841369 2.67959 0.813852 2.66041 0.779885C2.63402 0.733985 2.6269 0.679493 2.64062 0.628355C2.65434 0.577216 2.68778 0.533606 2.73361 0.507085L3.19801 0.239885C3.23492 0.218867 3.27757 0.210148 3.31977 0.214989C3.36197 0.219831 3.40153 0.237982 3.43272 0.266814C3.46392 0.295645 3.48512 0.333659 3.49326 0.375348C3.50141 0.417037 3.49606 0.460235 3.47801 0.498685L3.29241 0.888285L4.41721 0.239885C4.4573 0.217006 4.50407 0.208697 4.54958 0.216368C4.5951 0.224039 4.63656 0.247218 4.66694 0.281973C4.69731 0.316727 4.71473 0.360919 4.71624 0.407052C4.71775 0.453186 4.70325 0.498421 4.67521 0.535085L4.11521 1.26109L5.88361 0.239885C5.92688 0.215161 5.97782 0.20748 6.02645 0.218348C6.07509 0.229216 6.11791 0.257849 6.14654 0.29864C6.17517 0.33943 6.18754 0.389439 6.18123 0.438872C6.17491 0.488304 6.15037 0.533599 6.11241 0.565885L5.97001 0.685885L6.74281 0.239885C6.78351 0.216473 6.83116 0.208128 6.8774 0.216314C6.92363 0.224499 6.96552 0.248693 6.99571 0.284656C7.0259 0.320619 7.04248 0.366059 7.04253 0.413015C7.04259 0.459972 7.02612 0.505451 6.99601 0.541485L6.40281 1.24949L8.15201 0.239885C8.19392 0.216014 8.24304 0.20809 8.29032 0.217571C8.33761 0.227052 8.37988 0.253301 8.40934 0.291482C8.4388 0.329663 8.45348 0.377205 8.45066 0.42535C8.44784 0.473495 8.42773 0.519001 8.39401 0.553485L7.88041 1.06989L9.32041 0.239885C9.36191 0.216116 9.41055 0.208002 9.45751 0.217014C9.50448 0.226027 9.54666 0.251569 9.57641 0.28901C9.60616 0.326452 9.62151 0.373313 9.61967 0.4211C9.61784 0.468886 9.59894 0.514434 9.56641 0.549485L9.01281 1.14149L10.5768 0.239885C10.6199 0.21521 10.6705 0.207413 10.719 0.21801C10.7675 0.228606 10.8103 0.256838 10.8391 0.297223C10.8679 0.337608 10.8807 0.387263 10.8749 0.436542C10.8692 0.485822 10.8453 0.531208 10.808 0.563885L10.5736 0.767085L11.4872 0.239885C11.5268 0.2172 11.573 0.208747 11.6181 0.215928C11.6631 0.223109 11.7044 0.245492 11.735 0.279362C11.7656 0.313231 11.7837 0.356548 11.7863 0.40212C11.7889 0.447691 11.7758 0.492775 11.7492 0.529885L11.1604 1.34749L13.0804 0.239885C13.122 0.215824 13.1708 0.207536 13.218 0.216535C13.2652 0.225535 13.3076 0.251221 13.3374 0.288896C13.3672 0.326571 13.3825 0.373718 13.3804 0.421714C13.3783 0.469711 13.359 0.51535 13.326 0.550285L12.7768 1.12589L14.314 0.239885C14.3538 0.216996 14.4003 0.208516 14.4457 0.215873C14.491 0.223229 14.5325 0.245972 14.563 0.28028C14.5936 0.314587 14.6114 0.358367 14.6135 0.40426C14.6155 0.450153 14.6017 0.495361 14.5744 0.532285L13.9788 1.32829L15.8668 0.239885C15.9071 0.216493 15.9544 0.207922 16.0003 0.215653C16.0463 0.223383 16.0881 0.24693 16.1186 0.282223C16.149 0.317517 16.1662 0.36234 16.1671 0.408948C16.168 0.455556 16.1527 0.50102 16.1236 0.537485L15.5236 1.28909L17.3432 0.239885C17.3848 0.215816 17.4337 0.207548 17.481 0.216594C17.5282 0.225641 17.5706 0.251397 17.6003 0.289146C17.6301 0.326894 17.6453 0.374108 17.6431 0.42214C17.6409 0.470172 17.6215 0.515806 17.5884 0.550685L17.0428 1.12389L18.576 0.239885C18.619 0.21498 18.6697 0.206946 18.7182 0.217346C18.7668 0.227745 18.8097 0.255835 18.8387 0.29615C18.8677 0.336465 18.8806 0.386122 18.875 0.43546C18.8694 0.484799 18.8457 0.530291 18.8084 0.563085L18.5284 0.807085L19.5136 0.239885C19.5559 0.214824 19.6059 0.206198 19.6541 0.215651C19.7023 0.225105 19.7454 0.251978 19.775 0.291143C19.8047 0.330308 19.8189 0.379025 19.815 0.428001C19.811 0.476977 19.7892 0.522784 19.7536 0.556685L19.29 1.00389L20.6148 0.239885C20.6568 0.216536 20.7058 0.209098 20.7529 0.218934C20.7999 0.228769 20.8419 0.25522 20.871 0.293444C20.9002 0.331669 20.9146 0.37911 20.9116 0.427084C20.9086 0.475057 20.8885 0.520355 20.8548 0.554685L20.3604 1.04869L21.0884 0.627485C21.1296 0.603713 21.178 0.595414 21.2248 0.604078C21.2715 0.612743 21.3137 0.637804 21.3437 0.674761C21.3736 0.711717 21.3895 0.758148 21.3883 0.805714C21.3871 0.853281 21.369 0.898866 21.3372 0.934285L21.1012 1.19709C21.1448 1.18289 21.192 1.18413 21.2348 1.20059C21.2777 1.21705 21.3135 1.24773 21.3364 1.28749C21.3628 1.33338 21.3699 1.38788 21.3562 1.43902C21.3425 1.49015 21.309 1.53376 21.2632 1.56029L20.2232 2.16029C20.182 2.1838 20.1339 2.19192 20.0872 2.18321C20.0406 2.17449 19.9986 2.1495 19.9688 2.11269C19.9389 2.07588 19.923 2.02965 19.9241 1.98225C19.9251 1.93485 19.9429 1.88935 19.9744 1.85389L20.2004 1.60149L19.2324 2.15989C19.1904 2.18323 19.1414 2.19067 19.0943 2.18084C19.0473 2.171 19.0054 2.14455 18.9762 2.10633C18.9471 2.0681 18.9327 2.02066 18.9356 1.97269C18.9386 1.92471 18.9588 1.87942 18.9924 1.84509L19.4896 1.34989L18.0852 2.15989C18.0429 2.18495 17.9929 2.19357 17.9447 2.18412C17.8965 2.17466 17.8535 2.14779 17.8238 2.10863C17.7941 2.06946 17.7799 2.02075 17.7839 1.97177C17.7878 1.92279 17.8096 1.87699 17.8452 1.84309L18.308 1.39509L16.984 2.15989C16.9411 2.18441 16.8906 2.19215 16.8422 2.18161C16.7939 2.17107 16.7512 2.143 16.7224 2.10283C16.6935 2.06265 16.6806 2.01322 16.6861 1.96406C16.6915 1.91491 16.715 1.86953 16.752 1.83669L17.032 1.59229L16.046 2.15989C16.0044 2.18367 15.9556 2.19172 15.9086 2.18256C15.8615 2.1734 15.8193 2.14765 15.7897 2.11C15.76 2.07234 15.7448 2.02528 15.747 1.97739C15.7491 1.92951 15.7683 1.88397 15.8012 1.84909L16.3464 1.27589L14.8136 2.15989C14.7733 2.18304 14.7262 2.19143 14.6803 2.18361C14.6345 2.17578 14.5928 2.15223 14.5625 2.117C14.5321 2.08178 14.515 2.03708 14.514 1.99059C14.5131 1.9441 14.5283 1.89873 14.5572 1.86229L15.1552 1.11069L13.3368 2.15989C13.297 2.18277 13.2505 2.19125 13.2051 2.1839C13.1598 2.17654 13.1184 2.1538 13.0878 2.11949C13.0573 2.08518 13.0394 2.0414 13.0374 1.99551C13.0353 1.94962 13.0491 1.90441 13.0764 1.86749L13.6716 1.07069L11.7844 2.15989C11.7428 2.18366 11.6941 2.19173 11.6471 2.18262C11.6001 2.17351 11.5579 2.14783 11.5282 2.11025C11.4985 2.07266 11.4833 2.02567 11.4853 1.97782C11.4873 1.92997 11.5065 1.88443 11.5392 1.84949L12.086 1.27309L10.5488 2.15989C10.5092 2.18257 10.463 2.19102 10.4179 2.18384C10.3729 2.17666 10.3316 2.15428 10.301 2.12041C10.2704 2.08654 10.2523 2.04322 10.2497 1.99765C10.2472 1.95208 10.2602 1.907 10.2868 1.86989L10.8776 1.05149L8.95721 2.15989C8.91417 2.18456 8.86349 2.19236 8.81503 2.18176C8.76656 2.17116 8.72376 2.14293 8.69494 2.10255C8.66612 2.06216 8.65334 2.01251 8.65908 1.96323C8.66483 1.91395 8.68868 1.86856 8.72601 1.83589L8.96041 1.63269L8.04681 2.15989C8.00531 2.18365 7.95668 2.19177 7.90971 2.18276C7.86275 2.17374 7.82057 2.1482 7.79082 2.11076C7.76107 2.07332 7.74572 2.02646 7.74755 1.97867C7.74938 1.93088 7.76828 1.88534 7.80081 1.85029L8.35561 1.25749L6.79201 2.15989C6.75011 2.18376 6.70099 2.19168 6.6537 2.1822C6.60641 2.17272 6.56414 2.14647 6.53468 2.10829C6.50522 2.07011 6.49054 2.02257 6.49336 1.97442C6.49618 1.92628 6.5163 1.88077 6.55001 1.84629L7.06201 1.32909L5.62241 2.15989C5.58171 2.1833 5.53406 2.19164 5.48783 2.18346C5.44159 2.17527 5.39971 2.15108 5.36951 2.11511C5.33932 2.07915 5.32275 2.03371 5.32269 1.98675C5.32264 1.9398 5.3391 1.89432 5.36921 1.85829L5.96241 1.15029L4.21321 2.15989C4.18298 2.17799 4.14845 2.18765 4.11321 2.18789Z" fill="#42281C"/>
<path d="M3.30842 23.788C3.26758 23.7881 3.22768 23.7757 3.19407 23.7525C3.16047 23.7293 3.13478 23.6964 3.12045 23.6581C3.10612 23.6199 3.10384 23.5782 3.11391 23.5386C3.12399 23.499 3.14594 23.4635 3.17682 23.4368L3.42082 23.2252L2.93722 23.5052C2.89915 23.5273 2.85485 23.5362 2.81119 23.5306C2.76752 23.525 2.72693 23.5051 2.69571 23.4741C2.66449 23.443 2.64438 23.4026 2.63851 23.3589C2.63263 23.3153 2.64132 23.2709 2.66322 23.2328L3.04922 22.556L3.02602 22.5692C2.98031 22.5931 2.92713 22.5984 2.87759 22.584C2.82805 22.5696 2.78597 22.5367 2.76016 22.492C2.73434 22.4474 2.72678 22.3945 2.73905 22.3444C2.75133 22.2943 2.78248 22.2508 2.82602 22.2232L3.48882 21.84C3.52662 21.8178 3.57071 21.8089 3.61415 21.8145C3.6576 21.8202 3.69793 21.8401 3.72882 21.8712C3.75978 21.9021 3.77976 21.9423 3.78568 21.9856C3.79161 22.029 3.78315 22.0731 3.76162 22.1112L3.37562 22.7884L5.02242 21.84C5.06546 21.8153 5.11613 21.8075 5.1646 21.8181C5.21307 21.8287 5.25587 21.8569 5.28469 21.8973C5.31351 21.9377 5.32629 21.9873 5.32054 22.0366C5.3148 22.0859 5.29095 22.1313 5.25362 22.164L5.01002 22.3756L5.93802 21.84C5.97807 21.817 6.02481 21.8087 6.07032 21.8163C6.11583 21.8239 6.15731 21.847 6.18772 21.8817C6.21814 21.9164 6.23562 21.9606 6.2372 22.0067C6.23879 22.0528 6.22438 22.0981 6.19642 22.1348L5.60002 22.9124L7.45922 21.84C7.50096 21.8159 7.55001 21.8076 7.59733 21.8168C7.64465 21.826 7.68706 21.852 7.71676 21.89C7.74646 21.9279 7.76144 21.9753 7.75895 22.0235C7.75646 22.0716 7.73667 22.1172 7.70322 22.152L7.16962 22.704L8.66802 21.84C8.7098 21.8161 8.75877 21.8082 8.80595 21.8175C8.85313 21.8268 8.89536 21.8529 8.92491 21.8908C8.95445 21.9288 8.96933 21.9761 8.96682 22.0241C8.9643 22.0722 8.94456 22.1177 8.91122 22.1524L8.38482 22.692L9.86482 21.8392C9.90536 21.8159 9.95277 21.8076 9.99881 21.8157C10.0449 21.8237 10.0866 21.8477 10.1168 21.8833C10.1471 21.919 10.1639 21.9641 10.1643 22.0108C10.1647 22.0575 10.1488 22.103 10.1192 22.1392L9.52002 22.8628L11.2952 21.84C11.337 21.8158 11.3862 21.8076 11.4336 21.8169C11.481 21.8262 11.5234 21.8523 11.5531 21.8904C11.5827 21.9286 11.5975 21.9761 11.5949 22.0243C11.5922 22.0726 11.5721 22.1182 11.5384 22.1528L11.014 22.6896L12.4864 21.84C12.5269 21.8167 12.5743 21.8083 12.6203 21.8163C12.6664 21.8243 12.7081 21.8482 12.7384 21.8838C12.7687 21.9194 12.7855 21.9645 12.786 22.0112C12.7865 22.0579 12.7707 22.1033 12.7412 22.1396L12.1448 22.868L13.9256 21.84C13.9674 21.8158 14.0165 21.8076 14.0639 21.8169C14.1112 21.8261 14.1536 21.8521 14.1833 21.8902C14.213 21.9282 14.2279 21.9757 14.2253 22.0239C14.2227 22.0721 14.2028 22.1177 14.1692 22.1524L13.64 22.6956L15.124 21.8392C15.1662 21.8145 15.216 21.8061 15.264 21.8157C15.3119 21.8252 15.3547 21.852 15.3843 21.8909C15.4138 21.9299 15.4281 21.9783 15.4244 22.0271C15.4206 22.0759 15.3992 22.1216 15.364 22.1556L14.8952 22.6108L16.2332 21.84C16.2756 21.814 16.3261 21.8048 16.3748 21.814C16.4236 21.8233 16.4672 21.8504 16.4972 21.89C16.5271 21.9296 16.5412 21.9789 16.5368 22.0284C16.5324 22.0778 16.5097 22.1239 16.4732 22.1576L16.0264 22.5844L17.3148 21.84C17.355 21.8167 17.402 21.8081 17.4478 21.8157C17.4936 21.8233 17.5353 21.8466 17.5658 21.8816C17.5963 21.9166 17.6137 21.9611 17.615 22.0075C17.6163 22.0539 17.6014 22.0993 17.5728 22.136L16.9728 22.9016L18.8128 21.84C18.8536 21.8166 18.9014 21.8084 18.9477 21.8167C18.9939 21.8251 19.0358 21.8494 19.0659 21.8856C19.096 21.9217 19.1124 21.9673 19.1122 22.0144C19.112 22.0614 19.0952 22.1069 19.0648 22.1428L18.4752 22.8316L20.1944 21.84C20.2364 21.8158 20.2857 21.8076 20.3332 21.817C20.3807 21.8264 20.4232 21.8528 20.4527 21.8911C20.4823 21.9295 20.4969 21.9773 20.4939 22.0256C20.4909 22.0739 20.4705 22.1195 20.4364 22.154L19.9276 22.666L20.8912 22.11C20.9321 22.0866 20.98 22.0785 21.0263 22.087C21.0727 22.0955 21.1145 22.1201 21.1445 22.1565C21.1745 22.1928 21.1907 22.2385 21.1902 22.2857C21.1898 22.3328 21.1727 22.3782 21.142 22.414L20.7892 22.8224L21.088 22.65C21.1267 22.6277 21.1718 22.6191 21.2159 22.6255C21.2601 22.6318 21.3009 22.6527 21.3318 22.6849C21.3627 22.7171 21.382 22.7587 21.3865 22.8031C21.391 22.8475 21.3806 22.8922 21.3568 22.93L21.2296 23.13C21.2662 23.1421 21.2984 23.1646 21.3225 23.1946C21.3466 23.2247 21.3615 23.261 21.3655 23.2993C21.3694 23.3376 21.3622 23.3763 21.3447 23.4106C21.3272 23.4449 21.3001 23.4734 21.2668 23.4928L20.8028 23.7608C20.7641 23.783 20.7191 23.7916 20.6749 23.7853C20.6307 23.7789 20.5899 23.758 20.559 23.7258C20.5281 23.6936 20.5089 23.652 20.5043 23.6076C20.4998 23.5632 20.5102 23.5185 20.534 23.4808L20.5836 23.4008L19.9616 23.7608C19.9207 23.7841 19.8729 23.7922 19.8266 23.7838C19.7803 23.7753 19.7384 23.7508 19.7084 23.7145C19.6784 23.6783 19.6621 23.6326 19.6625 23.5855C19.6629 23.5384 19.6798 23.493 19.7104 23.4572L20.0636 23.0488L18.8296 23.76C18.7877 23.7827 18.739 23.7898 18.6924 23.7798C18.6457 23.7699 18.6042 23.7436 18.5752 23.7057C18.5463 23.6678 18.5318 23.6208 18.5344 23.5732C18.5371 23.5255 18.5566 23.4804 18.5896 23.446L19.098 22.934L17.6648 23.76C17.624 23.7833 17.5763 23.7916 17.53 23.7832C17.4837 23.7749 17.4418 23.7505 17.4117 23.7143C17.3817 23.6782 17.3653 23.6326 17.3655 23.5855C17.3657 23.5385 17.3824 23.4931 17.4128 23.4572L18.0024 22.7684L16.2824 23.76C16.2424 23.7834 16.1956 23.7922 16.1499 23.7849C16.1041 23.7776 16.0623 23.7546 16.0316 23.72C16.0011 23.685 15.9836 23.6405 15.9823 23.594C15.981 23.5476 15.9959 23.5022 16.0244 23.4656L16.6244 22.7L14.7844 23.7616C14.7421 23.7875 14.6916 23.7967 14.6428 23.7875C14.594 23.7782 14.5504 23.7512 14.5205 23.7115C14.4905 23.6719 14.4764 23.6226 14.4808 23.5731C14.4852 23.5237 14.5079 23.4776 14.5444 23.444L14.9908 23.0172L13.7036 23.76C13.6614 23.7846 13.6116 23.793 13.5637 23.7834C13.5157 23.7739 13.4729 23.7471 13.4433 23.7082C13.4138 23.6692 13.3995 23.6208 13.4033 23.572C13.407 23.5233 13.4285 23.4776 13.4636 23.4436L13.9328 22.988L12.5948 23.76C12.553 23.7838 12.5041 23.7918 12.4569 23.7824C12.4097 23.7731 12.3675 23.747 12.3379 23.7091C12.3084 23.6711 12.2935 23.6238 12.296 23.5758C12.2985 23.5277 12.3183 23.4822 12.3516 23.4476L12.88 22.9036L11.396 23.76C11.3555 23.783 11.3082 23.7912 11.2623 23.7831C11.2165 23.775 11.1748 23.7511 11.1447 23.7156C11.1145 23.68 11.0977 23.6351 11.0971 23.5885C11.0966 23.5419 11.1123 23.4966 11.1416 23.4604L11.738 22.732L9.95642 23.76C9.91459 23.7841 9.86544 23.7923 9.81805 23.783C9.77066 23.7737 9.72822 23.7476 9.69858 23.7095C9.66894 23.6714 9.65409 23.6238 9.65678 23.5756C9.65947 23.5274 9.67952 23.4817 9.71322 23.4472L10.2376 22.9104L8.76522 23.76C8.72467 23.7832 8.67726 23.7915 8.63122 23.7835C8.58518 23.7754 8.54342 23.7515 8.51319 23.7158C8.48296 23.6802 8.46617 23.635 8.46574 23.5883C8.4653 23.5416 8.48125 23.4962 8.51082 23.46L9.10682 22.7368L7.33322 23.76C7.29144 23.7838 7.24247 23.7918 7.19529 23.7824C7.14811 23.7731 7.10587 23.747 7.07633 23.7091C7.04678 23.6711 7.0319 23.6238 7.03442 23.5758C7.03693 23.5277 7.05667 23.4822 7.09002 23.4476L7.61642 22.9072L6.13842 23.76C6.09667 23.7841 6.04762 23.7923 6.0003 23.7831C5.95298 23.7739 5.91057 23.7479 5.88087 23.71C5.85118 23.672 5.83619 23.6246 5.83868 23.5764C5.84117 23.5283 5.86096 23.4827 5.89442 23.448L6.42802 22.896L4.92962 23.76C4.88956 23.7829 4.84282 23.7912 4.79731 23.7836C4.7518 23.776 4.71033 23.7529 4.67991 23.7182C4.6495 23.6835 4.63202 23.6393 4.63043 23.5932C4.62885 23.5471 4.64326 23.5019 4.67122 23.4652L5.26802 22.6868L3.40842 23.76C3.37813 23.7779 3.34363 23.7876 3.30842 23.788Z" fill="#42281C"/>
<path d="M11.95 10.4535C11.9086 10.4534 11.8683 10.4406 11.8345 10.4167C11.8007 10.3928 11.7752 10.3591 11.7614 10.3201C11.7477 10.2811 11.7463 10.2387 11.7576 10.199C11.7689 10.1592 11.7922 10.1238 11.8244 10.0979L12.2244 9.77545L11.7904 10.0255C11.7462 10.0497 11.6945 10.0564 11.6455 10.0442C11.5966 10.032 11.5541 10.0017 11.5266 9.95948C11.499 9.91726 11.4884 9.86619 11.4969 9.81649C11.5054 9.76679 11.5324 9.72213 11.5724 9.69145L12.0188 9.36505L11.4816 9.67505C11.4376 9.70107 11.3853 9.70924 11.3354 9.6979C11.2856 9.68656 11.242 9.65655 11.2135 9.61406C11.1851 9.57156 11.1741 9.51979 11.1826 9.46939C11.1912 9.41899 11.2187 9.37378 11.2596 9.34305L12.9928 8.01025L10.9096 9.21305C10.8648 9.23823 10.812 9.24522 10.7623 9.23256C10.7125 9.2199 10.6695 9.18856 10.6421 9.14505C10.6148 9.10154 10.6053 9.04918 10.6156 8.99884C10.6258 8.9485 10.655 8.90403 10.6972 8.87465L10.7668 8.82745L10.4984 8.98225C10.4538 9.00718 10.4013 9.01408 10.3517 9.00155C10.3022 8.98901 10.2593 8.95798 10.232 8.91483C10.2046 8.87168 10.1947 8.81968 10.2045 8.76951C10.2142 8.71934 10.2428 8.67481 10.2844 8.64505L11.4444 7.83705L9.99197 8.67705C9.94809 8.7021 9.89635 8.7096 9.84716 8.69806C9.79797 8.68652 9.75497 8.65679 9.7268 8.61484C9.69863 8.5729 9.68739 8.52184 9.69532 8.47194C9.70326 8.42204 9.72978 8.37699 9.76957 8.34585L11.6996 6.84625L9.42117 8.16025C9.377 8.18536 9.32492 8.19272 9.27551 8.18083C9.22611 8.16893 9.18309 8.13868 9.15518 8.09621C9.12728 8.05374 9.11658 8.00225 9.12527 7.95218C9.13397 7.90211 9.16139 7.85723 9.20197 7.82665L10.1552 7.11865L9.09397 7.73105C9.05138 7.75544 9.0013 7.76332 8.95328 7.75318C8.90525 7.74304 8.86264 7.71559 8.83354 7.67607C8.80444 7.63654 8.79089 7.5877 8.79547 7.53883C8.80005 7.48996 8.82244 7.44448 8.85837 7.41105L10.0844 6.27305L8.74757 7.04465C8.70608 7.06842 8.65744 7.07653 8.61047 7.06752C8.56351 7.05851 8.52133 7.03297 8.49158 6.99553C8.46183 6.95808 8.44648 6.91122 8.44831 6.86344C8.45015 6.81565 8.46904 6.7701 8.50157 6.73505L9.13517 6.05785L8.56557 6.38625C8.52917 6.40725 8.48708 6.41625 8.44527 6.41197C8.40347 6.40769 8.36407 6.39034 8.33268 6.36241C8.30129 6.33447 8.27949 6.29735 8.27039 6.25632C8.26129 6.2153 8.26534 6.17244 8.28197 6.13385L8.48197 5.67505C8.43999 5.68447 8.39611 5.68037 8.35659 5.66334C8.31708 5.64632 8.28396 5.61723 8.26197 5.58025C8.23558 5.53435 8.22846 5.47986 8.24219 5.42872C8.25591 5.37758 8.28935 5.33397 8.33517 5.30745L8.79957 5.03945C8.83598 5.01845 8.87807 5.00946 8.91987 5.01374C8.96168 5.01802 9.00108 5.03536 9.03247 5.0633C9.06386 5.09123 9.08565 5.12835 9.09476 5.16938C9.10386 5.21041 9.09981 5.25326 9.08317 5.29185L8.89077 5.73825L10.0992 5.04025C10.1407 5.01648 10.1893 5.00837 10.2363 5.01738C10.2832 5.02639 10.3254 5.05193 10.3552 5.08938C10.3849 5.12682 10.4003 5.17368 10.3984 5.22146C10.3966 5.26925 10.3777 5.3148 10.3452 5.34985L9.71197 6.02585L11.4216 5.04025C11.4642 5.01551 11.5144 5.00736 11.5626 5.01737C11.6109 5.02738 11.6537 5.05484 11.683 5.09449C11.7122 5.13414 11.7258 5.18319 11.7211 5.23223C11.7164 5.28127 11.6938 5.32686 11.6576 5.36025L10.4308 6.49905L12.9568 5.04025C13.0009 5.01566 13.0528 5.0087 13.1018 5.02077C13.1509 5.03284 13.1936 5.06304 13.2213 5.1053C13.249 5.14756 13.2597 5.19874 13.2512 5.24857C13.2427 5.29839 13.2157 5.34315 13.1756 5.37385L12.2232 6.08025L14.0268 5.04025C14.0706 5.01537 14.1222 5.00795 14.1713 5.01948C14.2203 5.03101 14.2632 5.06065 14.2914 5.10245C14.3196 5.14425 14.3309 5.19515 14.3231 5.24495C14.3154 5.29475 14.2891 5.33979 14.2496 5.37105L12.32 6.86985L15.3428 5.12465C15.3873 5.09998 15.4396 5.09324 15.489 5.10579C15.5383 5.11835 15.581 5.14926 15.6084 5.19222C15.6357 5.23518 15.6456 5.28695 15.6361 5.33698C15.6266 5.38701 15.5984 5.43153 15.5572 5.46145L14.3936 6.27185L15.48 5.64465C15.5249 5.61806 15.5784 5.61005 15.6291 5.62235C15.6798 5.63465 15.7237 5.66628 15.7514 5.71048C15.7791 5.75469 15.7884 5.80797 15.7774 5.85897C15.7664 5.90997 15.7359 5.95464 15.6924 5.98345L15.4792 6.12705C15.5232 6.11964 15.5685 6.12718 15.6077 6.14847C15.647 6.16976 15.678 6.20358 15.6958 6.24453C15.7136 6.28548 15.7172 6.33121 15.706 6.37443C15.6948 6.41766 15.6694 6.4559 15.634 6.48305L13.8996 7.81705L15.04 7.15785C15.0841 7.13403 15.1356 7.12768 15.1843 7.14007C15.2329 7.15245 15.2751 7.18266 15.3025 7.2247C15.3299 7.26675 15.3405 7.31755 15.3321 7.36704C15.3238 7.41653 15.2972 7.46108 15.2576 7.49185L14.3776 8.13385C14.4134 8.14318 14.4459 8.16225 14.4714 8.18893C14.497 8.21562 14.5147 8.24888 14.5226 8.28502C14.5304 8.32115 14.5281 8.35876 14.5158 8.39365C14.5036 8.42853 14.4819 8.45934 14.4532 8.48265L12.2848 10.2403C12.2684 10.2826 12.2381 10.3182 12.1988 10.3411L12.0504 10.4267C12.0199 10.4443 11.9852 10.4535 11.95 10.4535Z" fill="#E2AC4D"/>
<path d="M9.02023 20.5996C8.97825 20.5996 8.93734 20.5864 8.90329 20.5618C8.86924 20.5373 8.84377 20.5026 8.8305 20.4628C8.81722 20.423 8.81681 20.38 8.82933 20.3399C8.84184 20.2999 8.86665 20.2648 8.90023 20.2396L11.0254 18.616L8.51223 20.0656C8.46785 20.091 8.41538 20.0985 8.36564 20.0865C8.3159 20.0745 8.27267 20.0438 8.24484 20.0009C8.21701 19.9579 8.2067 19.9059 8.21604 19.8556C8.22538 19.8053 8.25365 19.7605 8.29503 19.7304L9.89983 18.5704L8.51223 19.3704C8.46778 19.3961 8.41513 19.4038 8.36517 19.3918C8.31522 19.3798 8.2718 19.349 8.24392 19.3059C8.21604 19.2627 8.20584 19.2105 8.21543 19.16C8.22502 19.1095 8.25367 19.0647 8.29543 19.0348L9.40503 18.2396L9.20503 18.3536C9.16218 18.378 9.11182 18.3857 9.06364 18.3752C9.01546 18.3647 8.97284 18.3368 8.94398 18.2968C8.91511 18.2569 8.90203 18.2076 8.90725 18.1586C8.91246 18.1096 8.9356 18.0642 8.97223 18.0312L11.075 16.1596C11.0719 16.1554 11.0691 16.151 11.0666 16.1464C11.0402 16.1005 11.0331 16.046 11.0468 15.9948C11.0606 15.9437 11.094 15.9001 11.1398 15.8736L11.8906 15.4396C11.9334 15.4156 11.9835 15.4082 12.0315 15.4188C12.0794 15.4293 12.1217 15.4571 12.1505 15.4969C12.1792 15.5366 12.1923 15.5856 12.1873 15.6344C12.1824 15.6832 12.1596 15.7284 12.1234 15.7616L10.7014 17.0272L12.6754 15.888C12.7199 15.8622 12.7725 15.8545 12.8225 15.8665C12.8724 15.8785 12.9159 15.9093 12.9437 15.9525C12.9716 15.9956 12.9818 16.0479 12.9722 16.0983C12.9626 16.1488 12.934 16.1937 12.8922 16.2236L11.783 17.0208L13.067 16.2796C13.1114 16.2541 13.1639 16.2466 13.2136 16.2586C13.2634 16.2707 13.3066 16.3013 13.3344 16.3443C13.3623 16.3872 13.3726 16.4392 13.3632 16.4895C13.3539 16.5398 13.3256 16.5847 13.2842 16.6148L11.6798 17.7748L13.5082 16.7196C13.5522 16.6947 13.604 16.6874 13.6531 16.6991C13.7023 16.7108 13.7452 16.7407 13.7732 16.7827C13.8012 16.8248 13.8122 16.8759 13.8041 16.9258C13.796 16.9756 13.7693 17.0206 13.7294 17.0516L11.6046 18.6748L14.051 17.2628C14.0951 17.2372 14.1472 17.2293 14.1969 17.2408C14.2465 17.2524 14.2899 17.2824 14.3181 17.3248C14.3463 17.3673 14.3573 17.4189 14.3488 17.4691C14.3403 17.5193 14.3129 17.5644 14.2722 17.5952L12.8998 18.6396L14.4998 17.7148C14.5428 17.6899 14.5935 17.6818 14.642 17.6922C14.6906 17.7026 14.7335 17.7307 14.7625 17.771C14.7915 17.8114 14.8045 17.861 14.7989 17.9104C14.7933 17.9597 14.7695 18.0052 14.7322 18.038L13.3882 19.2256L15.053 18.2656C15.0969 18.2405 15.1487 18.233 15.1978 18.2446C15.247 18.2561 15.29 18.2858 15.3182 18.3278C15.3464 18.3697 15.3576 18.4208 15.3497 18.4707C15.3418 18.5206 15.3152 18.5656 15.2754 18.5968L15.0734 18.7536L15.3534 18.5916C15.3963 18.5672 15.4466 18.5595 15.4948 18.57C15.543 18.5804 15.5856 18.6083 15.6145 18.6483C15.6434 18.6883 15.6564 18.7375 15.6512 18.7866C15.646 18.8356 15.6229 18.881 15.5862 18.914L15.2226 19.2376L15.4878 19.0844C15.526 19.0624 15.5703 19.0537 15.614 19.0595C15.6576 19.0653 15.6981 19.0853 15.7292 19.1165C15.7603 19.1477 15.7802 19.1883 15.7859 19.2319C15.7916 19.2756 15.7827 19.3199 15.7606 19.358L15.4802 19.8396L15.4954 19.8308C15.5182 19.8163 15.5437 19.8066 15.5703 19.8022C15.5969 19.7978 15.6241 19.7989 15.6503 19.8053C15.6765 19.8117 15.7011 19.8234 15.7227 19.8396C15.7443 19.8557 15.7624 19.8761 15.7759 19.8995C15.7894 19.9228 15.798 19.9487 15.8013 19.9754C15.8045 20.0022 15.8023 20.0294 15.7948 20.0553C15.7873 20.0812 15.7746 20.1053 15.7575 20.1262C15.7405 20.1471 15.7193 20.1643 15.6954 20.1768L15.0302 20.5608C14.9921 20.5826 14.9479 20.5913 14.9043 20.5855C14.8608 20.5796 14.8204 20.5596 14.7893 20.5285C14.7583 20.4974 14.7383 20.457 14.7326 20.4135C14.7268 20.3699 14.7355 20.3257 14.7574 20.2876L15.0374 19.8044L13.723 20.5644C13.6801 20.5892 13.6295 20.5972 13.581 20.5868C13.5326 20.5765 13.4897 20.5485 13.4607 20.5082C13.4317 20.468 13.4186 20.4185 13.4241 20.3692C13.4296 20.3199 13.4531 20.2745 13.4902 20.2416L13.8546 19.918L12.7314 20.566C12.6875 20.5916 12.6355 20.5995 12.586 20.5881C12.5365 20.5767 12.4932 20.547 12.4648 20.5048C12.4364 20.4626 12.4252 20.4113 12.4333 20.3611C12.4415 20.311 12.4684 20.2658 12.5086 20.2348L12.7086 20.0788L11.8622 20.5676C11.8193 20.5925 11.7686 20.6005 11.72 20.5901C11.6715 20.5797 11.6285 20.5516 11.5995 20.5113C11.5706 20.471 11.5576 20.4213 11.5632 20.372C11.5688 20.3227 11.5925 20.2772 11.6298 20.2444L12.9758 19.0548L10.351 20.57C10.307 20.5956 10.2548 20.6034 10.2052 20.5919C10.1556 20.5804 10.1122 20.5503 10.084 20.5079C10.0557 20.4655 10.0448 20.4139 10.0533 20.3636C10.0618 20.3134 10.0892 20.2683 10.1298 20.2376L11.503 19.1948L9.12023 20.5716C9.09001 20.5897 9.05547 20.5994 9.02023 20.5996Z" fill="#E2AC4D"/>
<path d="M21.1777 0.296966C16.5069 -0.159834 11.5461 0.351366 6.78334 0.168166C6.04574 0.168566 1.42974 -0.497034 2.72494 1.70937C2.79414 1.82717 2.88655 1.92968 2.99657 2.01068C3.10658 2.09167 3.23191 2.14947 3.36494 2.18057V21.8554C2.46974 22.0986 2.20094 23.4154 3.11054 23.7754C3.70814 24.0154 4.85974 23.7826 5.48414 23.7826H17.3945C18.3349 23.7826 19.8549 24.0838 20.7629 23.7826C21.8461 23.4226 21.5365 22.1994 20.5985 21.8626V2.14937C21.2433 1.84017 21.8593 0.903366 21.1777 0.296966ZM18.9777 21.817V2.23177H20.1997V21.8178L18.9777 21.817ZM15.7909 20.1662C15.7809 19.0142 15.6657 18.6018 14.7909 17.729C14.1789 17.117 13.0153 15.359 12.0185 15.3742C10.8517 15.4942 7.94814 18.8086 8.20974 19.9774C7.79636 19.9771 7.3836 20.0096 6.97534 20.0746C6.54854 13.9106 9.85774 15.5822 10.9753 12.0034C9.88534 8.36657 6.51134 10.1146 6.97534 3.83697C10.3037 3.87177 13.6445 3.86777 16.9729 3.83937C17.5033 10.013 14.1013 8.37537 12.9729 12.075C14.2293 15.6986 17.4405 14.0418 16.9729 20.1674C16.5821 20.1658 16.1865 20.1678 15.7921 20.167L15.7909 20.1662ZM15.3989 20.1662C12.9625 20.1918 11.2173 20.1718 8.59894 19.9798C8.44294 18.7798 10.8341 16.1106 11.9813 16.0114C13.2149 16.2402 15.5597 18.831 15.3997 20.167L15.3989 20.1662ZM5.38654 3.29177C5.54631 3.4567 5.73767 3.58775 5.94921 3.6771C6.16075 3.76644 6.38812 3.81224 6.61774 3.81177C6.22574 10.3374 9.15934 8.63017 10.6177 12.0118C8.71574 15.4806 6.24054 14.1434 6.61774 20.1502C6.14752 20.2458 5.71785 20.4831 5.38654 20.8302V3.29177ZM17.0997 16.5142C16.6397 14.2986 13.8949 14.031 13.4281 11.9542C15.1125 8.48377 17.8309 9.92617 17.4281 3.81177C17.6521 3.81087 17.8735 3.76429 18.0788 3.67487C18.2841 3.58546 18.469 3.4551 18.6221 3.29177V20.6802C18.4669 20.5211 18.281 20.3953 18.0757 20.3103C17.8704 20.2253 17.6499 20.183 17.4277 20.1858C17.4365 18.9626 17.5297 17.6766 17.0997 16.5142ZM18.6197 2.35417C18.2273 4.18537 13.3297 3.36017 12.1913 3.36017C11.0157 3.33617 5.57654 4.25497 5.38654 2.23177H18.6205L18.6197 2.35417ZM5.38654 21.5974C5.63254 20.5866 7.23694 20.5002 8.20934 20.4558C8.23054 20.6958 8.51174 20.6358 8.57934 20.4506C10.8525 20.6287 13.136 20.6304 15.4093 20.4558C15.4301 20.6922 15.6989 20.6386 15.7745 20.4634C17.1989 20.5226 18.5433 20.7926 18.6205 21.8178C14.2069 21.7958 9.79974 21.8618 5.38654 21.793V21.5974ZM2.99054 0.950566C3.13854 0.367766 4.46774 0.630566 4.93134 0.630566H13.9365C16.1689 0.659366 18.4365 0.582166 20.6461 0.630566C21.0717 0.844966 21.3005 1.51857 20.4145 1.76777C15.3177 1.77577 10.2205 1.75257 5.12414 1.77617C4.35134 1.87257 3.22854 1.81297 2.99054 0.950566ZM3.83574 2.24457C4.24374 2.25377 4.62134 2.22297 5.01294 2.23177C5.01294 8.74297 5.01294 15.2543 5.01294 21.7658C4.62158 21.7284 4.22773 21.7248 3.83574 21.755V2.24457ZM20.5429 23.4178C14.8657 23.3714 9.02734 23.5054 3.37654 23.4178C1.95214 22.4342 4.71494 22.0666 5.35014 22.1822C9.86094 22.179 14.4461 22.1866 18.9193 22.1822H20.2393C20.9597 22.2618 21.1389 23.2002 20.5429 23.4178Z" fill="#262626"/>
<path d="M15.3863 7.34224C16.9583 4.31464 14.1023 4.79504 12.1199 4.96464C10.9011 5.09224 9.49993 4.69144 8.37033 5.14424C7.37033 7.70424 10.7899 8.86424 11.9475 10.5666C11.9608 10.5818 11.9778 10.5934 11.9967 10.6002C12.0157 10.6071 12.036 10.6091 12.056 10.6061C12.0759 10.603 12.0948 10.595 12.1108 10.5827C12.1268 10.5704 12.1394 10.5543 12.1475 10.5358C12.9819 9.14824 14.6491 8.81784 15.3863 7.34224ZM14.1355 8.20544C13.3287 8.85384 12.5691 9.15984 11.9843 9.99984C11.3523 8.82504 7.23753 6.97344 8.88353 5.43544C9.84353 5.34944 10.9019 5.48704 11.8791 5.43544C14.6603 5.42944 17.0471 4.82584 14.1355 8.20544Z" fill="#262626"/>
</svg>
