<svg width="24" height="24" viewBox="0 0 24 24" fill="none" xmlns="http://www.w3.org/2000/svg">
<path d="M2.40039 22.8V23.2C2.40039 23.4122 2.48468 23.6157 2.63471 23.7657C2.78473 23.9157 2.98822 24 3.20039 24H20.8004C21.0126 24 21.216 23.9157 21.3661 23.7657C21.5161 23.6157 21.6004 23.4122 21.6004 23.2V22.8C21.5994 22.5527 21.522 22.3117 21.3788 22.1101C21.2356 21.9085 21.0336 21.756 20.8004 21.6736V2.3264C21.0336 2.24397 21.2356 2.09151 21.3788 1.88988C21.522 1.68825 21.5994 1.4473 21.6004 1.2V0.8C21.6004 0.587827 21.5161 0.384344 21.3661 0.234315C21.216 0.0842855 21.0126 0 20.8004 0L3.20039 0C2.98822 0 2.78473 0.0842855 2.63471 0.234315C2.48468 0.384344 2.40039 0.587827 2.40039 0.8V1.2C2.40142 1.4473 2.47882 1.68825 2.62203 1.88988C2.76523 2.09151 2.96723 2.24397 3.20039 2.3264V21.6736C2.96723 21.756 2.76523 21.9085 2.62203 22.1101C2.47882 22.3117 2.40142 22.5527 2.40039 22.8ZM3.20039 0.8H20.8004V1.2C20.8004 1.30609 20.7582 1.40783 20.6832 1.48284C20.6082 1.55786 20.5065 1.6 20.4004 1.6H3.60039C3.4943 1.6 3.39256 1.55786 3.31755 1.48284C3.24253 1.40783 3.20039 1.30609 3.20039 1.2V0.8ZM20.0004 2.4V21.6H19.2004V2.4H20.0004ZM9.58439 10.6532C9.8303 10.7819 10.0363 10.9754 10.18 11.2128C10.3238 11.4502 10.3997 11.7225 10.3997 12C10.3997 12.2775 10.3238 12.5498 10.18 12.7872C10.0363 13.0246 9.8303 13.2181 9.58439 13.3468C8.63318 13.8057 7.83021 14.5229 7.2672 15.4165C6.70418 16.31 6.40381 17.3439 6.40039 18.4V20C6.11869 20.0017 5.84253 20.0784 5.60039 20.2224V3.7776C5.84253 3.92157 6.11869 3.99834 6.40039 4V5.6C6.40381 6.65612 6.70418 7.69 7.2672 8.58354C7.83021 9.47709 8.63318 10.1943 9.58439 10.6532ZM14.0712 14.0688C14.8865 14.4621 15.5748 15.0769 16.0574 15.8427C16.54 16.6086 16.7974 17.4948 16.8004 18.4V20H16.0004V19.2C16.0008 19.0424 15.97 18.8862 15.9096 18.7406C15.8493 18.5949 15.7606 18.4627 15.6488 18.3516L12.8488 15.5516C12.6238 15.3266 12.3186 15.2003 12.0004 15.2003C11.6822 15.2003 11.377 15.3266 11.152 15.5516L8.35199 18.3516C8.24016 18.4627 8.1515 18.5949 8.09114 18.7406C8.03079 18.8862 7.99994 19.0424 8.00039 19.2V20H7.20039V18.4C7.20335 17.4948 7.46082 16.6086 7.94342 15.8427C8.42602 15.0769 9.11427 14.4621 9.92959 14.0688C10.3117 13.8749 10.6326 13.5789 10.8568 13.2138C11.0809 12.8486 11.1996 12.4285 11.1996 12C11.1996 11.5715 11.0809 11.1514 10.8568 10.7862C10.6326 10.4211 10.3117 10.1251 9.92959 9.9312C9.11427 9.53785 8.42602 8.92314 7.94342 8.15727C7.46082 7.39139 7.20335 6.50524 7.20039 5.6V4H16.8004V5.6C16.7974 6.50524 16.54 7.39139 16.0574 8.15727C15.5748 8.92314 14.8865 9.53785 14.0712 9.9312C13.6891 10.1251 13.3682 10.4211 13.144 10.7862C12.9198 11.1514 12.8012 11.5715 12.8012 12C12.8012 12.4285 12.9198 12.8486 13.144 13.2138C13.3682 13.5789 13.6891 13.8749 14.0712 14.0688ZM15.2004 19.2V20H8.80039V19.2C8.80041 19.0939 8.84257 18.9922 8.91759 18.9172L11.7176 16.1172C11.7926 16.0422 11.8943 16.0001 12.0004 16.0001C12.1065 16.0001 12.2082 16.0422 12.2832 16.1172L15.0832 18.9172C15.1582 18.9922 15.2004 19.0939 15.2004 19.2ZM6.40039 20.8H17.6004C17.8126 20.8 18.016 20.8843 18.1661 21.0343C18.3161 21.1843 18.4004 21.3878 18.4004 21.6H5.60039C5.60039 21.3878 5.68468 21.1843 5.83471 21.0343C5.98473 20.8843 6.18822 20.8 6.40039 20.8ZM17.6004 20V18.4C17.597 17.3439 17.2966 16.31 16.7336 15.4165C16.1706 14.5229 15.3676 13.8057 14.4164 13.3468C14.1705 13.2181 13.9645 13.0246 13.8208 12.7872C13.677 12.5498 13.601 12.2775 13.601 12C13.601 11.7225 13.677 11.4502 13.8208 11.2128C13.9645 10.9754 14.1705 10.7819 14.4164 10.6532C15.3676 10.1943 16.1706 9.47709 16.7336 8.58354C17.2966 7.69 17.597 6.65612 17.6004 5.6V4C17.8821 3.99834 18.1583 3.92157 18.4004 3.7776V20.2224C18.1583 20.0784 17.8821 20.0017 17.6004 20ZM17.6004 3.2H6.40039C6.18822 3.2 5.98473 3.11571 5.83471 2.96569C5.68468 2.81566 5.60039 2.61217 5.60039 2.4H18.4004C18.4004 2.61217 18.3161 2.81566 18.1661 2.96569C18.016 3.11571 17.8126 3.2 17.6004 3.2ZM4.80039 2.4V21.6H4.00039V2.4H4.80039ZM3.60039 22.4H20.4004C20.5065 22.4 20.6082 22.4421 20.6832 22.5172C20.7582 22.5922 20.8004 22.6939 20.8004 22.8V23.2H3.20039V22.8C3.20039 22.6939 3.24253 22.5922 3.31755 22.5172C3.39256 22.4421 3.4943 22.4 3.60039 22.4Z" fill="#838383"/>
<path d="M16 5.5998C16 5.38763 15.9157 5.18415 15.7657 5.03412C15.6157 4.88409 15.4122 4.7998 15.2 4.7998H8.8C8.58783 4.7998 8.38434 4.88409 8.23431 5.03412C8.08429 5.18415 8 5.38763 8 5.5998C8.00223 6.35426 8.21671 7.09287 8.61891 7.73118C9.02111 8.36949 9.5948 8.88176 10.2744 9.2094C10.8636 9.49625 11.3443 9.96567 11.6452 10.5478C11.679 10.6127 11.7299 10.6671 11.7925 10.7051C11.8551 10.743 11.9268 10.7631 12 10.7631C12.0732 10.7631 12.1449 10.743 12.2075 10.7051C12.2701 10.6671 12.321 10.6127 12.3548 10.5478C12.656 9.96474 13.1377 9.49469 13.728 9.20781C14.4071 8.88024 14.9804 8.36815 15.3822 7.7301C15.784 7.09206 15.9981 6.35381 16 5.5998ZM12 9.6194C11.6359 9.13825 11.1628 8.75042 10.6196 8.4878C10.0759 8.22563 9.61692 7.81576 9.29515 7.30506C8.97338 6.79436 8.80179 6.20342 8.8 5.5998H15.2C15.1985 6.20297 15.0273 6.79354 14.706 7.30402C14.3848 7.81451 13.9264 8.22431 13.3832 8.4866C12.8389 8.74921 12.3647 9.13749 12 9.6194Z" fill="#838383"/>
</svg>
