<?xml version="1.0" encoding="UTF-8"?>
<svg xmlns="http://www.w3.org/2000/svg" id="Icons" viewBox="0 0 60 60" width="512" height="512"><path d="M56,23H50.852A21.938,21.938,0,0,0,49.7,20.2l3.635-3.635a4,4,0,0,0,0-5.656L49.092,6.666a4.093,4.093,0,0,0-5.656,0L39.8,10.3A21.938,21.938,0,0,0,37,9.148V4a4,4,0,0,0-4-4H27a4,4,0,0,0-4,4V9.148A21.938,21.938,0,0,0,20.2,10.3L16.564,6.666a4.093,4.093,0,0,0-5.656,0L6.666,10.908a4,4,0,0,0,0,5.656L10.3,20.2A21.938,21.938,0,0,0,9.148,23H4a4,4,0,0,0-4,4v6a4,4,0,0,0,4,4H9.148A21.938,21.938,0,0,0,10.3,39.8L6.666,43.436a4,4,0,0,0,0,5.656l4.242,4.242a4.093,4.093,0,0,0,5.656,0L20.2,49.7A21.938,21.938,0,0,0,23,50.852V56a4,4,0,0,0,4,4h6a4,4,0,0,0,4-4V50.852A21.938,21.938,0,0,0,39.8,49.7l3.635,3.635a4.093,4.093,0,0,0,5.656,0l4.242-4.242a4,4,0,0,0,0-5.656L49.7,39.8A21.938,21.938,0,0,0,50.852,37H56a4,4,0,0,0,4-4V27A4,4,0,0,0,56,23Zm2,10a2,2,0,0,1-2,2H50.119a1,1,0,0,0-.958.714,20,20,0,0,1-1.565,3.8,1,1,0,0,0,.172,1.183L51.92,44.85a2,2,0,0,1,0,2.828L47.678,51.92a2.047,2.047,0,0,1-2.828,0L40.7,47.768a1,1,0,0,0-1.183-.172,20,20,0,0,1-3.8,1.565,1,1,0,0,0-.714.958V56a2,2,0,0,1-2,2H27a2,2,0,0,1-2-2V50.119a1,1,0,0,0-.714-.958,20,20,0,0,1-3.8-1.565,1,1,0,0,0-1.183.172L15.15,51.92a2.047,2.047,0,0,1-2.828,0L8.08,47.678a2,2,0,0,1,0-2.828L12.232,40.7a1,1,0,0,0,.172-1.183,20,20,0,0,1-1.565-3.8A1,1,0,0,0,9.881,35H4a2,2,0,0,1-2-2V27a2,2,0,0,1,2-2H9.881a1,1,0,0,0,.958-.714,20,20,0,0,1,1.565-3.8,1,1,0,0,0-.172-1.183L8.08,15.15a2,2,0,0,1,0-2.828L12.322,8.08a2.047,2.047,0,0,1,2.828,0L19.3,12.232a.994.994,0,0,0,1.183.172,20,20,0,0,1,3.8-1.565A1,1,0,0,0,25,9.881V4a2,2,0,0,1,2-2h6a2,2,0,0,1,2,2V9.881a1,1,0,0,0,.714.958,20,20,0,0,1,3.8,1.565,1,1,0,0,0,1.183-.172L44.85,8.08a2.047,2.047,0,0,1,2.828,0l4.242,4.242a2,2,0,0,1,0,2.828L47.768,19.3a1,1,0,0,0-.172,1.183,20,20,0,0,1,1.565,3.8,1,1,0,0,0,.958.714H56a2,2,0,0,1,2,2Z"/><path d="M30,15A15,15,0,1,0,45,30,15.017,15.017,0,0,0,30,15Zm0,28A13,13,0,1,1,43,30,13.015,13.015,0,0,1,30,43Z"/><path d="M30,21a9,9,0,1,0,9,9A9.01,9.01,0,0,0,30,21Zm0,16a7,7,0,1,1,7-7A7.009,7.009,0,0,1,30,37Z"/></svg>
